<svg width="426" height="314" viewBox="0 0 426 314" fill="none" xmlns="http://www.w3.org/2000/svg">
<g clip-path="url(#clip0_1428_3887)">
<path opacity="0.15" d="M425.5 307.308C425.5 312.885 328.223 314 210.857 314C93.4912 314 0.5 312.885 0.5 307.308C0.5 301.757 95.5968 301.906 212.963 301.906C330.329 301.93 425.5 301.757 425.5 307.308Z" fill="#231F20"/>
<path d="M338.603 154.893H105.011C101.939 154.893 99.4619 152.415 99.4619 149.342V5.55138C99.4619 2.4783 101.939 0 105.011 0H338.603C341.675 0 344.152 2.4783 344.152 5.55138V149.367C344.152 152.415 341.65 154.893 338.603 154.893Z" fill="#213267"/>
<path d="M339.743 4.06445H103.871V146.616H339.743V4.06445Z" fill="#224192"/>
<path d="M151.63 140.346H112.814C111.724 140.346 110.832 139.454 110.832 138.363V10.4831C110.832 9.39267 111.724 8.50049 112.814 8.50049H151.63C152.72 8.50049 153.612 9.39267 153.612 10.4831V138.363C153.612 139.454 152.745 140.346 151.63 140.346Z" fill="#2D4C9D"/>
<path d="M133.893 20.1236H116.925C116.553 20.1236 116.231 19.8014 116.231 19.4297V17.9923C116.231 17.6205 116.553 17.2983 116.925 17.2983H133.893C134.29 17.2983 134.587 17.6205 134.587 17.9923V19.4297C134.587 19.8014 134.29 20.1236 133.893 20.1236Z" fill="white"/>
<path d="M143.01 26.5674H116.95C116.579 26.5674 116.257 26.2453 116.257 25.8735V24.4361C116.257 24.0396 116.579 23.7422 116.95 23.7422H143.035C143.406 23.7422 143.728 24.0644 143.728 24.4361V25.8735C143.703 26.2453 143.406 26.5674 143.01 26.5674Z" fill="white"/>
<path d="M138.278 33.0108H116.925C116.553 33.0108 116.231 32.6886 116.231 32.3169V30.8795C116.231 30.4829 116.553 30.1855 116.925 30.1855H138.278C138.649 30.1855 138.971 30.5077 138.971 30.8795V32.3169C138.971 32.6886 138.674 33.0108 138.278 33.0108Z" fill="white"/>
<path d="M126.983 39.4293H116.876C116.529 39.4293 116.257 39.1567 116.257 38.8097V37.2236C116.257 36.8766 116.529 36.604 116.876 36.604H126.983C127.33 36.604 127.602 36.8766 127.602 37.2236V38.8097C127.602 39.1567 127.33 39.4293 126.983 39.4293Z" fill="white"/>
<path d="M130.674 45.8731H116.95C116.579 45.8731 116.257 45.5509 116.257 45.1792V43.7418C116.257 43.37 116.579 43.0479 116.95 43.0479H130.674C131.045 43.0479 131.367 43.37 131.367 43.7418V45.1792C131.367 45.5757 131.045 45.8731 130.674 45.8731Z" fill="white"/>
<path d="M136.891 52.3165H116.925C116.529 52.3165 116.231 51.9943 116.231 51.6225V50.1851C116.231 49.7886 116.553 49.4912 116.925 49.4912H136.891C137.287 49.4912 137.584 49.8134 137.584 50.1851V51.6225C137.584 52.0191 137.287 52.3165 136.891 52.3165Z" fill="white"/>
<path d="M130.674 58.7603H116.95C116.579 58.7603 116.257 58.4381 116.257 58.0664V56.629C116.257 56.2325 116.579 55.9351 116.95 55.9351H130.674C131.045 55.9351 131.367 56.2572 131.367 56.629V58.0664C131.367 58.4381 131.045 58.7603 130.674 58.7603Z" fill="white"/>
<path d="M143.827 65.2037H116.95C116.579 65.2037 116.257 64.8815 116.257 64.5097V63.0723C116.257 62.6758 116.579 62.3784 116.95 62.3784H143.827C144.199 62.3784 144.521 62.7006 144.521 63.0723V64.5097C144.521 64.8815 144.199 65.2037 143.827 65.2037Z" fill="white"/>
<path d="M134.017 71.647H116.949C116.578 71.647 116.256 71.3248 116.256 70.9531V69.5157C116.256 69.1192 116.578 68.8218 116.949 68.8218H134.017C134.388 68.8218 134.71 69.144 134.71 69.5157V70.9531C134.71 71.3248 134.388 71.647 134.017 71.647Z" fill="white"/>
<path d="M144.521 78.0909H116.95C116.579 78.0909 116.257 77.7687 116.257 77.397V75.9595C116.257 75.5878 116.579 75.2656 116.95 75.2656H144.521C144.892 75.2656 145.214 75.5878 145.214 75.9595V77.397C145.214 77.7687 144.892 78.0909 144.521 78.0909Z" fill="white"/>
<path d="M135.752 84.5098H116.95C116.579 84.5098 116.257 84.1876 116.257 83.8159V82.3785C116.257 82.0067 116.579 81.6846 116.95 81.6846H135.752C136.123 81.6846 136.445 82.0067 136.445 82.3785V83.8159C136.445 84.2124 136.123 84.5098 135.752 84.5098Z" fill="white"/>
<path d="M127.602 90.9532H116.901C116.554 90.9532 116.257 90.6558 116.257 90.3088V88.7723C116.257 88.4253 116.554 88.1279 116.901 88.1279H127.602C127.949 88.1279 128.246 88.4253 128.246 88.7723V90.3088C128.246 90.6806 127.949 90.9532 127.602 90.9532Z" fill="white"/>
<path d="M194.336 20.1236H164.809C164.437 20.1236 164.115 19.8014 164.115 19.4297V17.9923C164.115 17.6205 164.437 17.2983 164.809 17.2983H194.361C194.732 17.2983 195.055 17.6205 195.055 17.9923V19.4297C195.03 19.8014 194.732 20.1236 194.336 20.1236Z" fill="white"/>
<path d="M182.916 25.6996H164.214C163.818 25.6996 163.521 25.3775 163.521 25.0057V23.5435C163.521 23.1718 163.843 22.8496 164.214 22.8496H182.916C183.288 22.8496 183.61 23.1718 183.61 23.5435V24.9809C183.61 25.3775 183.288 25.6996 182.916 25.6996Z" fill="white"/>
<path d="M192.032 31.9205H173.329C172.958 31.9205 172.636 31.5983 172.636 31.2265V29.7891C172.636 29.4174 172.958 29.0952 173.329 29.0952H192.032C192.403 29.0952 192.725 29.4174 192.725 29.7891V31.2265C192.725 31.5983 192.428 31.9205 192.032 31.9205Z" fill="white"/>
<path d="M207.39 37.5956H182.57C182.198 37.5956 181.876 37.2735 181.876 36.9017V35.4395C181.876 35.0678 182.198 34.7456 182.57 34.7456H207.39C207.762 34.7456 208.084 35.0678 208.084 35.4395V36.8769C208.084 37.2735 207.762 37.5956 207.39 37.5956Z" fill="white"/>
<path d="M201.842 43.2711H182.223C181.827 43.2711 181.529 42.9489 181.529 42.5771V41.1397C181.529 40.768 181.851 40.4458 182.223 40.4458H201.842C202.213 40.4458 202.535 40.768 202.535 41.1397V42.5771C202.535 42.9489 202.238 43.2711 201.842 43.2711Z" fill="white"/>
<path d="M194.286 60.6187H172.884C172.512 60.6187 172.19 60.2965 172.19 59.9248V58.4874C172.19 58.1156 172.512 57.7935 172.884 57.7935H194.286C194.658 57.7935 194.98 58.1156 194.98 58.4874V59.9248C194.98 60.2965 194.658 60.6187 194.286 60.6187Z" fill="white"/>
<path d="M209.52 72.4156H191.809C191.437 72.4156 191.115 72.0934 191.115 71.7217V70.2843C191.115 69.8877 191.437 69.5903 191.809 69.5903H209.52C209.892 69.5903 210.214 69.9125 210.214 70.2843V71.7217C210.214 72.0934 209.892 72.4156 209.52 72.4156Z" fill="white"/>
<path d="M220.272 78.2891H200.504C200.133 78.2891 199.811 77.9669 199.811 77.5952V76.1578C199.811 75.786 200.133 75.4639 200.504 75.4639H220.272C220.643 75.4639 220.965 75.786 220.965 76.1578V77.5952C220.965 77.9917 220.668 78.2891 220.272 78.2891Z" fill="#9D79B5"/>
<path d="M211.279 90.086H191.512C191.14 90.086 190.818 89.7638 190.818 89.3921V87.9547C190.818 87.5829 191.14 87.2607 191.512 87.2607H211.279C211.651 87.2607 211.973 87.5829 211.973 87.9547V89.3921C211.973 89.7886 211.651 90.086 211.279 90.086Z" fill="white"/>
<path d="M206.226 101.882H182.842C182.47 101.882 182.148 101.56 182.148 101.188V99.751C182.148 99.3793 182.47 99.0571 182.842 99.0571H206.226C206.598 99.0571 206.92 99.3793 206.92 99.751V101.188C206.92 101.56 206.622 101.882 206.226 101.882Z" fill="white"/>
<path d="M234.614 101.882H211.23C210.858 101.882 210.536 101.56 210.536 101.188V99.751C210.536 99.3793 210.858 99.0571 211.23 99.0571H234.614C234.985 99.0571 235.307 99.3793 235.307 99.751V101.188C235.307 101.56 235.01 101.882 234.614 101.882Z" fill="#F48E8E"/>
<path d="M269.145 101.882H239.643C239.271 101.882 238.949 101.56 238.949 101.188V99.751C238.949 99.3793 239.271 99.0571 239.643 99.0571H269.145C269.517 99.0571 269.839 99.3793 269.839 99.751V101.188C269.839 101.56 269.517 101.882 269.145 101.882Z" fill="#9D79B5"/>
<path d="M226.142 84.1876H200.33C199.959 84.1876 199.637 83.8654 199.637 83.4936V82.0562C199.637 81.6597 199.959 81.3623 200.33 81.3623H226.142C226.514 81.3623 226.836 81.6845 226.836 82.0562V83.4936C226.836 83.8902 226.514 84.1876 226.142 84.1876Z" fill="white"/>
<path d="M298.227 84.1876H242.566C242.194 84.1876 241.872 83.8654 241.872 83.4936V82.0562C241.872 81.6597 242.194 81.3623 242.566 81.3623H298.202C298.573 81.3623 298.895 81.6845 298.895 82.0562V83.4936C298.92 83.8902 298.598 84.1876 298.227 84.1876Z" fill="white"/>
<path d="M276.601 78.2891H256.833C256.437 78.2891 256.14 77.9669 256.14 77.5952V76.1578C256.14 75.786 256.462 75.4639 256.833 75.4639H276.601C276.972 75.4639 277.294 75.786 277.294 76.1578V77.5952C277.294 77.9917 276.972 78.2891 276.601 78.2891Z" fill="#9D79B5"/>
<path d="M253.812 78.2891H224.953C224.582 78.2891 224.26 77.9669 224.26 77.5952V76.1578C224.26 75.7613 224.582 75.4639 224.953 75.4639H253.812C254.183 75.4639 254.505 75.786 254.505 76.1578V77.5952C254.505 77.9917 254.208 78.2891 253.812 78.2891Z" fill="#F48E8E"/>
<path d="M259.385 72.4156H241.674C241.302 72.4156 240.98 72.0934 240.98 71.7217V70.2843C240.98 69.9125 241.302 69.5903 241.674 69.5903H259.385C259.757 69.5903 260.079 69.9125 260.079 70.2843V71.7217C260.079 72.0934 259.757 72.4156 259.385 72.4156Z" fill="white"/>
<path d="M235.307 72.4156H214.994C214.623 72.4156 214.301 72.0934 214.301 71.7217V70.2843C214.301 69.9125 214.623 69.5903 214.994 69.5903H235.307C235.678 69.5903 236 69.9125 236 70.2843V71.7217C236 72.0934 235.703 72.4156 235.307 72.4156Z" fill="#F48E8E"/>
<path d="M216.382 66.5171H182.346C181.974 66.5171 181.652 66.195 181.652 65.8232V64.3858C181.652 64.0141 181.974 63.6919 182.346 63.6919H216.382C216.778 63.6919 217.075 64.0141 217.075 64.3858V65.8232C217.075 66.195 216.778 66.5171 216.382 66.5171Z" fill="white"/>
<path d="M230.923 66.5175H222.054C221.732 66.5175 221.46 66.2449 221.46 65.9227V64.2623C221.46 63.9401 221.732 63.6675 222.054 63.6675H230.923C231.245 63.6675 231.517 63.9401 231.517 64.2623V65.9227C231.517 66.2449 231.245 66.5175 230.923 66.5175Z" fill="#1D9BC2"/>
<path d="M195.376 95.9844H182.916C182.545 95.9844 182.223 95.6623 182.223 95.2905V93.8531C182.223 93.4814 182.545 93.1592 182.916 93.1592H195.376C195.748 93.1592 196.07 93.4814 196.07 93.8531V95.2905C196.07 95.6623 195.773 95.9844 195.376 95.9844Z" fill="white"/>
<path d="M206.225 107.013H191.487C191.115 107.013 190.793 106.691 190.793 106.319V104.881C190.793 104.51 191.115 104.188 191.487 104.188H206.225C206.597 104.188 206.919 104.51 206.919 104.881V106.319C206.919 106.691 206.622 107.013 206.225 107.013Z" fill="white"/>
<path d="M196.763 112.911H182.842C182.47 112.911 182.148 112.589 182.148 112.217V110.779C182.148 110.383 182.47 110.085 182.842 110.085H196.763C197.135 110.085 197.457 110.408 197.457 110.779V112.217C197.457 112.589 197.16 112.911 196.763 112.911Z" fill="white"/>
<path d="M196.12 118.785H182.198C181.827 118.785 181.505 118.463 181.505 118.091V116.653C181.505 116.282 181.827 115.959 182.198 115.959H196.12C196.491 115.959 196.814 116.282 196.814 116.653V118.091C196.814 118.487 196.491 118.785 196.12 118.785Z" fill="white"/>
<path d="M211.997 124.584H191.487C191.115 124.584 190.793 124.262 190.793 123.89V122.428C190.793 122.056 191.115 121.734 191.487 121.734H211.997C212.369 121.734 212.691 122.056 212.691 122.428V123.865C212.691 124.262 212.393 124.584 211.997 124.584Z" fill="white"/>
<path d="M246.851 130.358H191.512C191.14 130.358 190.818 130.036 190.818 129.664V128.227C190.818 127.855 191.14 127.533 191.512 127.533H246.876C247.247 127.533 247.569 127.855 247.569 128.227V129.664C247.544 130.061 247.247 130.358 246.851 130.358Z" fill="white"/>
<path d="M217.893 124.584H244.893C245.265 124.584 245.587 124.262 245.587 123.89V122.428C245.587 122.056 245.265 121.734 244.893 121.734H217.893C217.521 121.734 217.199 122.056 217.199 122.428V123.865C217.199 124.262 217.521 124.584 217.893 124.584Z" fill="#F48E8E"/>
<path d="M259.905 130.358H298.202C298.573 130.358 298.895 130.036 298.895 129.664V128.227C298.895 127.855 298.573 127.533 298.202 127.533H259.905C259.534 127.533 259.212 127.855 259.212 128.227V129.664C259.212 130.061 259.534 130.358 259.905 130.358Z" fill="white"/>
<path d="M249.873 124.584H264.761C265.132 124.584 265.454 124.262 265.454 123.89V122.428C265.454 122.056 265.132 121.734 264.761 121.734H249.873C249.477 121.734 249.18 122.056 249.18 122.428V123.865C249.18 124.262 249.477 124.584 249.873 124.584Z" fill="#FBF393"/>
<path d="M226.192 118.785H202.065C201.693 118.785 201.371 118.463 201.371 118.091V116.653C201.371 116.282 201.693 115.959 202.065 115.959H226.192C226.588 115.959 226.885 116.282 226.885 116.653V118.091C226.885 118.487 226.588 118.785 226.192 118.785Z" fill="#F48E8E"/>
<path d="M248.486 118.785H230.725C230.353 118.785 230.031 118.463 230.031 118.091V116.653C230.031 116.282 230.353 115.959 230.725 115.959H248.486C248.857 115.959 249.179 116.282 249.179 116.653V118.091C249.179 118.487 248.857 118.785 248.486 118.785Z" fill="#2BB99B"/>
<path d="M263.151 118.785H255.298C255.001 118.785 254.729 118.537 254.729 118.215V116.505C254.729 116.207 254.976 115.935 255.298 115.935H263.151C263.448 115.935 263.72 116.182 263.72 116.505V118.215C263.72 118.537 263.473 118.785 263.151 118.785Z" fill="#1D9BC2"/>
<path d="M297.409 107.012H212.047C211.23 107.012 210.536 106.368 210.536 105.6C210.536 104.807 211.205 104.187 212.047 104.187H297.409C298.226 104.187 298.92 104.831 298.92 105.6C298.92 106.368 298.251 107.012 297.409 107.012Z" fill="white"/>
<path d="M271.795 72.4156H264.191C263.819 72.4156 263.497 72.0934 263.497 71.7217V70.2843C263.497 69.9125 263.819 69.5903 264.191 69.5903H271.795C272.167 69.5903 272.489 69.9125 272.489 70.2843V71.7217C272.489 72.0934 272.167 72.4156 271.795 72.4156Z" fill="#1D9BC2"/>
<path d="M238.206 84.1876H230.601C230.204 84.1876 229.907 83.8654 229.907 83.4936V82.0562C229.907 81.6597 230.229 81.3623 230.601 81.3623H238.206C238.577 81.3623 238.899 81.6845 238.899 82.0562V83.4936C238.899 83.8902 238.577 84.1876 238.206 84.1876Z" fill="white"/>
<path d="M289.135 78.2891H282.026C281.629 78.2891 281.332 77.9669 281.332 77.5952V76.1578C281.332 75.786 281.654 75.4639 282.026 75.4639H289.135C289.507 75.4639 289.829 75.786 289.829 76.1578V77.5952C289.829 77.9917 289.531 78.2891 289.135 78.2891Z" fill="#1D9BC2"/>
<path d="M252.177 60.6187H201.495C201.124 60.6187 200.802 60.2965 200.802 59.9248V58.4874C200.802 58.1156 201.124 57.7935 201.495 57.7935H252.177C252.549 57.7935 252.871 58.1156 252.871 58.4874V59.9248C252.871 60.2965 252.549 60.6187 252.177 60.6187Z" fill="white"/>
<path d="M186.607 55.1666H172.884C172.512 55.1666 172.19 54.8444 172.19 54.4726V53.0352C172.19 52.6635 172.512 52.3413 172.884 52.3413H186.607C186.979 52.3413 187.301 52.6635 187.301 53.0352V54.4726C187.301 54.8444 187.004 55.1666 186.607 55.1666Z" fill="white"/>
<path d="M272.811 43.2709H264.166C263.844 43.2709 263.571 42.9983 263.571 42.6761V41.0157C263.571 40.6935 263.844 40.4209 264.166 40.4209H272.811C273.133 40.4209 273.405 40.6935 273.405 41.0157V42.6761C273.405 42.9983 273.158 43.2709 272.811 43.2709Z" fill="#F7F081"/>
<path d="M298.102 25.6996H289.457C289.135 25.6996 288.862 25.427 288.862 25.1049V23.4444C288.862 23.1222 289.135 22.8496 289.457 22.8496H298.102C298.424 22.8496 298.697 23.1222 298.697 23.4444V25.1049C298.697 25.427 298.424 25.6996 298.102 25.6996Z" fill="#2BB99B"/>
<path d="M298.673 43.2711H276.057C275.661 43.2711 275.363 42.9489 275.363 42.5771V41.1397C275.363 40.768 275.685 40.4458 276.057 40.4458H298.673C299.045 40.4458 299.367 40.768 299.367 41.1397V42.5771C299.367 42.9489 299.069 43.2711 298.673 43.2711Z" fill="#F48E8E"/>
<path d="M258.865 43.2706H208.778C208.406 43.2706 208.084 42.9484 208.084 42.5766V41.1392C208.084 40.7675 208.406 40.4453 208.778 40.4453H258.865C259.237 40.4453 259.559 40.7675 259.559 41.1392V42.5766C259.559 42.9484 259.237 43.2706 258.865 43.2706Z" fill="#F48E8E"/>
<path d="M235.307 48.9463H182.346C181.974 48.9463 181.652 48.6242 181.652 48.2524V46.815C181.652 46.4433 181.974 46.1211 182.346 46.1211H235.307C235.678 46.1211 236 46.4433 236 46.815V48.2524C236 48.6242 235.703 48.9463 235.307 48.9463Z" fill="white"/>
<path d="M230.353 37.5956H212.939C212.542 37.5956 212.245 37.2735 212.245 36.9017V35.4395C212.245 35.043 212.567 34.7456 212.939 34.7456H230.353C230.724 34.7456 231.046 35.0678 231.046 35.4395V36.8769C231.046 37.2735 230.749 37.5956 230.353 37.5956Z" fill="#F48E8E"/>
<path d="M250.442 25.6996H191.809C191.437 25.6996 191.115 25.3775 191.115 25.0057V23.5435C191.115 23.1718 191.437 22.8496 191.809 22.8496H250.442C250.814 22.8496 251.136 23.1718 251.136 23.5435V24.9809C251.136 25.3775 250.814 25.6996 250.442 25.6996Z" fill="#F48E8E"/>
<path d="M275.709 25.6996H257.478C257.081 25.6996 256.784 25.3775 256.784 25.0057V23.5435C256.784 23.1718 257.106 22.8496 257.478 22.8496H275.709C276.081 22.8496 276.403 23.1718 276.403 23.5435V24.9809C276.403 25.3775 276.106 25.6996 275.709 25.6996Z" fill="white"/>
<path d="M110.163 150.705C110.163 151.325 109.643 151.82 108.974 151.82C108.33 151.82 107.785 151.325 107.785 150.705C107.785 150.086 108.305 149.59 108.974 149.59C109.643 149.59 110.163 150.086 110.163 150.705Z" fill="white"/>
<path d="M114.151 150.705C114.151 151.325 113.631 151.82 112.962 151.82C112.318 151.82 111.773 151.325 111.773 150.705C111.773 150.086 112.294 149.59 112.962 149.59C113.607 149.59 114.151 150.086 114.151 150.705Z" fill="white"/>
<path d="M118.115 150.705C118.115 151.325 117.595 151.82 116.926 151.82C116.282 151.82 115.737 151.325 115.737 150.705C115.737 150.086 116.257 149.59 116.926 149.59C117.595 149.59 118.115 150.086 118.115 150.705Z" fill="white"/>
<path d="M362.606 96.5793H325.672C324.161 96.5793 322.947 95.365 322.947 93.8532V61.0406C322.947 59.5288 324.161 58.3145 325.672 58.3145H362.606C364.117 58.3145 365.331 59.5288 365.331 61.0406V93.8532C365.331 95.365 364.117 96.5793 362.606 96.5793Z" fill="#1375B7"/>
<path d="M361.046 94.7206H325.574C324.137 94.7206 322.973 93.5558 322.973 92.1184V60.9167C322.973 59.4793 324.137 58.3145 325.574 58.3145H361.046C362.483 58.3145 363.647 59.4793 363.647 60.9167V92.0936C363.647 93.531 362.483 94.7206 361.046 94.7206Z" fill="white"/>
<path d="M351.138 75.1667L347.348 81.8581L339.495 67.9053L322.973 92.5891C323.097 93.9026 324.186 94.9683 325.549 94.9683H361.021C362.458 94.9683 363.647 93.8035 363.647 92.3413V88.6734L351.138 75.1667Z" fill="#3885C6"/>
<path d="M357.676 66.9881C357.676 68.7477 356.264 70.1604 354.506 70.1604C352.747 70.1604 351.335 68.7477 351.335 66.9881C351.335 65.2285 352.747 63.8159 354.506 63.8159C356.264 63.8407 357.676 65.2533 357.676 66.9881Z" fill="#3885C6"/>
<path d="M113.828 122.354H78.7523C77.3156 122.354 76.1514 121.189 76.1514 119.751V88.5993C76.1514 87.1619 77.3156 85.9971 78.7523 85.9971H113.828C115.265 85.9971 116.429 87.1619 116.429 88.5993V119.751C116.405 121.189 115.24 122.354 113.828 122.354Z" fill="#1375B7"/>
<path d="M112.317 120.569H78.6285C77.2661 120.569 76.1514 119.454 76.1514 118.091V88.4754C76.1514 87.1123 77.2661 85.9971 78.6285 85.9971H112.317C113.68 85.9971 114.794 87.1123 114.794 88.4754V118.091C114.794 119.454 113.705 120.569 112.317 120.569Z" fill="white"/>
<path d="M102.929 102.007L99.3375 108.376L91.8814 95.1172L76.2012 118.537C76.325 119.801 77.3406 120.792 78.6287 120.792H112.318C113.68 120.792 114.795 119.677 114.795 118.314V114.844L102.929 102.007Z" fill="#3885C6"/>
<path d="M109.147 94.2497C109.147 95.9102 107.809 97.2484 106.15 97.2484C104.49 97.2484 103.152 95.9102 103.152 94.2497C103.152 92.5892 104.49 91.251 106.15 91.251C107.809 91.251 109.147 92.5892 109.147 94.2497Z" fill="#3885C6"/>
<path d="M378.955 283.219C378.955 283.219 380.02 277.197 378.98 273.356C377.964 269.514 383.984 266.863 379.723 262.278C379.723 262.278 379.772 265.425 376.28 264.31C376.28 264.31 378.782 256.949 371.87 253.802C371.87 253.802 374.496 261.807 370.88 261.014C367.263 260.221 371.276 254.868 366.941 252.464C362.581 250.06 358.073 252.018 361.442 257.842C364.811 263.666 364.216 264.93 358.444 262.476C358.444 262.476 357.503 266.987 361.07 270.258C364.612 273.504 374.818 283.517 378.955 283.219Z" fill="#82B146"/>
<path d="M377.518 284.682C377.518 284.682 377.989 275.14 381.011 270.184C384.033 265.227 380.689 261.014 378.633 259.725C376.577 258.437 382.249 243.839 378.658 243.542C375.066 243.245 369.22 242.898 371.623 252.538C374.025 262.179 375.759 261.039 374.694 270.382C373.654 279.725 374.273 283.988 377.518 284.682Z" fill="#7E9E3E"/>
<path d="M375.066 284.087C375.066 284.087 381.457 277.247 383.761 265.822C386.065 254.397 395.057 262.03 392.035 268.399C388.988 274.768 385.668 284.31 375.066 284.087Z" fill="#82B146"/>
<path d="M363.226 287.433H392.084C392.357 287.433 392.555 287.21 392.555 286.962V280.543C392.555 280.271 392.332 280.072 392.084 280.072H363.226C362.953 280.072 362.755 280.295 362.755 280.543V286.962C362.755 287.21 362.953 287.433 363.226 287.433Z" fill="#D0D1E9"/>
<path d="M385.569 305.029L389.557 287.433H365.752L370.236 305.029H385.569Z" fill="#D0D1E9"/>
<path d="M372.044 303.888C374.248 304.31 385.247 305.128 385.247 305.128H370.236L365.752 287.507H384.429C384.429 287.507 367.635 288.523 368.13 289.886C368.625 291.249 369.839 303.442 372.044 303.888Z" fill="#A7A7D3"/>
<path d="M242.317 148.995C243.283 146.393 238.007 144.484 238.007 144.484C238.007 144.484 239.592 142.105 240.905 140.296C242.218 138.462 240.781 138.908 240.781 138.908C236.496 141.535 232.012 146.368 232.062 149.069C232.111 151.77 229.758 153.902 229.758 153.902L234.217 157.099C234.217 157.099 237.784 153.555 238.502 152.737C239.22 151.944 241.351 151.597 242.317 148.995Z" fill="#FCC596"/>
<path d="M229.733 152.068L231.22 149.714C231.22 149.714 235.827 152.291 237.09 155.86L234.787 157.421L229.733 152.068Z" fill="#F8E8D8"/>
<path d="M203.996 141.659C204.888 143.617 213.508 164.484 213.508 164.484C213.508 164.484 215.936 161.808 215.737 164.484L229.362 150.507C229.362 150.507 235.629 152.638 236.149 158.165C236.149 158.165 219.23 181.436 213.087 182.08C206.944 182.7 201.37 165.426 201.37 165.426L203.996 141.659Z" fill="#3E3533"/>
<path d="M203.996 141.659C204.888 143.617 213.508 164.484 213.508 164.484C213.508 164.484 215.936 161.808 215.737 164.484L229.362 150.507C229.362 150.507 235.629 152.638 236.149 158.165C236.149 158.165 219.23 181.436 213.087 182.08C206.944 182.7 201.37 165.426 201.37 165.426L203.996 141.659Z" fill="#4484E0"/>
<path d="M173.65 298.783L174.716 292.885L181.255 293.876L180.908 299.403C180.908 299.403 179.67 301.881 176.251 301.931C172.808 302.005 173.65 298.783 173.65 298.783Z" fill="#3F4752"/>
<path d="M202.782 295.041L202.584 299.824L203.823 302.947L209.223 301.187L210.387 297.618L210.783 292.092L202.782 295.041Z" fill="#3F4752"/>
<path d="M222.847 303.17C221.187 302.303 215.861 300.667 212.145 297.619C211.724 297.297 211.204 297.173 210.684 297.247C210.684 297.247 210.411 297.297 210.387 297.297C210.387 297.297 209.891 299.874 207.166 300.766C205.309 301.386 202.559 299.775 202.559 299.775L202.063 306.565H223.342C223.788 306.342 223.912 305.871 223.912 305.871C223.912 305.871 224.977 304.285 222.847 303.17Z" fill="#2D313D"/>
<path d="M203.822 186.938C203.822 186.938 207.116 230.06 207.438 234.001C207.76 237.916 211.773 296.305 211.773 296.305C206.745 298.337 201.32 296.776 201.32 296.776L192.526 237.916L186.729 206.516L184.773 205.971C184.773 205.971 184.104 244.186 184.104 243.988C184.079 243.79 183.261 295.289 183.261 295.289C178.382 297.817 171.619 295.091 171.619 295.091C171.619 295.091 169.513 245.128 168.919 242.204C168.324 239.279 168.176 183.245 168.176 183.245L203.822 186.938Z" fill="#3F4752"/>
<path d="M204.813 198.214C197.629 200.693 181.379 204.41 168.151 198.983C168.127 195.587 168.176 191.077 168.176 188.673L204.218 191.82C204.392 193.927 204.59 195.315 204.813 198.214Z" fill="#2D4F9F"/>
<path d="M202.658 183.047C202.385 182.031 202.162 181.386 202.162 181.386L170.331 182.7C170.331 182.7 170.208 183.344 170.034 184.459C170.183 184.682 170.331 184.831 170.331 184.831C184.525 190.63 194.805 190.63 202.658 183.047Z" fill="#330E00"/>
<path d="M163.297 155.959L168.87 176.455L166.046 195.612C166.046 195.612 189.431 206.269 205.235 195.959L203.823 152.068L163.297 155.959Z" fill="#346ED8"/>
<path d="M198.72 137.967C199.984 138.487 208.579 140.842 203.823 152.068L202.362 182.353C202.362 182.353 203.972 187.012 202.956 188.004C195.104 195.612 184.824 195.612 170.605 189.813C170.605 189.813 169.862 188.846 169.763 188.474C169.243 186.417 170.977 180.668 170.977 180.668L163.025 155.959C163.025 155.959 155.197 145.303 160.375 141.436C168.524 135.34 185.344 132.341 198.72 137.967Z" fill="#4484E0"/>
<path d="M205.234 195.959L204.417 170.383C200.751 174.695 198.596 179.28 196.614 184.583C188.217 180.222 180.884 173.852 175.36 166.17C177.441 171.721 179.497 177.248 181.578 182.799C176.203 176.479 167.731 159.454 162.355 153.159L168.87 176.479L166.046 195.637C166.046 195.637 189.43 206.293 205.234 195.959Z" fill="#346ED8"/>
<path d="M190.569 134.299C190.569 134.299 193.715 134.175 194.285 134.522C194.854 134.869 196.291 138.983 196.564 139.652C196.861 140.296 192.749 144.138 192.749 144.138C192.749 144.138 196.142 149.689 195.994 150.135C195.845 150.581 189.851 174.869 189.851 174.869C189.851 174.869 175.31 153.183 175.013 152.093C174.715 151.027 176.4 145.426 176.4 145.426C176.4 145.426 172.09 142.254 171.842 141.56C171.569 140.866 171.024 136.455 171.842 135.885C172.337 135.538 175.236 134.894 175.236 134.894L190.569 134.299Z" fill="#5E9EEA"/>
<path d="M175.236 135.91C175.236 135.91 179.695 147.409 183.609 157.545C186.705 165.526 190.099 157.174 190.099 157.174L191.065 134.324C190.842 134.299 190.396 134.25 190.198 134.25L175.236 135.91Z" fill="#F8E8D8"/>
<path d="M189.975 141.635C190.867 141.412 190.916 138.636 190.916 138.636L191.09 134.398C191.09 134.373 191.065 134.349 191.065 134.324C190.842 134.299 190.421 134.25 190.223 134.25L176.425 135.786C176.475 135.96 175.93 137.1 176.029 137.422C176.821 139.776 179.398 143.171 179.918 143.246C180.512 143.345 182.073 141.585 182.271 140.99C182.593 141.288 183.138 142.13 183.46 142.428C183.633 146.542 183.485 151.945 183.411 156.951C185.789 163.122 188.018 168.871 188.984 171.35C189.157 171.573 189.331 171.796 189.504 172.019L190.024 159.801C188.464 153.927 186.903 148.029 185.367 142.155C185.863 141.486 186.507 140.966 187.002 140.297C187.795 141.09 188.811 141.635 189.975 141.635Z" fill="url(#paint0_linear_1428_3887)"/>
<path d="M187.176 137.025C185.689 137.744 182.147 138.016 180.512 137.992C178.109 137.942 179.15 136.653 178.357 136.405L174.716 126.244L185.169 125.6L185.714 126.22L187.176 137.025Z" fill="#D38753"/>
<path d="M190.124 157.198L185.467 141.461L187.498 139.181L184.03 137.05L181.38 139.503L183.857 141.684C183.857 141.684 183.262 148.97 183.634 157.57C186.73 165.55 189.48 172.663 189.48 172.663L190.124 157.198Z" fill="url(#paint1_linear_1428_3887)"/>
<path d="M176.574 132.564C176.574 132.564 182.519 137.174 183.857 136.951C185.219 136.727 187.077 133.778 187.077 133.778C187.077 133.778 190.471 133.679 191.065 134.348C191.66 135.017 190.471 140.965 189.827 141.288C188.489 141.957 184.476 137.471 183.758 138.041C183.015 138.611 180.959 142.452 180.29 142.353C179.596 142.279 174.171 136.926 174.493 134.943C174.815 132.96 176.574 132.564 176.574 132.564Z" fill="#F8E8D8"/>
<path d="M179.471 299.75C176.895 297.247 174.616 299.353 174.616 299.353L173.65 298.783C172.238 300.964 169.513 303.591 169.167 304.855C168.523 307.284 169.662 310.109 173.477 310.109C177.192 310.109 180.76 307.78 181.156 305.871C181.404 304.731 181.007 301.658 180.883 299.378L179.471 299.75Z" fill="#2D313D"/>
<path d="M192.526 237.917L192.353 236.975C194.26 243.889 196.96 253.208 197.431 253.233C198.199 253.282 205.803 252.018 206.15 250.977C206.299 250.506 206.943 243.493 207.587 235.835C208.38 246.616 211.798 296.305 211.798 296.305C206.769 298.338 201.344 296.776 201.344 296.776L192.526 237.917Z" fill="#2F3740"/>
<path d="M171.619 295.091C171.619 295.091 171.619 295.041 171.619 294.992C171.619 294.967 171.619 294.967 171.619 294.942C171.619 294.893 171.619 294.818 171.619 294.744C171.619 294.521 171.594 294.199 171.57 293.802C171.57 293.703 171.57 293.604 171.545 293.505C171.545 293.331 171.52 293.108 171.52 292.91C171.52 292.836 171.52 292.737 171.52 292.662C171.495 292.191 171.47 291.646 171.446 291.051C171.446 290.952 171.446 290.853 171.421 290.754C171.396 290.407 171.396 290.06 171.371 289.688V289.664C171.347 289.267 171.347 288.87 171.322 288.449C171.322 288.375 171.322 288.325 171.322 288.251C171.272 287.21 171.223 286.07 171.173 284.856C171.173 284.732 171.173 284.608 171.148 284.509C171.049 282.427 170.95 280.172 170.851 277.768C170.851 277.718 170.851 277.693 170.851 277.644C170.802 276.752 170.777 275.835 170.727 274.918C170.727 274.893 170.727 274.868 170.727 274.819C170.381 267.161 169.984 258.784 169.637 252.415V252.39C169.538 250.804 169.464 249.342 169.39 248.028C170.95 249.193 173.576 251.002 174.641 250.977C176.202 250.928 181.453 246.516 181.775 244.559C182.023 242.997 183.807 228.276 184.525 222.452C184.351 232.762 184.153 244.088 184.129 243.989C184.129 243.989 184.129 244.063 184.129 244.187C184.129 244.212 184.129 244.236 184.129 244.286C184.129 244.881 184.104 246.293 184.054 248.276C184.054 248.4 184.054 248.524 184.054 248.623C184.054 249.342 184.029 250.159 184.005 251.002C184.005 251.3 184.005 251.572 183.98 251.894C183.955 253.084 183.93 254.397 183.906 255.785C183.906 255.959 183.906 256.132 183.906 256.306C183.658 271.498 183.286 295.289 183.286 295.289C182.37 295.76 181.379 296.058 180.388 296.206C180.066 296.256 179.719 296.305 179.397 296.33C179.075 296.355 178.728 296.355 178.406 296.38C178.084 296.38 177.762 296.38 177.44 296.355C177.118 296.33 176.821 296.305 176.499 296.281C176.202 296.256 175.904 296.206 175.607 296.157C175.186 296.082 174.765 296.008 174.393 295.934C174.146 295.884 173.898 295.81 173.675 295.76C172.412 295.413 171.619 295.091 171.619 295.091Z" fill="#2F3740"/>
<path d="M188.86 187.334L149.028 190.432L150.985 216.306L191.065 212.588L188.86 187.334Z" fill="#E79355"/>
<path d="M166.79 189.044C167.682 192.514 167.384 196.256 167.508 199.875C167.657 204.137 168.772 208.846 172.339 211.176C175.658 213.332 180.092 212.687 183.808 211.275C186.211 210.358 188.514 209.168 190.645 207.706L191.066 212.563L161.861 215.265C162.034 213.233 161.514 211.151 160.969 209.143C159.309 202.824 157.625 196.479 155.965 190.16C155.94 190.061 155.915 189.961 155.891 189.862L166.79 189.044Z" fill="#B07347"/>
<path d="M161.761 204.806C161.761 204.806 162.256 207.458 162.306 208.548C162.355 209.639 162.33 210.903 162.776 212.588C163.197 214.273 161.612 213.926 163.643 215.76C165.675 217.594 165.724 216.429 165.997 218.065C166.269 219.701 168.895 218.957 168.895 218.957C168.895 218.957 169.291 219.924 170.728 220.494C172.165 221.064 172.264 220.419 173.255 216.355C173.255 216.355 176.054 215.339 175.707 214.348C175.385 213.356 168.276 209.465 168.276 209.465L166.22 204.112L161.761 204.806Z" fill="#FFBD9B"/>
<path d="M160.547 207.136L161.265 210.705C161.265 210.705 168.498 209.714 170.53 208.425L169.613 203.989L160.547 207.136Z" fill="#F8E8D8"/>
<path d="M154.206 172.638C154.206 172.638 154.454 147.88 159.457 142.329L168.127 153.555L166.542 176.405C166.715 180.891 171.149 205.773 171.149 205.773C171.149 205.773 165.452 208.301 159.433 208.697C159.457 208.697 153.909 180.023 154.206 172.638Z" fill="#4484E0"/>
<path d="M175.236 124.014C175.236 124.014 171.247 123.618 171.347 119.975C171.446 116.431 175.979 117.224 176.895 120.916C176.92 120.991 177.019 120.991 177.044 120.916C177.267 119.851 177.985 116.629 178.976 115.811C178.976 115.811 177.415 110.532 181.106 108.921C184.797 107.335 193.616 107.211 193.789 112.961C193.963 118.736 193.294 120.495 193.17 123.172C193.021 125.848 188.835 133.754 187.076 134.324C185.318 134.894 176.672 129.516 175.335 128.178C173.972 126.815 175.236 124.014 175.236 124.014Z" fill="#F4BE84"/>
<path d="M199.908 106.071C199.908 106.071 198.323 106.418 197.357 105.823C197.357 105.823 199.314 101.04 198.026 99.0327C198.026 99.0327 195.128 102.502 186.482 100.842C177.837 99.1814 170.01 101.932 167.83 109.293C165.65 116.653 171.099 126.74 174.865 127.384C174.369 125.947 175.236 123.989 175.236 123.989C175.236 123.989 171.248 123.593 171.347 119.95C171.446 116.406 175.979 117.199 176.896 120.891C176.921 120.966 177.02 120.966 177.045 120.891C177.267 119.85 177.986 116.604 178.977 115.786C178.977 115.786 177.416 110.507 181.107 108.896C184.798 107.31 193.617 107.186 193.79 112.936C193.815 113.531 193.815 114.076 193.815 114.572C193.815 114.621 200.429 112.391 199.908 106.071Z" fill="#3E3533"/>
<path d="M311.329 303.309V253.669H308.134V303.309H311.329Z" fill="#A5C0D7"/>
<path d="M309.303 303.329V253.689H308.138V303.329H309.303Z" fill="#8394B4"/>
<path d="M311.478 266.366L314.005 254.421H305.459L307.986 266.366H311.478Z" fill="#8394B4"/>
<path d="M291.835 306.118H327.629V305.127L313.262 302.723H306.227L291.835 305.127V306.118Z" fill="#A5C0D7"/>
<path d="M305.385 303.021H314.104L312.469 292.835H306.995L305.385 303.021Z" fill="#A5C0D7"/>
<path d="M312.469 292.835H306.995L305.385 303.021L291.835 305.127H315.714L311.479 303.318L310.339 293.727L312.469 292.835Z" fill="#8394B4"/>
<path d="M317.399 247.475H323.592V238.181H317.399V247.475Z" fill="#8394B4"/>
<path d="M286.707 251.571H332.757C332.757 249.093 330.75 247.061 328.248 247.061H291.215C288.738 247.061 286.707 249.068 286.707 251.571Z" fill="#3D4359"/>
<path d="M291.215 247.061H310.587C308.109 247.061 306.078 249.068 306.078 251.571H286.707C286.707 249.068 288.738 247.061 291.215 247.061Z" fill="#323749"/>
<path d="M332.682 250.778C332.732 251.026 332.757 251.299 332.757 251.571H286.707C286.707 251.299 286.732 251.051 286.781 250.778H332.682Z" fill="#323749"/>
<path d="M284.906 257.468H334.548V251.396H284.906V257.468Z" fill="#3D4359"/>
<path d="M284.91 257.468H316.988V251.396H284.91V257.468Z" fill="#323749"/>
<path d="M284.906 252.119H334.548V251.376H284.906V252.119Z" fill="#323749"/>
<path d="M316.679 264.062C318.934 264.062 323.393 262.525 323.962 262.327C324.111 262.277 324.185 262.129 324.136 261.98C324.086 261.831 323.937 261.757 323.789 261.807C322.055 262.426 317.274 263.888 316.011 263.417C314.97 263.046 314.846 259.403 314.995 257.197C314.995 257.048 314.896 256.924 314.747 256.924H314.723C314.574 256.924 314.475 257.023 314.45 257.172C314.401 257.792 314.029 263.294 315.813 263.938C316.06 264.012 316.333 264.062 316.679 264.062Z" fill="#323749"/>
<path d="M325.3 259.998C324.136 260.295 322.427 261.534 322.675 262.451C322.922 263.368 325.003 263.591 326.167 263.269C327.332 262.972 328.075 261.981 327.827 261.088C327.604 260.171 326.465 259.676 325.3 259.998Z" fill="#323749"/>
<path d="M300.876 213.43C300.876 233.728 310.14 241.732 321.535 241.732C332.955 241.732 342.194 233.728 342.194 213.43C342.194 193.133 332.93 168.251 321.535 168.251C310.116 168.226 300.876 193.133 300.876 213.43Z" fill="#323749"/>
<path d="M298.795 213.133C298.795 232.761 307.737 240.493 318.785 240.493C329.809 240.493 338.776 232.761 338.776 213.133C338.776 193.505 329.833 169.44 318.785 169.44C307.737 169.465 298.795 193.529 298.795 213.133Z" fill="#3D4359"/>
<path d="M278.358 294.743L279.052 299.105L284.725 299.353L284.576 294.347L278.358 294.743Z" fill="#FBCEBF"/>
<path d="M286.286 305.895L268.079 306.118C268.079 306.118 267.435 302.351 270.036 302.55C272.637 302.748 275.833 300.84 277.616 298.956C279.4 297.073 284.949 297.841 285.642 298.857C286.361 299.898 286.286 305.895 286.286 305.895Z" fill="#19232D"/>
<path d="M246.826 294.273L246.281 298.733L251.954 298.981L252.647 293.975L246.826 294.273Z" fill="#FBCEBF"/>
<path d="M253.514 305.524L235.307 305.747C235.307 305.747 234.663 301.98 237.264 302.178C239.865 302.376 243.06 300.468 244.844 298.585C246.627 296.701 252.176 297.469 252.87 298.485C253.588 299.526 253.514 305.524 253.514 305.524Z" fill="#19232D"/>
<path d="M267.46 206.467L288.837 203.121C289.853 203.121 290.547 200.097 291.24 196.083L299.786 199.503C298.102 207.309 294.708 213.951 289.531 213.232C282.174 212.241 266.865 211.274 266.865 211.274L267.46 206.467Z" fill="#E0BC9B"/>
<path d="M284.576 227.928C296.714 224.013 303.997 227.978 304.096 244.954L255.569 245.103C255.569 245.103 255.941 236.478 259.83 233.604C261.812 232.141 275.882 229.341 284.576 227.928Z" fill="#1C3033"/>
<path d="M289.234 236.206C289.234 236.206 284.279 238.064 276.749 239.254C269.218 240.443 265.849 240.543 265.057 241.856C264.264 243.17 265.255 255.809 264.066 261.484C263.05 266.391 252.572 290.802 250.145 297.866H252.597C252.597 297.866 267.46 268.671 268.698 259.625C269.317 253.678 269.615 248.572 269.615 248.572H285.567C288.664 247.804 289.234 236.206 289.234 236.206Z" fill="#121E21"/>
<path d="M324.284 227.532C324.284 227.532 323.789 239.849 319.9 245.078L274.172 245.103C274.172 245.103 272.314 236.875 275.881 233.604C280.117 229.713 310.338 227.854 324.284 227.532Z" fill="#223A3F"/>
<path d="M290.447 257.99C290.323 253.058 290.149 251.844 289.134 248.572H316.877C320.717 245.475 322.575 240.617 323.318 237.99L312.146 232.91C312.146 232.91 311.031 238.188 308.926 239.353C306.82 240.543 283.337 240.568 282.396 241.509C281.455 242.451 285.443 251.819 286.161 258.56C286.855 265.301 282.743 297.866 282.743 297.866H285.344C285.344 297.866 290.694 267.036 290.447 257.99Z" fill="#121E21"/>
<path d="M299.983 228.944C299.983 228.944 312.097 231.001 323.318 237.965L322.748 239.824C322.748 239.849 311.725 232.513 299.983 228.944Z" fill="#121E21"/>
<path d="M255.717 244.335C255.717 244.335 249.401 277.073 245.586 297.866H252.671C252.671 297.866 267.533 268.671 268.772 259.626C270.01 250.58 268.747 240.617 268.747 240.617L255.717 244.335Z" fill="#1C3033"/>
<path d="M274.172 245.103C274.172 245.103 276.352 277.073 277.813 297.866H285.344C285.344 297.866 290.694 267.036 290.447 257.99C290.199 248.944 286.557 240.617 286.557 240.617L274.172 245.103Z" fill="#223A3F"/>
<path d="M290.446 257.99C290.223 249.886 287.3 242.402 286.681 240.915C286.285 240.939 285.888 240.964 285.517 240.989L282.247 242.178C282.321 244.607 285.517 252.587 286.136 258.56C286.83 265.301 282.718 297.866 282.718 297.866H285.319C285.319 297.866 285.641 295.933 286.161 292.909C287.672 283.814 290.645 264.781 290.446 257.99Z" fill="#121E21"/>
<path d="M268.771 240.617C267.384 240.716 266.121 240.915 265.353 241.633C264.56 242.947 265.328 255.809 264.164 261.509C263.148 266.416 252.67 290.827 250.242 297.891H252.695C255.84 290.505 267.731 267.507 268.796 259.65C269.589 253.901 270.01 245.177 268.771 240.617Z" fill="#121E21"/>
<path d="M296.664 204.632C295.55 204.286 294.311 203.864 293.023 203.22C291.091 202.253 291.859 202.848 289.604 201.411C289.604 201.411 290.001 191.076 293.072 185.178C296.144 179.23 313.088 171.622 313.088 171.622C313.088 171.622 313.856 171.671 315.045 171.82L315.02 171.919C315.02 171.919 315.466 171.919 316.184 171.969C316.878 172.068 317.67 172.216 318.513 172.39C323.194 173.555 331.047 177.644 332.236 191.721C331.394 206.219 327.207 229.985 323.269 237.718C323.269 237.718 294.98 228.945 292.181 226.516C293.221 223.591 295.054 219.205 295.748 215.041C296.417 211.15 296.64 207.606 296.664 204.632Z" fill="#FB9F0D"/>
<path d="M286.781 214.373L312.27 210.977C313.93 210.977 314.847 205.426 316.011 199.379L326.464 201.114C325.275 211.2 320.841 221.956 313.063 221.089C304.294 220.097 286.062 219.18 286.062 219.18L286.781 214.373Z" fill="#E0BC9B"/>
<path d="M314.427 197.669C314.427 197.669 325.97 198.734 327.828 193.778C329.686 188.846 328.918 179.23 319.232 172.588C319.257 172.588 319.282 172.613 319.307 172.613C319.381 172.638 319.455 172.663 319.505 172.688C324.211 174.174 331.023 178.586 332.212 191.523C331.915 192.638 331.593 193.778 331.222 194.943C330.255 198.016 329.215 200.816 328.15 203.319C323.344 202.551 318.539 201.758 313.758 200.99L314.427 197.669Z" fill="#FF7200"/>
<path d="M298.497 196.033C298.374 196.751 298.225 197.47 298.076 198.189C297.928 198.908 297.754 199.626 297.606 200.345C297.284 201.733 296.937 203.145 296.59 204.533C295.698 204.285 294.831 203.963 293.989 203.616C293.097 203.245 292.23 202.848 291.413 202.377C290.794 202.03 290.174 201.658 289.604 201.262V201.485C290.174 201.857 290.744 202.228 291.338 202.551C292.181 203.022 293.048 203.418 293.939 203.79C294.831 204.162 295.723 204.484 296.664 204.732L296.788 204.756L296.763 204.657C297.085 203.22 297.432 201.807 297.729 200.37C297.878 199.651 298.027 198.932 298.175 198.214C298.274 197.47 298.423 196.751 298.497 196.033Z" fill="#FF7200"/>
<path d="M315.021 171.919L312.643 168.35L302.61 172.142L303.973 178.139C303.973 178.164 311.231 182.922 315.021 171.919Z" fill="#EFCEAB"/>
<path d="M292.107 161.585C292.107 161.585 294.04 166.615 295.204 169.242C296.368 171.869 298.969 177.941 304.592 176.454C310.215 174.967 312.048 171.027 313.46 169.044C313.46 169.044 317.275 160.717 315.64 159.354C313.98 157.991 310.785 153.134 305.558 155.488C300.307 157.818 292.107 161.585 292.107 161.585Z" fill="#F9DCB8"/>
<path d="M313.287 169.342C313.287 169.342 317.919 160.94 318.093 156.653C318.266 152.365 317.102 149.738 314.575 148.772C314.575 148.772 315.541 146.244 316.408 145.847C316.408 145.847 313.807 147.037 313.312 148.301C313.312 148.301 313.015 145.277 311.751 144.782C311.751 144.782 312.544 146.541 312.049 147.805C312.049 147.805 305.93 141.089 301.075 144.336C296.245 147.582 289.482 155.884 287.352 155.785C287.352 155.785 288.615 156.281 290.349 155.488C290.349 155.488 288.12 157.545 285.519 158.735C285.519 158.735 288.342 162.725 296.096 161.337C303.849 159.949 308.68 156.702 308.68 156.702C308.68 156.702 309.671 163.617 311.727 165.872C311.727 165.872 311.9 161.585 313.659 160.792C315.393 159.998 314.823 163.419 314.352 164.682C313.857 165.922 312.42 169.738 313.287 169.342Z" fill="#221E52"/>
<path d="M328.149 203.344C325.721 202.997 323.318 202.65 320.891 202.278C319.677 202.105 318.463 201.906 317.274 201.708C316.06 201.51 314.871 201.312 313.658 201.064L313.559 201.039L313.583 200.94C314.104 198.362 314.673 195.76 315.268 193.207C315.565 191.919 315.887 190.655 316.259 189.366C316.605 188.102 316.977 186.838 317.423 185.599H317.448C317.002 186.838 316.655 188.102 316.308 189.391C315.961 190.655 315.664 191.944 315.367 193.232C314.772 195.81 314.252 198.387 313.757 200.989L313.682 200.89C314.871 201.138 316.085 201.361 317.274 201.584C318.488 201.807 319.677 202.005 320.891 202.204C323.294 202.6 325.721 202.972 328.149 203.344Z" fill="#FF7200"/>
<path d="M98.2305 303.29L98.2305 253.402H95.035L95.035 303.29H98.2305Z" fill="#A5C0D7"/>
<path d="M98.2314 303.29L98.2314 253.402H97.0672L97.0672 303.29H98.2314Z" fill="#8394B4"/>
<path d="M94.8796 266.144L92.3281 254.149H100.924L98.3723 266.144H94.8796Z" fill="#8394B4"/>
<path d="M114.622 306.119H78.6289V305.128L93.0953 302.724H100.18L114.622 305.128V306.119Z" fill="#A5C0D7"/>
<path d="M101.022 302.997H92.2529L93.8878 292.761H99.387L101.022 302.997Z" fill="#A5C0D7"/>
<path d="M93.8876 292.761H99.3868L101.022 302.997L114.621 305.128H90.6426L94.8785 303.294L96.0179 293.678L93.8876 292.761Z" fill="#8394B4"/>
<path d="M88.9344 237.817H82.7168V247.161H88.9344V237.817Z" fill="#8394B4"/>
<path d="M119.774 251.274H73.501C73.501 248.771 75.5322 246.739 78.0341 246.739H115.265C117.742 246.764 119.774 248.771 119.774 251.274Z" fill="#3D4359"/>
<path d="M115.241 246.764H95.7705C98.2724 246.764 100.304 248.796 100.304 251.299H119.774C119.774 248.771 117.743 246.764 115.241 246.764Z" fill="#323749"/>
<path d="M73.5753 250.481C73.5257 250.729 73.501 251.002 73.501 251.275H119.774C119.774 251.002 119.749 250.729 119.699 250.481H73.5753Z" fill="#323749"/>
<path d="M121.582 251.101H71.6924V257.222H121.582V251.101Z" fill="#3D4359"/>
<path d="M121.582 251.101H89.3301V257.222H121.582V251.101Z" fill="#323749"/>
<path d="M121.582 251.101H71.6924V251.844H121.582V251.101Z" fill="#323749"/>
<path d="M104.564 214.348C104.564 233.728 95.7211 241.386 84.8218 241.386C73.9224 241.386 65.0791 233.728 65.0791 214.348C65.0791 194.967 73.9224 171.176 84.8218 171.176C95.7211 171.176 104.564 194.967 104.564 214.348Z" fill="#323749"/>
<path d="M106.546 214.075C106.546 232.811 98.0001 240.221 87.4723 240.221C76.9445 240.221 68.3984 232.836 68.3984 214.075C68.3984 195.314 76.9445 172.34 87.4723 172.34C98.0001 172.34 106.546 195.339 106.546 214.075Z" fill="#3D4359"/>
<path d="M89.6528 263.839C87.3986 263.839 82.8903 262.302 82.3205 262.104C82.1719 262.055 82.0976 261.906 82.1471 261.757C82.1967 261.609 82.3453 261.559 82.4939 261.584C84.2527 262.203 89.0583 263.666 90.3216 263.219C91.362 262.848 91.4859 259.18 91.3372 256.974C91.3372 256.825 91.4363 256.702 91.585 256.677C91.7336 256.677 91.8574 256.776 91.8822 256.925C91.9318 257.544 92.3033 263.071 90.5198 263.715C90.2721 263.814 89.9996 263.839 89.6528 263.839Z" fill="#323749"/>
<path d="M80.9825 259.75C82.1467 260.048 83.8807 261.312 83.633 262.204C83.3853 263.121 81.2798 263.344 80.1155 263.022C78.9513 262.724 78.2081 261.733 78.4311 260.816C78.6788 259.924 79.8183 259.453 80.9825 259.75Z" fill="#323749"/>
<path d="M95.8698 144.063C95.8698 144.063 92.0303 142.081 89.132 149.813C86.209 157.545 86.0604 169.59 87.1256 173.704C87.1256 173.704 78.6538 182.824 85.565 188.797C85.565 188.797 95.1019 198.834 95.7212 201.411C95.9689 200.816 100.056 193.431 106.695 193.035C113.334 192.613 129.683 175.439 120.963 172.787C120.963 172.787 121.607 175.563 118.635 174.893C115.662 174.224 117.545 163.989 117.495 160.346C117.47 156.728 115.29 147.781 108.949 144.014C102.608 140.222 95.3001 140.47 95.8698 144.063Z" fill="#1C1715"/>
<path d="M147.244 204.063C147.244 204.063 153.437 206.021 154.254 206.319C157.475 207.508 157.227 208.524 157.202 208.822C157.202 208.822 158.317 210.457 158.144 210.705C157.822 211.151 157.5 210.631 155.889 208.995C155.543 208.624 154.527 207.756 154.354 207.88C154.18 208.004 155.146 208.698 155.741 209.218C156.236 209.664 157.351 212.143 156.831 212.291C156.335 212.44 155.344 210.457 154.799 209.887C154.403 209.466 153.214 208.673 152.966 208.822C152.743 208.97 153.932 210.111 154.106 210.383C154.304 210.656 155.245 212.143 154.874 212.44C154.527 212.688 153.784 211.548 152.867 210.557C152.174 209.813 149.845 208.549 149.523 208.549C149.152 208.549 149.523 209.441 149.994 210.135C150.489 210.829 150.811 211.944 150.291 212.044C149.771 212.167 148.854 210.086 147.715 208.723C146.575 207.36 146.427 205.55 146.427 205.55C146.427 205.55 146.897 204.088 147.244 204.063Z" fill="#E2A36A"/>
<path d="M147.245 204.063C146.625 203.865 143.38 203.79 140.978 204.088L141.151 207.607L146.997 206.244L147.245 204.063Z" fill="#E2A36A"/>
<path d="M114.671 176.975C108.429 178.983 112.169 211.374 117.445 214.249C122.424 217.297 136.866 209.813 144.917 207.21C144.917 207.21 146.155 205.153 145.957 203.394C141.052 203.22 125.669 206.764 123.911 206.541C122.127 206.318 120.889 174.968 114.671 176.975Z" fill="#E55DAA"/>
<path d="M124.457 299.899C124.457 299.899 123.961 301.807 124.036 303.839L121.36 303.245L121.484 299.899H124.457Z" fill="#E2A36A"/>
<path d="M129.808 305.128C129.783 305.673 121.212 305.351 121.212 305.351L121.385 303.245H124.085C124.061 303.245 129.832 304.583 129.808 305.128Z" fill="#E2A36A"/>
<path d="M121.187 305.351L121.31 304.186C121.31 304.186 121.806 304.831 124.432 304.831C126.735 304.831 127.008 304.013 127.008 304.013C129.163 304.632 130.377 304.731 130.079 305.178C129.634 305.748 121.187 305.351 121.187 305.351Z" fill="#2D313D"/>
<path d="M121.485 299.899L121.386 302.699C121.386 302.699 122.624 301.931 124.036 302.699C124.036 302.699 124.234 300.618 124.457 299.899H121.485Z" fill="#D38753"/>
<path d="M136.965 299.899C136.965 299.899 136.469 301.807 136.543 303.839L133.868 303.245L133.992 299.899H136.965Z" fill="#E2A36A"/>
<path d="M142.291 305.128C142.266 305.673 133.695 305.351 133.695 305.351L133.869 303.245H136.569C136.544 303.245 142.316 304.583 142.291 305.128Z" fill="#E2A36A"/>
<path d="M133.67 305.351L133.794 304.186C133.794 304.186 134.289 304.831 136.915 304.831C139.219 304.831 139.491 304.013 139.491 304.013C141.646 304.632 142.86 304.731 142.563 305.178C142.142 305.748 133.67 305.351 133.67 305.351Z" fill="#2D313D"/>
<path d="M133.967 299.899L133.868 302.699C133.868 302.699 135.107 301.931 136.519 302.699C136.519 302.699 136.717 300.618 136.94 299.899H133.967Z" fill="#D38753"/>
<path d="M120.022 226.318C120.022 226.318 103.326 231.299 105.778 246.714H148.954C148.954 246.714 150.218 240.072 147.468 237.074C144.743 234.124 120.022 226.318 120.022 226.318Z" fill="#476291"/>
<path d="M148.856 246.715C148.856 246.715 143.158 263.716 137.312 301.411H132.977C132.977 301.411 129.906 273.282 130.55 265.698C131.219 258.115 136.767 246.12 136.767 246.12C136.767 246.12 144.991 244.236 148.856 246.715Z" fill="#476291"/>
<path d="M120.294 246.714L136.594 246.615C136.594 246.615 130.847 258.61 130.55 265.698C130.252 272.761 132.977 301.41 132.977 301.41H134.786C134.786 301.41 133.349 271.026 133.844 266.144C134.34 261.237 140.706 245.153 140.384 244.062C140.062 242.972 119.65 237.247 119.65 237.247L120.294 246.714Z" fill="#3E5C87"/>
<path d="M120.022 226.318H85.9121L110.287 238.635L120.022 226.318Z" fill="#3E5C87"/>
<path d="M85.9117 226.318C85.9117 226.318 81.0318 234.471 84.8218 246.714H135.38C135.38 246.714 136.395 239.948 133.547 237.074C129.534 233.084 100.18 229.713 85.9117 226.318Z" fill="#5775AA"/>
<path d="M135.38 246.714C135.38 246.714 130.03 258.932 125.125 301.41H120.765C120.765 301.41 117.198 273.282 117.694 265.698C118.214 258.114 122.995 246.714 122.995 246.714C122.995 246.714 131.491 244.236 135.38 246.714Z" fill="#5775AA"/>
<path d="M84.8218 246.715H122.994C122.994 246.715 118.04 259.23 117.693 265.698C117.272 273.877 120.765 301.41 120.765 301.41H122.375C122.375 301.41 120.046 273.158 120.79 266.045C121.508 258.957 127.602 245.203 126.561 243.765C125.521 242.303 98.8423 240.866 83.4594 235.686C83.4594 235.661 82.9639 242.105 84.8218 246.715Z" fill="#476291"/>
<path d="M112.517 205.947C112.517 213.382 114.944 217.966 120.592 226.343C109.47 230.135 97.7529 229.813 85.5654 226.343C88.1664 219.131 92.1298 213.233 96.5639 208.103C96.5886 208.078 96.6382 208.028 96.6629 207.979C96.7125 207.929 96.762 207.855 96.7868 207.83C96.8363 207.781 96.8859 207.731 96.8859 207.731C99.1896 203.543 92.0307 198.735 89.2068 190.606C86.3333 182.329 87.5967 177.992 87.5967 177.992C98.0501 173.308 104.169 172.217 116.059 177.099L116.505 184.311C116.505 184.311 119.725 189.937 119.353 192.465C118.982 194.993 112.517 201.981 112.517 205.947Z" fill="#FF77C4"/>
<path d="M120.592 226.343C119.552 222.824 112.517 217.421 112.517 205.946C112.517 201.337 118.982 195.909 119.353 192.39C116.901 193.431 106.745 196.603 90.594 193.704C93.7152 201.907 97.5547 204.088 96.8859 207.731C96.8859 207.731 96.8363 207.805 96.7868 207.83C96.762 207.879 96.7125 207.929 96.6629 207.979C96.6382 208.003 96.5886 208.053 96.5639 208.103C92.1298 213.233 88.1664 219.131 85.5654 226.343C91.5353 228.028 97.3813 228.97 103.128 229.044C108.776 229.044 115.217 228.177 120.592 226.343Z" fill="#ED65B2"/>
<path d="M96.1426 157.545C96.1426 157.545 98.9665 168.202 96.5389 175.587L105.729 175.612L108.677 176.926C108.677 176.926 106.844 171.597 107.215 165.402C107.488 160.866 96.1426 157.545 96.1426 157.545Z" fill="#F4BE84"/>
<path d="M107.463 171.374C107.215 169.615 107.091 167.558 107.215 165.402C107.488 160.866 96.1426 157.545 96.1426 157.545C96.1426 157.545 98.8674 167.806 96.6628 175.166C101.815 174.472 105.481 172.638 107.463 171.374Z" fill="#D17A4A"/>
<path d="M107.661 210.556C107.637 209.54 108.157 207.086 108.702 204.484C109.47 200.792 110.361 196.579 110.188 194.522C109.891 191.027 106.373 181.064 106.225 180.643L105.754 180.817C105.779 180.916 109.395 191.126 109.693 194.571C109.866 196.554 108.999 200.717 108.231 204.385C107.661 207.136 107.166 209.49 107.166 210.556C107.265 216.801 108.627 222.551 111.427 228.499C111.6 228.474 111.773 228.474 111.947 228.449C109.123 222.526 107.76 216.777 107.661 210.556Z" fill="#DB52A3"/>
<path d="M125.695 206.244C127.875 206.789 130.65 207.061 130.848 207.954C131.269 209.911 128.172 211.151 126.587 210.729C125.051 210.209 123.714 208.102 123.714 208.102C123.714 208.102 123.516 205.698 125.695 206.244Z" fill="#F4BE84"/>
<path d="M135.01 210.63C135.283 210.457 133.92 208.598 133.499 208.301C133.152 208.078 132.781 207.755 129.437 207.062L130.626 208.796C130.626 208.796 132.706 208.945 133.004 209.044C133.276 209.168 133.895 210.655 135.01 210.63Z" fill="#F4BE84"/>
<path d="M132.557 214.298C133.028 214.248 132.433 212.166 132.186 211.72C131.888 211.15 131.963 210.878 129.931 208.102L129.609 210.109C129.609 210.109 131.195 211.919 131.343 212.191C131.467 212.464 131.814 213.976 132.557 214.298Z" fill="#F4BE84"/>
<path d="M130.947 214.645C131.393 214.595 130.823 212.588 130.6 212.166C130.303 211.621 130.377 211.349 128.445 208.697L128.123 210.63C128.123 210.63 129.659 212.365 129.783 212.612C129.907 212.885 130.253 214.347 130.947 214.645Z" fill="#F4BE84"/>
<path d="M128.867 213.852C129.238 213.803 128.768 212.117 128.569 211.746C128.322 211.275 128.396 211.052 126.736 208.821L126.464 210.457C126.464 210.457 127.752 211.919 127.876 212.142C128 212.39 128.272 213.604 128.867 213.852Z" fill="#F4BE84"/>
<path d="M124.035 208.226L120.666 208.598L120.592 205.451C120.592 205.451 122.648 205.599 125.695 206.269L124.035 208.226Z" fill="#F4BE84"/>
<path d="M87.5713 177.991C81.3289 179.999 83.385 213.431 88.6612 216.281C95.6963 220.643 112.12 211.919 121.83 209.243C121.83 209.243 123.068 207.186 122.87 205.426C114.944 203.89 96.8853 208.797 95.1265 208.574C93.3678 208.375 93.8136 175.984 87.5713 177.991Z" fill="#FF77C4"/>
<path d="M89.1068 214.695C84.97 212.44 82.8397 191.424 85.1186 181.486C82.1461 190.532 84.2764 213.927 88.6609 216.306C95.696 220.668 112.119 211.944 121.83 209.268C121.83 209.268 122.251 208.524 122.548 207.607C112.788 210.358 96.0675 219.007 89.1068 214.695Z" fill="#E55DAA"/>
<path d="M93.9873 175.464L101.765 183.196L104.02 179.924L106.175 181.758L107.611 179.602L110.188 182.279L110.312 175.092L105.729 175.612L93.9873 175.464Z" fill="#DB52A3"/>
<path d="M93.9873 175.463L97.48 170.061L105.729 175.612L102.038 181.312L93.9873 175.463Z" fill="#ED65B2"/>
<path d="M107.463 171.35L105.729 175.612L109.791 180.519L110.311 175.092L107.463 171.35Z" fill="#ED65B2"/>
<path d="M95.7213 168.351C95.7213 168.351 100.23 171.845 103.921 170.507C107.611 169.169 110.881 165.6 111.872 162.031C112.888 158.462 111.253 151.3 108.751 148.747C106.274 146.195 97.0589 144.534 94.4827 147.855C91.8817 151.151 90.8909 164.534 95.7213 168.351Z" fill="#FDC596"/>
<path d="M90.5931 179.801C90.5931 179.801 86.9022 181.238 84.7967 178.388C82.6911 175.538 86.2086 173.828 86.2086 173.828C86.2086 173.828 83.9049 176.728 87.249 177.074C90.5931 177.446 90.6179 171.82 89.4289 168.723C86.0352 159.776 87.9922 153.902 89.5775 150.705C91.1381 147.508 93.9373 145.154 93.9373 145.154L95.8446 144.088L97.1575 147.335C97.1575 147.335 94.7547 151.003 93.5409 154.398C92.3271 157.793 91.8069 162.155 94.6556 167.756C97.5291 173.382 98.2475 178.884 90.5931 179.801Z" fill="#442B19"/>
<path d="M97.1831 147.31L95.8702 144.063C95.8702 144.063 92.0307 142.081 89.1324 149.813C88.1416 152.465 87.5966 155.662 87.3984 158.859C88.7113 163.667 92.427 169.193 94.4335 173.902C96.9849 179.85 89.182 178.264 89.182 178.264C89.182 178.264 91.7829 182.675 95.6968 179.28C100.007 175.562 96.2418 169.391 94.6069 166.17C92.972 162.948 93.2445 156.851 94.805 153.382C96.3656 149.912 97.1831 147.31 97.1831 147.31Z" fill="#513826"/>
<path d="M97.1831 147.31C97.1831 147.31 105.927 145.005 110.312 155.563C114.696 166.145 108.404 171.027 109.519 174.274C110.634 177.545 113.606 178.016 116.158 174.646C116.158 174.646 113.012 176.678 112.541 174.373C112.071 172.093 117.297 168.747 116.827 159.999C116.653 156.926 116.158 154.299 115.588 152.167C114.25 149.02 112.12 145.848 108.949 143.964C102.608 140.173 95.3005 140.445 95.8702 144.039L97.1831 147.31Z" fill="#442B19"/>
<path d="M161.414 213.381L122.622 213.406L130.747 183.295H169.539L161.414 213.381Z" fill="#8394B4"/>
<path d="M161.189 213.793L104.092 213.862L104.095 216.192L161.192 216.123L161.189 213.793Z" fill="#A5C0D7"/>
<path d="M161.438 213.357L123.538 213.406L131.514 183.89L169.414 183.84L161.438 213.357Z" fill="#A5C0D7"/>
<path d="M148.444 200.255C149.955 199.317 150.637 197.679 149.966 196.598C149.295 195.516 147.526 195.4 146.015 196.338C144.504 197.276 143.822 198.913 144.493 199.995C145.164 201.076 146.933 201.193 148.444 200.255Z" fill="#8394B4"/>
<path opacity="0.2" d="M123.538 213.406L131.514 183.89L169.414 183.84L123.538 213.406Z" fill="#A5C0D7"/>
<path d="M122.497 213.843L104.092 213.862L104.094 216.192L122.499 216.172L122.497 213.843Z" fill="#8394B4"/>
<path d="M134.487 213.377L127.378 213.386L127.379 214.402L134.489 214.393L134.487 213.377Z" fill="#8394B4"/>
<path d="M158.837 213.353L152.743 213.361L152.744 214.377L158.838 214.369L158.837 213.353Z" fill="#8394B4"/>
<path d="M131.762 184.262L169.315 184.212L169.414 183.84L131.514 183.89L123.538 213.406H123.885L131.762 184.262Z" fill="#BAD6F2"/>
<path d="M261.96 205.922H300.826L292.677 175.761H253.811L261.96 205.922Z" fill="#8394B4"/>
<path d="M262.186 206.349L262.184 208.678L319.38 208.747L319.383 206.418L262.186 206.349Z" fill="#A5C0D7"/>
<path d="M261.936 205.872L299.91 205.922L291.909 176.356L253.935 176.306L261.936 205.872Z" fill="#A5C0D7"/>
<path d="M273.281 190.804C273.752 192.241 275.436 193.406 277.021 193.406C278.607 193.406 279.523 192.241 279.028 190.804C278.557 189.366 276.873 188.202 275.287 188.202C273.727 188.202 272.81 189.366 273.281 190.804Z" fill="#8394B4"/>
<path opacity="0.2" d="M299.91 205.922L291.909 176.356L253.935 176.306L299.91 205.922Z" fill="#A5C0D7"/>
<path d="M300.941 206.386L300.938 208.715L319.368 208.735L319.371 206.405L300.941 206.386Z" fill="#8394B4"/>
<path d="M288.934 205.935L288.933 206.951L296.067 206.96L296.068 205.944L288.934 205.935Z" fill="#8394B4"/>
<path d="M264.561 205.899L264.56 206.916L270.653 206.923L270.655 205.907L264.561 205.899Z" fill="#8394B4"/>
<path d="M291.661 176.727L254.034 176.703L253.935 176.306L291.909 176.356L299.91 205.922H299.563L291.661 176.727Z" fill="#BAD6F2"/>
<path d="M68.4723 211.721H63.6172V307.358H68.4723V211.721Z" fill="#C48C58"/>
<path d="M128.889 212.019H63.8896V221.56H128.889V212.019Z" fill="#C48C58"/>
<path d="M353.317 211.721H348.462V307.358H353.317V211.721Z" fill="#A8693F"/>
<path d="M352.598 212.019H126.437V221.56H352.598V212.019Z" fill="#A8693F"/>
<path d="M130.747 208.722H54.9473V214.967H130.747V208.722Z" fill="#D39B67"/>
<path d="M362.16 208.722H125.322V214.967H362.16V208.722Z" fill="#B7784E"/>
<path d="M362.135 208.722H54.9473V210.011H362.135V208.722Z" fill="#E8AB73"/>
<path d="M223.342 201.585C223.342 199.255 225.249 197.372 227.578 197.372H229.262C229.782 197.372 230.203 197.793 230.203 198.313V204.856C230.203 205.376 229.782 205.798 229.262 205.798H227.578C225.249 205.798 223.342 203.889 223.342 201.585ZM229.014 198.561H227.578C225.893 198.561 224.531 199.924 224.531 201.585C224.531 203.245 225.893 204.608 227.578 204.608H229.014V198.561Z" fill="#6D97BE"/>
<path d="M231.194 209.044H236.892C238.675 209.044 240.137 207.582 240.137 205.798V194.497H227.949V205.798C227.949 207.607 229.411 209.044 231.194 209.044Z" fill="#95BAE2"/>
<path d="M230.823 194.497V206.492C230.823 207.582 231.516 208.524 232.557 209.069H231.541C229.559 209.069 227.949 207.755 227.949 206.12V194.497H230.823Z" fill="#6D97BE"/>
<path d="M238.105 203.319H238.378C238.551 203.319 238.7 203.171 238.7 202.997V195.736C238.7 195.562 238.551 195.414 238.378 195.414H238.105C237.932 195.414 237.783 195.562 237.783 195.736V202.997C237.783 203.195 237.932 203.319 238.105 203.319Z" fill="#CCDDED"/>
<path d="M234.984 193.852C235.157 193.852 235.281 193.728 235.281 193.555V191.572C235.306 191.473 235.43 191.151 235.826 191.176H240.483C240.533 191.176 240.879 191.176 241.201 190.854C241.449 190.606 241.573 190.259 241.573 189.788C241.573 189.367 241.449 189.044 241.201 188.821C240.83 188.499 240.359 188.524 240.235 188.549H227.676C227.528 188.499 226.908 188.177 226.958 187.161C226.983 186.12 227.701 185.847 227.875 185.798H235.529C235.702 185.798 235.826 185.674 235.826 185.501C235.826 185.327 235.702 185.203 235.529 185.203H227.775C227.305 185.302 226.413 185.847 226.363 187.136C226.314 188.45 227.131 189.02 227.552 189.144H227.627H240.26H240.285C240.285 189.144 240.607 189.094 240.78 189.268C240.904 189.367 240.954 189.54 240.954 189.763C240.954 190.482 240.557 190.531 240.483 190.531H235.851C235.083 190.482 234.736 191.101 234.687 191.448V191.498V193.505C234.687 193.728 234.81 193.852 234.984 193.852Z" fill="#CCDDED"/>
<path d="M108.998 44.4604H73.7734V70.5817H108.998V44.4604Z" fill="#B0DFE2"/>
<path d="M108.181 44.4604H73.7734V69.4664H108.181V44.4604Z" fill="white"/>
<path d="M79.3467 57.2975L87.1992 53.481V54.9679L80.9816 57.8675V57.8923L87.1992 60.8167V62.2789L79.3467 58.4871V57.2975Z" fill="#2D4C9D"/>
<path d="M88.3389 62.973L92.3766 50.978H93.7885L89.7508 62.973H88.3389Z" fill="#2D4C9D"/>
<path d="M102.632 58.5368L94.7793 62.3038V60.8416L101.096 57.9172V57.8924L94.7793 54.9681V53.5059L102.632 57.2729V58.5368Z" fill="#2D4C9D"/>
</g>
<defs>
<linearGradient id="paint0_linear_1428_3887" x1="185.398" y1="140.984" x2="196.912" y2="172.42" gradientUnits="userSpaceOnUse">
<stop stop-color="#CFD4D8"/>
<stop offset="1" stop-color="#CFD4D8"/>
</linearGradient>
<linearGradient id="paint1_linear_1428_3887" x1="181.383" y1="154.839" x2="190.12" y2="154.839" gradientUnits="userSpaceOnUse">
<stop stop-color="#F5A0AA"/>
<stop offset="0.2151" stop-color="#F38E99"/>
<stop offset="0.7306" stop-color="#F06774"/>
<stop offset="1" stop-color="#EF5866"/>
</linearGradient>
<clipPath id="clip0_1428_3887">
<rect width="425" height="314" fill="white" transform="translate(0.5)"/>
</clipPath>
</defs>
</svg>
