<svg width="52" height="52" viewBox="0 0 52 52" fill="none" xmlns="http://www.w3.org/2000/svg">
<path d="M38.5084 0H13.4916C6.04039 0 0 6.04039 0 13.4916V38.5084C0 45.9596 6.04039 52 13.4916 52H38.5084C45.9596 52 52 45.9596 52 38.5084V13.4916C52 6.04039 45.9596 0 38.5084 0Z" fill="white"/>
<path d="M38.2832 33.5353H13.7171C11.6449 33.5353 9.95947 35.2207 9.95947 37.293C9.95947 39.3652 11.6449 41.0506 13.7171 41.0506H38.2832C40.3554 41.0506 42.0409 39.3652 42.0409 37.293C42.0409 35.2207 40.3554 33.5353 38.2832 33.5353Z" fill="#0496FF"/>
<path d="M28.1105 22.2424H23.8895C21.8173 22.2424 20.1318 23.9279 20.1318 26.0001C20.1318 28.0723 21.8173 29.7578 23.8895 29.7578H28.1105C30.1827 29.7578 31.8681 28.0723 31.8681 26.0001C31.8681 23.9279 30.1827 22.2424 28.1105 22.2424Z" fill="#0496FF"/>
<path d="M34.2129 10.9502H17.7865C15.7142 10.9502 14.0288 12.6356 14.0288 14.7079C14.0288 16.7801 15.7142 18.4655 17.7865 18.4655H34.2129C36.2851 18.4655 37.9705 16.7801 37.9705 14.7079C37.9705 12.6356 36.2851 10.9502 34.2129 10.9502Z" fill="#0496FF"/>
<path d="M13.7171 29.7578C15.7924 29.7578 17.4748 28.0754 17.4748 26.0001C17.4748 23.9248 15.7924 22.2424 13.7171 22.2424C11.6418 22.2424 9.95947 23.9248 9.95947 26.0001C9.95947 28.0754 11.6418 29.7578 13.7171 29.7578Z" fill="#0496FF"/>
<path d="M38.2831 29.7578C40.3584 29.7578 42.0407 28.0754 42.0407 26.0001C42.0407 23.9248 40.3584 22.2424 38.2831 22.2424C36.2078 22.2424 34.5254 23.9248 34.5254 26.0001C34.5254 28.0754 36.2078 29.7578 38.2831 29.7578Z" fill="#0496FF"/>
</svg>
