<svg width="190" height="192" viewBox="0 0 190 192" fill="none" xmlns="http://www.w3.org/2000/svg">
<g clip-path="url(#clip0_2647_505)">
<path d="M149.104 75.6143C148.817 75.6143 148.625 75.4225 148.625 75.1349V68.2792C148.625 67.9916 148.817 67.7998 149.104 67.7998C149.392 67.7998 149.583 67.9916 149.583 68.2792V75.087C149.583 75.3746 149.392 75.6143 149.104 75.6143Z" fill="white"/>
<path d="M152.555 72.2103H145.702C145.414 72.2103 145.223 72.0185 145.223 71.7309C145.223 71.4432 145.414 71.2515 145.702 71.2515H152.507C152.794 71.2515 152.986 71.4432 152.986 71.7309C152.986 72.0185 152.794 72.2103 152.555 72.2103Z" fill="white"/>
<path d="M58.3894 50.7329C58.1018 50.7329 57.9102 50.5411 57.9102 50.2535V43.4457C57.9102 43.1581 58.1018 42.9663 58.3894 42.9663C58.6769 42.9663 58.8686 43.1581 58.8686 43.4457V50.2535C58.8686 50.5411 58.629 50.7329 58.3894 50.7329Z" fill="white"/>
<path d="M61.7918 47.329H54.987C54.6995 47.329 54.5078 47.1372 54.5078 46.8495C54.5078 46.5619 54.6995 46.3701 54.987 46.3701H61.7918C62.0793 46.3701 62.271 46.5619 62.271 46.8495C62.271 47.1372 62.0314 47.329 61.7918 47.329Z" fill="white"/>
<path d="M175.366 147.719H168.561C168.274 147.719 168.082 147.527 168.082 147.24C168.082 146.952 168.274 146.76 168.561 146.76H175.366C175.654 146.76 175.845 146.952 175.845 147.24C175.845 147.527 175.606 147.719 175.366 147.719Z" fill="white"/>
<path d="M50.8191 141.63C50.5315 141.63 50.3398 141.439 50.3398 141.151V134.343C50.3398 134.056 50.5315 133.864 50.8191 133.864C51.1066 133.864 51.2983 134.056 51.2983 134.343V141.151C51.2983 141.439 51.0587 141.63 50.8191 141.63Z" fill="white"/>
<path d="M54.2215 138.226H47.4167C47.1292 138.226 46.9375 138.035 46.9375 137.747C46.9375 137.459 47.1292 137.268 47.4167 137.268H54.2215C54.509 137.268 54.7007 137.459 54.7007 137.747C54.7007 138.035 54.509 138.226 54.2215 138.226Z" fill="white"/>
<path d="M176.805 58.931C175.607 58.931 174.648 57.9721 174.648 56.7736C174.648 55.575 175.607 54.6162 176.805 54.6162C178.003 54.6162 178.961 55.575 178.961 56.7736C178.961 57.9721 178.003 58.931 176.805 58.931ZM176.805 55.575C176.134 55.575 175.607 56.1024 175.607 56.7736C175.607 57.4448 176.134 57.9721 176.805 57.9721C177.476 57.9721 178.003 57.4448 178.003 56.7736C178.003 56.1024 177.476 55.575 176.805 55.575Z" fill="white"/>
<path d="M108.899 189.189C107.701 189.189 106.742 188.23 106.742 187.031C106.742 185.833 107.701 184.874 108.899 184.874C110.097 184.874 111.055 185.833 111.055 187.031C111.055 188.23 110.097 189.189 108.899 189.189ZM108.899 185.833C108.228 185.833 107.701 186.36 107.701 187.031C107.701 187.703 108.228 188.23 108.899 188.23C109.57 188.23 110.097 187.703 110.097 187.031C110.097 186.36 109.57 185.833 108.899 185.833Z" fill="white"/>
<path d="M104.97 45.5071L104.539 44.5483C104.011 43.3977 103.628 43.0142 102.478 42.4868L101.52 42.0553L102.478 41.6238C103.628 41.0965 104.011 40.713 104.539 39.5624L104.97 38.6035L105.401 39.5624C105.928 40.713 106.312 41.0965 107.462 41.6238L108.42 42.0553L107.462 42.4868C106.312 43.0142 105.928 43.3977 105.401 44.5483L104.97 45.5071ZM103.676 42.0074C104.251 42.343 104.586 42.7265 104.97 43.3018C105.305 42.7265 105.689 42.3909 106.264 42.0074C105.689 41.6718 105.353 41.2883 104.97 40.713C104.586 41.2883 104.251 41.6718 103.676 42.0074Z" fill="white"/>
<path d="M5.8214 86.6409L5.39011 85.6821C4.86298 84.5315 4.47961 84.148 3.32951 83.6206L2.37109 83.1891L3.32951 82.7576C4.47961 82.2303 4.86298 81.8467 5.39011 80.6961L5.8214 79.7373L6.25269 80.6961C6.77982 81.8467 7.16318 82.2303 8.31328 82.7576L9.2717 83.1891L8.31328 83.6206C7.16318 84.148 6.77982 84.5315 6.25269 85.6821L5.8214 86.6409ZM4.57545 83.1891C5.15051 83.5247 5.48595 83.9082 5.86932 84.4835C6.20477 83.9082 6.58813 83.5727 7.16318 83.1891C6.58813 82.8535 6.25269 82.47 5.86932 81.8947C5.48595 82.47 5.10258 82.8056 4.57545 83.1891Z" fill="white"/>
<path d="M22.4034 160.903L21.9721 159.944C21.445 158.794 21.0616 158.41 19.9115 157.883L18.9531 157.451L19.9115 157.02C21.0616 156.492 21.445 156.109 21.9721 154.958L22.4034 154L22.8347 154.958C23.3618 156.109 23.7452 156.492 24.8953 157.02L25.8537 157.451L24.8953 157.883C23.7452 158.41 23.3618 158.794 22.8347 159.944L22.4034 160.903ZM21.1575 157.403C21.7325 157.739 22.068 158.123 22.4513 158.698C22.7868 158.123 23.1702 157.787 23.7452 157.403C23.1702 157.068 22.8347 156.684 22.4513 156.109C22.068 156.684 21.6846 157.068 21.1575 157.403Z" fill="white"/>
<path d="M39.2228 21.2484C38.0248 21.2484 37.0664 20.2895 37.0664 19.091C37.0664 17.8924 38.0248 16.9336 39.2228 16.9336C40.4209 16.9336 41.3793 17.8924 41.3793 19.091C41.3793 20.2895 40.3729 21.2484 39.2228 21.2484ZM39.2228 17.8924C38.552 17.8924 38.0248 18.4198 38.0248 19.091C38.0248 19.7622 38.552 20.2895 39.2228 20.2895C39.8937 20.2895 40.4209 19.7622 40.4209 19.091C40.4209 18.4198 39.8458 17.8924 39.2228 17.8924Z" fill="white"/>
<path d="M158.976 54.0889C158.976 54.3765 158.737 54.6162 158.449 54.6162C158.161 54.6162 157.922 54.3765 157.922 54.0889C157.922 53.8012 158.161 53.5615 158.449 53.5615C158.737 53.5615 158.976 53.8012 158.976 54.0889Z" fill="white"/>
<path d="M155.287 48.5754C155.335 48.8631 155.095 49.1028 154.808 49.1507C154.52 49.1986 154.281 48.9589 154.233 48.6713C154.185 48.3836 154.424 48.1439 154.712 48.096C154.999 48.048 155.287 48.2878 155.287 48.5754Z" fill="white"/>
<path d="M124.666 23.8854C124.858 24.1251 124.762 24.4607 124.522 24.6045C124.283 24.7483 123.947 24.7004 123.804 24.4607C123.66 24.221 123.708 23.8854 123.947 23.7415C124.139 23.5977 124.474 23.6457 124.666 23.8854Z" fill="white"/>
<path d="M118.484 21.4884C118.675 21.7281 118.627 22.0637 118.436 22.2554C118.196 22.4472 117.861 22.3993 117.669 22.2075C117.477 21.9678 117.525 21.6322 117.717 21.4404C117.956 21.2487 118.292 21.2966 118.484 21.4884Z" fill="white"/>
<path d="M112.11 19.6184C112.301 19.8102 112.301 20.1458 112.11 20.3855C111.918 20.5773 111.583 20.5773 111.343 20.3855C111.151 20.1937 111.151 19.8581 111.343 19.6184C111.583 19.4267 111.918 19.4267 112.11 19.6184Z" fill="white"/>
<path d="M105.639 18.3242C105.879 18.516 105.879 18.8516 105.687 19.0913C105.496 19.331 105.16 19.331 104.921 19.1392C104.681 18.9475 104.681 18.6119 104.873 18.3722C105.064 18.1804 105.4 18.1325 105.639 18.3242Z" fill="white"/>
<path d="M99.0262 17.6048C99.2658 17.7966 99.3138 18.0842 99.17 18.324C99.0262 18.5637 98.6908 18.6116 98.4512 18.4678C98.2116 18.276 98.1637 17.9884 98.3074 17.7487C98.4512 17.5089 98.7866 17.461 99.0262 17.6048Z" fill="white"/>
<path d="M60.4523 25.2275C60.7398 25.2755 60.9794 25.5152 60.9315 25.8028C60.8836 26.0905 60.644 26.3302 60.3564 26.2823C60.0689 26.2343 59.8293 25.9946 59.8772 25.707C59.9252 25.4193 60.1648 25.2275 60.4523 25.2275Z" fill="white"/>
<path d="M54.6521 28.4399C54.9397 28.4399 55.1793 28.6796 55.1793 28.9673C55.1793 29.255 54.9397 29.4947 54.6521 29.4947C54.3646 29.4947 54.125 29.255 54.125 28.9673C54.125 28.6796 54.3646 28.4399 54.6521 28.4399Z" fill="white"/>
<path d="M49.1416 32.1311C49.4291 32.0832 49.6687 32.3229 49.7166 32.6106C49.7646 32.8982 49.525 33.1379 49.2374 33.1859C48.9499 33.2338 48.7103 32.9941 48.6624 32.7064C48.6145 32.3709 48.8541 32.1311 49.1416 32.1311Z" fill="white"/>
<path d="M43.966 36.2544C44.2535 36.2065 44.541 36.3982 44.5889 36.6859C44.6369 36.9735 44.4452 37.2612 44.1577 37.3091C43.8701 37.3571 43.5826 37.1653 43.5347 36.8777C43.4868 36.59 43.6784 36.3024 43.966 36.2544Z" fill="white"/>
<path d="M22.0651 68.9507C22.3047 68.7589 22.6401 68.8069 22.8318 68.9986C23.0235 69.2383 22.9756 69.5739 22.7839 69.7657C22.5443 69.9575 22.2089 69.9095 22.0172 69.7178C21.8255 69.4781 21.8255 69.1425 22.0651 68.9507Z" fill="white"/>
<path d="M20.1985 75.3269C20.3901 75.1352 20.7256 75.1352 20.9652 75.3269C21.1569 75.5187 21.1569 75.8543 20.9652 76.094C20.7735 76.2858 20.4381 76.2858 20.1985 76.094C20.0068 75.8543 20.0068 75.5187 20.1985 75.3269Z" fill="white"/>
<path d="M18.9033 81.7991C19.095 81.5594 19.4304 81.5594 19.67 81.7511C19.9096 81.9429 19.9096 82.2785 19.7179 82.5182C19.5262 82.7579 19.1908 82.7579 18.9512 82.5661C18.7595 82.3744 18.7116 82.0388 18.9033 81.7991Z" fill="white"/>
<path d="M18.184 88.4152C18.3757 88.1754 18.6632 88.1275 18.9028 88.2713C19.1424 88.4152 19.1903 88.7507 19.0466 88.9905C18.8549 89.2302 18.5674 89.2781 18.3278 89.1343C18.0882 88.9905 17.9923 88.6549 18.184 88.4152Z" fill="white"/>
<path d="M18.0402 95.0308C18.184 94.7911 18.5194 94.6952 18.759 94.8391C18.9986 94.9829 19.0945 95.3185 18.9507 95.5582C18.8069 95.7979 18.4715 95.8938 18.2319 95.75C17.9923 95.6061 17.8964 95.2705 18.0402 95.0308Z" fill="white"/>
<path d="M29.0156 132.809C29.0156 132.521 29.2552 132.282 29.5428 132.282C29.8303 132.282 30.0699 132.521 30.0699 132.809C30.0699 133.097 29.8303 133.336 29.5428 133.336C29.2552 133.336 29.0156 133.097 29.0156 132.809Z" fill="white"/>
<path d="M32.6585 138.322C32.6106 138.035 32.8502 137.795 33.1377 137.747C33.4252 137.699 33.6648 137.939 33.7127 138.226C33.7607 138.514 33.5211 138.754 33.2335 138.802C32.946 138.85 32.7064 138.61 32.6585 138.322Z" fill="white"/>
<path d="M36.8277 143.5C36.7797 143.213 36.9714 142.925 37.2589 142.877C37.5465 142.829 37.834 143.021 37.8819 143.308C37.9298 143.596 37.7381 143.884 37.4506 143.932C37.1631 143.98 36.8756 143.788 36.8277 143.5Z" fill="white"/>
<path d="M41.3804 148.294C41.2846 148.007 41.4762 147.719 41.7638 147.623C42.0513 147.527 42.3388 147.719 42.3867 148.007C42.4826 148.294 42.2909 148.582 42.0034 148.678C41.7638 148.774 41.4762 148.582 41.3804 148.294Z" fill="white"/>
<path d="M46.3616 152.657C46.2658 152.369 46.4095 152.082 46.697 151.986C46.9846 151.89 47.2721 152.034 47.3679 152.321C47.4638 152.609 47.32 152.897 47.0325 152.992C46.7929 153.088 46.4574 152.944 46.3616 152.657Z" fill="white"/>
<path d="M51.7292 156.588C51.5855 156.3 51.7292 156.013 51.9688 155.869C52.2564 155.725 52.5439 155.869 52.6877 156.109C52.8314 156.396 52.6877 156.684 52.448 156.828C52.1605 156.972 51.8251 156.876 51.7292 156.588Z" fill="white"/>
<path d="M88.9629 169.293C88.7233 169.101 88.6754 168.814 88.8191 168.574C88.9629 168.334 89.2984 168.286 89.538 168.43C89.7776 168.622 89.8255 168.909 89.6817 169.149C89.49 169.389 89.2025 169.437 88.9629 169.293Z" fill="white"/>
<path d="M95.5756 169.436C95.336 169.293 95.2402 168.957 95.384 168.717C95.5277 168.478 95.8632 168.382 96.1028 168.526C96.3424 168.669 96.4382 169.005 96.2944 169.245C96.1507 169.484 95.8152 169.58 95.5756 169.436Z" fill="white"/>
<path d="M102.188 169.005C101.901 168.861 101.805 168.573 101.949 168.286C102.093 167.998 102.38 167.902 102.668 168.046C102.955 168.19 103.051 168.478 102.907 168.765C102.764 169.005 102.428 169.149 102.188 169.005Z" fill="white"/>
<path d="M108.756 167.998C108.468 167.902 108.324 167.615 108.42 167.327C108.516 167.039 108.804 166.896 109.091 166.991C109.379 167.087 109.522 167.375 109.427 167.663C109.331 167.95 108.995 168.094 108.756 167.998Z" fill="white"/>
<path d="M115.178 166.416C114.89 166.32 114.746 166.033 114.794 165.745C114.89 165.458 115.178 165.314 115.417 165.362C115.705 165.458 115.848 165.745 115.801 166.033C115.753 166.368 115.465 166.512 115.178 166.416Z" fill="white"/>
<path d="M121.454 164.307C121.167 164.259 120.975 163.971 121.023 163.683C121.071 163.396 121.358 163.204 121.646 163.252C121.933 163.3 122.125 163.588 122.077 163.875C122.029 164.163 121.742 164.355 121.454 164.307Z" fill="white"/>
<path d="M144.025 150.644C143.737 150.692 143.45 150.5 143.402 150.212C143.354 149.924 143.546 149.637 143.833 149.589C144.121 149.541 144.408 149.733 144.456 150.02C144.504 150.308 144.312 150.596 144.025 150.644Z" fill="white"/>
<path d="M148.817 146.041C148.529 146.137 148.242 145.945 148.146 145.657C148.05 145.37 148.242 145.082 148.529 145.034C148.817 144.938 149.104 145.13 149.152 145.418C149.248 145.705 149.104 145.993 148.817 146.041Z" fill="white"/>
<path d="M153.177 141.055C152.889 141.151 152.602 141.007 152.506 140.719C152.41 140.432 152.554 140.144 152.842 140.048C153.129 139.952 153.417 140.096 153.512 140.384C153.608 140.671 153.465 140.959 153.177 141.055Z" fill="white"/>
<path d="M157.108 135.734C156.821 135.877 156.533 135.734 156.389 135.494C156.246 135.254 156.389 134.918 156.629 134.775C156.917 134.631 157.204 134.775 157.348 135.014C157.492 135.302 157.396 135.59 157.108 135.734Z" fill="white"/>
<path d="M160.56 130.077C160.32 130.22 159.985 130.125 159.841 129.885C159.697 129.645 159.793 129.31 160.033 129.166C160.272 129.022 160.608 129.118 160.751 129.357C160.895 129.597 160.799 129.933 160.56 130.077Z" fill="white"/>
<path d="M163.479 124.132C163.24 124.276 162.904 124.228 162.761 123.988C162.617 123.748 162.665 123.413 162.904 123.269C163.144 123.125 163.479 123.173 163.623 123.413C163.815 123.604 163.719 123.94 163.479 124.132Z" fill="white"/>
<path d="M165.924 117.947C165.684 118.139 165.349 118.091 165.157 117.899C164.965 117.66 165.013 117.324 165.205 117.132C165.445 116.941 165.78 116.989 165.972 117.18C166.164 117.42 166.116 117.756 165.924 117.947Z" fill="white"/>
<path d="M168.512 78.6827C168.417 78.9703 168.129 79.1142 167.842 79.0183C167.554 78.9224 167.41 78.6348 167.506 78.3471C167.602 78.0595 167.889 77.9156 168.177 78.0115C168.465 78.1074 168.608 78.395 168.512 78.6827Z" fill="white"/>
<path d="M166.931 72.2584C166.835 72.546 166.547 72.6899 166.26 72.6419C165.972 72.5461 165.828 72.2584 165.876 71.9707C165.972 71.6831 166.26 71.5393 166.547 71.5872C166.835 71.6831 167.026 71.9707 166.931 72.2584Z" fill="white"/>
<path d="M164.823 65.9782C164.775 66.2659 164.488 66.4577 164.2 66.4097C163.913 66.3618 163.721 66.0741 163.769 65.7865C163.817 65.4988 164.104 65.3071 164.392 65.355C164.68 65.4029 164.871 65.6906 164.823 65.9782Z" fill="white"/>
<path d="M162.139 59.8895C162.091 60.1772 161.851 60.4169 161.563 60.369C161.276 60.321 161.036 60.0813 161.084 59.7937C161.132 59.506 161.372 59.2663 161.659 59.3142C161.947 59.3622 162.186 59.6019 162.139 59.8895Z" fill="white"/>
<path d="M179.199 134.439C178.912 134.439 178.72 134.247 178.72 133.96V132.521C178.72 131.706 179.391 131.083 180.014 130.508C180.206 130.364 180.35 130.172 180.541 130.028C180.925 129.645 181.116 129.165 181.116 128.686C181.116 127.631 180.254 126.768 179.199 126.768C178.145 126.768 177.283 127.631 177.283 128.686C177.283 128.974 177.091 129.165 176.803 129.165C176.516 129.165 176.324 128.974 176.324 128.686C176.324 127.104 177.618 125.81 179.199 125.81C180.781 125.81 182.075 127.104 182.075 128.686C182.075 129.453 181.787 130.172 181.212 130.7C181.02 130.891 180.829 131.035 180.637 131.227C180.11 131.658 179.631 132.09 179.631 132.521V133.96C179.679 134.247 179.439 134.439 179.199 134.439Z" fill="white"/>
<path d="M179.725 134.966H178.719V135.973H179.725V134.966Z" fill="white"/>
<path d="M94.9065 189.668C94.619 189.668 94.4273 189.476 94.4273 189.189V187.75C94.4273 186.935 95.0982 186.312 95.7212 185.737C95.9128 185.593 96.0566 185.401 96.2483 185.257C96.6317 184.874 96.8233 184.394 96.8233 183.915C96.8233 182.86 95.9608 181.997 94.9065 181.997C93.8522 181.997 92.9897 182.86 92.9897 183.915C92.9897 184.203 92.798 184.394 92.5105 184.394C92.2229 184.394 92.0312 184.203 92.0312 183.915C92.0312 182.333 93.3251 181.039 94.9065 181.039C96.4879 181.039 97.7818 182.333 97.7818 183.915C97.7818 184.682 97.4942 185.401 96.9192 185.929C96.7275 186.12 96.5358 186.264 96.3441 186.456C95.817 186.887 95.3378 187.319 95.3378 187.75V189.189C95.3857 189.428 95.194 189.668 94.9065 189.668Z" fill="white"/>
<path d="M95.4829 190.147H94.4766V191.154H95.4829V190.147Z" fill="white"/>
<path d="M115.848 8.83167C115.56 8.83167 115.369 8.6399 115.369 8.35225V6.914C115.369 6.09899 116.04 5.47574 116.663 4.90044C116.854 4.75662 116.998 4.56485 117.19 4.42102C117.573 4.03749 117.765 3.55807 117.765 3.07865C117.765 2.02394 116.902 1.16098 115.848 1.16098C114.794 1.16098 113.931 2.02394 113.931 3.07865C113.931 3.36631 113.739 3.55807 113.452 3.55807C113.164 3.55807 112.973 3.36631 112.973 3.07865C112.973 1.49658 114.267 0.202148 115.848 0.202148C117.429 0.202148 118.723 1.49658 118.723 3.07865C118.723 3.84572 118.436 4.56485 117.861 5.09221C117.669 5.28398 117.477 5.4278 117.286 5.61957C116.758 6.09899 116.279 6.48252 116.279 6.914V8.35225C116.327 8.59196 116.088 8.83167 115.848 8.83167Z" fill="white"/>
<path d="M116.374 9.31104H115.367V10.3178H116.374V9.31104Z" fill="white"/>
<path d="M80.7227 99.2499V87.648C80.7227 80.3129 86.6649 74.3682 93.9967 74.3682C101.329 74.3682 107.271 80.3129 107.271 87.648V99.2499C107.271 105.962 102.287 111.523 95.8177 112.434" stroke="white" stroke-width="2" stroke-miterlimit="10"/>
<path d="M104.105 99.2498C104.105 104.859 99.5529 109.366 93.9941 109.366C88.3874 109.366 83.8828 104.811 83.8828 99.2498V87.6479C83.8828 82.0387 88.4353 77.5322 93.9941 77.5322C99.6009 77.5322 104.105 82.0867 104.105 87.6479V99.2498Z" stroke="white" stroke-width="2" stroke-miterlimit="10"/>
<path d="M80.7209 98.9621C79.7625 98.9621 78.852 98.5786 78.229 97.9553C77.606 97.3321 77.2227 96.4212 77.2227 95.4623V93.5447C77.2227 91.627 78.804 90.0449 80.7209 90.0449" stroke="white" stroke-width="2" stroke-miterlimit="10"/>
<path d="M107.27 90.0449C109.186 90.0449 110.768 91.627 110.768 93.5447V95.4623C110.768 96.4212 110.384 97.3321 109.761 97.9553C109.138 98.5786 108.228 98.9621 107.27 98.9621" stroke="white" stroke-width="2" stroke-miterlimit="10"/>
<path d="M98.1172 85.8262C98.1172 85.8262 98.3568 88.463 99.2194 89.6136C101.136 92.2024 104.107 91.2915 104.107 91.2915" stroke="white" stroke-width="2" stroke-miterlimit="10" stroke-linecap="round"/>
<path d="M83.8828 90.045H94.9046C94.9046 90.045 97.7319 90.1408 98.1153 85.874" stroke="white" stroke-width="2" stroke-miterlimit="10" stroke-linecap="round"/>
<path d="M95.8149 112.53C95.8149 113.537 95.0003 114.4 93.946 114.4C92.9397 114.4 92.125 113.585 92.125 112.53C92.125 111.523 92.9397 110.66 93.946 110.66C95.0003 110.708 95.8149 111.523 95.8149 112.53Z" stroke="white" stroke-width="2" stroke-miterlimit="10" stroke-linecap="round"/>
<path d="M133.624 96.9487C133.624 109.222 128.066 120.2 119.296 127.488C112.443 133.193 103.626 136.645 93.9939 136.645C84.3618 136.645 75.5443 133.193 68.6916 127.488C59.9221 120.2 54.3633 109.222 54.3633 96.9487C54.3633 75.0393 72.1419 57.2529 94.0418 57.2529C115.894 57.2529 133.624 75.0393 133.624 96.9487Z" stroke="white" stroke-width="2" stroke-miterlimit="10"/>
<path d="M119.296 119.29V127.488C112.443 133.193 103.626 136.645 93.9936 136.645C84.3615 136.645 75.5441 133.193 68.6914 127.488V119.29C68.6914 117.708 69.9853 116.413 71.5667 116.413H116.469C118.002 116.413 119.296 117.708 119.296 119.29Z" stroke="white" stroke-width="2" stroke-miterlimit="10"/>
<path d="M97.5415 130.076C97.5415 132.042 95.9601 133.624 93.9954 133.624C92.0306 133.624 90.4492 132.042 90.4492 130.076C90.4492 128.111 92.0306 126.529 93.9954 126.529C95.9601 126.529 97.5415 128.111 97.5415 130.076Z" stroke="white" stroke-width="2" stroke-miterlimit="10"/>
<path d="M73.5312 116.413C73.5312 116.413 73.5312 115.406 73.5312 114.112C73.5312 112.818 74.5376 111.475 75.7835 110.996L87.2366 106.777" stroke="white" stroke-width="2" stroke-miterlimit="10"/>
<path d="M114.123 116.413C114.123 116.413 114.123 115.406 114.123 114.112C114.123 112.818 113.117 111.475 111.871 110.996L100.418 106.777" stroke="white" stroke-width="2" stroke-miterlimit="10"/>
<path d="M156.533 32.6588C156.533 40.1377 150.447 46.2263 142.972 46.2263C135.496 46.2263 129.41 40.1377 129.41 32.6588C129.41 25.1799 135.496 19.0913 142.972 19.0913C150.447 19.0913 156.533 25.1799 156.533 32.6588Z" stroke="white" stroke-width="2" stroke-miterlimit="10"/>
<path d="M142.971 25.4678L136.789 28.9675C136.933 37.8367 142.923 40.3297 142.923 40.3297C142.923 40.3297 148.913 37.8367 149.057 28.9675L142.971 25.4678Z" stroke="white" stroke-width="2" stroke-miterlimit="10"/>
<path d="M175.077 83.1895C167.409 83.1895 161.18 89.4219 161.18 97.0926C161.18 99.6335 161.851 102.031 163.049 104.092L161.899 111.044L168.895 109.605C170.764 110.516 172.872 111.044 175.077 111.044C182.744 111.044 189.022 104.811 189.022 97.1405C189.022 89.4219 182.792 83.1895 175.077 83.1895Z" stroke="white" stroke-width="2" stroke-miterlimit="10"/>
<path d="M167.793 92.9697H182.409" stroke="white" stroke-width="2" stroke-miterlimit="10"/>
<path d="M167.793 96.1816H182.409" stroke="white" stroke-width="2" stroke-miterlimit="10"/>
<path d="M167.793 99.4419H182.409" stroke="white" stroke-width="2" stroke-miterlimit="10"/>
<path d="M167.793 102.702H177.09" stroke="white" stroke-width="2" stroke-miterlimit="10"/>
<path d="M155.861 168.286C155.861 176.532 149.2 183.196 140.958 183.196C132.716 183.196 126.055 176.532 126.055 168.286C126.055 160.04 132.716 153.376 140.958 153.376C149.2 153.376 155.861 160.04 155.861 168.286Z" stroke="white" stroke-width="2" stroke-miterlimit="10" stroke-linecap="round"/>
<path d="M136.98 164.738C136.98 162.629 138.706 160.903 140.814 160.903C142.923 160.903 144.648 162.629 144.648 164.738C144.648 165.793 144.217 166.752 143.546 167.423C142.396 168.574 140.862 169.58 140.862 170.827V173.128" stroke="white" stroke-width="2" stroke-miterlimit="10" stroke-linecap="round"/>
<path d="M141.198 174.087H140.527V174.758H141.198V174.087Z" fill="white"/>
<path d="M80.8167 174.039C80.8167 183.052 73.5327 190.339 64.5236 190.339C55.5144 190.339 48.2305 183.052 48.2305 174.039C48.2305 165.026 55.5144 157.739 64.5236 157.739C73.5327 157.739 80.8167 165.026 80.8167 174.039Z" stroke="white" stroke-width="2" stroke-miterlimit="10"/>
<path d="M74.9717 169.82C74.9717 173.368 72.0964 176.244 68.5503 176.244C66.9689 176.244 65.5792 175.669 64.477 174.758C63.9499 174.327 63.4707 173.799 63.0873 173.176C62.5123 172.217 62.1289 171.067 62.1289 169.82C62.1289 166.272 65.0042 163.396 68.5503 163.396C72.0964 163.444 74.9717 166.32 74.9717 169.82Z" stroke="white" stroke-width="2" stroke-miterlimit="10"/>
<path d="M68.5486 174.375C67.4464 174.375 66.488 173.991 65.6733 173.32C65.29 172.984 64.9545 172.601 64.667 172.169C64.2357 171.45 63.9961 170.635 63.9961 169.82C63.9961 167.327 66.0567 165.266 68.5486 165.266C71.0405 165.266 73.1011 167.327 73.1011 169.82C73.1011 172.361 71.0405 174.375 68.5486 174.375Z" stroke="white" stroke-width="2" stroke-miterlimit="10"/>
<path d="M64.4759 174.758C63.9488 174.327 63.4696 173.8 63.0862 173.176L54.4604 181.806C54.2688 181.998 54.125 182.285 54.125 182.573C54.125 183.148 54.6042 183.628 55.1793 183.628C55.4668 183.628 55.7064 183.532 55.8981 183.34L64.4759 174.758Z" stroke="white" stroke-width="2" stroke-miterlimit="10"/>
<path d="M6.15593 107.832L0.980469 111.044" stroke="white" stroke-width="2" stroke-miterlimit="10" stroke-linecap="round"/>
<path d="M30.4499 110.947L25.2266 107.735" stroke="white" stroke-width="2" stroke-miterlimit="10" stroke-linecap="round"/>
<path d="M10.8516 106.633H20.5795" stroke="white" stroke-width="2" stroke-miterlimit="10" stroke-linecap="round"/>
<path d="M10.8516 108.79H20.5795" stroke="white" stroke-width="2" stroke-miterlimit="10" stroke-linecap="round"/>
<path d="M10.8516 110.948H20.5795" stroke="white" stroke-width="2" stroke-miterlimit="10" stroke-linecap="round"/>
<path d="M10.8516 113.105H17.0334" stroke="white" stroke-width="2" stroke-miterlimit="10" stroke-linecap="round"/>
<path d="M0.980469 111.043H6.15593" stroke="white" stroke-width="2" stroke-miterlimit="10" stroke-linecap="round"/>
<path d="M30.4518 111.043V129.357H0.980469V111.043" stroke="white" stroke-width="2" stroke-miterlimit="10" stroke-linecap="round"/>
<path d="M25.2266 111.043H30.4499" stroke="white" stroke-width="2" stroke-miterlimit="10" stroke-linecap="round"/>
<path d="M30.4518 111.043L25.2284 114.256L15.6922 120.2L6.15593 114.256L0.980469 111.043" stroke="white" stroke-width="2" stroke-miterlimit="10" stroke-linecap="round"/>
<path d="M6.15625 111.043V102.222H25.2288V111.043" stroke="white" stroke-width="2" stroke-miterlimit="10" stroke-linecap="round"/>
<path d="M25.2288 111.043V114.256L15.6925 120.2L6.15625 114.256V111.043" stroke="white" stroke-width="2" stroke-miterlimit="10" stroke-linecap="round"/>
<path d="M0.980469 129.357L15.6922 120.2L30.4518 129.357" stroke="white" stroke-width="2" stroke-miterlimit="10" stroke-linecap="round"/>
<path d="M42.3381 49.8698C42.3381 57.3487 36.2521 63.4373 28.7765 63.4373C21.3008 63.4373 15.2148 57.3487 15.2148 49.8698C15.2148 42.3908 21.2529 36.3022 28.7765 36.3022C36.2521 36.3022 42.3381 42.3908 42.3381 49.8698Z" stroke="white" stroke-width="2" stroke-miterlimit="10"/>
<path d="M23.3123 52.219C23.4082 52.219 23.4561 52.2669 23.504 52.3148C23.5519 52.3628 23.5999 52.4107 23.5999 52.5066V52.986H19.3828V52.6984C19.3828 52.6504 19.3828 52.6025 19.4307 52.5066C19.4307 52.4587 19.4787 52.4107 19.5266 52.3628L21.5393 50.3492C21.683 50.1575 21.8747 50.0136 22.0185 49.8698C22.1622 49.726 22.2581 49.5342 22.3539 49.3904C22.4497 49.2466 22.5456 49.0548 22.5935 48.911C22.6414 48.7672 22.6894 48.5754 22.6894 48.3836C22.6894 48.1919 22.6414 48.048 22.5935 47.9042C22.5456 47.7604 22.4497 47.6645 22.3539 47.5686C22.2581 47.4727 22.1143 47.4248 22.0185 47.3768C21.9226 47.3289 21.7309 47.3289 21.5872 47.3289C21.4434 47.3289 21.2996 47.3289 21.1559 47.3768C21.0121 47.4248 20.9163 47.4727 20.8204 47.5686C20.7246 47.6645 20.6288 47.7604 20.5808 47.8563C20.5329 47.9521 20.485 48.096 20.4371 48.2398C20.3891 48.3357 20.3412 48.4316 20.2933 48.4316C20.2454 48.4795 20.1495 48.4795 20.0537 48.4795L19.6224 48.4316C19.6703 48.1439 19.7662 47.9042 19.862 47.6645C19.9579 47.4248 20.1495 47.281 20.2933 47.0892C20.485 46.9454 20.6767 46.8495 20.9163 46.7536C21.1559 46.6577 21.3955 46.6577 21.683 46.6577C21.9705 46.6577 22.2101 46.7057 22.4497 46.7536C22.6894 46.8015 22.881 46.9454 23.0727 47.0892C23.2644 47.233 23.3602 47.4248 23.4561 47.6645C23.5519 47.9042 23.5999 48.1439 23.5999 48.3836C23.5999 48.6233 23.5519 48.8151 23.504 49.0548C23.4561 49.2945 23.3602 49.4383 23.2165 49.6301C23.1206 49.8219 22.9769 49.9657 22.7852 50.1575C22.6414 50.3492 22.4497 50.4931 22.306 50.6848L20.6288 52.3628C20.7246 52.3148 20.8684 52.3148 20.9642 52.2669C21.108 52.2669 21.2038 52.219 21.2996 52.219H23.3123Z" fill="white"/>
<path d="M28.9199 50.6844V51.1159C28.9199 51.1638 28.9199 51.2118 28.872 51.2118C28.8241 51.2597 28.8241 51.2597 28.7283 51.2597H27.9615V52.9377H27.2906V51.2597H24.5112C24.4633 51.2597 24.4154 51.2597 24.3675 51.2118C24.3195 51.1638 24.3195 51.1159 24.2716 51.068L24.1758 50.6844L27.2427 46.6094H27.9615V50.6365H28.9199V50.6844ZM27.2906 50.6844V48.0956C27.2906 47.9997 27.2906 47.9517 27.2906 47.8559C27.2906 47.76 27.2906 47.6641 27.3386 47.5682L25.0384 50.6844H27.2906Z" fill="white"/>
<path d="M30.212 53.0817C30.1641 53.1776 30.1162 53.2735 30.0204 53.3214C29.9245 53.3693 29.8766 53.4173 29.7808 53.4173H29.4453L32.1289 46.8013C32.1768 46.7054 32.2247 46.6575 32.2726 46.6096C32.3206 46.5616 32.4164 46.5137 32.5123 46.5137H32.8477L30.212 53.0817Z" fill="white"/>
<path d="M37.8793 46.6577V46.9933C37.8793 47.0892 37.8793 47.1851 37.8314 47.233C37.7834 47.281 37.7834 47.3289 37.7834 47.3768L35.1957 52.6504C35.1478 52.7463 35.0999 52.7943 35.052 52.8422C35.004 52.8901 34.9082 52.9381 34.7644 52.9381H34.1894L36.825 47.7604C36.8729 47.6645 36.9209 47.6166 36.9209 47.5686C36.9688 47.5207 37.0167 47.4248 37.0646 47.3768H33.7581C33.7102 47.3768 33.6622 47.3768 33.6143 47.3289C33.5664 47.281 33.5664 47.233 33.5664 47.1851V46.6577H37.8793Z" fill="white"/>
<path d="M93.9006 19.0914C93.9006 26.5704 87.8146 32.659 80.339 32.659C72.8633 32.659 66.7773 26.5704 66.7773 19.0914C66.7773 11.6125 72.8633 5.52393 80.339 5.52393C87.8625 5.52393 93.9006 11.6125 93.9006 19.0914Z" stroke="white" stroke-width="2" stroke-miterlimit="10"/>
<path d="M80.3401 30.7411C73.9187 30.7411 68.6953 25.5155 68.6953 19.0913C68.6953 12.6671 73.9187 7.44141 80.3401 7.44141C86.7615 7.44141 91.9849 12.6671 91.9849 19.0913C91.9849 25.5155 86.7615 30.7411 80.3401 30.7411Z" stroke="white" stroke-width="2" stroke-miterlimit="10"/>
<path d="M80.3398 9.98242V19.3311L85.1319 24.1252" stroke="white" stroke-width="2" stroke-miterlimit="10" stroke-linecap="round"/>
</g>
<defs>
<clipPath id="clip0_2647_505">
<rect width="189" height="191" fill="white" transform="translate(0.5 0.202148)"/>
</clipPath>
</defs>
</svg>
