<svg width="541" height="545" viewBox="0 0 541 545" fill="none" xmlns="http://www.w3.org/2000/svg">
<g clip-path="url(#clip0_2608_578)">
<path d="M424.887 215.182C424.065 215.182 423.518 214.635 423.518 213.814V194.252C423.518 193.431 424.065 192.884 424.887 192.884C425.708 192.884 426.256 193.431 426.256 194.252V213.677C426.256 214.498 425.708 215.182 424.887 215.182Z" fill="white"/>
<path d="M434.745 205.469H415.166C414.345 205.469 413.797 204.922 413.797 204.101C413.797 203.281 414.345 202.733 415.166 202.733H434.608C435.43 202.733 435.977 203.281 435.977 204.101C435.977 204.922 435.43 205.469 434.745 205.469Z" fill="white"/>
<path d="M165.703 144.184C164.882 144.184 164.334 143.637 164.334 142.816V123.391C164.334 122.57 164.882 122.023 165.703 122.023C166.525 122.023 167.072 122.57 167.072 123.391V142.816C167.072 143.637 166.388 144.184 165.703 144.184Z" fill="white"/>
<path d="M175.425 134.471H155.982C155.161 134.471 154.613 133.924 154.613 133.103C154.613 132.283 155.161 131.735 155.982 131.735H175.425C176.246 131.735 176.794 132.283 176.794 133.103C176.794 133.924 176.109 134.471 175.425 134.471Z" fill="white"/>
<path d="M499.919 420.925H480.477C479.655 420.925 479.107 420.378 479.107 419.557C479.107 418.736 479.655 418.189 480.477 418.189H499.919C500.74 418.189 501.288 418.736 501.288 419.557C501.288 420.378 500.603 420.925 499.919 420.925Z" fill="white"/>
<path d="M144.07 403.552C143.249 403.552 142.701 403.005 142.701 402.184V382.759C142.701 381.938 143.249 381.391 144.07 381.391C144.892 381.391 145.44 381.938 145.44 382.759V402.184C145.44 403.005 144.755 403.552 144.07 403.552Z" fill="white"/>
<path d="M153.792 393.839H134.35C133.528 393.839 132.98 393.292 132.98 392.471C132.98 391.65 133.528 391.103 134.35 391.103H153.792C154.613 391.103 155.161 391.65 155.161 392.471C155.161 393.292 154.613 393.839 153.792 393.839Z" fill="white"/>
<path d="M504.026 167.576C500.604 167.576 497.865 164.84 497.865 161.421C497.865 158.001 500.604 155.265 504.026 155.265C507.449 155.265 510.188 158.001 510.188 161.421C510.188 164.84 507.449 167.576 504.026 167.576ZM504.026 158.001C502.11 158.001 500.604 159.505 500.604 161.421C500.604 163.336 502.11 164.84 504.026 164.84C505.943 164.84 507.449 163.336 507.449 161.421C507.449 159.505 505.943 158.001 504.026 158.001Z" fill="white"/>
<path d="M310.015 539.255C306.592 539.255 303.854 536.519 303.854 533.099C303.854 529.679 306.592 526.943 310.015 526.943C313.438 526.943 316.176 529.679 316.176 533.099C316.176 536.519 313.438 539.255 310.015 539.255ZM310.015 529.679C308.098 529.679 306.592 531.184 306.592 533.099C306.592 535.014 308.098 536.519 310.015 536.519C311.932 536.519 313.438 535.014 313.438 533.099C313.438 531.184 311.932 529.679 310.015 529.679Z" fill="white"/>
<path d="M298.788 129.274L297.555 126.538C296.049 123.254 294.954 122.16 291.668 120.655L288.93 119.424L291.668 118.193C294.954 116.688 296.049 115.594 297.555 112.311L298.788 109.575L300.02 112.311C301.526 115.594 302.621 116.688 305.907 118.193L308.646 119.424L305.907 120.655C302.621 122.16 301.526 123.254 300.02 126.538L298.788 129.274ZM295.091 119.287C296.734 120.245 297.692 121.339 298.788 122.981C299.746 121.339 300.841 120.382 302.484 119.287C300.841 118.33 299.883 117.235 298.788 115.594C297.692 117.235 296.734 118.33 295.091 119.287Z" fill="white"/>
<path d="M15.5065 246.645L14.2742 243.909C12.7681 240.626 11.6728 239.532 8.38677 238.027L5.64844 236.796L8.38677 235.565C11.6728 234.06 12.7681 232.965 14.2742 229.682L15.5065 226.946L16.7387 229.682C18.2448 232.965 19.3401 234.06 22.6261 235.565L25.3645 236.796L22.6261 238.027C19.3401 239.532 18.2448 240.626 16.7387 243.909L15.5065 246.645ZM11.9466 236.796C13.5896 237.753 14.548 238.848 15.6434 240.489C16.6018 238.848 17.6971 237.89 19.3401 236.796C17.6971 235.838 16.7387 234.744 15.6434 233.102C14.548 234.744 13.4527 235.701 11.9466 236.796Z" fill="white"/>
<path d="M62.8795 458.544L61.6472 455.808C60.1412 452.525 59.0458 451.431 55.7598 449.926L53.0215 448.695L55.7598 447.463C59.0458 445.959 60.1412 444.864 61.6472 441.581L62.8795 438.845L64.1117 441.581C65.6178 444.864 66.7132 445.959 69.9992 447.463L72.7375 448.695L69.9992 449.926C66.7132 451.431 65.6178 452.525 64.1117 455.808L62.8795 458.544ZM59.3197 448.558C60.9627 449.515 61.9211 450.61 63.0164 452.251C63.9748 450.61 65.0702 449.652 66.7132 448.558C65.0702 447.6 64.1117 446.506 63.0164 444.864C61.9211 446.506 60.8257 447.6 59.3197 448.558Z" fill="white"/>
<path d="M110.937 60.0539C107.514 60.0539 104.775 57.318 104.775 53.8981C104.775 50.4781 107.514 47.7422 110.937 47.7422C114.36 47.7422 117.098 50.4781 117.098 53.8981C117.098 57.318 114.223 60.0539 110.937 60.0539ZM110.937 50.4781C109.02 50.4781 107.514 51.9829 107.514 53.8981C107.514 55.8132 109.02 57.318 110.937 57.318C112.853 57.318 114.36 55.8132 114.36 53.8981C114.36 51.9829 112.717 50.4781 110.937 50.4781Z" fill="white"/>
<path d="M453.092 153.76C453.092 154.581 452.408 155.265 451.586 155.265C450.765 155.265 450.08 154.581 450.08 153.76C450.08 152.939 450.765 152.255 451.586 152.255C452.408 152.255 453.092 152.939 453.092 153.76Z" fill="white"/>
<path d="M442.549 138.029C442.686 138.849 442.002 139.533 441.18 139.67C440.359 139.807 439.674 139.123 439.537 138.302C439.4 137.481 440.085 136.797 440.906 136.661C441.728 136.524 442.549 137.208 442.549 138.029Z" fill="white"/>
<path d="M355.061 67.5778C355.608 68.2617 355.335 69.2193 354.65 69.6297C353.965 70.0401 353.007 69.9033 352.596 69.2193C352.186 68.5353 352.322 67.5778 353.007 67.1674C353.555 66.757 354.513 66.8938 355.061 67.5778Z" fill="white"/>
<path d="M337.399 60.7381C337.947 61.4221 337.81 62.3796 337.262 62.9268C336.577 63.474 335.619 63.3372 335.071 62.79C334.524 62.106 334.661 61.1485 335.208 60.6013C335.893 60.0541 336.851 60.1909 337.399 60.7381Z" fill="white"/>
<path d="M319.187 55.4031C319.735 55.9503 319.735 56.9078 319.187 57.5918C318.64 58.139 317.681 58.139 316.997 57.5918C316.449 57.0446 316.449 56.0871 316.997 55.4031C317.681 54.8559 318.64 54.8559 319.187 55.4031Z" fill="white"/>
<path d="M300.705 51.7092C301.389 52.2564 301.389 53.214 300.842 53.8979C300.294 54.5819 299.336 54.5819 298.651 54.0347C297.967 53.4875 297.967 52.53 298.514 51.846C299.062 51.2988 300.02 51.162 300.705 51.7092Z" fill="white"/>
<path d="M281.81 49.6576C282.495 50.2048 282.632 51.0256 282.221 51.7096C281.81 52.3935 280.852 52.5303 280.167 52.12C279.483 51.5728 279.346 50.752 279.756 50.068C280.167 49.384 281.126 49.2472 281.81 49.6576Z" fill="white"/>
<path d="M171.592 71.4082C172.414 71.545 173.098 72.229 172.961 73.0498C172.824 73.8706 172.14 74.5545 171.318 74.4177C170.497 74.2809 169.812 73.597 169.949 72.7762C170.086 71.9554 170.771 71.4082 171.592 71.4082Z" fill="white"/>
<path d="M155.026 80.5737C155.847 80.5737 156.532 81.2577 156.532 82.0785C156.532 82.8993 155.847 83.5833 155.026 83.5833C154.204 83.5833 153.52 82.8993 153.52 82.0785C153.52 81.2577 154.204 80.5737 155.026 80.5737Z" fill="white"/>
<path d="M139.279 91.1069C140.101 90.9701 140.785 91.6541 140.922 92.4748C141.059 93.2956 140.375 93.9796 139.553 94.1164C138.732 94.2532 138.047 93.5692 137.91 92.7484C137.773 91.7909 138.458 91.1069 139.279 91.1069Z" fill="white"/>
<path d="M124.491 102.872C125.313 102.735 126.134 103.282 126.271 104.103C126.408 104.923 125.861 105.744 125.039 105.881C124.218 106.018 123.396 105.471 123.259 104.65C123.122 103.829 123.67 103.008 124.491 102.872Z" fill="white"/>
<path d="M61.9207 196.167C62.6052 195.62 63.5637 195.757 64.1113 196.304C64.659 196.988 64.5221 197.946 63.9744 198.493C63.2898 199.04 62.3314 198.903 61.7837 198.356C61.2361 197.672 61.2361 196.714 61.9207 196.167Z" fill="white"/>
<path d="M56.5807 214.361C57.1283 213.814 58.0868 213.814 58.7713 214.361C59.319 214.908 59.319 215.866 58.7713 216.55C58.2237 217.097 57.2653 217.097 56.5807 216.55C56.033 215.866 56.033 214.908 56.5807 214.361Z" fill="white"/>
<path d="M52.8838 232.829C53.4315 232.145 54.3899 232.145 55.0745 232.692C55.7591 233.239 55.7591 234.197 55.2114 234.881C54.6637 235.565 53.7053 235.565 53.0207 235.018C52.473 234.47 52.3361 233.513 52.8838 232.829Z" fill="white"/>
<path d="M50.8304 251.707C51.3781 251.023 52.1996 250.886 52.8842 251.296C53.5687 251.707 53.7057 252.664 53.2949 253.348C52.7472 254.032 51.9257 254.169 51.2412 253.759C50.5566 253.348 50.2827 252.391 50.8304 251.707Z" fill="white"/>
<path d="M50.4196 270.585C50.8303 269.901 51.7887 269.627 52.4733 270.038C53.1579 270.448 53.4317 271.406 53.021 272.09C52.6102 272.773 51.6518 273.047 50.9672 272.637C50.2826 272.226 50.0088 271.269 50.4196 270.585Z" fill="white"/>
<path d="M81.7734 378.381C81.7734 377.56 82.458 376.876 83.2795 376.876C84.101 376.876 84.7856 377.56 84.7856 378.381C84.7856 379.202 84.101 379.886 83.2795 379.886C82.458 379.886 81.7734 379.202 81.7734 378.381Z" fill="white"/>
<path d="M92.1796 394.113C92.0427 393.292 92.7273 392.608 93.5488 392.471C94.3703 392.334 95.0549 393.018 95.1918 393.839C95.3287 394.66 94.6442 395.344 93.8227 395.481C93.0011 395.617 92.3166 394.933 92.1796 394.113Z" fill="white"/>
<path d="M104.091 408.887C103.954 408.066 104.502 407.245 105.324 407.108C106.145 406.972 106.967 407.519 107.103 408.34C107.24 409.16 106.693 409.981 105.871 410.118C105.05 410.255 104.228 409.707 104.091 408.887Z" fill="white"/>
<path d="M117.099 422.566C116.825 421.746 117.372 420.925 118.194 420.651C119.015 420.378 119.837 420.925 119.974 421.746C120.248 422.566 119.7 423.387 118.878 423.661C118.194 423.934 117.372 423.387 117.099 422.566Z" fill="white"/>
<path d="M131.338 435.015C131.065 434.194 131.475 433.374 132.297 433.1C133.118 432.826 133.94 433.237 134.214 434.058C134.487 434.878 134.077 435.699 133.255 435.973C132.571 436.246 131.612 435.836 131.338 435.015Z" fill="white"/>
<path d="M146.674 446.232C146.263 445.412 146.674 444.591 147.358 444.18C148.18 443.77 149.001 444.18 149.412 444.864C149.823 445.685 149.412 446.506 148.727 446.916C147.906 447.327 146.947 447.053 146.674 446.232Z" fill="white"/>
<path d="M253.058 482.484C252.373 481.937 252.236 481.116 252.647 480.432C253.058 479.748 254.016 479.611 254.701 480.021C255.385 480.569 255.522 481.389 255.112 482.073C254.564 482.757 253.742 482.894 253.058 482.484Z" fill="white"/>
<path d="M271.952 482.894C271.267 482.484 270.993 481.526 271.404 480.842C271.815 480.158 272.773 479.884 273.458 480.295C274.142 480.705 274.416 481.663 274.005 482.347C273.595 483.031 272.636 483.304 271.952 482.894Z" fill="white"/>
<path d="M290.846 481.663C290.024 481.252 289.751 480.432 290.161 479.611C290.572 478.79 291.394 478.516 292.215 478.927C293.037 479.337 293.31 480.158 292.9 480.979C292.489 481.663 291.531 482.073 290.846 481.663Z" fill="white"/>
<path d="M309.603 478.79C308.782 478.517 308.371 477.696 308.645 476.875C308.919 476.054 309.74 475.644 310.562 475.917C311.383 476.191 311.794 477.012 311.52 477.833C311.246 478.653 310.288 479.064 309.603 478.79Z" fill="white"/>
<path d="M327.951 474.276C327.13 474.002 326.719 473.181 326.856 472.361C327.13 471.54 327.951 471.129 328.636 471.266C329.457 471.54 329.868 472.361 329.731 473.181C329.594 474.139 328.773 474.549 327.951 474.276Z" fill="white"/>
<path d="M345.886 468.257C345.065 468.12 344.517 467.299 344.654 466.478C344.791 465.657 345.612 465.11 346.434 465.247C347.255 465.384 347.803 466.205 347.666 467.025C347.529 467.846 346.708 468.393 345.886 468.257Z" fill="white"/>
<path d="M410.375 429.27C409.554 429.407 408.732 428.859 408.595 428.039C408.458 427.218 409.006 426.397 409.827 426.26C410.649 426.123 411.47 426.671 411.607 427.491C411.744 428.312 411.197 429.133 410.375 429.27Z" fill="white"/>
<path d="M424.066 416.137C423.245 416.411 422.423 415.864 422.149 415.043C421.876 414.222 422.423 413.401 423.245 413.265C424.066 412.991 424.888 413.538 425.025 414.359C425.298 415.18 424.888 416 424.066 416.137Z" fill="white"/>
<path d="M436.525 401.91C435.703 402.184 434.882 401.773 434.608 400.953C434.334 400.132 434.745 399.311 435.566 399.038C436.388 398.764 437.209 399.174 437.483 399.995C437.757 400.816 437.346 401.637 436.525 401.91Z" fill="white"/>
<path d="M447.753 386.726C446.931 387.136 446.11 386.726 445.699 386.042C445.288 385.358 445.699 384.4 446.384 383.99C447.205 383.58 448.027 383.99 448.437 384.674C448.848 385.495 448.574 386.315 447.753 386.726Z" fill="white"/>
<path d="M457.61 370.583C456.925 370.994 455.967 370.72 455.556 370.036C455.146 369.352 455.419 368.395 456.104 367.984C456.789 367.574 457.747 367.848 458.158 368.532C458.568 369.215 458.295 370.173 457.61 370.583Z" fill="white"/>
<path d="M465.963 353.621C465.278 354.031 464.32 353.895 463.909 353.211C463.498 352.527 463.635 351.569 464.32 351.159C465.004 350.748 465.963 350.885 466.373 351.569C466.921 352.116 466.647 353.074 465.963 353.621Z" fill="white"/>
<path d="M472.946 335.974C472.261 336.521 471.303 336.384 470.755 335.837C470.207 335.153 470.344 334.195 470.892 333.648C471.576 333.101 472.535 333.238 473.082 333.785C473.63 334.469 473.493 335.427 472.946 335.974Z" fill="white"/>
<path d="M480.339 223.937C480.065 224.758 479.243 225.168 478.422 224.895C477.6 224.621 477.19 223.8 477.463 222.979C477.737 222.159 478.559 221.748 479.38 222.022C480.202 222.296 480.612 223.116 480.339 223.937Z" fill="white"/>
<path d="M475.821 205.606C475.547 206.427 474.726 206.837 473.904 206.701C473.083 206.427 472.672 205.606 472.809 204.785C473.083 203.965 473.904 203.554 474.726 203.691C475.547 203.965 476.095 204.785 475.821 205.606Z" fill="white"/>
<path d="M469.797 187.686C469.66 188.506 468.838 189.054 468.017 188.917C467.195 188.78 466.648 187.959 466.785 187.138C466.922 186.318 467.743 185.77 468.565 185.907C469.386 186.044 469.934 186.865 469.797 187.686Z" fill="white"/>
<path d="M462.129 170.312C461.992 171.133 461.308 171.817 460.486 171.68C459.665 171.544 458.98 170.86 459.117 170.039C459.254 169.218 459.939 168.534 460.76 168.671C461.582 168.808 462.266 169.492 462.129 170.312Z" fill="white"/>
<path d="M510.871 383.032C510.05 383.032 509.502 382.485 509.502 381.664V377.56C509.502 375.235 511.419 373.456 513.199 371.815C513.747 371.404 514.157 370.857 514.705 370.447C515.8 369.352 516.348 367.984 516.348 366.617C516.348 363.607 513.883 361.145 510.871 361.145C507.859 361.145 505.395 363.607 505.395 366.617C505.395 367.437 504.847 367.984 504.025 367.984C503.204 367.984 502.656 367.437 502.656 366.617C502.656 362.102 506.353 358.409 510.871 358.409C515.39 358.409 519.086 362.102 519.086 366.617C519.086 368.805 518.265 370.857 516.622 372.362C516.074 372.909 515.526 373.32 514.979 373.867C513.473 375.098 512.104 376.329 512.104 377.56V381.664C512.24 382.485 511.556 383.032 510.871 383.032Z" fill="white"/>
<path d="M512.377 384.537H509.502V387.41H512.377V384.537Z" fill="white"/>
<path d="M270.035 540.623C269.214 540.623 268.666 540.075 268.666 539.255V535.151C268.666 532.825 270.583 531.047 272.363 529.405C272.911 528.995 273.321 528.448 273.869 528.037C274.964 526.943 275.512 525.575 275.512 524.207C275.512 521.197 273.047 518.735 270.035 518.735C267.023 518.735 264.559 521.197 264.559 524.207C264.559 525.028 264.011 525.575 263.189 525.575C262.368 525.575 261.82 525.028 261.82 524.207C261.82 519.693 265.517 515.999 270.035 515.999C274.554 515.999 278.25 519.693 278.25 524.207C278.25 526.396 277.429 528.448 275.786 529.952C275.238 530.5 274.69 530.91 274.143 531.457C272.637 532.688 271.268 533.919 271.268 535.151V539.255C271.404 539.939 270.857 540.623 270.035 540.623Z" fill="white"/>
<path d="M271.678 541.991H268.803V544.863H271.678V541.991Z" fill="white"/>
<path d="M329.867 24.6235C329.046 24.6235 328.498 24.0763 328.498 23.2555V19.1516C328.498 16.8261 330.415 15.0477 332.195 13.4061C332.743 12.9957 333.153 12.4485 333.701 12.0382C334.796 10.9438 335.344 9.5758 335.344 8.20783C335.344 5.19829 332.88 2.73594 329.867 2.73594C326.855 2.73594 324.391 5.19829 324.391 8.20783C324.391 9.02861 323.843 9.5758 323.022 9.5758C322.2 9.5758 321.652 9.02861 321.652 8.20783C321.652 3.69352 325.349 0 329.867 0C334.386 0 338.082 3.69352 338.082 8.20783C338.082 10.3966 337.261 12.4485 335.618 13.9533C335.07 14.5005 334.523 14.9109 333.975 15.4581C332.469 16.8261 331.1 17.9204 331.1 19.1516V23.2555C331.237 23.9395 330.552 24.6235 329.867 24.6235Z" fill="white"/>
<path d="M331.373 25.9917H328.498V28.8644H331.373V25.9917Z" fill="white"/>
<path d="M229.508 282.623V249.518C229.508 228.588 246.486 211.625 267.434 211.625C288.382 211.625 305.36 228.588 305.36 249.518V282.623C305.36 301.774 291.12 317.643 272.637 320.242" stroke="white" stroke-width="2" stroke-miterlimit="10"/>
<path d="M296.322 282.623C296.322 298.628 283.315 311.487 267.432 311.487C251.413 311.487 238.543 298.491 238.543 282.623V249.518C238.543 233.513 251.55 220.654 267.432 220.654C283.452 220.654 296.322 233.65 296.322 249.518V282.623Z" stroke="white" stroke-width="2" stroke-miterlimit="10"/>
<path d="M229.507 281.802C226.768 281.802 224.167 280.708 222.387 278.929C220.607 277.151 219.512 274.552 219.512 271.816V266.344C219.512 260.872 224.03 256.358 229.507 256.358" stroke="white" stroke-width="2" stroke-miterlimit="10"/>
<path d="M305.359 256.358C310.836 256.358 315.354 260.872 315.354 266.344V271.816C315.354 274.552 314.259 277.151 312.479 278.929C310.699 280.708 308.098 281.802 305.359 281.802" stroke="white" stroke-width="2" stroke-miterlimit="10"/>
<path d="M279.209 244.32C279.209 244.32 279.894 251.844 282.358 255.127C287.835 262.514 296.324 259.915 296.324 259.915" stroke="white" stroke-width="2" stroke-miterlimit="10" stroke-linecap="round"/>
<path d="M238.543 256.358H270.034C270.034 256.358 278.112 256.631 279.207 244.457" stroke="white" stroke-width="2" stroke-miterlimit="10" stroke-linecap="round"/>
<path d="M272.636 320.516C272.636 323.389 270.309 325.851 267.297 325.851C264.421 325.851 262.094 323.525 262.094 320.516C262.094 317.643 264.421 315.181 267.297 315.181C270.309 315.317 272.636 317.643 272.636 320.516Z" stroke="white" stroke-width="2" stroke-miterlimit="10" stroke-linecap="round"/>
<path d="M380.664 276.057C380.664 311.077 364.781 342.403 339.725 363.196C320.146 379.475 294.954 389.325 267.433 389.325C239.913 389.325 214.72 379.475 195.141 363.196C170.085 342.403 154.203 311.077 154.203 276.057C154.203 213.54 204.999 162.789 267.57 162.789C330.004 162.789 380.664 213.54 380.664 276.057Z" stroke="white" stroke-width="2" stroke-miterlimit="10"/>
<path d="M339.725 339.804V363.196C320.146 379.475 294.953 389.325 267.433 389.325C239.912 389.325 214.72 379.475 195.141 363.196V339.804C195.141 335.29 198.837 331.596 203.356 331.596H331.647C336.028 331.596 339.725 335.29 339.725 339.804Z" stroke="white" stroke-width="2" stroke-miterlimit="10"/>
<path d="M277.564 370.583C277.564 376.192 273.046 380.706 267.433 380.706C261.819 380.706 257.301 376.192 257.301 370.583C257.301 364.975 261.819 360.46 267.433 360.46C273.046 360.46 277.564 364.975 277.564 370.583Z" stroke="white" stroke-width="2" stroke-miterlimit="10"/>
<path d="M208.971 331.596C208.971 331.596 208.971 328.724 208.971 325.03C208.971 321.337 211.846 317.506 215.406 316.138L248.129 304.1" stroke="white" stroke-width="2" stroke-miterlimit="10"/>
<path d="M324.938 331.596C324.938 331.596 324.938 328.724 324.938 325.03C324.938 321.337 322.062 317.506 318.502 316.138L285.779 304.1" stroke="white" stroke-width="2" stroke-miterlimit="10"/>
<path d="M446.11 92.6115C446.11 113.952 428.722 131.325 407.363 131.325C386.004 131.325 368.615 113.952 368.615 92.6115C368.615 71.2712 386.004 53.8979 407.363 53.8979C428.722 53.8979 446.11 71.2712 446.11 92.6115Z" stroke="white" stroke-width="2" stroke-miterlimit="10"/>
<path d="M407.363 72.0918L389.701 82.078C390.112 107.385 407.227 114.499 407.227 114.499C407.227 114.499 424.341 107.385 424.752 82.078L407.363 72.0918Z" stroke="white" stroke-width="2" stroke-miterlimit="10"/>
<path d="M499.097 236.796C477.19 236.796 459.391 254.58 459.391 276.467C459.391 283.717 461.307 290.557 464.73 296.439L461.444 316.275L481.434 312.171C486.774 314.77 492.798 316.275 499.097 316.275C521.003 316.275 538.939 298.491 538.939 276.604C538.939 254.58 521.14 236.796 499.097 236.796Z" stroke="white" stroke-width="2" stroke-miterlimit="10"/>
<path d="M478.285 264.703H520.045" stroke="white" stroke-width="2" stroke-miterlimit="10"/>
<path d="M478.285 273.868H520.045" stroke="white" stroke-width="2" stroke-miterlimit="10"/>
<path d="M478.285 283.17H520.045" stroke="white" stroke-width="2" stroke-miterlimit="10"/>
<path d="M478.285 292.472H504.847" stroke="white" stroke-width="2" stroke-miterlimit="10"/>
<path d="M444.194 479.611C444.194 503.14 425.162 522.155 401.612 522.155C378.063 522.155 359.031 503.14 359.031 479.611C359.031 456.082 378.063 437.067 401.612 437.067C425.162 437.067 444.194 456.082 444.194 479.611Z" stroke="white" stroke-width="2" stroke-miterlimit="10" stroke-linecap="round"/>
<path d="M390.248 469.488C390.248 463.469 395.177 458.544 401.201 458.544C407.226 458.544 412.155 463.469 412.155 469.488C412.155 472.497 410.923 475.233 409.006 477.148C405.72 480.431 401.338 483.304 401.338 486.861V493.427" stroke="white" stroke-width="2" stroke-miterlimit="10" stroke-linecap="round"/>
<path d="M402.298 496.163H400.381V498.078H402.298V496.163Z" fill="white"/>
<path d="M229.781 496.027C229.781 521.745 208.97 542.538 183.229 542.538C157.489 542.538 136.678 521.745 136.678 496.027C136.678 470.309 157.489 449.516 183.229 449.516C208.97 449.516 229.781 470.309 229.781 496.027Z" stroke="white" stroke-width="2" stroke-miterlimit="10"/>
<path d="M213.077 483.989C213.077 494.112 204.862 502.319 194.73 502.319C190.211 502.319 186.241 500.678 183.092 498.079C181.586 496.847 180.216 495.343 179.121 493.564C177.478 490.828 176.383 487.545 176.383 483.989C176.383 473.866 184.598 465.658 194.73 465.658C204.862 465.795 213.077 474.002 213.077 483.989Z" stroke="white" stroke-width="2" stroke-miterlimit="10"/>
<path d="M194.73 496.984C191.581 496.984 188.842 495.89 186.515 493.975C185.419 493.017 184.461 491.923 183.639 490.692C182.407 488.64 181.723 486.314 181.723 483.988C181.723 476.875 187.61 470.993 194.73 470.993C201.849 470.993 207.737 476.875 207.737 483.988C207.737 491.239 201.849 496.984 194.73 496.984Z" stroke="white" stroke-width="2" stroke-miterlimit="10"/>
<path d="M183.092 498.079C181.586 496.848 180.216 495.343 179.121 493.564L154.476 518.188C153.928 518.735 153.518 519.556 153.518 520.377C153.518 522.018 154.887 523.386 156.53 523.386C157.351 523.386 158.036 523.113 158.583 522.565L183.092 498.079Z" stroke="white" stroke-width="2" stroke-miterlimit="10"/>
<path d="M16.4648 307.11L1.67773 316.275" stroke="white" stroke-width="2" stroke-miterlimit="10" stroke-linecap="round"/>
<path d="M85.881 316.001L70.957 306.836" stroke="white" stroke-width="2" stroke-miterlimit="10" stroke-linecap="round"/>
<path d="M29.8828 303.69H57.6769" stroke="white" stroke-width="2" stroke-miterlimit="10" stroke-linecap="round"/>
<path d="M29.8828 309.846H57.6769" stroke="white" stroke-width="2" stroke-miterlimit="10" stroke-linecap="round"/>
<path d="M29.8828 316.001H57.6769" stroke="white" stroke-width="2" stroke-miterlimit="10" stroke-linecap="round"/>
<path d="M29.8828 322.157H47.5451" stroke="white" stroke-width="2" stroke-miterlimit="10" stroke-linecap="round"/>
<path d="M1.67773 316.275H16.4648" stroke="white" stroke-width="2" stroke-miterlimit="10" stroke-linecap="round"/>
<path d="M85.8816 316.275V368.532H1.67773V316.275" stroke="white" stroke-width="2" stroke-miterlimit="10" stroke-linecap="round"/>
<path d="M70.957 316.275H85.881" stroke="white" stroke-width="2" stroke-miterlimit="10" stroke-linecap="round"/>
<path d="M85.8816 316.275L70.9577 325.441L43.7112 342.404L16.4648 325.441L1.67773 316.275" stroke="white" stroke-width="2" stroke-miterlimit="10" stroke-linecap="round"/>
<path d="M16.4648 316.275V291.104H70.9577V316.275" stroke="white" stroke-width="2" stroke-miterlimit="10" stroke-linecap="round"/>
<path d="M70.9577 316.275V325.441L43.7113 342.404L16.4648 325.441V316.275" stroke="white" stroke-width="2" stroke-miterlimit="10" stroke-linecap="round"/>
<path d="M1.67773 368.532L43.7112 342.403L85.8816 368.532" stroke="white" stroke-width="2" stroke-miterlimit="10" stroke-linecap="round"/>
<path d="M119.837 141.722C119.837 163.062 102.448 180.436 81.0893 180.436C59.7302 180.436 42.3418 163.062 42.3418 141.722C42.3418 120.382 59.5933 103.008 81.0893 103.008C102.448 103.008 119.837 120.382 119.837 141.722Z" stroke="white" stroke-width="2" stroke-miterlimit="10"/>
<path d="M65.4811 148.425C65.7549 148.425 65.8918 148.561 66.0288 148.698C66.1657 148.835 66.3026 148.972 66.3026 149.245V150.613H54.2539V149.793C54.2539 149.656 54.2539 149.519 54.3908 149.245C54.3908 149.109 54.5277 148.972 54.6647 148.835L60.4152 143.09C60.8259 142.542 61.3736 142.132 61.7843 141.722C62.1951 141.311 62.4689 140.764 62.7427 140.354C63.0166 139.943 63.2904 139.396 63.4273 138.986C63.5642 138.575 63.7012 138.028 63.7012 137.481C63.7012 136.934 63.5642 136.523 63.4273 136.113C63.2904 135.702 63.0166 135.429 62.7427 135.155C62.4689 134.882 62.0582 134.745 61.7843 134.608C61.5105 134.471 60.9628 134.471 60.5521 134.471C60.1413 134.471 59.7306 134.471 59.3198 134.608C58.9091 134.745 58.6352 134.882 58.3614 135.155C58.0876 135.429 57.8137 135.702 57.6768 135.976C57.5399 136.25 57.403 136.66 57.2661 137.07C57.1292 137.344 56.9922 137.618 56.8553 137.618C56.7184 137.754 56.4446 137.754 56.1707 137.754L54.9385 137.618C55.0754 136.797 55.3492 136.113 55.6231 135.429C55.8969 134.745 56.4446 134.335 56.8553 133.787C57.403 133.377 57.9507 133.103 58.6352 132.83C59.3198 132.556 60.0044 132.556 60.8259 132.556C61.6474 132.556 62.332 132.693 63.0166 132.83C63.7012 132.967 64.2488 133.377 64.7965 133.787C65.3442 134.198 65.618 134.745 65.8918 135.429C66.1657 136.113 66.3026 136.797 66.3026 137.481C66.3026 138.165 66.1657 138.712 66.0288 139.396C65.8918 140.08 65.618 140.49 65.2073 141.038C64.9334 141.585 64.5227 141.995 63.975 142.542C63.5642 143.09 63.0166 143.5 62.6058 144.047L57.8137 148.835C58.0876 148.698 58.4983 148.698 58.7722 148.561C59.1829 148.561 59.4567 148.425 59.7306 148.425H65.4811Z" fill="white"/>
<path d="M81.5001 144.047V145.278C81.5001 145.415 81.5001 145.552 81.3632 145.552C81.2262 145.689 81.2262 145.689 80.9524 145.689H78.7617V150.477H76.8449V145.689H68.9037C68.7668 145.689 68.6299 145.689 68.493 145.552C68.3561 145.415 68.3561 145.278 68.2191 145.142L67.9453 144.047L76.708 132.419H78.7617V143.91H81.5001V144.047ZM76.8449 144.047V136.66C76.8449 136.387 76.8449 136.25 76.8449 135.976C76.8449 135.703 76.8449 135.429 76.9818 135.155L70.4098 144.047H76.8449Z" fill="white"/>
<path d="M85.1965 150.887C85.0596 151.161 84.9227 151.434 84.6489 151.571C84.375 151.708 84.2381 151.845 83.9643 151.845H83.0059L90.6732 132.967C90.8101 132.693 90.947 132.556 91.084 132.42C91.2209 132.283 91.4947 132.146 91.7685 132.146H92.727L85.1965 150.887Z" fill="white"/>
<path d="M107.104 132.556V133.514C107.104 133.787 107.104 134.061 106.967 134.198C106.83 134.335 106.83 134.471 106.83 134.608L99.4364 149.656C99.2995 149.929 99.1626 150.066 99.0257 150.203C98.8888 150.34 98.6149 150.477 98.2042 150.477H96.5612L104.092 135.702C104.229 135.429 104.365 135.292 104.365 135.155C104.502 135.019 104.639 134.745 104.776 134.608H95.3289C95.192 134.608 95.0551 134.608 94.9182 134.471C94.7812 134.335 94.7812 134.198 94.7812 134.061V132.556H107.104Z" fill="white"/>
<path d="M267.159 53.8982C267.159 75.2385 249.771 92.6118 228.412 92.6118C207.053 92.6118 189.664 75.2385 189.664 53.8982C189.664 32.5578 207.053 15.1846 228.412 15.1846C249.907 15.1846 267.159 32.5578 267.159 53.8982Z" stroke="white" stroke-width="2" stroke-miterlimit="10"/>
<path d="M228.411 87.1397C210.065 87.1397 195.141 72.2288 195.141 53.898C195.141 35.5671 210.065 20.6562 228.411 20.6562C246.758 20.6562 261.682 35.5671 261.682 53.898C261.682 72.2288 246.758 87.1397 228.411 87.1397Z" stroke="white" stroke-width="2" stroke-miterlimit="10"/>
<path d="M228.412 27.9067V54.5822L242.104 68.2619" stroke="white" stroke-width="2" stroke-miterlimit="10" stroke-linecap="round"/>
</g>
<defs>
<clipPath id="clip0_2608_578">
<rect width="540" height="545" fill="white" transform="translate(0.308594)"/>
</clipPath>
</defs>
</svg>
