<svg width="25" height="25" viewBox="0 0 25 25" fill="none" xmlns="http://www.w3.org/2000/svg">
<path d="M12.2871 1.51172C10.0999 1.5143 8.00295 2.38432 6.45634 3.93094C4.90972 5.47755 4.0397 7.57447 4.03712 9.76172C4.0345 11.5491 4.61835 13.2881 5.69912 14.7117C5.69912 14.7117 5.92412 15.008 5.96087 15.0507L12.2871 22.5117L18.6164 15.047C18.6494 15.0072 18.8751 14.7117 18.8751 14.7117L18.8759 14.7095C19.9561 13.2864 20.5397 11.5483 20.5371 9.76172C20.5345 7.57447 19.6645 5.47755 18.1179 3.93094C16.5713 2.38432 14.4744 1.5143 12.2871 1.51172ZM12.2871 12.7617C11.6938 12.7617 11.1138 12.5858 10.6204 12.2561C10.1271 11.9265 9.74254 11.4579 9.51548 10.9098C9.28842 10.3616 9.22901 9.75839 9.34476 9.17645C9.46052 8.5945 9.74624 8.05996 10.1658 7.6404C10.5854 7.22084 11.1199 6.93512 11.7018 6.81936C12.2838 6.70361 12.887 6.76302 13.4352 6.99008C13.9833 7.21714 14.4519 7.60166 14.7815 8.09501C15.1112 8.58836 15.2871 9.16838 15.2871 9.76172C15.2861 10.5571 14.9697 11.3195 14.4073 11.8819C13.8449 12.4443 13.0825 12.7607 12.2871 12.7617Z" fill="white"/>
</svg>
