<svg width="25" height="25" viewBox="0 0 25 25" fill="none" xmlns="http://www.w3.org/2000/svg">
<path d="M20.2873 11.0107H22.2873C22.2873 5.88072 18.4143 2.01172 13.2773 2.01172V4.01172C17.3393 4.01172 20.2873 6.95472 20.2873 11.0107Z" fill="white"/>
<path d="M13.2874 8.01196C15.3904 8.01196 16.2874 8.90896 16.2874 11.012H18.2874C18.2874 7.78696 16.5124 6.01196 13.2874 6.01196V8.01196ZM16.7094 13.455C16.5172 13.2803 16.2647 13.1872 16.0052 13.1952C15.7457 13.2032 15.4994 13.3118 15.3184 13.498L12.9254 15.959C12.3494 15.849 11.1914 15.488 9.99939 14.299C8.80739 13.106 8.44639 11.945 8.33939 11.373L10.7984 8.97896C10.9848 8.79809 11.0935 8.55178 11.1016 8.29216C11.1096 8.03255 11.0163 7.78 10.8414 7.58796L7.14639 3.52496C6.97143 3.33231 6.72827 3.21546 6.46854 3.19922C6.20882 3.18297 5.95299 3.26862 5.75539 3.43796L3.58539 5.29896C3.4125 5.47247 3.30931 5.70341 3.29539 5.94796C3.28039 6.19796 2.99439 12.12 7.58639 16.714C11.5924 20.719 16.6104 21.012 17.9924 21.012C18.1944 21.012 18.3184 21.006 18.3514 21.004C18.5959 20.9903 18.8267 20.8866 18.9994 20.713L20.8594 18.542C21.0289 18.3445 21.1147 18.0887 21.0986 17.829C21.0826 17.5693 20.9659 17.3261 20.7734 17.151L16.7094 13.455Z" fill="white"/>
</svg>
