<svg width="595" height="579" viewBox="0 0 595 579" fill="none" xmlns="http://www.w3.org/2000/svg">
<path d="M347.231 56.542C253.172 76.4102 267.281 186.208 105.465 247.904C-67.848 313.957 37.1847 563.18 234.36 577.297C430.665 591.414 548.413 502.879 568.618 334.522C583.772 207.993 486.752 27.0883 347.231 56.542Z" fill="#4E00D4" fill-opacity="0.2"/>
<path d="M128.282 220.89C170.435 206.425 234.36 138.629 211.193 62.8164C188.027 -12.9963 3.741 263.764 128.282 220.89Z" fill="#4E00D4" fill-opacity="0.2"/>
<mask id="mask0_1998_387" style="mask-type:luminance" maskUnits="userSpaceOnUse" x="0" y="112" width="561" height="463">
<path d="M560.955 112.138H0.0839844V574.857H560.955V112.138Z" fill="white"/>
</mask>
<g mask="url(#mask0_1998_387)">
<path d="M519.498 548.716L517.582 548.193L555.031 402.145C557.47 387.853 552.941 372.342 543.187 360.84C534.826 350.906 523.33 345.154 511.834 345.154H456.443C427.18 345.154 403.143 367.288 397.743 399.008L386.596 546.276L384.68 546.102L395.827 398.659C401.227 365.894 426.135 343.063 456.443 343.063H511.834C524.026 343.063 536.045 348.989 544.754 359.446C554.857 371.297 559.386 387.505 556.947 402.493L519.498 548.716Z" fill="#390D9F"/>
<path d="M500.164 548.716L498.248 548.367L520.369 402.319C522.285 382.974 516.885 362.234 507.305 351.603C503.473 347.42 499.293 345.329 495.287 345.329H462.54C445.47 345.329 431.361 367.462 428.4 399.008L421.781 546.276L419.865 546.102L426.484 398.659C429.794 365.371 444.251 343.063 462.714 343.063H495.461C500.164 343.063 504.867 345.503 509.047 350.034C518.976 361.014 524.549 382.451 522.633 402.319L500.164 548.716Z" fill="#390D9F"/>
<path d="M482.571 548.542L480.655 548.367L488.842 402.319C489.887 374.782 485.706 350.383 481.178 345.851C480.829 345.503 480.307 345.154 480.132 345.154H467.94C463.063 345.154 457.14 363.977 455.921 398.833L453.482 546.102H451.566L454.005 398.659C454.876 373.04 459.23 343.063 468.114 343.063H480.307C481.178 343.063 482.049 343.412 482.919 344.283C488.319 349.86 491.977 376.351 491.106 402.145L482.571 548.542Z" fill="#390D9F"/>
<path d="M493.197 898.5H461.322C452.613 898.5 445.471 891.354 445.297 882.64L439.026 577.995C438.852 571.198 441.291 564.75 445.645 560.393C448.955 556.907 453.309 555.164 457.664 555.164H497.029C501.384 555.164 505.739 557.081 509.048 560.393C513.403 564.75 515.667 571.198 515.667 577.995L509.396 882.64C508.874 891.354 501.732 898.5 493.197 898.5ZM457.49 557.081C453.658 557.081 449.826 558.824 446.865 561.787C442.858 565.795 440.768 571.721 440.942 577.995L447.213 882.64C447.387 890.309 453.658 896.583 461.148 896.583H493.023C500.513 896.583 506.784 890.309 506.958 882.64L513.228 577.995C513.403 571.721 511.138 565.795 507.306 561.787C504.345 558.824 500.513 557.081 496.681 557.081H457.49Z" fill="#390D9F"/>
<path d="M377.887 898.5H346.011C337.302 898.5 330.161 891.354 329.986 882.64L323.716 577.995C323.542 571.198 325.98 564.75 330.335 560.393C333.644 556.907 337.999 555.164 342.353 555.164H381.719C386.073 555.164 390.428 557.081 393.738 560.393C398.092 564.75 400.356 571.198 400.356 577.995L394.086 882.64C393.738 891.354 386.596 898.5 377.887 898.5ZM342.353 557.081C338.521 557.081 334.689 558.824 331.728 561.787C327.722 565.795 325.632 571.721 325.806 577.995L332.077 882.64C332.251 890.309 338.521 896.583 346.011 896.583H377.887C385.377 896.583 391.647 890.309 391.821 882.64L398.092 577.995C398.266 571.721 396.002 565.795 392.17 561.787C389.209 558.824 385.377 557.081 381.545 557.081H342.353Z" fill="#101C3A"/>
<path d="M321.451 562.833C388.511 567.713 455.92 567.713 522.981 562.833C528.381 562.485 532.387 557.779 531.864 552.55C531.516 547.322 526.813 543.314 521.587 543.662C455.398 548.368 389.034 548.368 322.844 543.662C317.619 543.314 312.916 547.148 312.567 552.55C312.045 557.779 316.051 562.31 321.451 562.833Z" fill="#390D9F"/>
<path d="M112.952 420.096C116.087 420.096 119.223 420.096 122.358 420.096C119.745 414.344 116.958 407.547 114.868 401.099C114.171 399.007 118.003 397.439 119.745 399.007C123.926 403.016 128.28 413.821 130.893 420.618C131.416 420.618 131.764 420.793 132.286 420.793C131.59 414.344 130.893 404.759 132.461 403.887C133.854 403.19 141.344 401.97 147.44 401.273C151.795 400.75 151.795 402.144 153.188 406.327C154.93 411.73 157.195 415.564 158.066 415.738C159.633 416.261 171.304 413.124 173.916 413.124C180.884 412.601 188.373 415.216 189.767 415.738C200.915 417.481 229.481 410.51 252.821 406.676C258.395 401.273 267.279 389.77 267.279 389.77C272.678 380.533 299.503 379.836 305.599 403.713C307.863 412.253 307.863 420.793 306.818 428.287C306.47 435.084 304.206 442.404 299.851 448.155C297.587 451.641 294.974 454.429 292.187 455.649C291.316 455.998 290.271 456.346 289.052 456.695C286.09 458.089 282.607 458.96 278.601 459.309C261.531 460.703 192.206 442.404 184.193 440.138C179.142 439.964 170.781 440.138 158.414 442.055C148.66 443.624 141.867 442.229 137.164 440.312C136.989 440.312 136.989 440.487 136.815 440.487C136.815 440.487 112.778 427.241 103.546 430.03C94.3144 433.167 102.327 420.27 112.952 420.096Z" fill="#F8A3A2"/>
<path d="M354.718 444.669C312.566 450.594 238.364 467.325 191.683 498.522C145.176 529.718 179.141 601.174 226.693 596.294C275.639 591.24 327.197 576.252 384.504 554.989C441.984 533.553 424.043 434.909 354.718 444.669Z" fill="#101C3A"/>
<path d="M263.099 471.334C269.021 485.451 270.414 502.007 277.904 515.427C285.742 529.37 304.206 534.075 316.573 523.444C331.03 511.07 331.901 495.908 334.165 478.131C335.385 468.022 336.778 457.74 336.952 447.631C314.483 451.64 286.787 457.914 259.789 466.977C261.183 467.848 262.228 469.417 263.099 471.334Z" fill="#201030"/>
<path d="M317.441 528.324C305.422 531.81 282.256 544.01 270.934 548.89C259.786 553.77 234.007 593.332 232.439 595.423C279.643 589.846 329.634 575.206 384.85 554.815C401.223 548.715 411.5 536.167 416.203 521.702C410.455 521.353 343.22 520.83 317.441 528.324Z" fill="#201030"/>
<path d="M129.324 757.505C129.324 757.505 162.419 592.809 169.386 534.773C176.354 476.737 272.329 511.593 279.819 558.823C287.483 607.448 231.744 774.933 231.744 774.933L129.324 757.505Z" fill="#101C3A"/>
<path d="M155.625 747.745L153.709 747.223C161.721 719.163 166.599 676.29 171.302 634.985C177.224 583.397 182.623 534.773 193.771 522.747C213.454 501.659 291.314 474.297 294.623 473.251L295.32 475.168C294.449 475.517 214.499 503.402 195.165 524.141C184.365 535.644 178.966 584.094 173.043 635.333C168.515 676.464 163.637 719.337 155.625 747.745Z" fill="white"/>
<path d="M371.092 270.387C395.652 298.795 377.711 366.416 315.005 448.503C315.005 448.503 287.833 426.021 258.744 377.919C258.744 377.919 277.556 339.751 306.296 297.052C335.037 254.353 360.99 258.535 371.092 270.387Z" fill="#425FEC"/>
<path d="M258.396 365.894C256.306 371.645 253.867 377.745 253.867 377.745C253.867 377.745 255.435 382.973 258.396 388.027C283.304 430.204 326.153 466.28 326.153 466.28L336.779 447.98C312.741 426.021 270.589 386.633 258.396 365.894Z" fill="#101C3A"/>
<path d="M324.933 466.628C320.23 462.968 279.645 426.195 257.524 388.55C254.563 383.321 252.995 378.267 252.821 377.919L252.646 377.57L252.821 377.221C252.821 377.221 255.259 370.947 257.349 365.37L258.046 363.453L259.091 365.196C261.181 368.507 263.62 372.167 266.93 376.35L265.362 377.57C262.575 374.084 260.311 370.947 258.395 367.984C256.827 372.341 255.259 376.35 254.737 377.57C255.085 378.79 256.653 383.147 259.091 387.33C281.038 424.8 321.449 461.225 325.978 464.885L324.933 466.628Z" fill="white"/>
<path d="M456.963 518.39C452.085 539.304 435.364 617.034 394.431 657.99C394.431 657.99 249.336 671.236 272.676 617.557C291.837 573.464 319.183 501.485 331.202 476.563C343.395 451.64 467.762 472.903 456.963 518.39Z" fill="#101C3A"/>
<path d="M441.983 572.941C450.17 548.89 454.873 527.802 457.137 518.391C467.937 472.903 386.245 479.003 374.226 503.925C373.181 506.017 348.969 544.707 347.75 547.321C352.105 552.899 392.689 582.701 441.983 572.941Z" fill="#201030"/>
<path d="M329.809 808.396C329.461 806.827 300.372 650.67 297.063 635.508C293.579 619.822 338.693 536.341 340.609 532.681L342.351 533.553C341.828 534.424 295.844 619.997 298.979 634.985C302.288 650.322 331.551 806.478 331.725 808.047L329.809 808.396Z" fill="#201030"/>
<path d="M389.556 253.133C454.526 257.664 484.311 432.295 453.655 533.379C453.655 533.379 356.809 535.819 278.078 455.126C278.078 455.126 281.388 430.204 304.38 408.244C304.38 408.244 310.65 319.883 332.946 284.504C355.067 249.125 374.402 252.087 389.556 253.133Z" fill="#DA24BB"/>
<path d="M301.593 513.51C304.902 510.199 331.726 505.668 331.726 481.617C331.726 472.903 335.558 417.132 336.778 401.098C338.171 385.239 344.093 283.632 352.28 261.15C343.745 265.333 340.958 268.47 331.03 284.155C308.734 319.534 310.998 372.168 297.064 403.887C284.174 432.818 259.092 467.674 259.092 467.674C285.219 461.574 280.865 502.182 301.593 513.51Z" fill="#425FEC"/>
<path d="M326.676 485.974L324.76 485.451C328.07 474.645 327.025 466.454 321.625 438.743C316.051 410.161 319.012 323.194 319.012 322.323V320.057L320.58 321.626C323.367 324.414 327.199 327.9 329.986 330.514C328.592 327.377 327.025 323.369 326.328 321.8L326.154 321.451V321.103C331.205 300.015 348.798 263.59 348.972 263.241L350.714 264.113C350.54 264.461 333.295 300.189 328.244 321.277C330.508 327.028 333.121 333.303 333.818 334L334.341 334.697L333.818 335.394C333.47 335.743 333.295 335.917 332.425 335.22L332.25 335.045C330.857 334 327.722 331.037 320.928 324.589C320.58 338.357 318.49 412.601 323.541 438.395C329.115 466.28 330.16 474.645 326.676 485.974Z" fill="white"/>
<path d="M389.556 252.958C389.556 252.958 368.828 282.238 368.828 309.774C368.828 341.668 354.196 378.442 366.912 452.86C379.105 523.619 346.706 545.578 346.01 546.275C395.304 566.841 473.338 534.598 473.338 534.598C486.402 430.029 454.352 257.664 389.556 252.958Z" fill="#425FEC"/>
<path d="M366.738 524.838L364.822 524.315C366.912 516.995 369.177 512.29 371.093 508.107C375.622 497.999 379.28 489.982 380.673 455.474C382.589 409.812 380.847 327.725 380.673 316.397L373.706 318.488L379.802 308.554C387.64 281.366 388.86 255.224 388.86 255.049H390.776C390.776 255.398 389.556 281.889 381.544 309.251L381.37 309.425L377.886 315.002L382.415 313.608V314.828C382.415 315.699 384.505 406.326 382.415 455.299C381.021 490.156 377.363 498.347 372.661 508.63C370.919 513.161 369.003 517.693 366.738 524.838Z" fill="white"/>
<path d="M436.76 303.326L423.174 419.398C423.174 419.398 471.248 386.633 436.76 303.326Z" fill="#101C3A"/>
<path d="M338.521 160.938C329.289 170.349 324.412 199.28 336.43 222.459C348.449 245.639 336.779 256.793 336.779 256.793C336.779 256.793 382.415 256.096 393.388 248.776C393.388 248.776 390.427 240.933 392.169 230.302C392.169 230.302 393.911 239.365 399.485 245.813C399.485 245.813 410.11 251.565 422.129 240.585C422.129 240.585 405.059 224.551 404.536 192.657C403.839 160.764 383.286 151.527 372.312 150.132C361.164 148.564 346.881 152.224 338.521 160.938Z" fill="#101C3A"/>
<path d="M338.346 224.551L351.235 265.158C351.235 265.158 376.666 273.698 389.556 253.133L378.06 212.002L338.346 224.551Z" fill="#F8A3A2"/>
<path d="M341.828 235.356L346.009 248.427C372.31 248.601 370.046 225.596 369.872 225.596C342.873 234.833 341.828 235.356 341.828 235.356Z" fill="#101C3A"/>
<path d="M340.61 240.759C351.409 242.153 373.182 229.779 378.756 220.542C380.846 217.231 381.369 207.82 380.498 203.114C377.885 188.3 375.969 175.054 365.344 169.652C360.99 167.386 356.287 166.863 351.932 167.212C337.475 168.432 326.501 176.797 324.585 191.088C322.321 207.122 321.45 238.319 340.61 240.759Z" fill="#F8A3A2"/>
<path d="M334.34 212.7C333.469 212.177 328.592 209.388 328.417 206.774C328.417 206.251 328.417 205.38 329.463 204.683C334.34 200.848 335.211 194.226 335.211 192.832C334.688 191.96 332.598 188.823 327.895 189.172L327.721 187.254C333.12 186.732 336.256 190.217 337.127 192.134L337.301 192.309V192.483C337.301 192.832 336.952 201.197 330.682 206.077C330.508 206.251 330.508 206.426 330.508 206.426C330.508 207.471 333.12 209.388 335.385 210.783L334.34 212.7Z" fill="#101C3A"/>
<path d="M379.628 199.629C379.628 199.629 369.177 182.026 356.636 176.798C356.636 176.798 331.728 175.403 325.457 186.732C325.457 186.732 325.98 159.544 354.546 160.067C382.241 160.415 383.983 188.823 379.628 199.629Z" fill="#101C3A"/>
<path d="M357.853 178.017L356.111 176.972C360.118 170.175 365.866 168.78 366.214 168.78L366.737 170.697C366.562 170.697 361.511 171.917 357.853 178.017Z" fill="#425FEC"/>
<path d="M371.788 205.903C370.395 211.305 373.879 216.883 379.278 218.277C384.678 219.671 390.252 216.185 391.645 210.783C393.039 205.38 389.555 199.803 384.155 198.409C378.581 197.014 373.008 200.5 371.788 205.903Z" fill="#F8A3A2"/>
<path d="M381.195 216.011C381.02 216.011 380.672 216.011 380.498 216.011C379.801 215.837 379.104 215.488 378.756 214.791C377.711 213.222 378.582 212.177 379.279 211.48C379.801 210.782 380.324 210.26 379.975 209.04C379.801 207.994 379.104 207.297 378.582 206.6C377.711 205.554 376.317 203.811 378.756 201.72C382.24 198.931 387.465 203.985 387.639 204.16L386.246 205.554C385.201 204.508 381.543 201.72 379.975 203.114C379.104 203.811 379.104 203.985 379.975 205.205C380.672 206.077 381.369 206.948 381.717 208.517C382.24 210.608 381.195 211.828 380.672 212.7C380.15 213.397 380.15 213.397 380.324 213.745C380.498 213.92 380.672 214.094 380.846 214.094C381.543 214.268 382.762 213.571 383.285 213.397L384.33 214.965C384.33 214.965 382.762 216.011 381.195 216.011Z" fill="#101C3A"/>
<path d="M356.113 195.968C349.146 189.868 346.011 192.657 346.011 192.657L344.617 191.263C344.791 191.088 348.972 187.08 357.507 194.4L356.113 195.968Z" fill="#101C3A"/>
<path d="M332.248 219.845C331.726 224.202 334.513 228.385 338.867 229.431C343.57 230.476 348.273 227.688 349.492 222.982C349.667 221.937 349.667 220.891 349.667 220.019C343.919 220.368 337.996 220.542 332.248 219.845Z" fill="#101C3A"/>
<path d="M335.557 227.339C335.557 227.514 335.557 227.514 335.557 227.688C336.602 228.559 337.647 229.082 339.04 229.431C343.743 230.476 348.446 227.688 349.665 222.982C349.84 221.239 336.079 220.542 335.557 227.339Z" fill="#FC721A"/>
<path d="M352.63 198.408C352.281 199.628 351.062 200.5 349.843 200.151C348.623 199.803 347.752 198.583 348.101 197.363C348.449 196.143 349.668 195.271 350.888 195.62C352.107 195.968 352.804 197.188 352.63 198.408Z" fill="#101C3A"/>
<path d="M331.727 195.794C331.379 197.014 330.16 197.886 328.94 197.537C327.721 197.188 326.85 195.968 327.198 194.748C327.547 193.529 328.766 192.657 329.985 193.006C331.205 193.354 331.901 194.574 331.727 195.794Z" fill="#101C3A"/>
<path d="M370.221 223.853C368.479 218.799 369.872 214.616 371.092 210.434C372.137 206.948 373.182 203.637 372.311 199.802C371.44 195.968 369.524 193.005 367.434 190.217C365.169 186.906 362.731 183.42 362.557 178.714H364.473C364.647 182.897 366.737 186.034 369.001 189.171C371.092 192.134 373.182 195.271 374.053 199.454C374.924 203.811 373.879 207.471 372.659 210.957C371.44 214.965 370.221 218.625 371.788 223.156L370.221 223.853Z" fill="#101C3A"/>
<path d="M265.015 365.022C262.228 361.537 259.963 361.537 259.092 356.657C258.396 352.648 256.654 350.208 255.26 347.943C250.383 351.428 242.022 355.785 235.404 357.354C230.004 358.574 230.875 354.042 233.139 352.474C238.365 348.814 248.293 340.274 255.26 336.963H255.435C259.789 334 278.601 330.166 282.259 330.514C287.833 331.037 297.239 333.826 306.645 344.108C320.579 363.454 379.802 398.136 385.201 405.281C402.62 428.461 367.783 459.135 345.662 442.229C328.069 428.635 297.935 385.762 289.749 365.022C285.568 354.217 282.956 367.114 277.208 370.076C271.111 373.039 267.802 368.508 265.015 365.022Z" fill="#F8A3A2"/>
<path d="M409.237 486.497C402.966 486.497 397.044 485.974 392.689 484.405L393.386 482.488C410.108 488.414 451.389 479.177 451.738 479.177L452.26 481.094C450.867 481.442 427.875 486.497 409.237 486.497Z" fill="white"/>
<path d="M414.287 270.387C446.686 289.383 448.253 359.619 415.158 457.566C415.158 457.566 382.063 436.303 346.182 375.304C346.182 375.304 352.975 367.113 366.561 317.443C380.147 267.772 400.875 262.544 414.287 270.387Z" fill="#425FEC"/>
<path d="M416.377 456.868L414.461 456.171C442.33 373.213 447.904 324.762 432.924 293.914L434.666 293.043C449.994 324.414 444.421 373.387 416.377 456.868Z" fill="#101C3A"/>
<path d="M348.447 360.491C346.357 366.068 343.744 372.342 343.744 372.342C343.744 372.342 345.312 377.57 348.273 382.799C372.659 425.324 415.159 461.749 415.159 461.749L425.959 443.449C402.27 421.141 360.466 381.23 348.447 360.491Z" fill="#101C3A"/>
<path d="M413.94 461.922C409.237 458.263 369.175 420.966 347.402 383.147C344.441 377.918 342.873 372.69 342.873 372.516L342.699 372.167L342.873 371.819C342.873 371.819 345.312 365.544 347.576 359.967L348.273 358.05L349.318 359.793C351.234 363.279 353.847 366.939 356.982 371.121L355.415 372.341C352.628 368.856 350.363 365.544 348.621 362.582C347.054 366.764 345.312 370.947 344.789 372.167C345.138 373.387 346.705 377.744 349.144 382.101C370.743 419.746 410.631 456.694 415.16 460.354L413.94 461.922Z" fill="white"/>
<path d="M284.697 593.854L282.781 593.157C282.955 592.634 299.851 549.238 311.87 521.701L313.612 522.573C301.767 549.935 284.871 593.505 284.697 593.854Z" fill="white"/>
<path d="M219.904 415.739C219.904 416.262 220.253 416.61 220.775 416.61H374.579C375.624 416.61 376.321 415.739 376.321 414.867V410.51H219.904V415.739Z" fill="#2B173F"/>
<path d="M356.287 408.767V410.51H361.861V408.244H356.984C356.461 408.244 356.287 408.418 356.287 408.767Z" fill="#2B173F"/>
<path d="M349.842 408.767V410.51H355.416V408.244H350.539C350.19 408.244 349.842 408.418 349.842 408.767Z" fill="#2B173F"/>
<path d="M343.572 408.767V410.51H349.146V408.244H344.269C343.746 408.244 343.572 408.418 343.572 408.767Z" fill="#2B173F"/>
<path d="M316.92 408.767V410.51H322.494V408.244H317.617C317.268 408.244 316.92 408.418 316.92 408.767Z" fill="#2B173F"/>
<path d="M310.65 408.767V410.51H316.05V408.244H311.173C310.825 408.244 310.65 408.418 310.65 408.767Z" fill="#2B173F"/>
<path d="M235.926 408.767V410.51H241.5V408.244H236.623C236.1 408.244 235.926 408.418 235.926 408.767Z" fill="#2B173F"/>
<path d="M229.482 408.767V410.51H235.056V408.244H230.179C229.831 408.244 229.482 408.418 229.482 408.767Z" fill="#2B173F"/>
<path d="M323.539 408.767V410.51H342.351V408.244H324.062C323.887 408.244 323.539 408.418 323.539 408.767Z" fill="#2B173F"/>
<path d="M208.928 408.767V410.51H227.74V408.244H209.45C209.102 408.244 208.928 408.418 208.928 408.767Z" fill="#2B173F"/>
<path d="M242.893 408.767V410.51H308.386V408.244H243.415C243.067 408.244 242.893 408.418 242.893 408.767Z" fill="#2B173F"/>
<path d="M210.323 408.244H197.085C196.388 408.244 195.691 408.767 195.691 409.638V410.684H211.02V408.941C211.02 408.418 210.671 408.244 210.323 408.244Z" fill="url(#paint0_linear_1998_387)"/>
<path d="M192.036 408.244H178.798C178.101 408.244 177.404 408.767 177.404 409.638V410.684H192.732V408.941C192.558 408.418 192.384 408.244 192.036 408.244Z" fill="url(#paint1_linear_1998_387)"/>
<path d="M173.571 408.244H160.333C159.636 408.244 158.939 408.767 158.939 409.638V410.684H174.268V408.941C174.268 408.418 173.919 408.244 173.571 408.244Z" fill="url(#paint2_linear_1998_387)"/>
<path d="M155.282 408.244H142.044C141.347 408.244 140.65 408.767 140.65 409.638V410.684H155.979V408.941C155.804 408.418 155.63 408.244 155.282 408.244Z" fill="url(#paint3_linear_1998_387)"/>
<path d="M133.509 408.244H126.542C125.845 408.244 125.148 408.767 125.148 409.638V410.684H134.206V408.941C134.206 408.418 133.858 408.244 133.509 408.244Z" fill="url(#paint4_linear_1998_387)"/>
<path d="M122.708 408.244H115.741C115.044 408.244 114.348 408.767 114.348 409.638V410.684H123.231V408.941C123.405 408.418 123.057 408.244 122.708 408.244Z" fill="url(#paint5_linear_1998_387)"/>
<path d="M112.607 408.244H105.64C104.943 408.244 104.246 408.767 104.246 409.638V410.684H113.129V408.941C113.129 408.418 112.955 408.244 112.607 408.244Z" fill="url(#paint6_linear_1998_387)"/>
<path d="M232.616 295.658C231.397 290.778 226.694 286.944 221.643 287.119L257.002 415.913C257.002 415.913 262.924 413.822 261.356 407.373C260.311 401.97 239.409 321.975 232.616 295.658Z" fill="#2B173F"/>
<path d="M222.167 286.073H58.4344C56.17 286.073 54.4282 288.164 54.9507 290.43L85.0845 409.639H257.352L226.87 289.733C226.347 287.467 224.431 286.073 222.167 286.073Z" fill="#1936BA"/>
<path d="M258.397 410.336H84.388L84.2138 409.639L54.08 290.604C53.7317 289.21 54.08 287.99 54.7768 286.944C55.6477 285.898 56.867 285.201 58.2604 285.201H221.993C224.606 285.201 227.044 286.944 227.567 289.558L258.397 410.336ZM85.7814 408.593H256.307L226.173 289.907C225.651 287.99 224.083 286.77 222.167 286.77H58.4346C57.5637 286.77 56.867 287.118 56.3444 287.815C55.8219 288.513 55.6477 289.384 55.8219 290.081L85.7814 408.593Z" fill="#101C3A"/>
<path d="M84.3887 415.739C84.3887 416.261 84.737 416.61 85.2596 416.61H254.218C255.263 416.61 255.959 415.739 255.959 414.867V409.464H84.3887V415.739Z" fill="#101C3A"/>
<path d="M374.402 409.639H254.041V411.731H374.402V409.639Z" fill="#101C3A"/>
<path d="M224.781 409.639H84.3887V411.73H224.781V409.639Z" fill="#2B173F"/>
<path d="M158.068 415.913C157.197 415.738 154.932 411.73 153.19 406.501C151.797 402.319 151.797 400.924 147.442 401.447C141.346 402.144 133.856 403.364 132.463 404.061C130.895 404.933 131.592 414.518 132.288 421.141C131.766 421.141 131.417 420.967 130.895 420.967C128.456 414.17 124.102 403.364 119.747 399.356C118.005 397.787 114.173 399.182 114.87 401.447C117.134 407.896 119.921 414.693 122.36 420.444C119.225 420.27 116.089 420.27 112.954 420.444C102.329 420.618 94.3164 433.515 103.548 430.552C112.78 427.59 136.817 441.009 136.817 441.009C136.991 441.009 136.991 440.835 137.166 440.835C141.868 442.926 148.662 444.146 158.416 442.578L158.068 415.913Z" fill="#F8A3A2"/>
</g>
<path d="M501.209 276.486L501.034 276.312L484.139 294.089L507.479 299.666L507.828 298.446C509.569 290.777 507.305 282.412 501.209 276.486Z" fill="#425FEC"/>
<path d="M123.754 534.075L123.579 533.901L106.684 551.678L130.024 557.255L130.373 556.035C132.114 548.366 130.024 540.001 123.754 534.075Z" fill="#425FEC"/>
<path d="M47.2868 458.785C47.2868 462.445 44.3257 465.408 40.6678 465.408C37.0099 465.408 34.0488 462.445 34.0488 458.785C34.0488 455.125 37.0099 452.162 40.6678 452.162C44.3257 452.336 47.2868 455.299 47.2868 458.785Z" fill="#390D9F"/>
<path d="M70.4528 64.2101C70.4528 67.87 67.4917 70.8329 63.8338 70.8329C60.176 70.8329 57.2148 67.87 57.2148 64.2101C57.2148 60.5502 60.176 57.5874 63.8338 57.5874C67.4917 57.7617 70.4528 60.7245 70.4528 64.2101Z" fill="#FC721A"/>
<path d="M561.3 53.7531C561.3 57.413 558.339 60.3758 554.681 60.3758C551.024 60.3758 548.062 57.413 548.062 53.7531C548.062 50.0932 551.024 47.1304 554.681 47.1304C558.339 47.3047 561.3 50.2675 561.3 53.7531Z" fill="#FC721A"/>
<path d="M500.511 195.793L562.346 221.935C564.437 222.807 566.701 221.935 567.572 219.844L593.7 157.974C594.57 155.882 593.7 153.617 591.609 152.745L529.774 126.603C527.684 125.732 525.42 126.603 524.549 128.694L498.421 190.565C497.55 192.656 498.421 194.922 500.511 195.793Z" fill="#7109B5"/>
<path d="M557.122 197.536L554.509 196.49L568.966 162.156L542.665 160.065L531.517 186.381L528.904 185.336L540.923 157.102L573.147 159.716L557.122 197.536Z" fill="white"/>
<path d="M560.605 196.141C561.301 199.278 558.166 202.415 553.637 203.461C549.108 204.507 544.928 202.764 544.406 199.627C543.709 196.49 546.844 193.353 551.373 192.307C555.727 191.436 559.908 193.004 560.605 196.141Z" fill="white"/>
<path d="M533.607 184.639C534.303 187.776 531.168 190.913 526.639 191.959C522.11 193.005 517.93 191.262 517.407 188.125C516.711 184.988 519.846 181.851 524.375 180.805C528.729 179.933 532.91 181.676 533.607 184.639Z" fill="white"/>
<path d="M76.0299 215.139L148.142 186.208C151.103 184.988 152.496 181.676 151.277 178.714L130.375 126.08C129.156 123.118 125.846 121.723 122.885 122.943L50.9475 151.7C47.9863 152.92 46.5929 156.231 47.8121 159.194L68.7142 211.827C69.7593 214.79 73.0687 216.358 76.0299 215.139Z" fill="#390D9F"/>
<path d="M118.878 160.065L84.5637 153.442C83.3444 153.268 82.1251 154.488 82.6477 155.708L96.5823 190.913C97.1049 192.133 98.6725 192.307 99.5435 191.262L119.923 162.854C120.62 161.634 120.097 160.239 118.878 160.065Z" fill="white"/>
<path d="M365.694 76.933L297.24 96.8011C295.15 97.4982 292.885 96.104 292.189 94.0126L272.332 25.5197C271.635 23.4283 273.028 21.1627 275.119 20.4655L343.573 0.597359C345.663 -0.0997693 347.927 1.29449 348.624 3.38587L368.307 71.8788C369.003 74.1444 367.784 76.4101 365.694 76.933Z" fill="#425FEC"/>
<path d="M362.733 70.3101L326.155 30.9224L320.407 65.9531L305.427 52.7076L296.021 89.4812C295.673 90.8754 296.892 92.0954 298.285 91.7468L361.862 73.4472C363.256 73.0987 363.778 71.3558 362.733 70.3101Z" fill="white"/>
<path d="M302.816 30.574C303.686 33.7111 306.996 35.454 310.131 34.4083C313.267 33.5368 315.008 30.2255 313.963 27.0884C313.092 23.9513 309.783 22.2085 306.648 23.2542C303.512 24.2999 301.77 27.437 302.816 30.574Z" fill="white"/>
<path d="M178.099 83.904C191.566 83.904 202.484 72.98 202.484 59.5045C202.484 46.029 191.566 35.105 178.099 35.105C164.631 35.105 153.713 46.029 153.713 59.5045C153.713 72.98 164.631 83.904 178.099 83.904Z" fill="#7109B5"/>
<path d="M186.283 53.7531C186.283 58.633 182.625 62.6415 177.922 62.6415C173.219 62.6415 169.561 58.633 169.387 53.7531C169.387 48.8732 173.045 44.8647 177.748 44.8647C182.45 45.039 186.283 48.8732 186.283 53.7531Z" fill="white"/>
<path d="M166.775 73.9698C166.775 67.3471 171.827 66.9985 177.923 66.9985C184.194 66.9985 189.245 67.3471 189.245 73.9698H166.775Z" fill="white"/>
<path d="M467.244 60.2016L433.801 80.9412C431.363 82.5097 430.666 85.8211 432.234 88.4353L445.994 110.569C447.562 113.183 451.045 114.055 453.484 112.486L486.927 91.7467C489.366 90.1781 490.062 86.8667 488.495 84.2525L474.734 62.1187C473.167 59.5045 469.683 58.633 467.244 60.2016Z" fill="#390D9F"/>
<path d="M466.545 78.3271C464.629 79.3728 462.888 80.5928 462.888 80.5928C462.888 80.5928 462.713 80.9414 460.101 76.2358C457.662 71.7044 455.746 74.3187 455.746 74.4929L456.617 75.8872C457.488 77.1072 457.836 78.6757 457.662 80.07L457.314 85.2984L456.094 85.9956L462.713 96.6268L465.326 95.0582C465.326 95.0582 473.164 91.7469 474.558 90.8755C474.732 90.7012 474.906 90.5269 475.08 90.3526C476.3 89.1326 476.3 87.2155 475.429 85.8213L471.597 79.7214C470.726 77.8043 468.287 77.2815 466.545 78.3271Z" fill="white"/>
<path d="M451.916 88.6094L458.535 99.5892L462.019 97.4978L455.4 86.5181L451.916 88.6094Z" fill="white"/>
<path d="M240.283 158.845L272.159 169.302C274.598 170 275.817 172.788 274.946 175.228L267.979 196.316C267.108 198.756 264.495 200.325 262.056 199.453L230.181 188.996C227.742 188.299 226.523 185.511 227.394 183.071L234.361 161.983C235.232 159.543 237.845 158.148 240.283 158.845Z" fill="#FC721A"/>
<path d="M260.315 173.311C258.573 171.394 255.786 171.045 253.522 172.091C252.477 169.651 249.864 168.257 247.251 168.78C243.942 169.303 241.677 172.614 242.2 176.1C242.723 179.585 248.471 187.602 248.471 187.602C248.471 187.602 257.877 184.639 260.141 182.199C262.754 179.759 262.754 175.751 260.315 173.311Z" fill="white"/>
<path d="M248.297 188.299L248.123 187.951C247.948 187.602 242.2 179.759 241.678 176.099C241.155 172.439 243.594 168.78 247.252 168.257C250.039 167.734 252.477 168.954 253.871 171.394C256.309 170.522 258.922 171.045 260.838 172.788C263.277 175.402 263.277 179.759 260.664 182.548C258.225 185.162 248.994 187.951 248.645 188.125L248.297 188.299ZM248.471 169.302C248.123 169.302 247.774 169.302 247.6 169.302C244.639 169.825 242.549 172.788 242.897 175.925C243.245 178.888 247.774 185.336 248.819 186.905C250.561 186.382 257.877 183.768 259.967 181.676C262.057 179.411 262.231 175.751 260.141 173.485C258.574 171.917 256.135 171.394 254.045 172.439L253.522 172.614L253.348 172.091C252.303 170.348 250.387 169.302 248.471 169.302Z" fill="#FF6645"/>
<path d="M546.843 573.812H17.8477V577.82H546.843V573.812Z" fill="#131313"/>
<defs>
<linearGradient id="paint0_linear_1998_387" x1="195.69" y1="409.404" x2="210.949" y2="409.404" gradientUnits="userSpaceOnUse">
<stop stop-color="#99CEFF"/>
<stop offset="1" stop-color="#D5E9FF"/>
</linearGradient>
<linearGradient id="paint1_linear_1998_387" x1="177.315" y1="409.404" x2="192.569" y2="409.404" gradientUnits="userSpaceOnUse">
<stop stop-color="#99CEFF"/>
<stop offset="1" stop-color="#D5E9FF"/>
</linearGradient>
<linearGradient id="paint2_linear_1998_387" x1="158.934" y1="409.404" x2="174.189" y2="409.404" gradientUnits="userSpaceOnUse">
<stop stop-color="#99CEFF"/>
<stop offset="1" stop-color="#D5E9FF"/>
</linearGradient>
<linearGradient id="paint3_linear_1998_387" x1="140.555" y1="409.404" x2="155.812" y2="409.404" gradientUnits="userSpaceOnUse">
<stop stop-color="#99CEFF"/>
<stop offset="1" stop-color="#D5E9FF"/>
</linearGradient>
<linearGradient id="paint4_linear_1998_387" x1="125.259" y1="409.404" x2="134.176" y2="409.404" gradientUnits="userSpaceOnUse">
<stop stop-color="#99CEFF"/>
<stop offset="1" stop-color="#D5E9FF"/>
</linearGradient>
<linearGradient id="paint5_linear_1998_387" x1="114.422" y1="409.404" x2="123.339" y2="409.404" gradientUnits="userSpaceOnUse">
<stop stop-color="#99CEFF"/>
<stop offset="1" stop-color="#D5E9FF"/>
</linearGradient>
<linearGradient id="paint6_linear_1998_387" x1="104.223" y1="409.404" x2="113.143" y2="409.404" gradientUnits="userSpaceOnUse">
<stop stop-color="#99CEFF"/>
<stop offset="1" stop-color="#D5E9FF"/>
</linearGradient>
</defs>
</svg>
