<svg width="44" height="45" viewBox="0 0 44 45" fill="none" xmlns="http://www.w3.org/2000/svg">
<g clip-path="url(#clip0_3060_13388)">
<path d="M21.7358 0C21.5634 0.121057 21.3911 0.143067 21.2188 0C21.3911 0 21.5634 0 21.7358 0Z" fill="white"/>
<path d="M22.7612 0C22.5888 0.143067 22.4165 0.121057 22.2441 0C22.4165 0 22.5888 0 22.7612 0Z" fill="white"/>
<path d="M43.9257 23.6393C43.9149 23.5182 43.8719 23.3752 44.0011 23.2871C44.0011 23.4082 44.0011 23.5182 44.0011 23.6393C43.9796 23.6613 43.958 23.6723 43.9257 23.6393Z" fill="white"/>
<path d="M20.7895 0C20.7357 0.110051 20.671 0.132062 20.6172 0C20.671 0 20.7357 0 20.7895 0Z" fill="white"/>
<path d="M23.3637 0C23.3099 0.132062 23.2453 0.110051 23.1914 0C23.256 0 23.3099 0 23.3637 0Z" fill="white"/>
<path d="M43.9253 21.1629C43.9145 21.0859 43.893 21.0088 44.0007 20.9868C44.0007 21.0418 44.0007 21.1079 44.0007 21.1629C43.9684 21.2069 43.9468 21.2069 43.9253 21.1629Z" fill="white"/>
<path d="M43.9258 21.1631C43.9473 21.1631 43.9689 21.1631 44.0012 21.1631C44.0012 21.2181 44.0012 21.2841 44.0012 21.3392C43.9796 21.3832 43.9473 21.3832 43.9258 21.3392C43.9258 21.2841 43.9258 21.2181 43.9258 21.1631Z" fill="white"/>
<path d="M43.9268 21.3389C43.9483 21.3389 43.9699 21.3389 44.0022 21.3389C44.0022 21.3939 44.0022 21.4599 44.0022 21.515C43.916 21.4819 43.916 21.4159 43.9268 21.3389Z" fill="white"/>
<path d="M43.9258 23.6389C43.9473 23.6389 43.9796 23.6389 44.0012 23.6279C44.0012 23.683 44.0012 23.749 44.0012 23.804C43.9796 23.837 43.9581 23.848 43.9258 23.804C43.9258 23.749 43.9258 23.694 43.9258 23.6389Z" fill="white"/>
<path d="M43.9253 23.8042C43.9468 23.8042 43.9684 23.8042 44.0007 23.8042C44.0007 23.8592 44.0007 23.9253 44.0007 23.9803C43.893 23.9583 43.9145 23.8812 43.9253 23.8042Z" fill="white"/>
<path d="M44.0012 20.7337C43.915 20.2715 43.9581 19.8092 43.8935 19.347C43.5596 16.7938 42.8056 14.3727 41.6531 12.0946C40.2851 9.40939 38.4541 7.10932 36.1921 5.16141C33.1762 2.5752 29.7187 0.935437 25.8411 0.220103C25.1086 0.0880411 24.3654 0.110051 23.633 0C23.5468 0 23.4607 0 23.3745 0C23.3206 0.0550257 23.256 0.0550257 23.2022 0C23.0621 0 22.9113 0 22.7713 0C22.599 0.0770359 22.4266 0.0770359 22.2543 0C22.082 0 21.9096 0 21.7373 0C21.565 0.0770359 21.3926 0.0770359 21.2203 0C21.0803 0 20.9295 0 20.7894 0C20.7356 0.0550257 20.6709 0.0550257 20.6171 0C20.4986 0 20.3909 0 20.2724 0C20.2401 0.121056 20.1432 0.077036 20.057 0.0880411C17.7951 0.286134 15.5978 0.81438 13.5082 1.72781C4.36348 5.71167 -0.978991 15.033 0.151976 25.1137C0.830556 31.1335 3.50179 36.1189 8.10106 39.9046C14.1006 44.8239 20.9079 46.1555 28.2969 44.0205C36.4291 41.6764 42.5579 34.347 43.7642 25.763C43.8288 25.2788 43.8073 24.7836 44.0012 24.3324C44.0012 24.2113 44.0012 24.1012 44.0012 23.9802C43.9366 23.9252 43.9581 23.8481 43.9581 23.7711C43.9581 23.7161 43.9581 23.661 43.9581 23.606C43.9689 23.496 43.915 23.3749 44.0012 23.2759C44.0012 22.6926 44.0012 22.1093 44.0012 21.515C43.9473 21.46 43.9581 21.394 43.9581 21.328C43.9581 21.2729 43.9581 21.2289 43.9581 21.1739C43.9581 21.1078 43.9473 21.0418 44.0012 20.9868C44.0012 20.9098 44.0012 20.8217 44.0012 20.7337ZM21.9958 43.6574C10.5569 43.6574 1.27217 34.1709 1.27217 22.4835C1.27217 10.796 10.5246 1.34263 21.9635 1.32062C33.4024 1.29861 42.6979 10.774 42.7086 22.4725C42.7194 34.1599 33.4455 43.6464 21.9958 43.6574Z" fill="white"/>
<path d="M21.4906 40.7518C18.5501 40.6417 15.7927 39.8604 13.2291 38.3857C12.2705 37.8354 11.3657 37.1861 10.5148 36.4708C10.1594 36.1737 10.0947 35.7775 10.3317 35.4803C10.5794 35.1722 10.9457 35.1392 11.3226 35.4583C12.3567 36.3167 13.4553 37.0761 14.6617 37.6814C17.9469 39.3101 21.3829 39.8164 24.9696 39.145C28.9119 38.4077 32.1648 36.4378 34.7283 33.3233C36.6348 31.0122 37.8411 28.338 38.3151 25.3446C39.0475 20.8105 38.1104 16.6395 35.59 12.8318C35.3099 12.4136 34.976 12.0174 34.6744 11.6102C34.3728 11.192 34.3836 10.8178 34.7175 10.5647C35.0191 10.3336 35.3853 10.4216 35.6869 10.7848C37.8411 13.437 39.2306 16.4524 39.6507 19.864C40.4693 26.5552 38.3689 32.1788 33.3388 36.5588C30.4521 39.079 27.0377 40.4216 23.2355 40.6748C22.8477 40.6968 22.46 40.7298 22.083 40.7408C21.8891 40.7518 21.6952 40.7518 21.4906 40.7518Z" fill="white"/>
<path d="M4.12635 22.5828C4.2556 16.585 6.5283 11.6657 11.203 7.96796C14.0142 5.73392 17.2348 4.52335 20.8 4.29225C25.5609 3.9841 29.7616 5.42578 33.4453 8.49621C33.8008 8.79335 33.8762 9.18953 33.65 9.48667C33.413 9.80582 33.036 9.83883 32.659 9.53069C31.6358 8.6943 30.5694 7.94595 29.3954 7.35167C26.0671 5.66789 22.5773 5.16165 18.9259 5.85498C15.0052 6.60332 11.7738 8.57324 9.22108 11.6767C7.32537 13.9768 6.12977 16.64 5.65584 19.6224C4.92341 24.1565 5.8605 28.3275 8.37016 32.1352C8.65021 32.5534 8.98412 32.9496 9.28571 33.3568C9.59807 33.786 9.5873 34.1382 9.27494 34.4023C8.97335 34.6444 8.59636 34.5564 8.27323 34.1712C6.12977 31.53 4.82647 28.5146 4.32023 25.136C4.19097 24.2886 4.1048 23.4412 4.12635 22.5828Z" fill="white"/>
<path d="M22.6307 9.14525C22.6307 9.55244 22.6415 9.95962 22.6307 10.3668C22.6199 10.8951 22.383 11.1702 21.9737 11.1592C21.5751 11.1482 21.3489 10.8951 21.3382 10.3888C21.3274 9.53043 21.3274 8.67202 21.3382 7.80262C21.3489 7.3294 21.6182 7.03226 21.9844 7.04326C22.3614 7.05427 22.5984 7.3404 22.6199 7.82463C22.6415 8.26483 22.6307 8.70504 22.6307 9.14525Z" fill="white"/>
<path d="M8.91861 21.8233C9.34946 21.8233 9.7803 21.8122 10.2004 21.8233C10.6528 21.8453 10.9005 22.0874 10.9005 22.4836C10.9005 22.8687 10.6528 23.1219 10.1896 23.1329C9.31714 23.1439 8.44468 23.1439 7.57222 23.1329C7.14138 23.1219 6.86133 22.8467 6.86133 22.4726C6.86133 22.1094 7.14138 21.8453 7.58299 21.8233C8.03538 21.8122 8.477 21.8233 8.91861 21.8233Z" fill="white"/>
<path d="M35.1041 21.8233C35.5349 21.8233 35.9658 21.8122 36.3859 21.8233C36.8275 21.8453 37.0968 22.1094 37.1075 22.4726C37.1075 22.8357 36.8382 23.1219 36.3966 23.1329C35.5242 23.1549 34.6517 23.1549 33.7793 23.1329C33.3161 23.1219 33.0791 22.8797 33.0684 22.4836C33.0684 22.0984 33.3161 21.8453 33.7685 21.8233C34.2101 21.8122 34.6625 21.8343 35.1041 21.8233Z" fill="white"/>
<path d="M22.6297 35.8769C22.6297 36.2951 22.6405 36.7243 22.6297 37.1425C22.6189 37.6267 22.3712 37.9239 21.9942 37.9239C21.6172 37.9349 21.3479 37.6377 21.3479 37.1645C21.3372 36.3061 21.3372 35.4477 21.3479 34.5783C21.3587 34.0721 21.5849 33.8079 21.9834 33.8079C22.3927 33.7969 22.6189 34.0721 22.6405 34.6003C22.6405 35.0295 22.6297 35.4587 22.6297 35.8769Z" fill="white"/>
<path d="M14.1211 35.2492C14.1426 35.0842 14.218 34.9301 14.3042 34.776C14.5196 34.4129 14.7027 34.0387 14.9397 33.6975C15.1443 33.3894 15.4567 33.3454 15.7691 33.5214C16.0707 33.6975 16.1676 34.0057 16.0276 34.3138C15.8014 34.798 15.5321 35.2603 15.2413 35.7115C15.0797 35.9646 14.7889 36.0086 14.5089 35.8986C14.2396 35.7885 14.1319 35.5464 14.1211 35.2492Z" fill="white"/>
<path d="M29.8684 35.1723C29.8469 35.5795 29.7176 35.8106 29.4591 35.8987C29.1898 35.9977 28.899 35.9427 28.7267 35.6786C28.4466 35.2384 28.1881 34.7871 27.9619 34.3249C27.8327 34.0608 27.8973 33.7747 28.1343 33.5766C28.3497 33.3895 28.6405 33.3345 28.8452 33.5216C29.3729 33.9838 29.5776 34.6661 29.8684 35.1723Z" fill="white"/>
<path d="M16.0728 10.8951C16.0728 11.1922 15.9435 11.4013 15.6743 11.5004C15.4158 11.5994 15.1357 11.5664 14.9741 11.3353C14.651 10.8731 14.3602 10.3888 14.1555 9.86059C14.0478 9.58547 14.1555 9.34335 14.371 9.16727C14.5972 8.99119 14.8449 8.99119 15.0926 9.13426C15.3296 9.28833 16.0728 10.6199 16.0728 10.8951Z" fill="white"/>
<path d="M29.8706 9.75054C29.8383 9.84958 29.7952 9.99265 29.7306 10.1137C29.5259 10.4989 29.3213 10.8731 29.0843 11.2472C28.8904 11.5554 28.578 11.6324 28.2549 11.4783C27.9318 11.3243 27.8025 10.9941 27.9533 10.664C28.1795 10.1797 28.4596 9.71752 28.7396 9.26631C28.9119 9.00219 29.192 8.96917 29.4613 9.07923C29.7413 9.18928 29.849 9.42038 29.8706 9.75054Z" fill="white"/>
<path d="M11.2779 15.9244C11.2779 16.2765 10.8147 16.6067 10.3731 16.3866C9.9315 16.1665 9.50065 15.9023 9.08058 15.6162C8.77899 15.4071 8.72513 15.088 8.90824 14.7688C9.08058 14.4607 9.3714 14.3506 9.67299 14.5047C10.1469 14.7468 10.5885 15.0219 11.0409 15.3081C11.224 15.4071 11.2779 15.5942 11.2779 15.9244Z" fill="white"/>
<path d="M35.1588 15.11C35.1695 15.3411 35.051 15.5282 34.8464 15.6603C34.4586 15.9024 34.0709 16.1445 33.6616 16.3536C33.3384 16.5297 32.9615 16.4197 32.7999 16.1445C32.6275 15.8474 32.6814 15.4622 32.9938 15.2641C33.3923 14.989 33.8124 14.7359 34.2432 14.5268C34.6848 14.2957 35.148 14.6038 35.1588 15.11Z" fill="white"/>
<path d="M11.2779 29.2847C11.2779 29.4498 11.1379 29.6368 10.9225 29.7689C10.5563 29.989 10.1901 30.2091 9.81307 30.4182C9.45762 30.6053 9.09141 30.5172 8.91907 30.2091C8.73596 29.89 8.81136 29.5268 9.15603 29.3067C9.54379 29.0536 9.93155 28.8225 10.3409 28.6134C10.804 28.3823 11.2779 28.6684 11.2779 29.2847Z" fill="white"/>
<path d="M33.3482 28.5361C33.4775 28.5251 33.6067 28.5801 33.7144 28.6461C34.1022 28.8772 34.5115 29.0973 34.8885 29.3615C35.1901 29.5706 35.2439 29.8897 35.0716 30.2089C34.8885 30.539 34.5761 30.6271 34.2638 30.473C33.8114 30.2529 33.3913 29.9888 32.9712 29.7136C32.6912 29.5375 32.6373 29.2404 32.745 28.9433C32.842 28.6571 33.0574 28.5251 33.3482 28.5361Z" fill="white"/>
<path d="M31.582 20.9758C31.5174 20.5356 31.1835 20.3706 30.5265 20.4696C28.3938 20.7998 26.2611 21.1409 24.1284 21.4821C23.8807 21.5261 23.7514 21.4711 23.6006 21.251C23.0944 20.5356 22.2112 20.2385 21.4033 20.5246C21.1556 20.6127 21.0263 20.5466 20.854 20.3706C19.1198 18.5877 17.3749 16.8049 15.63 15.0331C15.1776 14.5709 14.7252 14.0976 14.2621 13.6354C13.9282 13.3053 13.5512 13.2833 13.2711 13.5694C13.0019 13.8555 13.0342 14.2187 13.3573 14.5819C13.4219 14.6589 13.4973 14.7249 13.5727 14.802C15.6839 16.959 17.8058 19.127 19.9277 21.284C20.1108 21.4711 20.1754 21.6031 20.0892 21.8783C19.6692 23.1769 20.617 24.4975 21.9634 24.5415C22.8036 24.5635 23.6114 24.0243 23.8807 23.1989C23.9668 22.9238 24.0853 22.8137 24.3654 22.7697C26.4765 22.4505 28.5769 22.1094 30.688 21.7902C31.3451 21.6802 31.6467 21.4271 31.582 20.9758ZM22.028 23.2209C21.6187 23.2429 21.2848 22.9238 21.2741 22.5056C21.2633 22.0874 21.5864 21.7572 21.9957 21.7572C22.3835 21.7572 22.6959 22.0764 22.7066 22.4725C22.7174 22.8687 22.4158 23.1989 22.028 23.2209Z" fill="white"/>
</g>
<defs>
<clipPath id="clip0_3060_13388">
<rect width="44" height="45" fill="white"/>
</clipPath>
</defs>
</svg>
