<svg width="111" height="95" viewBox="0 0 111 95" fill="none" xmlns="http://www.w3.org/2000/svg">
<path fill-rule="evenodd" clip-rule="evenodd" d="M39.0039 2.5H71.9961C74.2074 2.5 76 4.29261 76 6.50391V39.4961C76 41.7074 74.2074 43.5 71.9961 43.5H39.0039C36.7926 43.5 35 41.7074 35 39.4961V6.50391C35 4.29261 36.7926 2.5 39.0039 2.5ZM57.3379 34.4636C57.3379 38.547 54.9259 40.5376 51.4343 40.5376C48.9511 40.5376 47.2882 39.5251 46.2399 38.1323C45.7615 37.4966 46.0383 36.6207 46.719 36.2087L47.3599 35.8207C48.1102 35.3666 49.0113 35.6834 49.5992 36.3342C49.9758 36.751 50.4469 37.0179 51.1712 37.0179C52.2948 37.0179 53.218 36.5114 53.218 34.5404V22.9085C53.218 22.0505 53.9136 21.3549 54.7716 21.3549H55.7843C56.6423 21.3549 57.3379 22.0505 57.3379 22.9085V34.4636ZM66.6404 40.444C63.6798 40.444 61.5664 39.3633 60.2558 37.7431C59.7374 37.1023 60.0185 36.1885 60.7318 35.7756L61.3616 35.4111C62.0919 34.9884 62.9977 35.2595 63.6071 35.8432C64.3293 36.5349 65.2547 36.9505 66.5608 36.9505C68.1938 36.9505 69.1423 36.2277 69.1423 35.1012C69.1423 33.7501 68.1657 33.2716 66.3633 32.4795L65.3782 32.0563C62.5336 30.8465 60.6479 29.3259 60.6479 26.1152C60.6479 23.1592 62.8997 21 66.4194 21C68.4213 21 69.9728 21.4969 71.1771 22.8588C71.7237 23.4771 71.4799 24.4094 70.7857 24.8556L70.3391 25.1427C69.5854 25.6271 68.6358 25.2888 67.9022 24.7744C67.4823 24.4799 67.0029 24.3512 66.4148 24.3512C65.2603 24.3512 64.528 25.0834 64.528 26.0366C64.528 27.2192 65.2602 27.6976 66.9494 28.4298L67.9344 28.8521C71.2856 30.2885 73.1723 31.7548 73.1723 35.0469C73.1732 38.5957 70.3858 40.444 66.6404 40.444Z" fill="#8F8E93"/>
<path d="M25.0467 67.516V70.442H29.8067V71.758H25.0467V74.684H30.2267V76H23.6467V66.2H30.2267V67.516H25.0467ZM36.6189 76L34.5889 73.354L32.5449 76H30.9349L33.7349 72.444L31.0469 69H32.6989L34.6169 71.506L36.4929 69H38.1449L35.4709 72.402L38.2709 76H36.6189ZM43.2262 68.86C43.8422 68.86 44.4022 69.0187 44.9062 69.336C45.4102 69.644 45.8068 70.0733 46.0962 70.624C46.3855 71.1747 46.5302 71.8 46.5302 72.5C46.5302 73.2 46.3855 73.8253 46.0962 74.376C45.8068 74.9267 45.4102 75.3607 44.9062 75.678C44.4022 75.986 43.8422 76.14 43.2262 76.14C42.7595 76.14 42.3208 76.0373 41.9102 75.832C41.4995 75.6173 41.1495 75.3233 40.8602 74.95V78.38H39.5302V69H40.7902V70.134C41.0888 69.7327 41.4482 69.42 41.8682 69.196C42.2882 68.972 42.7408 68.86 43.2262 68.86ZM43.0022 74.908C43.4128 74.908 43.7815 74.8053 44.1082 74.6C44.4348 74.3947 44.6915 74.11 44.8782 73.746C45.0648 73.3727 45.1582 72.9573 45.1582 72.5C45.1582 72.0427 45.0648 71.632 44.8782 71.268C44.6915 70.8947 44.4348 70.6053 44.1082 70.4C43.7815 70.1947 43.4128 70.092 43.0022 70.092C42.5915 70.092 42.2182 70.1947 41.8822 70.4C41.5462 70.6053 41.2848 70.8947 41.0982 71.268C40.9115 71.632 40.8182 72.0427 40.8182 72.5C40.8182 72.9573 40.9115 73.3727 41.0982 73.746C41.2848 74.11 41.5462 74.3947 41.8822 74.6C42.2182 74.8053 42.5915 74.908 43.0022 74.908ZM51.7134 68.86C51.9374 68.86 52.1474 68.874 52.3434 68.902V70.204C52.1754 70.1667 51.9094 70.148 51.5454 70.148C51.1348 70.148 50.7708 70.2413 50.4534 70.428C50.1454 70.6147 49.9028 70.8667 49.7254 71.184C49.5574 71.492 49.4734 71.8327 49.4734 72.206V76H48.1434V69H49.4034V70.078C49.6648 69.7047 49.9961 69.4107 50.3974 69.196C50.8081 68.972 51.2468 68.86 51.7134 68.86ZM56.2791 68.86C56.9977 68.86 57.6231 69.014 58.1551 69.322C58.6964 69.63 59.1117 70.0687 59.4011 70.638C59.6904 71.198 59.8351 71.856 59.8351 72.612C59.8351 72.808 59.8304 72.9527 59.8211 73.046H54.0811C54.1744 73.5873 54.4264 74.0353 54.8371 74.39C55.2571 74.7353 55.7424 74.908 56.2931 74.908C57.1984 74.908 57.8424 74.5767 58.2251 73.914H59.5971C59.3731 74.5673 58.9577 75.104 58.3511 75.524C57.7444 75.9347 57.0584 76.14 56.2931 76.14C55.6117 76.14 54.9957 75.986 54.4451 75.678C53.8944 75.3607 53.4651 74.9267 53.1571 74.376C52.8491 73.816 52.6951 73.1907 52.6951 72.5C52.6951 71.8093 52.8491 71.1887 53.1571 70.638C53.4651 70.078 53.8897 69.644 54.4311 69.336C54.9817 69.0187 55.5977 68.86 56.2791 68.86ZM56.2511 70.036C55.7004 70.036 55.2244 70.2087 54.8231 70.554C54.4311 70.8993 54.1884 71.3427 54.0951 71.884H58.3931C58.3371 71.324 58.1084 70.876 57.7071 70.54C57.3151 70.204 56.8297 70.036 56.2511 70.036ZM63.9785 76.14C63.1012 76.14 62.3592 75.9347 61.7525 75.524C61.1552 75.104 60.8099 74.5253 60.7165 73.788H62.0465C62.1679 74.1893 62.3919 74.488 62.7185 74.684C63.0545 74.8707 63.4932 74.964 64.0345 74.964C64.5385 74.964 64.9445 74.8847 65.2525 74.726C65.5605 74.558 65.7145 74.3433 65.7145 74.082C65.7145 73.8207 65.6072 73.6153 65.3925 73.466C65.1872 73.3073 64.7999 73.1813 64.2305 73.088L63.4325 72.948C61.7525 72.6493 60.9125 71.9727 60.9125 70.918C60.9125 70.302 61.1832 69.8073 61.7245 69.434C62.2659 69.0513 62.9752 68.86 63.8525 68.86C64.6459 68.86 65.3225 69.0467 65.8825 69.42C66.4425 69.784 66.7972 70.2927 66.9465 70.946H65.5325C65.4205 70.666 65.2059 70.4513 64.8885 70.302C64.5712 70.1433 64.2212 70.064 63.8385 70.064C63.3532 70.064 62.9659 70.1387 62.6765 70.288C62.3965 70.428 62.2565 70.624 62.2565 70.876C62.2565 71.1 62.3639 71.2867 62.5785 71.436C62.7932 71.576 63.1385 71.6833 63.6145 71.758L64.4265 71.898C65.3785 72.0567 66.0505 72.318 66.4425 72.682C66.8345 73.0367 67.0305 73.5033 67.0305 74.082C67.0305 74.698 66.7552 75.1973 66.2045 75.58C65.6632 75.9533 64.9212 76.14 63.9785 76.14ZM71.1699 76.14C70.2926 76.14 69.5506 75.9347 68.9439 75.524C68.3466 75.104 68.0013 74.5253 67.9079 73.788H69.2379C69.3593 74.1893 69.5833 74.488 69.9099 74.684C70.2459 74.8707 70.6846 74.964 71.2259 74.964C71.7299 74.964 72.1359 74.8847 72.4439 74.726C72.7519 74.558 72.9059 74.3433 72.9059 74.082C72.9059 73.8207 72.7986 73.6153 72.5839 73.466C72.3786 73.3073 71.9913 73.1813 71.4219 73.088L70.6239 72.948C68.9439 72.6493 68.1039 71.9727 68.1039 70.918C68.1039 70.302 68.3746 69.8073 68.9159 69.434C69.4573 69.0513 70.1666 68.86 71.0439 68.86C71.8373 68.86 72.5139 69.0467 73.0739 69.42C73.6339 69.784 73.9886 70.2927 74.1379 70.946H72.7239C72.6119 70.666 72.3973 70.4513 72.0799 70.302C71.7626 70.1433 71.4126 70.064 71.0299 70.064C70.5446 70.064 70.1573 70.1387 69.8679 70.288C69.5879 70.428 69.4479 70.624 69.4479 70.876C69.4479 71.1 69.5553 71.2867 69.7699 71.436C69.9846 71.576 70.3299 71.6833 70.8059 71.758L71.6179 71.898C72.5699 72.0567 73.2419 72.318 73.6339 72.682C74.0259 73.0367 74.2219 73.5033 74.2219 74.082C74.2219 74.698 73.9466 75.1973 73.3959 75.58C72.8546 75.9533 72.1126 76.14 71.1699 76.14ZM76.8052 74.46V76H75.2652V74.46H76.8052ZM80.4592 66.2V67.74H78.9752V66.2H80.4592ZM80.3752 69V76.336C80.3752 77.792 79.6332 78.52 78.1492 78.52C77.7852 78.52 77.4772 78.478 77.2252 78.394V77.176C77.4585 77.232 77.7432 77.26 78.0792 77.26C78.4338 77.26 78.6812 77.1807 78.8212 77.022C78.9705 76.8633 79.0452 76.6347 79.0452 76.336V69H80.3752ZM85.0742 76.14C84.1969 76.14 83.4549 75.9347 82.8482 75.524C82.2509 75.104 81.9056 74.5253 81.8122 73.788H83.1422C83.2636 74.1893 83.4876 74.488 83.8142 74.684C84.1502 74.8707 84.5889 74.964 85.1302 74.964C85.6342 74.964 86.0402 74.8847 86.3482 74.726C86.6562 74.558 86.8102 74.3433 86.8102 74.082C86.8102 73.8207 86.7029 73.6153 86.4882 73.466C86.2829 73.3073 85.8956 73.1813 85.3262 73.088L84.5282 72.948C82.8482 72.6493 82.0082 71.9727 82.0082 70.918C82.0082 70.302 82.2789 69.8073 82.8202 69.434C83.3616 69.0513 84.0709 68.86 84.9482 68.86C85.7416 68.86 86.4182 69.0467 86.9782 69.42C87.5382 69.784 87.8929 70.2927 88.0422 70.946H86.6282C86.5162 70.666 86.3016 70.4513 85.9842 70.302C85.6669 70.1433 85.3169 70.064 84.9342 70.064C84.4489 70.064 84.0616 70.1387 83.7722 70.288C83.4922 70.428 83.3522 70.624 83.3522 70.876C83.3522 71.1 83.4596 71.2867 83.6742 71.436C83.8889 71.576 84.2342 71.6833 84.7102 71.758L85.5222 71.898C86.4742 72.0567 87.1462 72.318 87.5382 72.682C87.9302 73.0367 88.1262 73.5033 88.1262 74.082C88.1262 74.698 87.8509 75.1973 87.3002 75.58C86.7589 75.9533 86.0169 76.14 85.0742 76.14Z" fill="#8F8E93"/>
</svg>
