<svg width="384" height="78" viewBox="0 0 384 78" fill="none" xmlns="http://www.w3.org/2000/svg">
<mask id="path-1-outside-1_1881_1327" maskUnits="userSpaceOnUse" x="-1.33594" y="-1.83008" width="386" height="80" fill="black">
<rect fill="white" x="-1.33594" y="-1.83008" width="386" height="80"/>
<path d="M27.7949 50.2422H9.48437L9.48437 39.6953L27.7949 39.6953C30.7897 39.6953 33.2148 39.207 35.0703 38.2305C36.9583 37.2214 38.3418 35.8542 39.2207 34.1289C40.0996 32.3711 40.5391 30.3691 40.5391 28.123C40.5391 25.9421 40.0996 23.9076 39.2207 22.0195C38.3418 20.1315 36.9583 18.6016 35.0703 17.4297C33.2148 16.2578 30.7897 15.6719 27.7949 15.6719L13.8789 15.6719L13.8789 76.1699H0.451172L0.451172 5.07617L27.7949 5.07617C33.3288 5.07617 38.0488 6.06901 41.9551 8.05469C45.8939 10.0078 48.8887 12.7259 50.9395 16.209C53.0228 19.6595 54.0645 23.5983 54.0645 28.0254C54.0645 32.6152 53.0228 36.5703 50.9395 39.8906C48.8887 43.2109 45.8939 45.7663 41.9551 47.5566C38.0488 49.347 33.3288 50.2422 27.7949 50.2422ZM60.6562 50.291V49.2656C60.6562 45.3919 61.2096 41.8275 62.3164 38.5723C63.4232 35.2845 65.0345 32.4362 67.1504 30.0273C69.2663 27.6185 71.8542 25.7467 74.9141 24.4121C77.974 23.0449 81.457 22.3613 85.3633 22.3613C89.3346 22.3613 92.8503 23.0449 95.9102 24.4121C99.0026 25.7467 101.607 27.6185 103.723 30.0273C105.839 32.4362 107.45 35.2845 108.557 38.5723C109.663 41.8275 110.217 45.3919 110.217 49.2656V50.291C110.217 54.1322 109.663 57.6966 108.557 60.9844C107.45 64.2396 105.839 67.0879 103.723 69.5293C101.607 71.9382 99.0189 73.8099 95.959 75.1445C92.8991 76.4792 89.3997 77.1465 85.4609 77.1465C81.5547 77.1465 78.0553 76.4792 74.9629 75.1445C71.8704 73.8099 69.2663 71.9382 67.1504 69.5293C65.0345 67.0879 63.4232 64.2396 62.3164 60.9844C61.2096 57.6966 60.6562 54.1322 60.6562 50.291ZM73.5469 49.2656V50.291C73.5469 52.6022 73.7747 54.7669 74.2305 56.7852C74.6862 58.8034 75.3861 60.5775 76.3301 62.1074C77.2741 63.6374 78.4948 64.8418 79.9922 65.7207C81.5221 66.5671 83.3451 66.9902 85.4609 66.9902C87.5443 66.9902 89.3346 66.5671 90.832 65.7207C92.3294 64.8418 93.5501 63.6374 94.4941 62.1074C95.4707 60.5775 96.1868 58.8034 96.6426 56.7852C97.0983 54.7669 97.3262 52.6022 97.3262 50.291V49.2656C97.3262 46.987 97.0983 44.8548 96.6426 42.8691C96.1868 40.8509 95.4707 39.0768 94.4941 37.5469C93.5501 35.9844 92.3132 34.7637 90.7832 33.8848C89.2858 32.9733 87.4792 32.5176 85.3633 32.5176C83.2799 32.5176 81.4896 32.9733 79.9922 33.8848C78.4948 34.7637 77.2741 35.9844 76.3301 37.5469C75.3861 39.0768 74.6862 40.8509 74.2305 42.8691C73.7747 44.8548 73.5469 46.987 73.5469 49.2656ZM132.482 34.1289L132.482 76.1699L119.592 76.1699L119.592 23.3379H131.799L132.482 34.1289ZM148.547 22.9961L148.352 35.0078C147.635 34.8776 146.822 34.7799 145.91 34.7148C145.031 34.6497 144.201 34.6172 143.42 34.6172C141.434 34.6172 139.693 34.8939 138.195 35.4473C136.698 35.9681 135.445 36.7331 134.436 37.7422C133.459 38.7513 132.71 39.9883 132.189 41.4531C131.669 42.8854 131.376 44.513 131.311 46.3359L128.527 45.9941C128.527 42.6413 128.869 39.5326 129.553 36.668C130.236 33.8034 131.229 31.2969 132.531 29.1484C133.833 27 135.461 25.3398 137.414 24.168C139.4 22.9635 141.678 22.3613 144.25 22.3613C144.966 22.3613 145.731 22.4264 146.545 22.5566C147.391 22.6543 148.059 22.8008 148.547 22.9961ZM183.068 23.3379V32.6152H152.795V23.3379H183.068ZM160.9 10.3496H173.84V60.9355C173.84 62.498 174.051 63.7025 174.475 64.5488C174.898 65.3952 175.533 65.9648 176.379 66.2578C177.225 66.5508 178.234 66.6973 179.406 66.6973C180.253 66.6973 181.034 66.6484 181.75 66.5508C182.466 66.4531 183.068 66.3555 183.557 66.2578L183.605 75.9258C182.531 76.2839 181.311 76.5768 179.943 76.8047C178.609 77.0326 177.095 77.1465 175.402 77.1465C172.505 77.1465 169.966 76.6582 167.785 75.6816C165.604 74.6725 163.911 73.0612 162.707 70.8477C161.503 68.6016 160.9 65.6393 160.9 61.9609V10.3496ZM208.557 76.1699H195.568L195.568 18.4551C195.568 14.4837 196.333 11.1471 197.863 8.44531C199.393 5.71094 201.574 3.64388 204.406 2.24414C207.238 0.844401 210.575 0.144531 214.416 0.144531C215.686 0.144531 216.89 0.225911 218.029 0.388672C219.201 0.551432 220.357 0.779297 221.496 1.07227L221.252 10.8867C220.633 10.724 219.95 10.61 219.201 10.5449C218.485 10.4798 217.688 10.4473 216.809 10.4473C215.051 10.4473 213.553 10.7565 212.316 11.375C211.079 11.9935 210.135 12.9049 209.484 14.1094C208.866 15.2813 208.557 16.7298 208.557 18.4551L208.557 76.1699ZM219.25 23.3379V32.6152L187.609 32.6152V23.3379L219.25 23.3379ZM224.914 50.291V49.2656C224.914 45.3919 225.467 41.8275 226.574 38.5723C227.681 35.2845 229.292 32.4362 231.408 30.0273C233.524 27.6185 236.112 25.7467 239.172 24.4121C242.232 23.0449 245.715 22.3613 249.621 22.3613C253.592 22.3613 257.108 23.0449 260.168 24.4121C263.26 25.7467 265.865 27.6185 267.98 30.0273C270.096 32.4362 271.708 35.2845 272.814 38.5723C273.921 41.8275 274.475 45.3919 274.475 49.2656V50.291C274.475 54.1322 273.921 57.6966 272.814 60.9844C271.708 64.2396 270.096 67.0879 267.98 69.5293C265.865 71.9382 263.277 73.8099 260.217 75.1445C257.157 76.4792 253.658 77.1465 249.719 77.1465C245.812 77.1465 242.313 76.4792 239.221 75.1445C236.128 73.8099 233.524 71.9382 231.408 69.5293C229.292 67.0879 227.681 64.2396 226.574 60.9844C225.467 57.6966 224.914 54.1322 224.914 50.291ZM237.805 49.2656V50.291C237.805 52.6022 238.033 54.7669 238.488 56.7852C238.944 58.8034 239.644 60.5775 240.588 62.1074C241.532 63.6374 242.753 64.8418 244.25 65.7207C245.78 66.5671 247.603 66.9902 249.719 66.9902C251.802 66.9902 253.592 66.5671 255.09 65.7207C256.587 64.8418 257.808 63.6374 258.752 62.1074C259.729 60.5775 260.445 58.8034 260.9 56.7852C261.356 54.7669 261.584 52.6022 261.584 50.291V49.2656C261.584 46.987 261.356 44.8548 260.9 42.8691C260.445 40.8509 259.729 39.0768 258.752 37.5469C257.808 35.9844 256.571 34.7637 255.041 33.8848C253.544 32.9733 251.737 32.5176 249.621 32.5176C247.538 32.5176 245.747 32.9733 244.25 33.8848C242.753 34.7637 241.532 35.9844 240.588 37.5469C239.644 39.0768 238.944 40.8509 238.488 42.8691C238.033 44.8548 237.805 46.987 237.805 49.2656ZM297.521 1.16992V76.1699H284.582V1.16992L297.521 1.16992ZM323.498 23.3379V76.1699H310.559V23.3379H323.498ZM309.68 9.51953C309.68 7.59896 310.331 6.00391 311.633 4.73438C312.967 3.46484 314.758 2.83008 317.004 2.83008C319.25 2.83008 321.024 3.46484 322.326 4.73438C323.661 6.00391 324.328 7.59896 324.328 9.51953C324.328 11.4076 323.661 12.9863 322.326 14.2559C321.024 15.5254 319.25 16.1602 317.004 16.1602C314.758 16.1602 312.967 15.5254 311.633 14.2559C310.331 12.9863 309.68 11.4076 309.68 9.51953ZM333.508 50.291V49.2656C333.508 45.3919 334.061 41.8275 335.168 38.5723C336.275 35.2845 337.886 32.4362 340.002 30.0273C342.118 27.6185 344.706 25.7467 347.766 24.4121C350.826 23.0449 354.309 22.3613 358.215 22.3613C362.186 22.3613 365.702 23.0449 368.762 24.4121C371.854 25.7467 374.458 27.6185 376.574 30.0273C378.69 32.4362 380.301 35.2845 381.408 38.5723C382.515 41.8275 383.068 45.3919 383.068 49.2656V50.291C383.068 54.1322 382.515 57.6966 381.408 60.9844C380.301 64.2396 378.69 67.0879 376.574 69.5293C374.458 71.9382 371.87 73.8099 368.811 75.1445C365.751 76.4792 362.251 77.1465 358.312 77.1465C354.406 77.1465 350.907 76.4792 347.814 75.1445C344.722 73.8099 342.118 71.9382 340.002 69.5293C337.886 67.0879 336.275 64.2396 335.168 60.9844C334.061 57.6966 333.508 54.1322 333.508 50.291ZM346.398 49.2656V50.291C346.398 52.6022 346.626 54.7669 347.082 56.7852C347.538 58.8034 348.238 60.5775 349.182 62.1074C350.126 63.6374 351.346 64.8418 352.844 65.7207C354.374 66.5671 356.197 66.9902 358.312 66.9902C360.396 66.9902 362.186 66.5671 363.684 65.7207C365.181 64.8418 366.402 63.6374 367.346 62.1074C368.322 60.5775 369.038 58.8034 369.494 56.7852C369.95 54.7669 370.178 52.6022 370.178 50.291V49.2656C370.178 46.987 369.95 44.8548 369.494 42.8691C369.038 40.8509 368.322 39.0768 367.346 37.5469C366.402 35.9844 365.165 34.7637 363.635 33.8848C362.137 32.9733 360.331 32.5176 358.215 32.5176C356.132 32.5176 354.341 32.9733 352.844 33.8848C351.346 34.7637 350.126 35.9844 349.182 37.5469C348.238 39.0768 347.538 40.8509 347.082 42.8691C346.626 44.8548 346.398 46.987 346.398 49.2656Z"/>
</mask>
<path d="M9.48437 50.2422H8.48437L8.48437 51.2422H9.48437L9.48437 50.2422ZM9.48437 39.6953V38.6953H8.48437V39.6953H9.48437ZM35.0703 38.2305L35.5361 39.1154L35.5417 39.1124L35.0703 38.2305ZM39.2207 34.1289L40.1118 34.5828L40.1151 34.5761L39.2207 34.1289ZM35.0703 17.4297L34.5363 18.2752L34.5429 18.2793L35.0703 17.4297ZM13.8789 15.6719V14.6719H12.8789V15.6719H13.8789ZM13.8789 76.1699V77.1699H14.8789V76.1699H13.8789ZM0.451172 76.1699H-0.548828V77.1699H0.451172V76.1699ZM0.451172 5.07617V4.07617H-0.548828V5.07617H0.451172ZM41.9551 8.05469L41.5019 8.94617L41.5108 8.95059L41.9551 8.05469ZM50.9395 16.209L50.0777 16.7164L50.0834 16.7259L50.9395 16.209ZM50.9395 39.8906L50.0924 39.3591L50.0887 39.3651L50.9395 39.8906ZM41.9551 47.5566L41.5413 46.6463L41.5384 46.6476L41.9551 47.5566ZM27.7949 49.2422H9.48437L9.48437 51.2422H27.7949V49.2422ZM10.4844 50.2422V39.6953H8.48437L8.48437 50.2422H10.4844ZM9.48437 40.6953L27.7949 40.6953V38.6953L9.48437 38.6953L9.48437 40.6953ZM27.7949 40.6953C30.8869 40.6953 33.4887 40.1929 35.5361 39.1154L34.6046 37.3456C32.941 38.2211 30.6925 38.6953 27.7949 38.6953V40.6953ZM35.5417 39.1124C37.5902 38.0175 39.1303 36.5094 40.1117 34.5828L38.3297 33.675C37.5533 35.1989 36.3265 36.4252 34.5989 37.3485L35.5417 39.1124ZM40.1151 34.5761C41.0728 32.6608 41.5391 30.5021 41.5391 28.123H39.5391C39.5391 30.2362 39.1264 32.0814 38.3263 33.6817L40.1151 34.5761ZM41.5391 28.123C41.5391 25.8033 41.0706 23.624 40.1273 21.5975L38.3141 22.4416C39.1286 24.1911 39.5391 26.0808 39.5391 28.123H41.5391ZM40.1273 21.5975C39.1607 19.5211 37.6394 17.8473 35.5977 16.58L34.5429 18.2793C36.2773 19.3558 37.5229 20.7419 38.3141 22.4416L40.1273 21.5975ZM35.6043 16.5842C33.5407 15.2809 30.9121 14.6719 27.7949 14.6719V16.6719C30.6673 16.6719 32.889 17.2347 34.5363 18.2752L35.6043 16.5842ZM27.7949 14.6719L13.8789 14.6719V16.6719L27.7949 16.6719V14.6719ZM12.8789 15.6719L12.8789 76.1699H14.8789L14.8789 15.6719H12.8789ZM13.8789 75.1699H0.451172L0.451172 77.1699H13.8789V75.1699ZM1.45117 76.1699L1.45117 5.07617H-0.548828L-0.548828 76.1699H1.45117ZM0.451172 6.07617L27.7949 6.07617V4.07617L0.451172 4.07617V6.07617ZM27.7949 6.07617C33.2116 6.07617 37.7681 7.04809 41.5019 8.94612L42.4082 7.16325C38.3296 5.08993 33.4459 4.07617 27.7949 4.07617V6.07617ZM41.5108 8.95059C45.2916 10.8254 48.1341 13.4152 50.0777 16.7164L51.8012 15.7016C49.6433 12.0366 46.4962 9.19027 42.3993 7.15878L41.5108 8.95059ZM50.0834 16.7259C52.0634 20.0053 53.0645 23.762 53.0645 28.0254H55.0645C55.0645 23.4346 53.9821 19.3137 51.7955 15.6921L50.0834 16.7259ZM53.0645 28.0254C53.0645 32.4599 52.0597 36.2237 50.0924 39.3591L51.7865 40.4221C53.9858 36.917 55.0645 32.7706 55.0645 28.0254H53.0645ZM50.0887 39.3651C48.1533 42.4985 45.3199 44.9287 41.5413 46.6463L42.3689 48.467C46.4679 46.6038 49.624 43.9233 51.7903 40.4161L50.0887 39.3651ZM41.5384 46.6476C37.7948 48.3634 33.2248 49.2422 27.7949 49.2422V51.2422C33.4328 51.2422 38.3028 50.3306 42.3717 48.4657L41.5384 46.6476ZM62.3164 38.5723L63.2632 38.8942L63.2641 38.8913L62.3164 38.5723ZM67.1504 30.0273L66.3991 29.3674L67.1504 30.0273ZM74.9141 24.4121L75.3139 25.3288L75.322 25.3251L74.9141 24.4121ZM95.9102 24.4121L95.5022 25.3252L95.5139 25.3302L95.9102 24.4121ZM108.557 38.5723L107.609 38.8913L107.61 38.8942L108.557 38.5723ZM108.557 60.9844L109.503 61.3063L109.504 61.3034L108.557 60.9844ZM103.723 69.5293L104.474 70.1893L104.478 70.1842L103.723 69.5293ZM67.1504 69.5293L66.3947 70.1842L66.3991 70.1892L67.1504 69.5293ZM62.3164 60.9844L61.3687 61.3034L61.3696 61.3063L62.3164 60.9844ZM79.9922 65.7207L79.486 66.5831L79.497 66.5896L79.5081 66.5957L79.9922 65.7207ZM90.832 65.7207L91.3241 66.5913L91.3312 66.5872L91.3382 66.5831L90.832 65.7207ZM94.4941 62.1074L93.6512 61.5694L93.6471 61.5758L93.6431 61.5823L94.4941 62.1074ZM96.6426 42.8691L95.6671 43.0894L95.6679 43.0928L96.6426 42.8691ZM94.4941 37.5469L93.6382 38.064L93.6446 38.0745L93.6512 38.0849L94.4941 37.5469ZM90.7832 33.8848L90.2633 34.739L90.2741 34.7456L90.2851 34.7519L90.7832 33.8848ZM79.9922 33.8848L80.4984 34.7472L80.5053 34.7431L80.5121 34.739L79.9922 33.8848ZM76.3301 37.5469L77.1812 38.072L77.186 38.064L76.3301 37.5469ZM74.2305 42.8691L75.2051 43.0928L75.2059 43.0894L74.2305 42.8691ZM61.6562 50.291V49.2656H59.6562V50.291H61.6562ZM61.6562 49.2656C61.6562 45.4877 62.1958 42.0335 63.2632 38.8942L61.3696 38.2504C60.2235 41.6215 59.6562 45.2961 59.6562 49.2656H61.6562ZM63.2641 38.8913C64.3322 35.7187 65.8802 32.9887 67.9017 30.6873L66.3991 29.3674C64.1888 31.8837 62.5142 34.8503 61.3687 38.2532L63.2641 38.8913ZM67.9017 30.6873C69.9167 28.3933 72.3829 26.6071 75.3139 25.3287L74.5143 23.4955C71.3255 24.8864 68.6159 26.8437 66.3991 29.3674L67.9017 30.6873ZM75.322 25.3251C78.234 24.024 81.5745 23.3613 85.3633 23.3613L85.3633 21.3613C81.3395 21.3613 77.7139 22.0658 74.5061 23.4991L75.322 25.3251ZM85.3633 23.3613C89.2197 23.3613 92.5922 24.0249 95.5022 25.3251L96.3181 23.4991C93.1083 22.0649 89.4496 21.3613 85.3633 21.3613L85.3633 23.3613ZM95.5139 25.3302C98.4774 26.6092 100.958 28.3954 102.971 30.6873L104.474 29.3674C102.255 26.8416 99.5278 24.8843 96.3064 23.494L95.5139 25.3302ZM102.971 30.6873C104.993 32.9887 106.541 35.7187 107.609 38.8913L109.504 38.2532C108.359 34.8503 106.684 31.8837 104.474 29.3674L102.971 30.6873ZM107.61 38.8942C108.677 42.0335 109.217 45.4877 109.217 49.2656H111.217C111.217 45.2961 110.65 41.6215 109.503 38.2504L107.61 38.8942ZM109.217 49.2656V50.291H111.217V49.2656H109.217ZM109.217 50.291C109.217 54.0352 108.678 57.4908 107.609 60.6653L109.504 61.3034C110.649 57.9024 111.217 54.2291 111.217 50.291H109.217ZM107.61 60.6625C106.542 63.8033 104.993 66.5367 102.967 68.8744L104.478 70.1842C106.684 67.639 108.358 64.6758 109.503 61.3063L107.61 60.6625ZM102.971 68.8694C100.956 71.1633 98.4902 72.9495 95.5592 74.2279L96.3588 76.0611C99.5476 74.6703 102.257 72.713 104.474 70.1892L102.971 68.8694ZM95.5592 74.2279C92.646 75.4986 89.2866 76.1465 85.4609 76.1465V78.1465C89.5129 78.1465 93.1522 77.4598 96.3588 76.0611L95.5592 74.2279ZM85.4609 76.1465C81.6694 76.1465 78.3081 75.4991 75.3591 74.2264L74.5666 76.0627C77.8026 77.4593 81.44 78.1465 85.4609 78.1465V76.1465ZM75.3591 74.2264C72.3957 72.9474 69.9149 71.1613 67.9017 68.8694L66.3991 70.1892C68.6177 72.715 71.3452 74.6724 74.5666 76.0627L75.3591 74.2264ZM67.9061 68.8744C65.8801 66.5367 64.3311 63.8033 63.2632 60.6625L61.3696 61.3063C62.5153 64.6758 64.1889 67.639 66.3947 70.1842L67.9061 68.8744ZM63.2641 60.6653C62.1955 57.4908 61.6562 54.0352 61.6562 50.291H59.6562C59.6562 54.2291 60.2238 57.9024 61.3687 61.3034L63.2641 60.6653ZM72.5469 49.2656V50.291H74.5469V49.2656H72.5469ZM72.5469 50.291C72.5469 52.6678 72.7812 54.9071 73.255 57.0054L75.2059 56.5649C74.7683 54.6268 74.5469 52.5366 74.5469 50.291H72.5469ZM73.255 57.0054C73.7315 59.1155 74.469 60.9955 75.479 62.6325L77.1811 61.5823C76.3032 60.1594 75.6409 58.4913 75.2059 56.5649L73.255 57.0054ZM75.479 62.6325C76.5056 64.2963 77.8428 65.6186 79.486 66.5831L80.4984 64.8583C79.1468 64.065 78.0426 62.9785 77.1811 61.5823L75.479 62.6325ZM79.5081 66.5957C81.2144 67.5396 83.2111 67.9902 85.4609 67.9902V65.9902C83.479 65.9902 81.8299 65.5945 80.4762 64.8457L79.5081 66.5957ZM85.4609 67.9902C87.6804 67.9902 89.6479 67.5387 91.3241 66.5913L90.34 64.8501C89.0214 65.5954 87.4081 65.9902 85.4609 65.9902V67.9902ZM91.3382 66.5831C92.9815 65.6186 94.3186 64.2963 95.3452 62.6325L93.6431 61.5823C92.7816 62.9785 91.6774 64.065 90.3258 64.8583L91.3382 66.5831ZM95.3371 62.6455C96.3839 61.0054 97.1403 59.1209 97.618 57.0054L95.6671 56.5649C95.2334 58.4859 94.5575 60.1495 93.6512 61.5694L95.3371 62.6455ZM97.618 57.0054C98.0918 54.9071 98.3262 52.6678 98.3262 50.291H96.3262C96.3262 52.5366 96.1048 54.6268 95.6671 56.5649L97.618 57.0054ZM98.3262 50.291V49.2656H96.3262V50.291H98.3262ZM98.3262 49.2656C98.3262 46.9204 98.0917 44.7125 97.6172 42.6454L95.6679 43.0928C96.105 44.9971 96.3262 47.0535 96.3262 49.2656H98.3262ZM97.618 42.6489C97.1403 40.5334 96.3839 38.6489 95.3371 37.0088L93.6512 38.0849C94.5575 39.5048 95.2334 41.1684 95.6671 43.0894L97.618 42.6489ZM95.3501 37.0298C94.3215 35.3274 92.9635 33.984 91.2813 33.0177L90.2851 34.7519C91.6628 35.5433 92.7787 36.6414 93.6382 38.064L95.3501 37.0298ZM91.3031 33.0306C89.6194 32.0057 87.6245 31.5176 85.3633 31.5176V33.5176C87.3339 33.5176 88.9522 33.9409 90.2633 34.739L91.3031 33.0306ZM85.3633 31.5176C83.1314 31.5176 81.1536 32.0071 79.4722 33.0306L80.5121 34.739C81.8255 33.9395 83.4285 33.5176 85.3633 33.5176V31.5176ZM79.486 33.0224C77.8377 33.9898 76.4996 35.3324 75.4742 37.0298L77.186 38.064C78.0485 36.6363 79.1519 35.5375 80.4984 34.7472L79.486 33.0224ZM75.479 37.0218C74.469 38.6588 73.7315 40.5388 73.255 42.6489L75.2059 43.0894C75.6409 41.163 76.3032 39.4949 77.1811 38.072L75.479 37.0218ZM73.2558 42.6454C72.7814 44.7125 72.5469 46.9204 72.5469 49.2656H74.5469C74.5469 47.0535 74.7681 44.9971 75.2051 43.0928L73.2558 42.6454ZM132.482 34.1289H133.482V34.0973L133.48 34.0657L132.482 34.1289ZM132.482 76.1699V77.1699H133.482V76.1699H132.482ZM119.592 76.1699H118.592V77.1699H119.592V76.1699ZM119.592 23.3379V22.3379H118.592V23.3379H119.592ZM131.799 23.3379L132.797 23.2747L132.737 22.3379H131.799V23.3379ZM148.547 22.9961L149.547 23.0124L149.558 22.3235L148.918 22.0676L148.547 22.9961ZM148.352 35.0078L148.173 35.9917L149.332 36.2025L149.351 35.0241L148.352 35.0078ZM145.91 34.7148L145.836 35.7121L145.839 35.7123L145.91 34.7148ZM138.195 35.4473L138.524 36.3918L138.533 36.3886L138.542 36.3853L138.195 35.4473ZM134.436 37.7422L133.728 37.0351L133.723 37.0409L133.717 37.0468L134.436 37.7422ZM132.189 41.4531L133.129 41.7949L133.132 41.7881L132.189 41.4531ZM131.311 46.3359L131.189 47.3285L132.271 47.4614L132.31 46.3716L131.311 46.3359ZM128.527 45.9941H127.527V46.8788L128.405 46.9867L128.527 45.9941ZM137.414 24.168L137.929 25.0255L137.933 25.023L137.414 24.168ZM146.545 22.5566L146.387 23.5441L146.409 23.5475L146.43 23.55L146.545 22.5566ZM131.482 34.1289L131.482 76.1699H133.482L133.482 34.1289H131.482ZM132.482 75.1699L119.592 75.1699V77.1699L132.482 77.1699V75.1699ZM120.592 76.1699L120.592 23.3379H118.592L118.592 76.1699H120.592ZM119.592 24.3379H131.799V22.3379H119.592L119.592 24.3379ZM130.801 23.4011L131.484 34.1921L133.48 34.0657L132.797 23.2747L130.801 23.4011ZM147.547 22.9798L147.352 34.9916L149.351 35.0241L149.547 23.0124L147.547 22.9798ZM148.53 34.0239C147.771 33.8859 146.92 33.7845 145.981 33.7174L145.839 35.7123C146.723 35.7754 147.5 35.8693 148.173 35.9917L148.53 34.0239ZM145.984 33.7176C145.084 33.6509 144.229 33.6172 143.42 33.6172V35.6172C144.174 35.6172 144.979 35.6486 145.836 35.7121L145.984 33.7176ZM143.42 33.6172C141.344 33.6172 139.48 33.9062 137.849 34.5093L138.542 36.3853C139.905 35.8815 141.525 35.6172 143.42 35.6172V33.6172ZM137.867 34.5028C136.243 35.0676 134.856 35.908 133.728 37.0351L135.143 38.4493C136.034 37.5582 137.153 36.8686 138.524 36.3918L137.867 34.5028ZM133.717 37.0468C132.631 38.1692 131.811 39.5331 131.247 41.1181L133.132 41.7881C133.61 40.4435 134.287 39.3334 135.154 38.4376L133.717 37.0468ZM131.25 41.1114C130.687 42.6591 130.379 44.3928 130.311 46.3002L132.31 46.3716C132.372 44.6333 132.65 43.1117 133.129 41.7949L131.25 41.1114ZM131.432 45.3434L128.649 45.0016L128.405 46.9867L131.189 47.3285L131.432 45.3434ZM129.527 45.9941C129.527 42.7089 129.862 39.679 130.525 36.9001L128.58 36.4359C127.876 39.3861 127.527 42.5737 127.527 45.9941H129.527ZM130.525 36.9001C131.189 34.1195 132.146 31.7127 133.386 29.6667L131.676 28.6301C130.312 30.8811 129.284 33.4873 128.58 36.4359L130.525 36.9001ZM133.386 29.6667C134.613 27.6428 136.129 26.1053 137.929 25.0255L136.9 23.3105C134.793 24.5744 133.054 26.3572 131.676 28.6301L133.386 29.6667ZM137.933 25.023C139.746 23.9234 141.841 23.3613 144.25 23.3613V21.3613C141.516 21.3613 139.054 22.0037 136.895 23.313L137.933 25.023ZM144.25 23.3613C144.906 23.3613 145.618 23.421 146.387 23.5441L146.703 21.5692C145.844 21.4319 145.026 21.3613 144.25 21.3613V23.3613ZM146.43 23.55C147.236 23.643 147.804 23.7761 148.175 23.9246L148.918 22.0676C148.313 21.8255 147.547 21.6656 146.66 21.5632L146.43 23.55ZM183.068 23.3379H184.068V22.3379H183.068V23.3379ZM183.068 32.6152V33.6152H184.068V32.6152H183.068ZM152.795 32.6152H151.795V33.6152H152.795V32.6152ZM152.795 23.3379V22.3379H151.795V23.3379H152.795ZM160.9 10.3496V9.34961H159.9V10.3496H160.9ZM173.84 10.3496H174.84V9.34961H173.84V10.3496ZM183.557 66.2578L184.557 66.2528L184.55 65.0392L183.361 65.2772L183.557 66.2578ZM183.605 75.9258L183.922 76.8745L184.609 76.6453L184.605 75.9207L183.605 75.9258ZM179.943 76.8047L179.779 75.8183L179.775 75.819L179.943 76.8047ZM167.785 75.6816L167.365 76.5893L167.376 76.5943L167.785 75.6816ZM162.707 70.8477L161.826 71.3202L161.829 71.3256L162.707 70.8477ZM182.068 23.3379V32.6152H184.068V23.3379H182.068ZM183.068 31.6152H152.795V33.6152H183.068V31.6152ZM153.795 32.6152V23.3379H151.795V32.6152H153.795ZM152.795 24.3379H183.068V22.3379H152.795V24.3379ZM160.9 11.3496H173.84V9.34961H160.9V11.3496ZM172.84 10.3496V60.9355H174.84V10.3496H172.84ZM172.84 60.9355C172.84 62.5643 173.056 63.9486 173.58 64.996L175.369 64.1016C175.046 63.4563 174.84 62.4318 174.84 60.9355H172.84ZM173.58 64.996C174.113 66.0614 174.944 66.8192 176.052 67.2028L176.706 65.3128C176.122 65.1105 175.683 64.7289 175.369 64.1016L173.58 64.996ZM176.052 67.2028C177.03 67.5415 178.155 67.6973 179.406 67.6973L179.406 65.6973C178.313 65.6973 177.42 65.5601 176.706 65.3128L176.052 67.2028ZM179.406 67.6973C180.29 67.6973 181.117 67.6463 181.885 67.5416L181.615 65.56C180.95 65.6506 180.215 65.6973 179.406 65.6973L179.406 67.6973ZM181.885 67.5416C182.613 67.4423 183.237 67.3414 183.753 67.2384L183.361 65.2772C182.899 65.3695 182.319 65.464 181.615 65.56L181.885 67.5416ZM182.557 66.2629L182.605 75.9308L184.605 75.9207L184.557 66.2528L182.557 66.2629ZM183.289 74.9771C182.274 75.3155 181.106 75.5972 179.779 75.8183L180.108 77.7911C181.516 77.5565 182.788 77.2522 183.922 76.8745L183.289 74.9771ZM179.775 75.819C178.508 76.0353 177.052 76.1465 175.402 76.1465V78.1465C177.138 78.1465 178.71 78.0298 180.112 77.7904L179.775 75.819ZM175.402 76.1465C172.617 76.1465 170.222 75.6771 168.194 74.769L167.376 76.5943C169.71 77.6393 172.394 78.1465 175.402 78.1465V76.1465ZM168.205 74.7741C166.229 73.8598 164.692 72.4043 163.585 70.3697L161.829 71.3256C163.13 73.7181 164.979 75.4853 167.365 76.5892L168.205 74.7741ZM163.588 70.3751C162.489 68.3245 161.9 65.5427 161.9 61.9609H159.9C159.9 65.736 160.516 68.8787 161.826 71.3202L163.588 70.3751ZM161.9 61.9609V10.3496H159.9V61.9609H161.9ZM208.557 76.1699V77.1699H209.557V76.1699H208.557ZM195.568 76.1699H194.568V77.1699H195.568V76.1699ZM197.863 8.44531L198.733 8.93807L198.736 8.9336L197.863 8.44531ZM218.029 0.388672L217.888 1.37863L217.892 1.37916L218.029 0.388672ZM221.496 1.07227L222.496 1.09713L222.516 0.301884L221.745 0.103773L221.496 1.07227ZM221.252 10.8867L220.997 11.8538L222.22 12.1756L222.252 10.9116L221.252 10.8867ZM219.201 10.5449L219.111 11.5408L219.115 11.5412L219.201 10.5449ZM209.484 14.1094L208.605 13.6338L208.6 13.6426L209.484 14.1094ZM219.25 23.3379H220.25V22.3379H219.25V23.3379ZM219.25 32.6152V33.6152H220.25V32.6152H219.25ZM187.609 32.6152H186.609V33.6152H187.609V32.6152ZM187.609 23.3379V22.3379H186.609V23.3379H187.609ZM208.557 75.1699H195.568V77.1699H208.557V75.1699ZM196.568 76.1699L196.568 18.4551H194.568L194.568 76.1699H196.568ZM196.568 18.4551C196.568 14.6092 197.309 11.4533 198.733 8.93806L196.993 7.95256C195.357 10.841 194.568 14.3582 194.568 18.4551H196.568ZM198.736 8.9336C200.166 6.37711 202.197 4.45161 204.849 3.14062L203.963 1.34766C200.952 2.83615 198.62 5.04476 196.991 7.95703L198.736 8.9336ZM204.849 3.14062C207.517 1.82211 210.696 1.14453 214.416 1.14453V-0.855469C210.454 -0.855469 206.96 -0.13331 203.963 1.34766L204.849 3.14062ZM214.416 1.14453C215.643 1.14453 216.8 1.2232 217.888 1.37862L218.171 -0.601278C216.98 -0.771372 215.728 -0.855469 214.416 -0.855469V1.14453ZM217.892 1.37916C219.026 1.53674 220.145 1.75728 221.247 2.04076L221.745 0.103773C220.569 -0.19869 219.376 -0.433876 218.167 -0.60182L217.892 1.37916ZM220.496 1.0474L220.252 10.8619L222.252 10.9116L222.496 1.09713L220.496 1.0474ZM221.506 9.91964C220.824 9.74015 220.084 9.61788 219.288 9.54868L219.115 11.5412C219.816 11.6022 220.443 11.7078 220.997 11.8538L221.506 9.91964ZM219.292 9.54903C218.54 9.48067 217.711 9.44727 216.809 9.44727V11.4473C217.664 11.4473 218.43 11.479 219.111 11.5408L219.292 9.54903ZM216.809 9.44727C214.936 9.44727 213.277 9.77643 211.869 10.4806L212.764 12.2694C213.829 11.7366 215.165 11.4473 216.809 11.4473V9.44727ZM211.869 10.4806C210.45 11.19 209.354 12.2467 208.605 13.6339L210.364 14.5849C210.916 13.5632 211.708 12.797 212.764 12.2694L211.869 10.4806ZM208.6 13.6426C207.886 14.9952 207.557 16.6147 207.557 18.4551H209.557C209.557 16.845 209.846 15.5673 210.369 14.5761L208.6 13.6426ZM207.557 18.4551L207.557 76.1699H209.557L209.557 18.4551H207.557ZM218.25 23.3379V32.6152H220.25V23.3379H218.25ZM219.25 31.6152L187.609 31.6152V33.6152L219.25 33.6152V31.6152ZM188.609 32.6152V23.3379H186.609V32.6152H188.609ZM187.609 24.3379L219.25 24.3379V22.3379L187.609 22.3379V24.3379ZM226.574 38.5723L227.521 38.8942L227.522 38.8913L226.574 38.5723ZM231.408 30.0273L230.657 29.3674L231.408 30.0273ZM239.172 24.4121L239.572 25.3288L239.58 25.3251L239.172 24.4121ZM260.168 24.4121L259.76 25.3252L259.772 25.3302L260.168 24.4121ZM272.814 38.5723L271.867 38.8913L271.868 38.8942L272.814 38.5723ZM272.814 60.9844L273.761 61.3063L273.762 61.3034L272.814 60.9844ZM267.98 69.5293L268.732 70.1893L268.736 70.1842L267.98 69.5293ZM231.408 69.5293L230.652 70.1842L230.657 70.1892L231.408 69.5293ZM226.574 60.9844L225.626 61.3034L225.627 61.3063L226.574 60.9844ZM244.25 65.7207L243.744 66.5831L243.755 66.5896L243.766 66.5957L244.25 65.7207ZM255.09 65.7207L255.582 66.5913L255.589 66.5872L255.596 66.5831L255.09 65.7207ZM258.752 62.1074L257.909 61.5694L257.905 61.5758L257.901 61.5823L258.752 62.1074ZM260.9 42.8691L259.925 43.0894L259.926 43.0928L260.9 42.8691ZM258.752 37.5469L257.896 38.064L257.902 38.0745L257.909 38.0849L258.752 37.5469ZM255.041 33.8848L254.521 34.739L254.532 34.7456L254.543 34.7519L255.041 33.8848ZM244.25 33.8848L244.756 34.7472L244.763 34.7431L244.77 34.739L244.25 33.8848ZM240.588 37.5469L241.439 38.072L241.444 38.064L240.588 37.5469ZM238.488 42.8691L239.463 43.0928L239.464 43.0894L238.488 42.8691ZM225.914 50.291V49.2656H223.914V50.291H225.914ZM225.914 49.2656C225.914 45.4877 226.454 42.0335 227.521 38.8942L225.627 38.2504C224.481 41.6215 223.914 45.2961 223.914 49.2656H225.914ZM227.522 38.8913C228.59 35.7187 230.138 32.9887 232.16 30.6873L230.657 29.3674C228.447 31.8837 226.772 34.8503 225.626 38.2532L227.522 38.8913ZM232.16 30.6873C234.174 28.3933 236.641 26.6071 239.572 25.3287L238.772 23.4955C235.583 24.8864 232.874 26.8437 230.657 29.3674L232.16 30.6873ZM239.58 25.3251C242.492 24.024 245.832 23.3613 249.621 23.3613V21.3613C245.597 21.3613 241.972 22.0658 238.764 23.4991L239.58 25.3251ZM249.621 23.3613C253.478 23.3613 256.85 24.0249 259.76 25.3251L260.576 23.4991C257.366 22.0649 253.707 21.3613 249.621 21.3613V23.3613ZM259.772 25.3302C262.735 26.6092 265.216 28.3954 267.229 30.6873L268.732 29.3674C266.513 26.8416 263.786 24.8843 260.564 23.494L259.772 25.3302ZM267.229 30.6873C269.251 32.9887 270.799 35.7187 271.867 38.8913L273.762 38.2532C272.617 34.8503 270.942 31.8837 268.732 29.3674L267.229 30.6873ZM271.868 38.8942C272.935 42.0335 273.475 45.4877 273.475 49.2656H275.475C275.475 45.2961 274.907 41.6215 273.761 38.2504L271.868 38.8942ZM273.475 49.2656V50.291H275.475V49.2656H273.475ZM273.475 50.291C273.475 54.0352 272.935 57.4908 271.867 60.6653L273.762 61.3034C274.907 57.9024 275.475 54.2291 275.475 50.291H273.475ZM271.868 60.6625C270.8 63.8033 269.251 66.5367 267.225 68.8744L268.736 70.1842C270.942 67.639 272.616 64.6758 273.761 61.3063L271.868 60.6625ZM267.229 68.8694C265.214 71.1633 262.748 72.9495 259.817 74.2279L260.617 76.0611C263.805 74.6703 266.515 72.713 268.732 70.1892L267.229 68.8694ZM259.817 74.2279C256.904 75.4986 253.544 76.1465 249.719 76.1465V78.1465C253.771 78.1465 257.41 77.4598 260.617 76.0611L259.817 74.2279ZM249.719 76.1465C245.927 76.1465 242.566 75.4991 239.617 74.2264L238.824 76.0627C242.06 77.4593 245.698 78.1465 249.719 78.1465V76.1465ZM239.617 74.2264C236.653 72.9474 234.173 71.1613 232.16 68.8694L230.657 70.1892C232.875 72.715 235.603 74.6724 238.824 76.0627L239.617 74.2264ZM232.164 68.8744C230.138 66.5367 228.589 63.8033 227.521 60.6625L225.627 61.3063C226.773 64.6758 228.447 67.639 230.653 70.1842L232.164 68.8744ZM227.522 60.6653C226.453 57.4908 225.914 54.0352 225.914 50.291H223.914C223.914 54.2291 224.482 57.9024 225.626 61.3034L227.522 60.6653ZM236.805 49.2656V50.291H238.805V49.2656H236.805ZM236.805 50.291C236.805 52.6678 237.039 54.9071 237.513 57.0054L239.464 56.5649C239.026 54.6268 238.805 52.5366 238.805 50.291H236.805ZM237.513 57.0054C237.989 59.1155 238.727 60.9955 239.737 62.6325L241.439 61.5823C240.561 60.1594 239.899 58.4913 239.464 56.5649L237.513 57.0054ZM239.737 62.6325C240.763 64.2963 242.101 65.6186 243.744 66.5831L244.756 64.8583C243.405 64.065 242.3 62.9785 241.439 61.5823L239.737 62.6325ZM243.766 66.5957C245.472 67.5396 247.469 67.9902 249.719 67.9902V65.9902C247.737 65.9902 246.088 65.5945 244.734 64.8457L243.766 66.5957ZM249.719 67.9902C251.938 67.9902 253.906 67.5387 255.582 66.5913L254.598 64.8501C253.279 65.5954 251.666 65.9902 249.719 65.9902V67.9902ZM255.596 66.5831C257.239 65.6186 258.576 64.2963 259.603 62.6325L257.901 61.5823C257.039 62.9785 255.935 64.065 254.584 64.8583L255.596 66.5831ZM259.595 62.6455C260.642 61.0054 261.398 59.1209 261.876 57.0054L259.925 56.5649C259.491 58.4859 258.815 60.1495 257.909 61.5694L259.595 62.6455ZM261.876 57.0054C262.35 54.9071 262.584 52.6678 262.584 50.291H260.584C260.584 52.5366 260.363 54.6268 259.925 56.5649L261.876 57.0054ZM262.584 50.291V49.2656H260.584V50.291H262.584ZM262.584 49.2656C262.584 46.9204 262.349 44.7125 261.875 42.6454L259.926 43.0928C260.363 44.9971 260.584 47.0535 260.584 49.2656H262.584ZM261.876 42.6489C261.398 40.5334 260.642 38.6489 259.595 37.0088L257.909 38.0849C258.815 39.5048 259.491 41.1684 259.925 43.0894L261.876 42.6489ZM259.608 37.0298C258.579 35.3274 257.221 33.984 255.539 33.0177L254.543 34.7519C255.921 35.5433 257.037 36.6414 257.896 38.064L259.608 37.0298ZM255.561 33.0306C253.877 32.0057 251.882 31.5176 249.621 31.5176V33.5176C251.592 33.5176 253.21 33.9409 254.521 34.739L255.561 33.0306ZM249.621 31.5176C247.389 31.5176 245.411 32.0071 243.73 33.0306L244.77 34.739C246.083 33.9395 247.686 33.5176 249.621 33.5176V31.5176ZM243.744 33.0224C242.095 33.9898 240.757 35.3324 239.732 37.0298L241.444 38.064C242.306 36.6363 243.41 35.5375 244.756 34.7472L243.744 33.0224ZM239.737 37.0218C238.727 38.6588 237.989 40.5388 237.513 42.6489L239.464 43.0894C239.899 41.163 240.561 39.4949 241.439 38.072L239.737 37.0218ZM237.514 42.6454C237.039 44.7125 236.805 46.9204 236.805 49.2656H238.805C238.805 47.0535 239.026 44.9971 239.463 43.0928L237.514 42.6454ZM297.521 1.16992H298.521V0.169922H297.521V1.16992ZM297.521 76.1699V77.1699H298.521V76.1699H297.521ZM284.582 76.1699H283.582V77.1699H284.582V76.1699ZM284.582 1.16992V0.169922H283.582V1.16992H284.582ZM296.521 1.16992V76.1699H298.521V1.16992H296.521ZM297.521 75.1699H284.582V77.1699H297.521V75.1699ZM285.582 76.1699V1.16992H283.582V76.1699H285.582ZM284.582 2.16992L297.521 2.16992V0.169922L284.582 0.169922V2.16992ZM323.498 23.3379H324.498V22.3379H323.498V23.3379ZM323.498 76.1699V77.1699H324.498V76.1699H323.498ZM310.559 76.1699H309.559V77.1699H310.559V76.1699ZM310.559 23.3379V22.3379H309.559V23.3379H310.559ZM311.633 4.73438L310.944 4.00976L310.935 4.01838L311.633 4.73438ZM322.326 4.73438L321.628 5.45043L321.637 5.45893L322.326 4.73438ZM322.326 14.2559L321.637 13.5312L321.628 13.5399L322.326 14.2559ZM311.633 14.2559L310.935 14.9719L310.944 14.9804L311.633 14.2559ZM322.498 23.3379V76.1699H324.498V23.3379H322.498ZM323.498 75.1699H310.559V77.1699H323.498V75.1699ZM311.559 76.1699V23.3379H309.559V76.1699H311.559ZM310.559 24.3379H323.498V22.3379H310.559V24.3379ZM310.68 9.51953C310.68 7.85169 311.234 6.52023 312.331 5.45037L310.935 4.01838C309.428 5.48758 308.68 7.34623 308.68 9.51953H310.68ZM312.322 5.45893C313.432 4.40336 314.955 3.83008 317.004 3.83008V1.83008C314.561 1.83008 312.503 2.52632 310.944 4.00982L312.322 5.45893ZM317.004 3.83008C319.054 3.83008 320.555 4.40363 321.628 5.45037L323.024 4.01838C321.494 2.52605 319.446 1.83008 317.004 1.83008V3.83008ZM321.637 5.45893C322.764 6.53083 323.328 7.85972 323.328 9.51953H325.328C325.328 7.3382 324.558 5.47698 323.015 4.00982L321.637 5.45893ZM323.328 9.51953C323.328 11.1414 322.768 12.4558 321.637 13.5313L323.015 14.9804C324.554 13.5169 325.328 11.6737 325.328 9.51953H323.328ZM321.628 13.5399C320.555 14.5866 319.054 15.1602 317.004 15.1602V17.1602C319.446 17.1602 321.494 16.4642 323.024 14.9719L321.628 13.5399ZM317.004 15.1602C314.955 15.1602 313.432 14.5869 312.322 13.5313L310.944 14.9804C312.503 16.4639 314.561 17.1602 317.004 17.1602V15.1602ZM312.331 13.5399C311.23 12.4664 310.68 11.1495 310.68 9.51953H308.68C308.68 11.6656 309.431 13.5062 310.935 14.9719L312.331 13.5399ZM335.168 38.5723L336.115 38.8942L336.116 38.8913L335.168 38.5723ZM340.002 30.0273L339.251 29.3674L340.002 30.0273ZM347.766 24.4121L348.165 25.3288L348.174 25.3251L347.766 24.4121ZM368.762 24.4121L368.354 25.3252L368.365 25.3302L368.762 24.4121ZM381.408 38.5723L380.46 38.8913L380.461 38.8942L381.408 38.5723ZM381.408 60.9844L382.355 61.3063L382.356 61.3034L381.408 60.9844ZM376.574 69.5293L377.326 70.1893L377.33 70.1842L376.574 69.5293ZM340.002 69.5293L339.246 70.1842L339.251 70.1892L340.002 69.5293ZM335.168 60.9844L334.22 61.3034L334.221 61.3063L335.168 60.9844ZM352.844 65.7207L352.338 66.5831L352.349 66.5896L352.36 66.5957L352.844 65.7207ZM363.684 65.7207L364.176 66.5913L364.183 66.5872L364.19 66.5831L363.684 65.7207ZM367.346 62.1074L366.503 61.5694L366.499 61.5758L366.495 61.5823L367.346 62.1074ZM369.494 42.8691L368.519 43.0894L368.519 43.0928L369.494 42.8691ZM367.346 37.5469L366.49 38.064L366.496 38.0745L366.503 38.0849L367.346 37.5469ZM363.635 33.8848L363.115 34.739L363.126 34.7456L363.137 34.7519L363.635 33.8848ZM352.844 33.8848L353.35 34.7472L353.357 34.7431L353.364 34.739L352.844 33.8848ZM349.182 37.5469L350.033 38.072L350.038 38.064L349.182 37.5469ZM347.082 42.8691L348.057 43.0928L348.057 43.0894L347.082 42.8691ZM334.508 50.291V49.2656H332.508V50.291H334.508ZM334.508 49.2656C334.508 45.4877 335.047 42.0335 336.115 38.8942L334.221 38.2504C333.075 41.6215 332.508 45.2961 332.508 49.2656H334.508ZM336.116 38.8913C337.184 35.7187 338.732 32.9887 340.753 30.6873L339.251 29.3674C337.04 31.8837 335.366 34.8503 334.22 38.2532L336.116 38.8913ZM340.753 30.6873C342.768 28.3933 345.234 26.6071 348.165 25.3287L347.366 23.4955C344.177 24.8864 341.467 26.8437 339.251 29.3674L340.753 30.6873ZM348.174 25.3251C351.086 24.024 354.426 23.3613 358.215 23.3613V21.3613C354.191 21.3613 350.565 22.0658 347.358 23.4991L348.174 25.3251ZM358.215 23.3613C362.071 23.3613 365.444 24.0249 368.354 25.3251L369.17 23.4991C365.96 22.0649 362.301 21.3613 358.215 21.3613V23.3613ZM368.365 25.3302C371.329 26.6092 373.81 28.3954 375.823 30.6873L377.326 29.3674C375.107 26.8416 372.379 24.8843 369.158 23.494L368.365 25.3302ZM375.823 30.6873C377.844 32.9887 379.392 35.7187 380.46 38.8913L382.356 38.2532C381.21 34.8503 379.536 31.8837 377.326 29.3674L375.823 30.6873ZM380.461 38.8942C381.529 42.0335 382.068 45.4877 382.068 49.2656H384.068C384.068 45.2961 383.501 41.6215 382.355 38.2504L380.461 38.8942ZM382.068 49.2656V50.291H384.068V49.2656H382.068ZM382.068 50.291C382.068 54.0352 381.529 57.4908 380.46 60.6653L382.356 61.3034C383.501 57.9024 384.068 54.2291 384.068 50.291H382.068ZM380.461 60.6625C379.394 63.8033 377.844 66.5367 375.819 68.8744L377.33 70.1842C379.536 67.639 381.209 64.6758 382.355 61.3063L380.461 60.6625ZM375.823 68.8694C373.808 71.1633 371.342 72.9495 368.411 74.2279L369.21 76.0611C372.399 74.6703 375.109 72.713 377.326 70.1892L375.823 68.8694ZM368.411 74.2279C365.498 75.4986 362.138 76.1465 358.312 76.1465V78.1465C362.364 78.1465 366.004 77.4598 369.21 76.0611L368.411 74.2279ZM358.312 76.1465C354.521 76.1465 351.16 75.4991 348.211 74.2264L347.418 76.0627C350.654 77.4593 354.292 78.1465 358.312 78.1465V76.1465ZM348.211 74.2264C345.247 72.9474 342.766 71.1613 340.753 68.8694L339.251 70.1892C341.469 72.715 344.197 74.6724 347.418 76.0627L348.211 74.2264ZM340.758 68.8744C338.732 66.5367 337.183 63.8033 336.115 60.6625L334.221 61.3063C335.367 64.6758 337.04 67.639 339.246 70.1842L340.758 68.8744ZM336.116 60.6653C335.047 57.4908 334.508 54.0352 334.508 50.291H332.508C332.508 54.2291 333.075 57.9024 334.22 61.3034L336.116 60.6653ZM345.398 49.2656V50.291H347.398V49.2656H345.398ZM345.398 50.291C345.398 52.6678 345.633 54.9071 346.107 57.0054L348.057 56.5649C347.62 54.6268 347.398 52.5366 347.398 50.291H345.398ZM346.107 57.0054C346.583 59.1155 347.321 60.9955 348.331 62.6325L350.033 61.5823C349.155 60.1594 348.492 58.4913 348.057 56.5649L346.107 57.0054ZM348.331 62.6325C349.357 64.2963 350.694 65.6186 352.338 66.5831L353.35 64.8583C351.998 64.065 350.894 62.9785 350.033 61.5823L348.331 62.6325ZM352.36 66.5957C354.066 67.5396 356.063 67.9902 358.312 67.9902V65.9902C356.331 65.9902 354.681 65.5945 353.328 64.8457L352.36 66.5957ZM358.312 67.9902C360.532 67.9902 362.499 67.5387 364.176 66.5913L363.192 64.8501C361.873 65.5954 360.26 65.9902 358.312 65.9902V67.9902ZM364.19 66.5831C365.833 65.6186 367.17 64.2963 368.197 62.6325L366.495 61.5823C365.633 62.9785 364.529 64.065 363.177 64.8583L364.19 66.5831ZM368.189 62.6455C369.235 61.0054 369.992 59.1209 370.47 57.0054L368.519 56.5649C368.085 58.4859 367.409 60.1495 366.503 61.5694L368.189 62.6455ZM370.47 57.0054C370.943 54.9071 371.178 52.6678 371.178 50.291H369.178C369.178 52.5366 368.956 54.6268 368.519 56.5649L370.47 57.0054ZM371.178 50.291V49.2656H369.178V50.291H371.178ZM371.178 49.2656C371.178 46.9204 370.943 44.7125 370.469 42.6454L368.519 43.0928C368.957 44.9971 369.178 47.0535 369.178 49.2656H371.178ZM370.47 42.6489C369.992 40.5334 369.235 38.6489 368.189 37.0088L366.503 38.0849C367.409 39.5048 368.085 41.1684 368.519 43.0894L370.47 42.6489ZM368.202 37.0298C367.173 35.3274 365.815 33.984 364.133 33.0177L363.137 34.7519C364.514 35.5433 365.63 36.6414 366.49 38.064L368.202 37.0298ZM364.155 33.0306C362.471 32.0057 360.476 31.5176 358.215 31.5176V33.5176C360.185 33.5176 361.804 33.9409 363.115 34.739L364.155 33.0306ZM358.215 31.5176C355.983 31.5176 354.005 32.0071 352.324 33.0306L353.364 34.739C354.677 33.9395 356.28 33.5176 358.215 33.5176V31.5176ZM352.338 33.0224C350.689 33.9898 349.351 35.3324 348.326 37.0298L350.038 38.064C350.9 36.6363 352.003 35.5375 353.35 34.7472L352.338 33.0224ZM348.331 37.0218C347.321 38.6588 346.583 40.5388 346.107 42.6489L348.057 43.0894C348.492 41.163 349.155 39.4949 350.033 38.072L348.331 37.0218ZM346.107 42.6454C345.633 44.7125 345.398 46.9204 345.398 49.2656H347.398C347.398 47.0535 347.62 44.9971 348.057 43.0928L346.107 42.6454Z" fill="white" fill-opacity="0.3" mask="url(#path-1-outside-1_1881_1327)"/>
</svg>
