<svg width="217" height="65" viewBox="0 0 217 65" fill="none" xmlns="http://www.w3.org/2000/svg">
<g filter="url(#filter0_b_1994_1090)">
<rect x="0.160156" y="0.939941" width="216" height="64" rx="16" fill="url(#paint0_linear_1994_1090)" fill-opacity="0.16"/>
<rect x="0.660156" y="1.43994" width="215" height="63" rx="15.5" stroke="url(#paint1_linear_1994_1090)"/>
<g filter="url(#filter1_d_1994_1090)">
<g clip-path="url(#clip0_1994_1090)">
<rect x="10.1602" y="10.9399" width="44" height="44" rx="12" fill="white" fill-opacity="0.07" shape-rendering="crispEdges"/>
<path opacity="0.8" d="M23.2989 19.6082C23.9687 19.7466 24.502 20.1965 24.8334 20.791L25.889 22.6848C26.2778 23.3823 26.605 23.9693 26.8187 24.4796C27.0454 25.0209 27.18 25.5547 27.1185 26.1448C27.057 26.735 26.8151 27.2295 26.4816 27.7124C26.1672 28.1676 25.726 28.6744 25.2016 29.2767L23.6498 31.0592C23.3718 31.3785 23.2327 31.5382 23.22 31.7378C23.2073 31.9374 23.3213 32.1079 23.5492 32.4489C25.4916 35.3551 28.1095 37.9739 31.018 39.918C31.3591 40.146 31.5295 40.2599 31.7291 40.2471C31.9287 40.2345 32.0885 40.0954 32.4079 39.8173L34.1904 38.2656C34.7927 37.7412 35.2995 37.2999 35.7548 36.9855C36.2375 36.652 36.7321 36.4101 37.3222 36.3486C37.9124 36.2871 38.4462 36.4217 38.9875 36.6484C39.4977 36.862 40.0847 37.1893 40.7821 37.578L42.6761 38.6337C43.2705 38.9651 43.7206 39.4984 43.859 40.1682C43.9988 40.8449 43.7926 41.525 43.3368 42.0841C41.6836 44.1125 39.0348 45.4041 36.2561 44.8436C34.5481 44.4989 32.8629 43.9249 30.8246 42.756C26.7291 40.4072 23.0571 36.7332 20.7111 32.6426C19.5421 30.6043 18.9681 28.919 18.6236 27.211C18.063 24.4323 19.3546 21.7835 21.383 20.1302C21.942 19.6746 22.6222 19.4683 23.2989 19.6082Z" fill="#EC009D"/>
<g filter="url(#filter2_f_1994_1090)">
<circle cx="34.125" cy="33.9067" r="6" fill="#980884"/>
</g>
</g>
</g>
<path d="M71.2788 26.4399V16.2581H74.908C75.7002 16.2581 76.3564 16.4023 76.8768 16.6907C77.3971 16.979 77.7866 17.3734 78.0451 17.8739C78.3036 18.371 78.4329 18.9312 78.4329 19.5543C78.4329 20.1807 78.302 20.7442 78.0401 21.2446C77.7816 21.7418 77.3905 22.1362 76.8668 22.4279C76.3465 22.7162 75.6919 22.8604 74.9031 22.8604H72.4073V21.5578H74.7638C75.2643 21.5578 75.6703 21.4717 75.9819 21.2993C76.2934 21.1237 76.5221 20.885 76.668 20.5834C76.8138 20.2818 76.8867 19.9388 76.8867 19.5543C76.8867 19.1698 76.8138 18.8284 76.668 18.5301C76.5221 18.2318 76.2918 17.9982 75.9769 17.8291C75.6654 17.6601 75.2544 17.5756 74.744 17.5756H72.815V26.4399H71.2788ZM81.601 21.9059V26.4399H80.1145V16.2581H81.5811V20.0465H81.6756C81.8546 19.6355 82.128 19.309 82.4959 19.0671C82.8638 18.8251 83.3444 18.7041 83.9377 18.7041C84.4614 18.7041 84.9187 18.8119 85.3098 19.0273C85.7042 19.2427 86.0092 19.5642 86.2246 19.9918C86.4434 20.416 86.5527 20.9463 86.5527 21.5827V26.4399H85.0662V21.7617C85.0662 21.2015 84.9221 20.7674 84.6337 20.4591C84.3453 20.1476 83.9443 19.9918 83.4306 19.9918C83.0792 19.9918 82.7644 20.0664 82.486 20.2155C82.2109 20.3647 81.9938 20.5834 81.8347 20.8718C81.6789 21.1568 81.601 21.5015 81.601 21.9059ZM91.753 26.5941C91.0371 26.5941 90.4123 26.43 89.8787 26.1019C89.3451 25.7737 88.9308 25.3147 88.6358 24.7247C88.3408 24.1348 88.1934 23.4454 88.1934 22.6566C88.1934 21.8644 88.3408 21.1717 88.6358 20.5784C88.9308 19.9852 89.3451 19.5245 89.8787 19.1963C90.4123 18.8682 91.0371 18.7041 91.753 18.7041C92.4689 18.7041 93.0937 18.8682 93.6273 19.1963C94.1609 19.5245 94.5752 19.9852 94.8702 20.5784C95.1652 21.1717 95.3127 21.8644 95.3127 22.6566C95.3127 23.4454 95.1652 24.1348 94.8702 24.7247C94.5752 25.3147 94.1609 25.7737 93.6273 26.1019C93.0937 26.43 92.4689 26.5941 91.753 26.5941ZM91.758 25.3462C92.222 25.3462 92.6065 25.2236 92.9114 24.9783C93.2163 24.733 93.4417 24.4066 93.5875 23.9989C93.7367 23.5912 93.8113 23.1421 93.8113 22.6516C93.8113 22.1644 93.7367 21.7169 93.5875 21.3093C93.4417 20.8983 93.2163 20.5685 92.9114 20.3199C92.6065 20.0713 92.222 19.947 91.758 19.947C91.2907 19.947 90.9029 20.0713 90.5946 20.3199C90.2897 20.5685 90.0627 20.8983 89.9135 21.3093C89.7677 21.7169 89.6948 22.1644 89.6948 22.6516C89.6948 23.1421 89.7677 23.5912 89.9135 23.9989C90.0627 24.4066 90.2897 24.733 90.5946 24.9783C90.9029 25.2236 91.2907 25.3462 91.758 25.3462ZM98.4585 21.9059V26.4399H96.9719V18.8036H98.3988V20.0465H98.4933C98.6689 19.6421 98.944 19.3173 99.3185 19.072C99.6964 18.8268 100.172 18.7041 100.745 18.7041C101.266 18.7041 101.721 18.8135 102.113 19.0323C102.504 19.2477 102.807 19.5692 103.022 19.9968C103.238 20.4243 103.346 20.953 103.346 21.5827V26.4399H101.859V21.7617C101.859 21.2082 101.715 20.7756 101.426 20.4641C101.138 20.1492 100.742 19.9918 100.238 19.9918C99.8936 19.9918 99.587 20.0664 99.3185 20.2155C99.0534 20.3647 98.8429 20.5834 98.6871 20.8718C98.5347 21.1568 98.4585 21.5015 98.4585 21.9059ZM108.63 26.5941C107.878 26.5941 107.23 26.4333 106.686 26.1118C106.146 25.787 105.729 25.3313 105.434 24.7446C105.142 24.1547 104.996 23.4636 104.996 22.6715C104.996 21.8893 105.142 21.1999 105.434 20.6033C105.729 20.0067 106.14 19.541 106.667 19.2063C107.197 18.8715 107.817 18.7041 108.526 18.7041C108.957 18.7041 109.374 18.7754 109.779 18.9179C110.183 19.0604 110.546 19.2842 110.868 19.5891C111.189 19.894 111.443 20.2901 111.628 20.7773C111.814 21.2612 111.907 21.8495 111.907 22.5422V23.0692H105.836V21.9556H110.45C110.45 21.5645 110.37 21.2181 110.211 20.9165C110.052 20.6116 109.828 20.3713 109.54 20.1956C109.255 20.02 108.92 19.9321 108.536 19.9321C108.118 19.9321 107.754 20.0349 107.442 20.2404C107.134 20.4425 106.895 20.7077 106.726 21.0358C106.56 21.3606 106.478 21.7136 106.478 22.0948V22.9648C106.478 23.4752 106.567 23.9094 106.746 24.2674C106.928 24.6253 107.182 24.8987 107.507 25.0877C107.832 25.2733 108.211 25.3661 108.645 25.3661C108.927 25.3661 109.184 25.3263 109.416 25.2468C109.648 25.1639 109.848 25.0413 110.017 24.8789C110.186 24.7165 110.316 24.5159 110.405 24.2773L111.812 24.5309C111.699 24.9451 111.497 25.3081 111.206 25.6196C110.917 25.9279 110.554 26.1682 110.117 26.3405C109.683 26.5095 109.187 26.5941 108.63 26.5941ZM118.748 21.9059V26.4399H117.261V18.8036H118.688V20.0465H118.782C118.958 19.6421 119.233 19.3173 119.608 19.072C119.985 18.8268 120.461 18.7041 121.034 18.7041C121.555 18.7041 122.011 18.8135 122.402 19.0323C122.793 19.2477 123.096 19.5692 123.311 19.9968C123.527 20.4243 123.635 20.953 123.635 21.5827V26.4399H122.148V21.7617C122.148 21.2082 122.004 20.7756 121.716 20.4641C121.427 20.1492 121.031 19.9918 120.527 19.9918C120.183 19.9918 119.876 20.0664 119.608 20.2155C119.342 20.3647 119.132 20.5834 118.976 20.8718C118.824 21.1568 118.748 21.5015 118.748 21.9059ZM130.466 23.273V18.8036H131.957V26.4399H130.495V25.1175H130.416C130.24 25.5252 129.958 25.8649 129.571 26.1367C129.186 26.4051 128.707 26.5394 128.134 26.5394C127.643 26.5394 127.209 26.4317 126.831 26.2162C126.457 25.9975 126.162 25.6743 125.946 25.2468C125.734 24.8192 125.628 24.2906 125.628 23.6608V18.8036H127.115V23.4818C127.115 24.0022 127.259 24.4165 127.547 24.7247C127.836 25.033 128.21 25.1871 128.671 25.1871C128.949 25.1871 129.226 25.1175 129.501 24.9783C129.779 24.8391 130.01 24.6286 130.192 24.3469C130.378 24.0652 130.469 23.7072 130.466 23.273ZM133.954 26.4399V18.8036H135.381V20.0465H135.476C135.635 19.6255 135.895 19.2974 136.256 19.0621C136.617 18.8235 137.05 18.7041 137.554 18.7041C138.064 18.7041 138.492 18.8235 138.836 19.0621C139.184 19.3007 139.441 19.6289 139.607 20.0465H139.687C139.869 19.6388 140.159 19.314 140.557 19.072C140.954 18.8268 141.428 18.7041 141.979 18.7041C142.671 18.7041 143.236 18.9212 143.674 19.3554C144.115 19.7896 144.335 20.4442 144.335 21.3192V26.4399H142.849V21.4584C142.849 20.9414 142.708 20.5668 142.426 20.3348C142.144 20.1028 141.808 19.9868 141.417 19.9868C140.933 19.9868 140.557 20.136 140.288 20.4343C140.02 20.7292 139.885 21.1087 139.885 21.5728V26.4399H138.404V21.3639C138.404 20.9496 138.275 20.6166 138.016 20.3647C137.758 20.1128 137.421 19.9868 137.007 19.9868C136.725 19.9868 136.465 20.0614 136.226 20.2105C135.991 20.3564 135.8 20.5602 135.655 20.822C135.512 21.0839 135.441 21.3871 135.441 21.7318V26.4399H133.954ZM146.447 26.4399V16.2581H147.933V20.0415H148.023C148.109 19.8824 148.233 19.6985 148.396 19.4897C148.558 19.2809 148.783 19.0986 149.072 18.9428C149.36 18.7837 149.741 18.7041 150.215 18.7041C150.832 18.7041 151.382 18.8599 151.866 19.1715C152.35 19.483 152.729 19.9321 153.004 20.5188C153.283 21.1054 153.422 21.8114 153.422 22.6367C153.422 23.462 153.284 24.1696 153.009 24.7595C152.734 25.3462 152.356 25.7986 151.876 26.1168C151.395 26.4317 150.847 26.5891 150.23 26.5891C149.766 26.5891 149.387 26.5112 149.092 26.3554C148.8 26.1996 148.571 26.0174 148.406 25.8085C148.24 25.5997 148.112 25.4141 148.023 25.2517H147.898V26.4399H146.447ZM147.903 22.6218C147.903 23.1587 147.981 23.6293 148.137 24.0337C148.293 24.438 148.518 24.7546 148.813 24.9833C149.108 25.2086 149.469 25.3213 149.897 25.3213C150.341 25.3213 150.712 25.2037 151.011 24.9684C151.309 24.7297 151.534 24.4066 151.687 23.9989C151.843 23.5912 151.92 23.1322 151.92 22.6218C151.92 22.118 151.844 21.6656 151.692 21.2645C151.543 20.8635 151.317 20.5469 151.016 20.3149C150.717 20.0829 150.344 19.9669 149.897 19.9669C149.466 19.9669 149.102 20.078 148.803 20.3C148.508 20.5221 148.285 20.832 148.132 21.2297C147.98 21.6274 147.903 22.0915 147.903 22.6218ZM158.382 26.5941C157.63 26.5941 156.982 26.4333 156.438 26.1118C155.898 25.787 155.481 25.3313 155.186 24.7446C154.894 24.1547 154.748 23.4636 154.748 22.6715C154.748 21.8893 154.894 21.1999 155.186 20.6033C155.481 20.0067 155.892 19.541 156.419 19.2063C156.949 18.8715 157.569 18.7041 158.278 18.7041C158.709 18.7041 159.126 18.7754 159.531 18.9179C159.935 19.0604 160.298 19.2842 160.619 19.5891C160.941 19.894 161.195 20.2901 161.38 20.7773C161.566 21.2612 161.659 21.8495 161.659 22.5422V23.0692H155.588V21.9556H160.202C160.202 21.5645 160.122 21.2181 159.963 20.9165C159.804 20.6116 159.58 20.3713 159.292 20.1956C159.007 20.02 158.672 19.9321 158.288 19.9321C157.87 19.9321 157.506 20.0349 157.194 20.2404C156.886 20.4425 156.647 20.7077 156.478 21.0358C156.312 21.3606 156.23 21.7136 156.23 22.0948V22.9648C156.23 23.4752 156.319 23.9094 156.498 24.2674C156.68 24.6253 156.934 24.8987 157.259 25.0877C157.584 25.2733 157.963 25.3661 158.397 25.3661C158.679 25.3661 158.936 25.3263 159.168 25.2468C159.4 25.1639 159.6 25.0413 159.769 24.8789C159.938 24.7165 160.068 24.5159 160.157 24.2773L161.564 24.5309C161.451 24.9451 161.249 25.3081 160.958 25.6196C160.669 25.9279 160.306 26.1682 159.869 26.3405C159.435 26.5095 158.939 26.5941 158.382 26.5941ZM163.308 26.4399V18.8036H164.745V20.0166H164.824C164.963 19.6057 165.209 19.2825 165.56 19.0472C165.915 18.8085 166.316 18.6892 166.763 18.6892C166.856 18.6892 166.965 18.6925 167.091 18.6992C167.221 18.7058 167.322 18.7141 167.395 18.724V20.1459C167.335 20.1293 167.229 20.1111 167.076 20.0912C166.924 20.068 166.771 20.0564 166.619 20.0564C166.268 20.0564 165.954 20.131 165.679 20.2801C165.408 20.426 165.192 20.6298 165.033 20.8916C164.874 21.1502 164.794 21.4451 164.794 21.7766V26.4399H163.308ZM174.403 20.6679L173.056 20.9066C173 20.7342 172.91 20.5701 172.787 20.4144C172.668 20.2586 172.506 20.131 172.3 20.0316C172.095 19.9321 171.838 19.8824 171.53 19.8824C171.109 19.8824 170.757 19.9769 170.476 20.1658C170.194 20.3514 170.053 20.5917 170.053 20.8867C170.053 21.1419 170.148 21.3474 170.336 21.5032C170.525 21.6589 170.83 21.7865 171.251 21.886L172.464 22.1644C173.167 22.3268 173.691 22.577 174.035 22.9151C174.38 23.2532 174.552 23.6923 174.552 24.2326C174.552 24.6899 174.42 25.0976 174.155 25.4556C173.893 25.8102 173.527 26.0886 173.056 26.2908C172.589 26.493 172.047 26.5941 171.43 26.5941C170.575 26.5941 169.877 26.4118 169.337 26.0472C168.797 25.6793 168.465 25.1573 168.343 24.4811L169.78 24.2624C169.869 24.6369 170.053 24.9203 170.331 25.1125C170.61 25.3014 170.973 25.3959 171.42 25.3959C171.907 25.3959 172.297 25.2948 172.589 25.0926C172.88 24.8871 173.026 24.6369 173.026 24.3419C173.026 24.1033 172.937 23.9028 172.758 23.7404C172.582 23.578 172.312 23.4553 171.947 23.3725L170.655 23.0891C169.942 22.9267 169.415 22.6682 169.074 22.3135C168.736 21.9589 168.567 21.5098 168.567 20.9662C168.567 20.5155 168.693 20.121 168.944 19.783C169.196 19.4449 169.544 19.1814 169.988 18.9925C170.433 18.8003 170.941 18.7041 171.515 18.7041C172.34 18.7041 172.99 18.8831 173.464 19.2411C173.938 19.5957 174.251 20.0713 174.403 20.6679Z" fill="#CAC6DD"/>
<path d="M74.7227 47.4854V39.8036H76.2511V47.4854H74.7227ZM71.6488 44.4059V42.8831H79.3306V44.4059H71.6488ZM85.8505 37.8036V49.4399H84.0891V39.5649H84.021L81.2369 41.3831V39.7013L84.1403 37.8036H85.8505ZM89.0153 43.6218C89.0153 42.1975 89.2028 40.8869 89.5778 39.6899C89.9528 38.493 90.5001 37.3888 91.2198 36.3774H92.7766C92.4963 36.7524 92.235 37.2127 91.9925 37.7581C91.7501 38.3036 91.538 38.9021 91.3562 39.5536C91.1744 40.2013 91.0323 40.8737 90.93 41.5706C90.8278 42.2638 90.7766 42.9475 90.7766 43.6218C90.7766 44.5233 90.8656 45.4362 91.0437 46.3604C91.2217 47.2846 91.4622 48.1426 91.7653 48.9343C92.0683 49.7259 92.4054 50.3718 92.7766 50.8718H91.2198C90.5001 49.8604 89.9528 48.7562 89.5778 47.5593C89.2028 46.3623 89.0153 45.0498 89.0153 43.6218ZM94.0451 49.4399V48.1672L97.9826 44.0877C98.4031 43.6445 98.7496 43.2562 99.0224 42.9229C99.2989 42.5858 99.5053 42.2657 99.6417 41.9627C99.7781 41.6596 99.8462 41.3377 99.8462 40.9968C99.8462 40.6104 99.7553 40.2771 99.5735 39.9968C99.3917 39.7127 99.1436 39.4949 98.8292 39.3434C98.5148 39.188 98.1606 39.1104 97.7667 39.1104C97.35 39.1104 96.9864 39.1956 96.6758 39.3661C96.3652 39.5365 96.1265 39.7771 95.9599 40.0877C95.7932 40.3983 95.7099 40.7619 95.7099 41.1786H94.0337C94.0337 40.4702 94.1966 39.8509 94.5224 39.3206C94.8481 38.7903 95.2951 38.3793 95.8633 38.0877C96.4315 37.7922 97.0773 37.6445 97.8008 37.6445C98.5318 37.6445 99.1758 37.7903 99.7326 38.082C100.293 38.3699 100.731 38.7638 101.045 39.2638C101.359 39.76 101.517 40.3206 101.517 40.9456C101.517 41.3774 101.435 41.7998 101.272 42.2127C101.113 42.6255 100.835 43.0858 100.437 43.5934C100.039 44.0971 99.4864 44.7089 98.7781 45.4286L96.4656 47.849V47.9343H101.704V49.4399H94.0451ZM107.199 49.599C106.486 49.599 105.846 49.4627 105.278 49.1899C104.714 48.9134 104.263 48.5346 103.926 48.0536C103.589 47.5725 103.409 47.0233 103.386 46.4059H105.091C105.132 46.9059 105.354 47.3168 105.755 47.6388C106.157 47.9608 106.638 48.1218 107.199 48.1218C107.645 48.1218 108.041 48.0195 108.386 47.8149C108.734 47.6066 109.007 47.3206 109.204 46.957C109.405 46.5934 109.505 46.1786 109.505 45.7127C109.505 45.2392 109.403 44.8168 109.199 44.4456C108.994 44.0744 108.712 43.7827 108.352 43.5706C107.996 43.3585 107.587 43.2505 107.125 43.2468C106.772 43.2468 106.418 43.3074 106.062 43.4286C105.706 43.5498 105.418 43.7089 105.199 43.9059L103.591 43.6672L104.244 37.8036H110.642V39.3093H105.704L105.335 42.5649H105.403C105.63 42.3452 105.931 42.1615 106.306 42.0138C106.685 41.8661 107.091 41.7922 107.522 41.7922C108.231 41.7922 108.861 41.9608 109.414 42.2979C109.971 42.635 110.409 43.0952 110.727 43.6786C111.049 44.2581 111.208 44.9248 111.204 45.6786C111.208 46.4324 111.038 47.1047 110.693 47.6956C110.352 48.2865 109.878 48.7524 109.272 49.0934C108.67 49.4305 107.979 49.599 107.199 49.599ZM116.842 49.599C116.323 49.5915 115.812 49.4968 115.308 49.3149C114.808 49.1331 114.353 48.8301 113.944 48.4059C113.535 47.9816 113.208 47.4115 112.961 46.6956C112.719 45.9797 112.598 45.0858 112.598 44.0138C112.598 42.9987 112.698 42.0971 112.899 41.3093C113.103 40.5214 113.397 39.8566 113.779 39.3149C114.162 38.7695 114.624 38.3547 115.166 38.0706C115.708 37.7865 116.315 37.6445 116.99 37.6445C117.683 37.6445 118.298 37.7809 118.836 38.0536C119.374 38.3263 119.81 38.7032 120.143 39.1843C120.48 39.6653 120.694 40.2127 120.785 40.8263H119.052C118.935 40.3415 118.702 39.9456 118.353 39.6388C118.005 39.332 117.55 39.1786 116.99 39.1786C116.137 39.1786 115.473 39.5498 114.995 40.2922C114.522 41.0346 114.283 42.0668 114.279 43.3888H114.365C114.565 43.0593 114.812 42.779 115.103 42.5479C115.399 42.313 115.728 42.1331 116.092 42.0081C116.459 41.8793 116.846 41.8149 117.251 41.8149C117.925 41.8149 118.535 41.9797 119.081 42.3093C119.63 42.635 120.067 43.0858 120.393 43.6615C120.719 44.2373 120.882 44.8964 120.882 45.6388C120.882 46.3812 120.713 47.0536 120.376 47.6559C120.043 48.2581 119.573 48.7354 118.967 49.0877C118.361 49.4362 117.653 49.6066 116.842 49.599ZM116.836 48.1218C117.283 48.1218 117.683 48.0119 118.035 47.7922C118.387 47.5725 118.666 47.2771 118.87 46.9059C119.075 46.5346 119.177 46.1199 119.177 45.6615C119.177 45.2146 119.077 44.8074 118.876 44.4399C118.679 44.0725 118.406 43.7809 118.058 43.5649C117.713 43.349 117.319 43.2411 116.876 43.2411C116.539 43.2411 116.226 43.3055 115.939 43.4343C115.654 43.563 115.404 43.7411 115.189 43.9684C114.973 44.1956 114.802 44.457 114.677 44.7524C114.556 45.0441 114.495 45.3528 114.495 45.6786C114.495 46.1142 114.596 46.5176 114.797 46.8888C115.001 47.26 115.279 47.5593 115.632 47.7865C115.988 48.01 116.389 48.1218 116.836 48.1218ZM125.741 43.6218C125.741 45.0498 125.554 46.3623 125.179 47.5593C124.804 48.7562 124.256 49.8604 123.537 50.8718H121.98C122.26 50.4968 122.521 50.0365 122.764 49.4911C123.006 48.9456 123.218 48.349 123.4 47.7013C123.582 47.0498 123.724 46.3755 123.826 45.6786C123.929 44.9816 123.98 44.296 123.98 43.6218C123.98 42.724 123.891 41.813 123.713 40.8888C123.535 39.9646 123.294 39.1066 122.991 38.3149C122.688 37.5233 122.351 36.8774 121.98 36.3774H123.537C124.256 37.3888 124.804 38.493 125.179 39.6899C125.554 40.8869 125.741 42.1975 125.741 43.6218ZM131.488 47.1672V45.7468L136.517 37.8036H137.636V39.8945H136.926L133.329 45.5877V45.6786H140.221V47.1672H131.488ZM137.005 49.4399V46.7354L137.017 46.0877V37.8036H138.681V49.4399H137.005ZM145.633 49.599C144.819 49.599 144.099 49.4589 143.474 49.1786C142.853 48.8983 142.366 48.5119 142.014 48.0195C141.662 47.5271 141.487 46.9665 141.491 46.3377C141.487 45.8452 141.588 45.3926 141.792 44.9797C142.001 44.563 142.283 44.2165 142.639 43.9399C142.995 43.6596 143.393 43.4816 143.832 43.4059V43.3377C143.252 43.1975 142.788 42.8869 142.44 42.4059C142.092 41.9248 141.919 41.3718 141.923 40.7468C141.919 40.1521 142.076 39.6218 142.395 39.1559C142.717 38.6862 143.158 38.3168 143.718 38.0479C144.279 37.779 144.917 37.6445 145.633 37.6445C146.342 37.6445 146.974 37.7809 147.531 38.0536C148.092 38.3225 148.533 38.6918 148.855 39.1615C149.177 39.6274 149.34 40.1559 149.343 40.7468C149.34 41.3718 149.162 41.9248 148.809 42.4059C148.457 42.8869 147.999 43.1975 147.434 43.3377V43.4059C147.87 43.4816 148.262 43.6596 148.61 43.9399C148.963 44.2165 149.243 44.563 149.451 44.9797C149.663 45.3926 149.771 45.8452 149.775 46.3377C149.771 46.9665 149.593 47.5271 149.241 48.0195C148.889 48.5119 148.4 48.8983 147.775 49.1786C147.154 49.4589 146.44 49.599 145.633 49.599ZM145.633 48.1615C146.114 48.1615 146.531 48.082 146.883 47.9229C147.235 47.76 147.508 47.5346 147.701 47.2468C147.895 46.9551 147.993 46.6142 147.997 46.224C147.993 45.8187 147.887 45.4608 147.679 45.1502C147.474 44.8396 147.196 44.5952 146.843 44.4172C146.491 44.2392 146.088 44.1502 145.633 44.1502C145.175 44.1502 144.768 44.2392 144.412 44.4172C144.056 44.5952 143.775 44.8396 143.571 45.1502C143.366 45.4608 143.266 45.8187 143.27 46.224C143.266 46.6142 143.359 46.9551 143.548 47.2468C143.741 47.5346 144.016 47.76 144.372 47.9229C144.728 48.082 145.148 48.1615 145.633 48.1615ZM145.633 42.7468C146.02 42.7468 146.362 42.6691 146.662 42.5138C146.961 42.3585 147.196 42.1426 147.366 41.8661C147.54 41.5896 147.629 41.2657 147.633 40.8945C147.629 40.5309 147.542 40.2127 147.372 39.9399C147.205 39.6672 146.972 39.457 146.673 39.3093C146.374 39.1577 146.027 39.082 145.633 39.082C145.232 39.082 144.879 39.1577 144.576 39.3093C144.277 39.457 144.044 39.6672 143.877 39.9399C143.711 40.2127 143.629 40.5309 143.633 40.8945C143.629 41.2657 143.713 41.5896 143.883 41.8661C144.054 42.1426 144.288 42.3585 144.588 42.5138C144.891 42.6691 145.239 42.7468 145.633 42.7468ZM155.243 49.599C154.428 49.599 153.708 49.4589 153.083 49.1786C152.462 48.8983 151.975 48.5119 151.623 48.0195C151.271 47.5271 151.097 46.9665 151.1 46.3377C151.097 45.8452 151.197 45.3926 151.402 44.9797C151.61 44.563 151.892 44.2165 152.248 43.9399C152.604 43.6596 153.002 43.4816 153.441 43.4059V43.3377C152.862 43.1975 152.398 42.8869 152.049 42.4059C151.701 41.9248 151.529 41.3718 151.532 40.7468C151.529 40.1521 151.686 39.6218 152.004 39.1559C152.326 38.6862 152.767 38.3168 153.328 38.0479C153.888 37.779 154.527 37.6445 155.243 37.6445C155.951 37.6445 156.583 37.7809 157.14 38.0536C157.701 38.3225 158.142 38.6918 158.464 39.1615C158.786 39.6274 158.949 40.1559 158.953 40.7468C158.949 41.3718 158.771 41.9248 158.419 42.4059C158.066 42.8869 157.608 43.1975 157.044 43.3377V43.4059C157.479 43.4816 157.871 43.6596 158.22 43.9399C158.572 44.2165 158.852 44.563 159.061 44.9797C159.273 45.3926 159.381 45.8452 159.385 46.3377C159.381 46.9665 159.203 47.5271 158.85 48.0195C158.498 48.5119 158.01 48.8983 157.385 49.1786C156.763 49.4589 156.049 49.599 155.243 49.599ZM155.243 48.1615C155.724 48.1615 156.14 48.082 156.493 47.9229C156.845 47.76 157.118 47.5346 157.311 47.2468C157.504 46.9551 157.602 46.6142 157.606 46.224C157.602 45.8187 157.496 45.4608 157.288 45.1502C157.083 44.8396 156.805 44.5952 156.453 44.4172C156.1 44.2392 155.697 44.1502 155.243 44.1502C154.784 44.1502 154.377 44.2392 154.021 44.4172C153.665 44.5952 153.385 44.8396 153.18 45.1502C152.975 45.4608 152.875 45.8187 152.879 46.224C152.875 46.6142 152.968 46.9551 153.157 47.2468C153.35 47.5346 153.625 47.76 153.981 47.9229C154.337 48.082 154.758 48.1615 155.243 48.1615ZM155.243 42.7468C155.629 42.7468 155.972 42.6691 156.271 42.5138C156.57 42.3585 156.805 42.1426 156.975 41.8661C157.15 41.5896 157.239 41.2657 157.243 40.8945C157.239 40.5309 157.152 40.2127 156.981 39.9399C156.815 39.6672 156.582 39.457 156.282 39.3093C155.983 39.1577 155.636 39.082 155.243 39.082C154.841 39.082 154.489 39.1577 154.186 39.3093C153.886 39.457 153.654 39.6672 153.487 39.9399C153.32 40.2127 153.239 40.5309 153.243 40.8945C153.239 41.2657 153.322 41.5896 153.493 41.8661C153.663 42.1426 153.898 42.3585 154.197 42.5138C154.5 42.6691 154.849 42.7468 155.243 42.7468ZM166.085 42.8831V44.3604H160.926V42.8831H166.085ZM171.877 49.6331C170.98 49.6293 170.213 49.3926 169.576 48.9229C168.94 48.4532 168.453 47.7695 168.116 46.8718C167.779 45.974 167.61 44.8926 167.61 43.6274C167.61 42.3661 167.779 41.2884 168.116 40.3945C168.457 39.5005 168.946 38.8187 169.582 38.349C170.222 37.8793 170.987 37.6445 171.877 37.6445C172.768 37.6445 173.531 37.8812 174.167 38.3547C174.804 38.8244 175.29 39.5062 175.627 40.4002C175.968 41.2903 176.139 42.3661 176.139 43.6274C176.139 44.8964 175.97 45.9797 175.633 46.8774C175.296 47.7714 174.809 48.4551 174.173 48.9286C173.537 49.3983 172.771 49.6331 171.877 49.6331ZM171.877 48.1161C172.665 48.1161 173.281 47.7316 173.724 46.9627C174.171 46.1937 174.395 45.082 174.395 43.6274C174.395 42.6615 174.292 41.8452 174.088 41.1786C173.887 40.5081 173.597 40.0005 173.218 39.6559C172.843 39.3074 172.396 39.1331 171.877 39.1331C171.093 39.1331 170.478 39.5195 170.031 40.2922C169.584 41.0649 169.359 42.1767 169.355 43.6274C169.355 44.5971 169.455 45.4172 169.656 46.0877C169.86 46.7543 170.15 47.26 170.525 47.6047C170.9 47.9456 171.351 48.1161 171.877 48.1161ZM181.524 37.6445C182.043 37.6483 182.554 37.743 183.058 37.9286C183.562 38.1142 184.016 38.4172 184.422 38.8377C184.831 39.2581 185.156 39.8263 185.399 40.5422C185.645 41.2543 185.77 42.1407 185.774 43.2013C185.774 44.2202 185.672 45.1274 185.467 45.9229C185.262 46.7146 184.969 47.3831 184.586 47.9286C184.208 48.474 183.747 48.8888 183.206 49.1729C182.664 49.457 182.054 49.599 181.376 49.599C180.683 49.599 180.067 49.4627 179.529 49.1899C178.992 48.9172 178.554 48.5403 178.217 48.0593C177.88 47.5744 177.67 47.0176 177.586 46.3888H179.319C179.433 46.8888 179.664 47.2941 180.012 47.6047C180.365 47.9115 180.819 48.0649 181.376 48.0649C182.228 48.0649 182.893 47.6937 183.37 46.9513C183.848 46.2051 184.088 45.1634 184.092 43.8263H184.001C183.804 44.1521 183.558 44.4324 183.262 44.6672C182.971 44.9021 182.643 45.0839 182.279 45.2127C181.916 45.3415 181.528 45.4059 181.115 45.4059C180.444 45.4059 179.834 45.2411 179.285 44.9115C178.736 44.582 178.298 44.1293 177.973 43.5536C177.647 42.9778 177.484 42.3206 177.484 41.582C177.484 40.8471 177.651 40.1805 177.984 39.582C178.321 38.9835 178.791 38.51 179.393 38.1615C179.999 37.8093 180.709 37.6369 181.524 37.6445ZM181.529 39.1218C181.086 39.1218 180.687 39.2316 180.331 39.4513C179.978 39.6672 179.7 39.9608 179.495 40.332C179.291 40.6994 179.189 41.1085 179.189 41.5593C179.189 42.01 179.287 42.4191 179.484 42.7865C179.685 43.1502 179.958 43.4399 180.302 43.6559C180.651 43.868 181.048 43.974 181.495 43.974C181.829 43.974 182.139 43.9096 182.427 43.7809C182.715 43.6521 182.967 43.474 183.183 43.2468C183.399 43.0157 183.567 42.7543 183.689 42.4627C183.81 42.171 183.87 41.8642 183.87 41.5422C183.87 41.1142 183.768 40.7165 183.564 40.349C183.363 39.9816 183.086 39.6862 182.734 39.4627C182.382 39.2354 181.98 39.1218 181.529 39.1218ZM191.377 49.6331C190.48 49.6293 189.713 49.3926 189.076 48.9229C188.44 48.4532 187.953 47.7695 187.616 46.8718C187.279 45.974 187.11 44.8926 187.11 43.6274C187.11 42.3661 187.279 41.2884 187.616 40.3945C187.957 39.5005 188.446 38.8187 189.082 38.349C189.722 37.8793 190.487 37.6445 191.377 37.6445C192.268 37.6445 193.031 37.8812 193.667 38.3547C194.304 38.8244 194.79 39.5062 195.127 40.4002C195.468 41.2903 195.639 42.3661 195.639 43.6274C195.639 44.8964 195.47 45.9797 195.133 46.8774C194.796 47.7714 194.309 48.4551 193.673 48.9286C193.037 49.3983 192.271 49.6331 191.377 49.6331ZM191.377 48.1161C192.165 48.1161 192.781 47.7316 193.224 46.9627C193.671 46.1937 193.895 45.082 193.895 43.6274C193.895 42.6615 193.792 41.8452 193.588 41.1786C193.387 40.5081 193.097 40.0005 192.718 39.6559C192.343 39.3074 191.896 39.1331 191.377 39.1331C190.593 39.1331 189.978 39.5195 189.531 40.2922C189.084 41.0649 188.859 42.1767 188.855 43.6274C188.855 44.5971 188.955 45.4172 189.156 46.0877C189.36 46.7543 189.65 47.26 190.025 47.6047C190.4 47.9456 190.851 48.1161 191.377 48.1161ZM197.154 49.4399V48.1672L201.092 44.0877C201.512 43.6445 201.859 43.2562 202.132 42.9229C202.408 42.5858 202.615 42.2657 202.751 41.9627C202.887 41.6596 202.956 41.3377 202.956 40.9968C202.956 40.6104 202.865 40.2771 202.683 39.9968C202.501 39.7127 202.253 39.4949 201.939 39.3434C201.624 39.188 201.27 39.1104 200.876 39.1104C200.459 39.1104 200.096 39.1956 199.785 39.3661C199.475 39.5365 199.236 39.7771 199.069 40.0877C198.903 40.3983 198.819 40.7619 198.819 41.1786H197.143C197.143 40.4702 197.306 39.8509 197.632 39.3206C197.958 38.7903 198.404 38.3793 198.973 38.0877C199.541 37.7922 200.187 37.6445 200.91 37.6445C201.641 37.6445 202.285 37.7903 202.842 38.082C203.403 38.3699 203.84 38.7638 204.154 39.2638C204.469 39.76 204.626 40.3206 204.626 40.9456C204.626 41.3774 204.545 41.7998 204.382 42.2127C204.223 42.6255 203.944 43.0858 203.547 43.5934C203.149 44.0971 202.596 44.7089 201.887 45.4286L199.575 47.849V47.9343H204.814V49.4399H197.154Z" fill="#CAC6DD"/>
</g>
<defs>
<filter id="filter0_b_1994_1090" x="-11.5398" y="-10.7601" width="239.4" height="87.4" filterUnits="userSpaceOnUse" color-interpolation-filters="sRGB">
<feFlood flood-opacity="0" result="BackgroundImageFix"/>
<feGaussianBlur in="BackgroundImageFix" stdDeviation="5.85"/>
<feComposite in2="SourceAlpha" operator="in" result="effect1_backgroundBlur_1994_1090"/>
<feBlend mode="normal" in="SourceGraphic" in2="effect1_backgroundBlur_1994_1090" result="shape"/>
</filter>
<filter id="filter1_d_1994_1090" x="9.16016" y="9.93994" width="46" height="46" filterUnits="userSpaceOnUse" color-interpolation-filters="sRGB">
<feFlood flood-opacity="0" result="BackgroundImageFix"/>
<feColorMatrix in="SourceAlpha" type="matrix" values="0 0 0 0 0 0 0 0 0 0 0 0 0 0 0 0 0 0 127 0" result="hardAlpha"/>
<feMorphology radius="1" operator="dilate" in="SourceAlpha" result="effect1_dropShadow_1994_1090"/>
<feOffset/>
<feComposite in2="hardAlpha" operator="out"/>
<feColorMatrix type="matrix" values="0 0 0 0 0.176471 0 0 0 0 0.180392 0 0 0 0 0.282353 0 0 0 1 0"/>
<feBlend mode="normal" in2="BackgroundImageFix" result="effect1_dropShadow_1994_1090"/>
<feBlend mode="normal" in="SourceGraphic" in2="effect1_dropShadow_1994_1090" result="shape"/>
</filter>
<filter id="filter2_f_1994_1090" x="10.525" y="10.3067" width="47.2" height="47.2" filterUnits="userSpaceOnUse" color-interpolation-filters="sRGB">
<feFlood flood-opacity="0" result="BackgroundImageFix"/>
<feBlend mode="normal" in="SourceGraphic" in2="BackgroundImageFix" result="shape"/>
<feGaussianBlur stdDeviation="8.8" result="effect1_foregroundBlur_1994_1090"/>
</filter>
<linearGradient id="paint0_linear_1994_1090" x1="108.16" y1="0.939939" x2="121.208" y2="48.7223" gradientUnits="userSpaceOnUse">
<stop stop-color="#1B1C36"/>
<stop offset="1" stop-color="#70717A"/>
</linearGradient>
<linearGradient id="paint1_linear_1994_1090" x1="216.16" y1="61.0375" x2="25.3201" y2="-35.8997" gradientUnits="userSpaceOnUse">
<stop stop-color="white" stop-opacity="0.07"/>
<stop offset="1" stop-color="white" stop-opacity="0.15"/>
</linearGradient>
<clipPath id="clip0_1994_1090">
<rect x="10.1602" y="10.9399" width="44" height="44" rx="12" fill="white"/>
</clipPath>
</defs>
</svg>
