<svg width="61" height="45" viewBox="0 0 61 45" fill="none" xmlns="http://www.w3.org/2000/svg">
<g clip-path="url(#clip0_3060_13416)">
<path d="M55.3894 41.1775C55.3894 40.2781 55.3745 39.3787 55.3894 38.4943C55.3894 37.8497 55.7477 37.46 56.285 37.46C56.8074 37.46 57.1656 37.8497 57.1656 38.4643C57.1805 40.3081 57.1805 42.1668 57.1656 44.0106C57.1656 44.6102 56.7626 44.9999 56.2551 44.9999C55.7477 44.9849 55.3894 44.5952 55.3894 43.9956C55.3894 43.0512 55.3894 42.1219 55.3894 41.1775Z" fill="white"/>
<path d="M5.61348 41.8521C5.61348 42.5716 5.62841 43.2911 5.61348 44.0106C5.59856 44.6102 5.22543 45 4.71796 45C4.24035 45 3.83737 44.6102 3.83737 44.0556C3.82244 42.5566 3.82244 41.0726 3.83737 39.5736C3.85229 39.004 4.24035 38.6592 4.73289 38.6592C5.22543 38.6592 5.59856 39.0339 5.59856 39.5886C5.62841 40.3381 5.61348 41.1026 5.61348 41.8521Z" fill="white"/>
<path d="M41.926 42.1818C41.926 42.7814 41.9409 43.381 41.926 43.9656C41.9111 44.5952 41.523 45.0149 41.0006 44.985C40.4932 44.97 40.1499 44.5802 40.1499 43.9656C40.1349 42.7664 40.1349 41.5822 40.1499 40.383C40.1499 39.7684 40.4932 39.3787 41.0006 39.3637C41.5379 39.3487 41.9111 39.7235 41.926 40.368C41.9409 40.9826 41.926 41.5822 41.926 42.1818Z" fill="#010101"/>
<path d="M20.8812 42.2568C20.8812 42.8564 20.8962 43.456 20.8812 44.0406C20.8663 44.5953 20.4932 44.985 20.0156 44.985C19.5529 45 19.135 44.6103 19.12 44.0706C19.0902 42.8264 19.0902 41.5673 19.12 40.3081C19.135 39.6935 19.538 39.3488 20.0454 39.3638C20.538 39.3937 20.8663 39.7385 20.8812 40.3231C20.8962 40.9827 20.8812 41.6272 20.8812 42.2568Z" fill="#010101"/>
<path d="M60.9112 35.9759C60.5679 34.342 59.5232 33.3976 57.9709 32.9629C56.9858 32.6781 55.9858 32.3933 55.0008 32.1085C54.7172 32.0335 54.3291 32.0185 54.3441 31.6288C54.3739 31.1491 54.0605 30.5795 54.5829 30.1748C56.4635 28.7057 57.2694 26.7271 57.1799 24.3736C57.15 23.6241 57.2396 22.9196 57.6276 22.26C57.8664 21.8553 57.9858 21.3756 58.0455 20.8959C58.2545 19.0222 58.1202 17.1484 58.1202 15.2747C58.1202 14.7201 57.7321 14.4053 57.1052 14.4053C54.0754 14.4353 51.0306 14.2704 48.0008 14.4802C44.359 14.7351 41.9261 18.8873 43.4635 22.2001C43.8067 22.9496 43.9709 23.6691 43.956 24.4935C43.9112 26.757 44.7769 28.6308 46.5232 30.0848C46.7172 30.2497 46.8217 30.4146 46.8217 30.6844C46.8366 31.8836 46.8515 31.8836 45.7023 32.2134C45.4187 32.2883 45.1202 32.3483 44.8515 32.4682C44.4635 32.6331 44.0903 32.5881 43.7172 32.4382C42.5829 32.0035 41.4485 31.5988 40.3142 31.1791C39.7023 30.9542 39.0008 30.8643 38.8217 30.0548C38.8067 29.9949 38.7321 29.9199 38.6575 29.875C37.3142 28.9006 36.9261 27.5665 37.165 25.9776C37.1799 25.9026 37.1799 25.8127 37.165 25.7377C37.1053 25.4229 37.2694 25.2281 37.4933 25.0332C38.165 24.4336 38.747 23.759 39.2396 23.0095C40.5978 20.9559 41.0605 18.6774 40.9858 16.249C40.956 15.4246 41.0008 14.6451 41.359 13.8656C41.6873 13.1461 41.8366 12.3367 41.8664 11.5422C42.0455 8.03452 41.9112 4.52686 41.9411 1.0192C41.9411 0.374627 41.5679 0.0298565 40.9261 0.0298565C36.359 0.0298565 31.7918 -0.0600836 27.2247 0.0748265C23.956 0.179757 21.5082 1.87363 20.0456 4.81167C18.7172 7.49488 18.8963 10.358 19.5381 13.1611C19.8217 14.4053 20.1202 15.6045 20.1202 16.8936C20.1053 19.4569 20.7918 21.9003 22.5679 23.759C23.7172 24.9582 24.1351 26.1874 23.9261 27.7314C23.9261 27.7464 23.9261 27.7764 23.9261 27.7913C23.9709 28.1361 23.8366 28.3909 23.5978 28.6308C23.1053 29.1554 22.4784 29.5901 22.1799 30.2347C21.9709 30.6844 21.7023 30.8343 21.3142 30.9842C19.5381 31.6438 17.7023 32.1834 15.9858 33.0079C15.4038 33.2927 15.0605 33.2027 14.6127 32.843C15.8366 32.2883 16.8814 31.5688 17.7023 30.5195C18.0455 30.0848 18.15 29.6501 17.9112 29.1404C17.6276 28.5408 17.5381 27.8813 17.4336 27.2367C17.165 25.3929 17.2545 23.5342 17.0605 21.6904C16.8217 19.382 15.8814 17.4333 14.0455 16.0092C9.67241 12.5915 3.43361 14.9599 2.17988 20.4912C1.85152 21.9452 1.91122 23.4293 1.82167 24.8983C1.73212 26.3823 1.67242 27.8813 1.09033 29.2903C0.896297 29.755 1.06048 30.1298 1.34406 30.5045C2.15003 31.5838 3.22465 32.2883 4.49331 32.8879C3.70227 33.2927 2.97092 33.6374 2.25451 34.0122C0.747043 34.7767 0.000774124 35.9909 0.000774124 37.6698C0.000774124 39.3786 0.000774124 41.1025 0.000774124 42.8113C0.000774124 43.2311 -0.0141512 43.6508 0.000774124 44.0705C0.0306249 44.6251 0.418685 45.0149 0.896296 44.9999C1.37391 44.9999 1.74704 44.6101 1.77689 44.0555C1.79182 43.9206 1.77689 43.7707 1.77689 43.6358C1.77689 41.6571 1.79182 39.6934 1.77689 37.7147C1.77689 36.7254 2.17988 36.0359 3.06048 35.6161C3.59779 35.3613 4.12018 35.0915 4.65749 34.8217C5.82167 34.237 5.82167 34.237 6.80674 35.1065C8.50824 36.6354 10.5679 36.6055 12.2545 35.0315C12.4933 34.8067 12.7023 34.5818 12.9411 34.372C13.3441 34.0422 13.5679 34.5368 13.8814 34.5968C14.0605 34.6418 14.0605 34.7617 13.9709 34.9116C13.3441 35.9759 13.3441 37.1451 13.359 38.3293C13.3739 40.1881 13.359 42.0318 13.359 43.8906C13.359 44.4153 13.5381 44.835 14.1053 44.9699C14.5232 45.0598 14.8366 44.865 15.0455 44.5052C15.1799 44.2654 15.15 43.9955 15.15 43.7407C15.15 41.6271 15.15 39.5135 15.15 37.3999C15.15 35.8859 15.8664 34.8816 17.2844 34.357C19.0157 33.7124 20.747 33.0978 22.4635 32.4532C22.7769 32.3333 22.9411 32.3633 23.1351 32.6631C23.762 33.6524 24.4187 34.6268 25.0754 35.6011C26.0455 37.0552 27.2097 37.1751 28.4635 35.9159C28.8217 35.5562 29.15 35.1814 29.4933 34.8067C29.5381 34.8366 29.5978 34.8816 29.6426 34.9116C29.6426 35.9459 29.6426 36.9652 29.6426 37.9995C29.6426 39.9932 29.6426 41.9869 29.6426 43.9805C29.6426 44.5951 30.0008 44.9849 30.5082 44.9999C31.0008 45.0149 31.3739 44.6251 31.4187 44.0255C31.4336 43.8606 31.4187 43.7107 31.4187 43.5458C31.4187 40.8476 31.4187 38.1644 31.4187 35.4662C31.4187 35.2864 31.359 35.0765 31.5082 34.8516C31.9261 35.2714 32.3142 35.6761 32.7321 36.0808C33.7918 37.1151 35.0157 37.0102 35.8515 35.781C36.5381 34.7617 37.2247 33.7424 37.8814 32.6931C38.0903 32.3633 38.2694 32.3483 38.5978 32.4682C40.2396 33.0978 41.8963 33.6824 43.553 34.297C45.2396 34.9116 45.8664 35.826 45.8664 37.6248C45.8664 39.7234 45.8664 41.807 45.8664 43.9056C45.8664 44.5951 46.2247 45.0149 46.7769 44.9999C47.3142 44.9849 47.6575 44.5802 47.6575 43.8606C47.6575 41.9419 47.6276 40.0382 47.6724 38.1195C47.7023 36.5755 47.4784 35.1364 46.3739 33.9672C47.3441 33.5025 47.3441 33.5025 48.0306 34.1921C48.4336 34.5968 48.8217 35.0315 49.2545 35.4063C49.5829 35.6911 49.7023 36.0059 49.6873 36.4406C49.6724 38.9589 49.6724 41.4622 49.6873 43.9805C49.6873 44.5951 50.0455 44.9849 50.5381 44.9999C51.0455 45.0149 51.4187 44.6251 51.4635 44.0255C51.4784 43.8606 51.4635 43.7107 51.4635 43.5458C51.4635 41.1324 51.4635 38.7191 51.4635 36.3057C51.4635 36.0508 51.4635 35.811 51.6873 35.6011C52.2993 35.0315 52.8814 34.4319 53.4635 33.8323C53.6276 33.6524 53.7769 33.5925 54.0306 33.6674C55.1649 34.0122 56.3142 34.342 57.4485 34.6718C58.762 35.0615 59.2246 35.6761 59.2246 37.0552C59.2246 39.2887 59.2246 41.5222 59.2246 43.7557C59.2246 44.2654 59.2694 44.7151 59.8217 44.9249C60.3888 45.1348 60.7023 44.775 61.0008 44.4003C61.0008 41.6121 61.0008 38.824 61.0008 36.0209C60.9709 36.0209 60.9112 35.9909 60.9112 35.9759ZM5.74704 31.4339C4.71719 31.0742 3.88137 30.6095 3.16495 29.9349C2.97092 29.74 2.85152 29.5752 2.97092 29.2604C3.15003 28.7207 3.25451 28.1661 3.41868 27.5365C3.956 28.6608 4.67242 29.5602 5.61271 30.2947C5.92615 30.5495 5.67242 31.0142 5.74704 31.4339ZM10.7321 34.0122C10.0008 34.4319 9.32913 34.5518 8.55301 34.1921C7.1948 33.5775 7.37391 32.4532 7.59779 31.284C8.8366 31.6288 10.1053 31.6438 11.4187 31.269C11.4187 32.2584 11.9858 33.3077 10.7321 34.0122ZM9.32913 29.77C6.65749 29.6051 4.97092 27.5665 4.73212 25.6178C4.70227 25.363 4.67242 25.1081 4.64257 24.8533C4.61271 24.5385 4.44854 24.1937 4.16495 24.1638C3.46346 24.0888 3.65749 23.6391 3.65749 23.2194C3.67242 21.7654 3.86645 20.3713 4.64257 19.0971C5.74704 17.2684 7.37391 16.249 9.47839 16.249C11.6127 16.249 13.2545 17.2834 14.359 19.1271C15.2247 20.5662 15.3291 22.1701 15.359 23.9089C13.4038 21.3157 10.7918 20.3563 7.79182 20.2064C7.40376 20.1914 7.09033 20.2963 6.83659 20.5812C6.37391 21.0758 5.8963 21.5555 5.43361 22.0502C5.00077 22.5149 4.98585 23.0695 5.37391 23.4293C5.74704 23.774 6.26943 23.7291 6.70227 23.3093C6.92615 23.0845 7.17988 22.8746 7.35898 22.6198C7.74704 22.0202 8.28436 22.0052 8.91122 22.1101C10.9112 22.4549 12.6575 23.2194 13.8814 24.9432C14.2396 25.4529 14.2694 25.9326 14.0903 26.5022C13.4187 28.4659 11.2993 29.8899 9.32913 29.77ZM13.5381 31.344C13.2993 31.4489 13.2545 31.359 13.2396 31.1191C13.2097 30.6544 13.2993 30.3097 13.7172 30.0099C14.5381 29.4103 15.1053 28.5558 15.5978 27.5065C15.762 28.2261 15.8515 28.8406 16.0754 29.4103C16.15 29.6201 16.0008 29.74 15.8814 29.86C15.2097 30.5645 14.4038 30.9842 13.5381 31.344ZM22.7321 20.851C22.0754 19.4419 21.8515 17.9729 21.8515 16.4439C21.8515 15.3946 21.762 14.3903 21.4336 13.341C20.6426 10.8526 20.4784 8.25937 21.553 5.80101C22.6724 3.23772 24.7769 1.93359 27.553 1.82866C29.5381 1.75371 31.5232 1.81367 33.5082 1.81367C35.5381 1.81367 37.553 1.82866 39.5829 1.79868C40.0754 1.78369 40.165 1.94858 40.15 2.39828C40.1351 5.00654 40.1351 7.6148 40.1351 10.2381C40.1351 11.5272 39.9261 12.7714 39.4038 13.9556C39.2396 14.3303 39.1799 14.7051 39.1799 15.1098C39.165 16.5638 39.2694 18.0179 38.8814 19.4419C37.956 22.8896 34.9112 25.5129 31.5381 25.8576C27.3441 26.3073 24.1351 23.864 22.7321 20.851ZM27.0754 34.7767C26.8814 34.9716 26.7918 34.9566 26.6426 34.7317C25.8217 33.4875 25.0008 32.2584 24.1799 31.0142C24.0605 30.8343 24.0605 30.7294 24.2097 30.5495C24.8366 29.77 24.8366 29.755 25.6873 30.3396C26.8217 31.1191 27.9709 31.8986 29.15 32.7231C28.4187 33.4426 27.747 34.1021 27.0754 34.7767ZM30.8664 31.269C30.5978 31.4639 30.4187 31.4639 30.15 31.269C28.7769 30.2947 27.3739 29.3503 25.9858 28.3909C25.7321 28.2261 25.4933 26.832 25.6873 26.6371C25.8217 26.5022 25.9411 26.6371 26.0605 26.6971C27.8217 27.5515 29.6724 27.8663 31.5978 27.6564C32.6276 27.5515 33.6127 27.2967 34.5679 26.8919C34.8067 26.787 35.0306 26.6821 35.2694 26.5772C35.6127 27.7314 35.1799 28.4209 34.1948 28.9905C33.0456 29.6651 31.9709 30.4895 30.8664 31.269ZM36.5381 31.5089C35.8515 32.5432 35.15 33.5775 34.4635 34.6268C34.2694 34.9266 34.165 35.0315 33.8664 34.7167C33.2396 34.0572 32.5829 33.4276 31.8814 32.738C33.2545 31.7937 34.553 30.9093 35.8515 30.0099C36.0306 29.8899 36.1351 29.8899 36.2993 30.0398C37.0605 30.6994 37.0754 30.6994 36.5381 31.5089ZM52.0455 32.7231C51.6276 33.0528 51.2545 33.4576 50.9112 33.8623C50.6276 34.1921 50.4336 34.1471 50.1799 33.8473C49.8366 33.4576 49.4784 33.0828 49.0903 32.753C48.6127 32.3483 48.4187 31.9136 48.6724 31.284C49.9411 31.6738 51.2247 31.6438 52.4933 31.299C52.6575 31.8836 52.5232 32.3333 52.0455 32.7231ZM49.5679 29.6501C47.762 29.2604 46.5978 28.0612 45.9858 26.3223C45.7172 25.5578 45.6873 24.7634 45.7172 23.9689C45.762 23.1894 45.6127 22.4849 45.2097 21.7953C44.0157 19.7417 45.2545 16.9536 47.6873 16.354C48.1052 16.249 48.553 16.2191 48.9858 16.2191C50.0903 16.2041 51.2097 16.2191 52.3142 16.2191C53.4784 16.2191 54.6575 16.2341 55.8217 16.2041C56.1948 16.2041 56.3441 16.264 56.3291 16.6838C56.2993 17.7181 56.3291 18.7524 56.3142 19.7867C56.3142 20.3863 56.2545 21.0159 55.9411 21.5255C55.3291 22.5149 55.3291 23.5941 55.3441 24.6884C55.359 25.9626 55.0008 27.1168 54.1351 28.0911C52.9411 29.4852 51.3739 30.0398 49.5679 29.6501Z" fill="white"/>
<path d="M29.09 8.16943C31.3586 8.24438 33.8512 8.39428 36.1348 9.60847C36.7318 9.92326 37.284 10.313 37.7616 10.7927C38.1646 11.1824 38.1945 11.7071 37.8661 12.0668C37.5527 12.4266 37.0303 12.5015 36.6422 12.1418C35.09 10.7327 33.1795 10.298 31.1795 10.0882C29.1795 9.87829 27.1795 9.99821 25.1945 10.253C24.8064 10.298 24.7019 10.4479 24.7168 10.8077C24.7467 11.3173 24.7467 11.842 24.7168 12.3666C24.687 12.9662 24.3736 13.311 23.8661 13.326C23.3437 13.341 22.9706 12.9962 22.9407 12.3816C22.9109 11.6621 22.9109 10.9426 22.9557 10.2381C23.0154 9.32366 23.6721 8.6641 24.5825 8.54418C26.0004 8.31933 27.4333 8.2144 29.09 8.16943Z" fill="white"/>
<path d="M48.6872 19.2621C50.314 19.352 51.926 19.5169 53.4483 20.1315C53.5379 20.1615 53.6274 20.2065 53.717 20.2514C54.2095 20.5063 54.3886 20.911 54.2245 21.3757C54.0603 21.8554 53.6424 22.1102 53.1349 21.9153C51.4036 21.2408 49.5976 21.1209 47.7767 21.0159C47.1051 20.971 46.7767 20.6112 46.8066 20.0566C46.8364 19.5469 47.2245 19.2321 47.8513 19.2321C48.1349 19.2171 48.4036 19.2471 48.6872 19.2621Z" fill="white"/>
</g>
<defs>
<clipPath id="clip0_3060_13416">
<rect width="61" height="45" fill="white"/>
</clipPath>
</defs>
</svg>
