<svg width="111" height="95" viewBox="0 0 111 95" fill="none" xmlns="http://www.w3.org/2000/svg">
<path d="M54.6872 46C54.5671 44.5098 54.4046 43.045 54.3446 41.5752C54.3058 40.6259 53.5856 40.261 53.0667 39.6971C51.8314 38.3535 50.5348 37.0547 49.4282 35.6078C48.483 34.3715 47.6665 33.005 46.9763 31.6015C46.0773 29.7718 45.3446 27.8452 45.147 25.7808C44.9808 24.0456 44.7794 22.2925 44.857 20.5586C44.9207 19.1283 45.3158 17.7006 45.6659 16.2996C45.9435 15.1896 46.2899 14.0795 46.7637 13.0448C47.4277 11.5928 48.1591 10.1574 49.0081 8.81136C49.9946 7.24838 51.1274 5.77982 52.2215 4.2883C53.2155 2.93202 54.2395 1.59998 55.2536 0.259008C55.3136 0.179902 55.3973 0.119935 55.5224 0C56.1125 0.811472 56.6664 1.60125 57.2466 2.36935C58.6645 4.25002 60.1874 6.05797 61.4915 8.01648C62.543 9.59732 63.4308 11.3147 64.2148 13.0537C64.7999 14.3526 65.2388 15.7574 65.5014 17.1621C65.854 19.0505 66.0903 20.9809 66.1503 22.9011C66.1915 24.2293 66.0165 25.6188 65.6439 26.8921C65.0825 28.8085 64.4136 30.7262 63.5208 32.501C62.1142 35.3016 60.1474 37.7079 57.8168 39.7876C57.4442 40.1207 57.0653 40.4447 56.7452 40.7254C56.5852 42.5091 56.4289 44.2367 56.2713 45.9987H54.6872V46ZM55.5962 16.5969C55.5624 16.5969 55.5286 16.5969 55.4949 16.5969C55.4249 17.5781 55.3436 18.558 55.2886 19.5391C55.2173 20.8163 55.166 22.0935 55.106 23.3706C55.0435 24.7116 54.9835 26.0526 54.921 27.3936C54.861 28.6924 54.7972 29.99 54.7372 31.2889C54.6747 32.6388 54.6034 33.9887 54.5609 35.3386C54.5259 36.4308 54.5784 37.528 54.4996 38.6164C54.4396 39.4483 55.006 39.7404 55.4811 40.1513C56.4701 39.2186 56.4814 39.2186 56.4601 37.9389C56.4501 37.2856 56.3839 36.6336 56.3526 35.9804C56.2263 33.3303 56.105 30.6803 55.9813 28.0302C55.9212 26.7543 55.8537 25.4784 55.8 24.2013C55.7262 22.4316 55.6549 20.6606 55.5999 18.8897C55.5761 18.1254 55.5962 17.3599 55.5962 16.5956V16.5969Z" fill="#8F8E93"/>
<path d="M34.5079 76H33.1079V67.95L28.6839 76L24.2879 68.006V76H22.8879V66.2H24.8619L28.7259 73.214L32.5899 66.2H34.5079V76ZM39.9786 76.14C39.288 76.14 38.658 75.9813 38.0886 75.664C37.5193 75.3373 37.0713 74.8987 36.7446 74.348C36.418 73.788 36.2546 73.172 36.2546 72.5C36.2546 71.828 36.418 71.2167 36.7446 70.666C37.0713 70.106 37.5193 69.6673 38.0886 69.35C38.658 69.0233 39.288 68.86 39.9786 68.86C40.66 68.86 41.2806 69.0233 41.8406 69.35C42.41 69.6673 42.858 70.106 43.1846 70.666C43.5113 71.2167 43.6746 71.828 43.6746 72.5C43.6746 73.172 43.5113 73.788 43.1846 74.348C42.858 74.8987 42.41 75.3373 41.8406 75.664C41.2806 75.9813 40.66 76.14 39.9786 76.14ZM39.9786 74.908C40.408 74.908 40.8 74.8053 41.1546 74.6C41.5093 74.3853 41.7893 74.096 41.9946 73.732C42.2 73.3587 42.3026 72.948 42.3026 72.5C42.3026 72.052 42.2 71.646 41.9946 71.282C41.7893 70.9087 41.5093 70.6193 41.1546 70.414C40.8 70.1993 40.408 70.092 39.9786 70.092C39.54 70.092 39.1386 70.1993 38.7746 70.414C38.42 70.6193 38.14 70.9087 37.9346 71.282C37.7293 71.646 37.6266 72.052 37.6266 72.5C37.6266 72.948 37.7293 73.3587 37.9346 73.732C38.14 74.096 38.42 74.3853 38.7746 74.6C39.1386 74.8053 39.54 74.908 39.9786 74.908ZM48.8492 68.86C49.4185 68.86 49.9272 68.9813 50.3752 69.224C50.8325 69.4667 51.1918 69.8353 51.4532 70.33C51.7238 70.8153 51.8592 71.4127 51.8592 72.122V76H50.5292V72.15C50.5292 71.534 50.3472 71.044 49.9832 70.68C49.6192 70.316 49.1618 70.134 48.6112 70.134C48.2098 70.134 47.8552 70.232 47.5472 70.428C47.2485 70.6147 47.0152 70.8713 46.8472 71.198C46.6885 71.5247 46.6092 71.8793 46.6092 72.262V76H45.2792V69H46.5392V70.12C46.8005 69.7373 47.1318 69.434 47.5332 69.21C47.9438 68.9767 48.3825 68.86 48.8492 68.86ZM60.3308 72.192C60.3308 72.7893 60.1908 73.3307 59.9108 73.816C59.6308 74.3013 59.2108 74.6793 58.6508 74.95C59.0988 75.0807 59.4255 75.2767 59.6308 75.538C59.8455 75.7993 59.9528 76.1073 59.9528 76.462C59.9528 77.022 59.7475 77.4793 59.3368 77.834C58.9355 78.198 58.4128 78.38 57.7688 78.38H55.9068C55.2722 78.38 54.7495 78.2073 54.3388 77.862C53.9282 77.5167 53.7228 77.0733 53.7228 76.532C53.7228 75.7853 54.1522 75.2627 55.0108 74.964C54.4788 74.7307 54.0635 74.3573 53.7648 73.844C53.4755 73.3307 53.3308 72.78 53.3308 72.192C53.3308 71.5853 53.4802 71.0347 53.7788 70.54C54.0868 70.036 54.5068 69.6393 55.0388 69.35C55.5708 69.0607 56.1542 68.916 56.7888 68.916C57.6848 68.916 58.4455 69.2613 59.0708 69.952V68.986H60.3308V72.192ZM56.8308 74.432C57.2508 74.432 57.6288 74.334 57.9648 74.138C58.3008 73.942 58.5622 73.676 58.7488 73.34C58.9448 73.004 59.0428 72.626 59.0428 72.206C59.0428 71.7953 58.9448 71.4267 58.7488 71.1C58.5622 70.7733 58.3008 70.5167 57.9648 70.33C57.6288 70.1433 57.2508 70.05 56.8308 70.05C56.2055 70.05 55.6875 70.2553 55.2768 70.666C54.8755 71.0673 54.6748 71.5807 54.6748 72.206C54.6748 72.8407 54.8755 73.368 55.2768 73.788C55.6875 74.208 56.2055 74.4227 56.8308 74.432ZM57.6568 77.316C57.9555 77.316 58.2028 77.2367 58.3988 77.078C58.6042 76.9193 58.7068 76.7233 58.7068 76.49C58.7068 76.238 58.6088 76.028 58.4128 75.86C58.2168 75.692 57.9648 75.608 57.6568 75.608H56.0048C55.6968 75.608 55.4448 75.692 55.2488 75.86C55.0528 76.028 54.9548 76.238 54.9548 76.49C54.9548 76.7233 55.0528 76.9193 55.2488 77.078C55.4542 77.2367 55.7062 77.316 56.0048 77.316H57.6568ZM65.381 76.14C64.6903 76.14 64.0603 75.9813 63.491 75.664C62.9217 75.3373 62.4737 74.8987 62.147 74.348C61.8203 73.788 61.657 73.172 61.657 72.5C61.657 71.828 61.8203 71.2167 62.147 70.666C62.4737 70.106 62.9217 69.6673 63.491 69.35C64.0603 69.0233 64.6903 68.86 65.381 68.86C66.0623 68.86 66.683 69.0233 67.243 69.35C67.8123 69.6673 68.2603 70.106 68.587 70.666C68.9137 71.2167 69.077 71.828 69.077 72.5C69.077 73.172 68.9137 73.788 68.587 74.348C68.2603 74.8987 67.8123 75.3373 67.243 75.664C66.683 75.9813 66.0623 76.14 65.381 76.14ZM65.381 74.908C65.8103 74.908 66.2023 74.8053 66.557 74.6C66.9117 74.3853 67.1917 74.096 67.397 73.732C67.6023 73.3587 67.705 72.948 67.705 72.5C67.705 72.052 67.6023 71.646 67.397 71.282C67.1917 70.9087 66.9117 70.6193 66.557 70.414C66.2023 70.1993 65.8103 70.092 65.381 70.092C64.9423 70.092 64.541 70.1993 64.177 70.414C63.8223 70.6193 63.5423 70.9087 63.337 71.282C63.1317 71.646 63.029 72.052 63.029 72.5C63.029 72.948 63.1317 73.3587 63.337 73.732C63.5423 74.096 63.8223 74.3853 64.177 74.6C64.541 74.8053 64.9423 74.908 65.381 74.908ZM74.1815 66.2C75.2269 66.2 76.1322 66.4147 76.8975 66.844C77.6722 67.2733 78.2649 67.8613 78.6755 68.608C79.0862 69.3453 79.2915 70.176 79.2915 71.1C79.2915 72.024 79.0862 72.8593 78.6755 73.606C78.2649 74.3433 77.6722 74.9267 76.8975 75.356C76.1322 75.7853 75.2269 76 74.1815 76H70.8215V66.2H74.1815ZM74.1815 74.656C74.9189 74.656 75.5629 74.5113 76.1135 74.222C76.6642 73.9327 77.0842 73.522 77.3735 72.99C77.6722 72.4487 77.8215 71.8187 77.8215 71.1C77.8215 70.3813 77.6722 69.756 77.3735 69.224C77.0842 68.6827 76.6642 68.2673 76.1135 67.978C75.5629 67.6887 74.9189 67.544 74.1815 67.544H72.2215V74.656H74.1815ZM87.3588 71.002C87.8161 71.2447 88.1615 71.5573 88.3948 71.94C88.6281 72.3133 88.7448 72.7427 88.7448 73.228C88.7448 73.76 88.6188 74.236 88.3668 74.656C88.1241 75.0667 87.7648 75.3933 87.2888 75.636C86.8128 75.8787 86.2435 76 85.5808 76H81.1848V66.2H85.5668C86.2015 66.2 86.7475 66.3167 87.2048 66.55C87.6621 66.7833 88.0075 67.1007 88.2408 67.502C88.4835 67.9033 88.6048 68.356 88.6048 68.86C88.6048 69.3267 88.5021 69.742 88.2968 70.106C88.0915 70.47 87.7788 70.7687 87.3588 71.002ZM85.4968 70.484C86.0568 70.484 86.4768 70.3533 86.7568 70.092C87.0461 69.8213 87.1908 69.434 87.1908 68.93C87.1908 67.9687 86.6261 67.488 85.4968 67.488H82.5848V70.484H85.4968ZM85.5108 74.712C86.0895 74.712 86.5281 74.5813 86.8268 74.32C87.1255 74.0587 87.2748 73.676 87.2748 73.172C87.2748 72.6867 87.1255 72.3227 86.8268 72.08C86.5281 71.828 86.0895 71.702 85.5108 71.702H82.5848V74.712H85.5108Z" fill="#8F8E93"/>
</svg>
