<svg width="132" height="112" viewBox="0 0 132 112" fill="none" xmlns="http://www.w3.org/2000/svg">
<g clip-path="url(#clip0_1881_1312)">
<path d="M19.5239 63.772L4.24609 79.1104L14.7066 89.6123L29.9843 74.2739L19.5239 63.772Z" fill="#F33CC0"/>
<path d="M80.9728 14.5312L31.9208 37.7865C30.9475 38.1774 30.3636 39.1545 29.9743 40.1316L23.5508 67.6862L25.6919 69.8358L80.9728 14.5312Z" fill="#F33CC0"/>
<path d="M0.970703 79.0207L33.2827 111.461L51.7746 92.8957L49.0495 90.1598L72.4075 84.6879C74.1594 84.2971 75.522 83.1246 76.3006 81.5612L110.948 8.864C111.922 6.71435 111.532 3.97843 109.781 2.41505C108.613 1.24252 107.25 0.65625 105.693 0.65625C104.914 0.65625 103.941 0.851673 103.162 1.24252L30.9469 35.8323C29.3897 36.614 28.2218 37.982 27.8325 39.7408L22.3823 63.1915L19.6572 60.4555L0.970703 79.0207ZM33.2827 105.012L7.58883 79.0207L19.6572 66.9045L45.5457 92.8957L33.2827 105.012ZM32.3095 40.7179C32.3095 40.327 32.6988 40.1316 32.8934 39.9362L101.8 7.10519L68.3199 40.5224C66.1787 39.5453 63.4536 40.1316 61.7018 41.8904C59.3659 44.2355 59.3659 48.1439 61.7018 50.489C64.0376 52.8341 67.9306 52.8341 70.2664 50.489C72.0182 48.7302 72.4075 45.9943 71.6289 43.8446L105.109 10.232L72.4075 79.4115C72.2129 79.8024 72.0182 79.9978 71.6289 79.9978L45.3511 86.2513L26.0807 67.0999L32.3095 40.7179Z" fill="#4349FF"/>
<path d="M112.784 58.3633H119.207V51.9143H112.784V58.3633Z" fill="white"/>
<path d="M102.969 79.9978C104.137 93.2865 115.621 101.299 116.205 101.69C117.178 102.471 118.735 102.081 119.319 101.103C120.098 100.126 119.709 98.5629 118.735 97.9767C118.541 97.9767 108.614 90.9414 107.64 79.8024C107.056 73.3534 109.587 66.7091 115.232 59.8693C115.426 59.6738 115.621 59.6738 115.816 59.6738H119.709C120.098 59.6738 120.487 59.283 120.487 58.8922V54.3974C120.487 54.202 120.487 54.0066 120.682 53.8112C128.663 45.408 132.556 36.4186 131.972 27.4291C131.193 12.7724 119.319 3.39215 118.93 3.00131C118.541 2.61046 117.957 2.41504 117.567 2.41504C116.789 2.41504 116.205 2.80588 115.816 3.39215C115.037 4.36926 115.232 5.93264 116.205 6.71433C116.4 6.71433 126.911 15.3129 127.495 27.82C127.884 35.4414 124.575 43.0629 117.567 50.6844C117.373 50.8798 117.178 50.8798 116.983 50.8798H112.701C112.312 50.8798 111.923 51.2707 111.923 51.6615V56.5471C111.923 56.7425 111.923 56.9379 111.728 56.9379C105.11 64.5594 102.19 72.3763 102.969 79.9978ZM114.842 53.0295H117.373C117.762 53.0295 118.151 53.4203 118.151 53.8112V56.3517C118.151 56.7425 117.762 57.1334 117.373 57.1334H114.842C114.453 57.1334 114.064 56.7425 114.064 56.3517V53.8112C114.064 53.4203 114.258 53.0295 114.842 53.0295Z" fill="#4349FF"/>
</g>
<defs>
<clipPath id="clip0_1881_1312">
<rect width="131" height="111" fill="white" transform="translate(0.970703 0.65625)"/>
</clipPath>
</defs>
</svg>
