<svg width="203" height="47" viewBox="0 0 203 47" fill="none" xmlns="http://www.w3.org/2000/svg">
<g filter="url(#filter0_d_2233_1319)">
<g clip-path="url(#clip0_2233_1319)">
<rect x="1.75586" y="1.83838" width="44" height="44" rx="12" fill="white" fill-opacity="0.07" shape-rendering="crispEdges"/>
<path opacity="0.8" d="M14.8927 10.5066C15.5624 10.645 16.0958 11.095 16.4271 11.6895L17.4828 13.5833C17.8716 14.2808 18.1988 14.8678 18.4125 15.3781C18.6392 15.9193 18.7738 16.4531 18.7123 17.0433C18.6507 17.6334 18.4088 18.1279 18.0754 18.6108C17.761 19.066 17.3197 19.5729 16.7953 20.1752L15.2436 21.9576C14.9655 22.2769 14.8265 22.4366 14.8138 22.6362C14.8011 22.8358 14.915 23.0064 15.1429 23.3473C17.0854 26.2535 19.7033 28.8723 22.6118 30.8164C22.9529 31.0444 23.1233 31.1583 23.3229 31.1455C23.5225 31.1329 23.6823 30.9938 24.0016 30.7157L25.7841 29.164C26.3864 28.6396 26.8933 28.1983 27.3485 27.884C27.8313 27.5505 28.3259 27.3085 28.916 27.2471C29.5062 27.1855 30.04 27.3201 30.5813 27.5468C31.0915 27.7605 31.6785 28.0877 32.3759 28.4764L34.2698 29.5321C34.8643 29.8635 35.3143 30.3969 35.4527 31.0666C35.5925 31.7433 35.3863 32.4235 34.9306 32.9826C33.2773 35.0109 30.6285 36.3025 27.8498 35.742C26.1419 35.3974 24.4566 34.8234 22.4183 33.6544C18.3229 31.3057 14.6509 27.6316 12.3049 23.541C11.1359 21.5027 10.5619 19.8175 10.2173 18.1094C9.65679 15.3307 10.9483 12.6819 12.9768 11.0287C13.5358 10.573 14.216 10.3667 14.8927 10.5066Z" fill="#EC009D"/>
<g filter="url(#filter1_f_2233_1319)">
<circle cx="25.7227" cy="24.8052" r="6" fill="#980884"/>
</g>
</g>
</g>
<path d="M62.8745 17.3384V7.15656H66.5037C67.2959 7.15656 67.9521 7.30074 68.4725 7.58909C68.9928 7.87744 69.3823 8.27185 69.6408 8.77233C69.8993 9.26949 70.0286 9.82962 70.0286 10.4527C70.0286 11.0791 69.8977 11.6426 69.6358 12.1431C69.3773 12.6402 68.9862 13.0346 68.4625 13.3263C67.9422 13.6147 67.2876 13.7588 66.4988 13.7588H64.003V12.4563H66.3596C66.86 12.4563 67.266 12.3701 67.5776 12.1978C67.8891 12.0221 68.1178 11.7835 68.2637 11.4818C68.4095 11.1802 68.4824 10.8372 68.4824 10.4527C68.4824 10.0683 68.4095 9.72687 68.2637 9.42858C68.1178 9.13028 67.8875 8.89662 67.5726 8.72758C67.2611 8.55855 66.8501 8.47403 66.3397 8.47403H64.4107V17.3384H62.8745ZM73.1967 12.8043V17.3384H71.7102V7.15656H73.1768V10.9449H73.2713C73.4503 10.5339 73.7237 10.2075 74.0916 9.96551C74.4595 9.72356 74.9401 9.60258 75.5334 9.60258C76.0571 9.60258 76.5144 9.7103 76.9055 9.92574C77.3 10.1412 77.6049 10.4627 77.8203 10.8902C78.0391 11.3145 78.1484 11.8448 78.1484 12.4811V17.3384H76.6619V12.6601C76.6619 12.1 76.5178 11.6658 76.2294 11.3576C75.9411 11.046 75.54 10.8902 75.0263 10.8902C74.675 10.8902 74.3601 10.9648 74.0817 11.1139C73.8066 11.2631 73.5895 11.4818 73.4304 11.7702C73.2746 12.0552 73.1967 12.3999 73.1967 12.8043ZM83.3487 17.4925C82.6328 17.4925 82.008 17.3284 81.4744 17.0003C80.9408 16.6722 80.5265 16.2131 80.2315 15.6232C79.9366 15.0332 79.7891 14.3438 79.7891 13.555C79.7891 12.7629 79.9366 12.0701 80.2315 11.4769C80.5265 10.8836 80.9408 10.4229 81.4744 10.0948C82.008 9.76665 82.6328 9.60258 83.3487 9.60258C84.0646 9.60258 84.6894 9.76665 85.223 10.0948C85.7566 10.4229 86.1709 10.8836 86.4659 11.4769C86.7609 12.0701 86.9084 12.7629 86.9084 13.555C86.9084 14.3438 86.7609 15.0332 86.4659 15.6232C86.1709 16.2131 85.7566 16.6722 85.223 17.0003C84.6894 17.3284 84.0646 17.4925 83.3487 17.4925ZM83.3537 16.2446C83.8177 16.2446 84.2022 16.122 84.5071 15.8767C84.812 15.6315 85.0374 15.305 85.1832 14.8973C85.3324 14.4897 85.407 14.0406 85.407 13.55C85.407 13.0628 85.3324 12.6154 85.1832 12.2077C85.0374 11.7967 84.812 11.4669 84.5071 11.2184C84.2022 10.9698 83.8177 10.8455 83.3537 10.8455C82.8864 10.8455 82.4986 10.9698 82.1903 11.2184C81.8854 11.4669 81.6584 11.7967 81.5092 12.2077C81.3634 12.6154 81.2905 13.0628 81.2905 13.55C81.2905 14.0406 81.3634 14.4897 81.5092 14.8973C81.6584 15.305 81.8854 15.6315 82.1903 15.8767C82.4986 16.122 82.8864 16.2446 83.3537 16.2446ZM90.0542 12.8043V17.3384H88.5676V9.70202H89.9945V10.9449H90.089C90.2646 10.5406 90.5397 10.2157 90.9142 9.97048C91.2921 9.72522 91.7677 9.60258 92.3411 9.60258C92.8614 9.60258 93.3172 9.71196 93.7083 9.93071C94.0994 10.1461 94.4026 10.4676 94.6181 10.8952C94.8335 11.3228 94.9412 11.8514 94.9412 12.4811V17.3384H93.4547V12.6601C93.4547 12.1066 93.3105 11.6741 93.0222 11.3625C92.7338 11.0477 92.3378 10.8902 91.834 10.8902C91.4893 10.8902 91.1827 10.9648 90.9142 11.1139C90.6491 11.2631 90.4386 11.4818 90.2828 11.7702C90.1304 12.0552 90.0542 12.3999 90.0542 12.8043ZM100.226 17.4925C99.4737 17.4925 98.8257 17.3318 98.2821 17.0103C97.7419 16.6854 97.3243 16.2297 97.0293 15.6431C96.7376 15.0531 96.5918 14.3621 96.5918 13.5699C96.5918 12.7877 96.7376 12.0983 97.0293 11.5017C97.3243 10.9051 97.7353 10.4395 98.2623 10.1047C98.7926 9.76996 99.4123 9.60258 100.122 9.60258C100.552 9.60258 100.97 9.67384 101.374 9.81636C101.779 9.95888 102.142 10.1826 102.463 10.4875C102.785 10.7925 103.038 11.1885 103.224 11.6757C103.41 12.1596 103.502 12.7479 103.502 13.4407V13.9676H97.432V12.854H102.046C102.046 12.4629 101.966 12.1166 101.807 11.8149C101.648 11.51 101.424 11.2697 101.136 11.0941C100.851 10.9184 100.516 10.8306 100.132 10.8306C99.714 10.8306 99.3494 10.9333 99.0378 11.1388C98.7296 11.341 98.4909 11.6061 98.3219 11.9343C98.1562 12.2591 98.0733 12.6121 98.0733 12.9932V13.8632C98.0733 14.3737 98.1628 14.8078 98.3418 15.1658C98.5241 15.5237 98.7776 15.7972 99.1025 15.9861C99.4273 16.1717 99.8068 16.2645 100.241 16.2645C100.523 16.2645 100.78 16.2247 101.012 16.1452C101.244 16.0623 101.444 15.9397 101.613 15.7773C101.782 15.6149 101.911 15.4144 102.001 15.1757L103.408 15.4293C103.295 15.8436 103.093 16.2065 102.801 16.5181C102.513 16.8263 102.15 17.0666 101.713 17.2389C101.278 17.408 100.783 17.4925 100.226 17.4925ZM110.343 12.8043V17.3384H108.857V9.70202H110.284V10.9449H110.378C110.554 10.5406 110.829 10.2157 111.203 9.97048C111.581 9.72522 112.057 9.60258 112.63 9.60258C113.151 9.60258 113.606 9.71196 113.997 9.93071C114.388 10.1461 114.692 10.4676 114.907 10.8952C115.123 11.3228 115.23 11.8514 115.23 12.4811V17.3384H113.744V12.6601C113.744 12.1066 113.6 11.6741 113.311 11.3625C113.023 11.0477 112.627 10.8902 112.123 10.8902C111.778 10.8902 111.472 10.9648 111.203 11.1139C110.938 11.2631 110.728 11.4818 110.572 11.7702C110.419 12.0552 110.343 12.3999 110.343 12.8043ZM122.061 14.1715V9.70202H123.553V17.3384H122.091V16.0159H122.012C121.836 16.4236 121.554 16.7633 121.166 17.0351C120.782 17.3036 120.303 17.4378 119.73 17.4378C119.239 17.4378 118.805 17.3301 118.427 17.1147C118.052 16.8959 117.758 16.5728 117.542 16.1452C117.33 15.7176 117.224 15.189 117.224 14.5593V9.70202H118.71V14.3803C118.71 14.9006 118.855 15.3149 119.143 15.6232C119.431 15.9314 119.806 16.0855 120.267 16.0855C120.545 16.0855 120.822 16.0159 121.097 15.8767C121.375 15.7375 121.606 15.5271 121.788 15.2453C121.973 14.9636 122.065 14.6057 122.061 14.1715ZM125.55 17.3384V9.70202H126.977V10.9449H127.071C127.23 10.524 127.491 10.1959 127.852 9.96054C128.213 9.7219 128.646 9.60258 129.15 9.60258C129.66 9.60258 130.087 9.7219 130.432 9.96054C130.78 10.1992 131.037 10.5273 131.203 10.9449H131.282C131.465 10.5372 131.755 10.2124 132.152 9.97048C132.55 9.72522 133.024 9.60258 133.574 9.60258C134.267 9.60258 134.832 9.81968 135.27 10.2539C135.71 10.688 135.931 11.3426 135.931 12.2176V17.3384H134.444V12.3568C134.444 11.8398 134.303 11.4653 134.022 11.2333C133.74 11.0013 133.404 10.8853 133.012 10.8853C132.529 10.8853 132.152 11.0344 131.884 11.3327C131.615 11.6277 131.481 12.0072 131.481 12.4712V17.3384H130V12.2624C130 11.8481 129.87 11.515 129.612 11.2631C129.353 11.0112 129.017 10.8853 128.603 10.8853C128.321 10.8853 128.061 10.9598 127.822 11.109C127.587 11.2548 127.396 11.4586 127.25 11.7205C127.108 11.9823 127.037 12.2856 127.037 12.6303V17.3384H125.55ZM138.042 17.3384V7.15656H139.529V10.9399H139.618C139.705 10.7809 139.829 10.5969 139.991 10.3881C140.154 10.1793 140.379 9.997 140.667 9.84122C140.956 9.68213 141.337 9.60258 141.811 9.60258C142.427 9.60258 142.978 9.75836 143.461 10.0699C143.945 10.3815 144.325 10.8306 144.6 11.4172C144.878 12.0039 145.018 12.7098 145.018 13.5351C145.018 14.3604 144.88 15.068 144.605 15.658C144.33 16.2446 143.952 16.697 143.471 17.0152C142.991 17.3301 142.442 17.4875 141.826 17.4875C141.362 17.4875 140.982 17.4096 140.687 17.2539C140.396 17.0981 140.167 16.9158 140.001 16.707C139.836 16.4982 139.708 16.3126 139.618 16.1502H139.494V17.3384H138.042ZM139.499 13.5202C139.499 14.0571 139.577 14.5278 139.733 14.9321C139.889 15.3365 140.114 15.653 140.409 15.8817C140.704 16.1071 141.065 16.2198 141.493 16.2198C141.937 16.2198 142.308 16.1021 142.606 15.8668C142.905 15.6282 143.13 15.305 143.282 14.8973C143.438 14.4897 143.516 14.0306 143.516 13.5202C143.516 13.0164 143.44 12.564 143.287 12.163C143.138 11.7619 142.913 11.4454 142.611 11.2134C142.313 10.9814 141.94 10.8654 141.493 10.8654C141.062 10.8654 140.697 10.9764 140.399 11.1985C140.104 11.4205 139.88 11.7304 139.728 12.1282C139.575 12.5259 139.499 12.9899 139.499 13.5202ZM149.978 17.4925C149.226 17.4925 148.578 17.3318 148.034 17.0103C147.494 16.6854 147.076 16.2297 146.781 15.6431C146.49 15.0531 146.344 14.3621 146.344 13.5699C146.344 12.7877 146.49 12.0983 146.781 11.5017C147.076 10.9051 147.487 10.4395 148.014 10.1047C148.545 9.76996 149.164 9.60258 149.874 9.60258C150.304 9.60258 150.722 9.67384 151.126 9.81636C151.531 9.95888 151.894 10.1826 152.215 10.4875C152.537 10.7925 152.79 11.1885 152.976 11.6757C153.161 12.1596 153.254 12.7479 153.254 13.4407V13.9676H147.184V12.854H151.798C151.798 12.4629 151.718 12.1166 151.559 11.8149C151.4 11.51 151.176 11.2697 150.888 11.0941C150.603 10.9184 150.268 10.8306 149.884 10.8306C149.466 10.8306 149.101 10.9333 148.79 11.1388C148.482 11.341 148.243 11.6061 148.074 11.9343C147.908 12.2591 147.825 12.6121 147.825 12.9932V13.8632C147.825 14.3737 147.915 14.8078 148.094 15.1658C148.276 15.5237 148.53 15.7972 148.854 15.9861C149.179 16.1717 149.559 16.2645 149.993 16.2645C150.275 16.2645 150.531 16.2247 150.763 16.1452C150.996 16.0623 151.196 15.9397 151.365 15.7773C151.534 15.6149 151.663 15.4144 151.753 15.1757L153.16 15.4293C153.047 15.8436 152.845 16.2065 152.553 16.5181C152.265 16.8263 151.902 17.0666 151.464 17.2389C151.03 17.408 150.535 17.4925 149.978 17.4925ZM154.904 17.3384V9.70202H156.34V10.9151H156.42C156.559 10.5041 156.804 10.1809 157.156 9.94562C157.51 9.70699 157.911 9.58767 158.359 9.58767C158.452 9.58767 158.561 9.59098 158.687 9.59761C158.816 9.60424 158.917 9.61253 158.99 9.62247V11.0443C158.931 11.0278 158.825 11.0095 158.672 10.9897C158.52 10.9665 158.367 10.9549 158.215 10.9549C157.863 10.9549 157.55 11.0294 157.275 11.1786C157.003 11.3244 156.788 11.5282 156.629 11.7901C156.47 12.0486 156.39 12.3436 156.39 12.675V17.3384H154.904ZM165.999 11.5664L164.652 11.805C164.595 11.6326 164.506 11.4686 164.383 11.3128C164.264 11.157 164.101 11.0294 163.896 10.93C163.69 10.8306 163.434 10.7809 163.125 10.7809C162.704 10.7809 162.353 10.8753 162.071 11.0642C161.79 11.2498 161.649 11.4901 161.649 11.7851C161.649 12.0403 161.743 12.2458 161.932 12.4016C162.121 12.5574 162.426 12.685 162.847 12.7844L164.06 13.0628C164.763 13.2252 165.286 13.4755 165.631 13.8135C165.976 14.1516 166.148 14.5907 166.148 15.131C166.148 15.5884 166.016 15.996 165.75 16.354C165.489 16.7086 165.122 16.9871 164.652 17.1892C164.184 17.3914 163.642 17.4925 163.026 17.4925C162.171 17.4925 161.473 17.3102 160.933 16.9456C160.393 16.5777 160.061 16.0557 159.939 15.3796L161.375 15.1608C161.465 15.5353 161.649 15.8187 161.927 16.011C162.206 16.1999 162.569 16.2943 163.016 16.2943C163.503 16.2943 163.893 16.1933 164.184 15.9911C164.476 15.7856 164.622 15.5353 164.622 15.2404C164.622 15.0017 164.532 14.8012 164.353 14.6388C164.178 14.4764 163.908 14.3538 163.543 14.2709L162.25 13.9875C161.538 13.8251 161.011 13.5666 160.669 13.212C160.331 12.8573 160.162 12.4082 160.162 11.8647C160.162 11.4139 160.288 11.0195 160.54 10.6814C160.792 10.3434 161.14 10.0799 161.584 9.89094C162.028 9.6987 162.537 9.60258 163.11 9.60258C163.936 9.60258 164.585 9.78156 165.059 10.1395C165.533 10.4942 165.846 10.9698 165.999 11.5664Z" fill="#CAC6DD"/>
<path d="M66.3184 38.3838V30.702H67.8468V38.3838H66.3184ZM63.2445 35.3043V33.7816H70.9263V35.3043H63.2445ZM77.4462 28.702V40.3384H75.6848V30.4634H75.6167L72.8326 32.2816V30.5997L75.736 28.702H77.4462ZM84.3453 34.5202C84.3453 33.096 84.5328 31.7853 84.9078 30.5884C85.2828 29.3914 85.8302 28.2872 86.5499 27.2759H88.1067C87.8264 27.6509 87.565 28.1111 87.3226 28.6566C87.0802 29.202 86.8681 29.8005 86.6863 30.452C86.5044 31.0997 86.3624 31.7721 86.2601 32.4691C86.1578 33.1622 86.1067 33.846 86.1067 34.5202C86.1067 35.4217 86.1957 36.3346 86.3738 37.2588C86.5518 38.1831 86.7923 39.041 87.0953 39.8327C87.3984 40.6244 87.7355 41.2702 88.1067 41.7702H86.5499C85.8302 40.7588 85.2828 39.6547 84.9078 38.4577C84.5328 37.2607 84.3453 35.9482 84.3453 34.5202ZM89.1309 38.0657V36.6452L94.1593 28.702H95.2786V30.7929H94.5684L90.9718 36.4861V36.577H97.8638V38.0657H89.1309ZM94.6479 40.3384V37.6338L94.6593 36.9861V28.702H96.324V40.3384H94.6479ZM103.185 40.4975C102.473 40.4975 101.833 40.3611 101.264 40.0884C100.7 39.8119 100.249 39.4331 99.9121 38.952C99.575 38.471 99.3951 37.9217 99.3723 37.3043H101.077C101.119 37.8043 101.34 38.2153 101.742 38.5372C102.143 38.8592 102.624 39.0202 103.185 39.0202C103.632 39.0202 104.028 38.9179 104.372 38.7134C104.721 38.505 104.994 38.2191 105.191 37.8554C105.391 37.4918 105.492 37.077 105.492 36.6111C105.492 36.1376 105.389 35.7153 105.185 35.3441C104.98 34.9728 104.698 34.6812 104.338 34.4691C103.982 34.2569 103.573 34.149 103.111 34.1452C102.759 34.1452 102.405 34.2058 102.048 34.327C101.692 34.4482 101.405 34.6073 101.185 34.8043L99.5769 34.5657L100.23 28.702H106.628V30.2077H101.691L101.321 33.4634H101.389C101.617 33.2437 101.918 33.06 102.293 32.9122C102.672 32.7645 103.077 32.6907 103.509 32.6907C104.217 32.6907 104.848 32.8592 105.401 33.1963C105.958 33.5335 106.395 33.9937 106.713 34.577C107.035 35.1566 107.194 35.8232 107.191 36.577C107.194 37.3308 107.024 38.0032 106.679 38.5941C106.338 39.185 105.865 39.6509 105.259 39.9918C104.656 40.3289 103.965 40.4975 103.185 40.4975ZM112.828 40.4975C112.309 40.4899 111.798 40.3952 111.294 40.2134C110.794 40.0316 110.34 39.7285 109.931 39.3043C109.521 38.88 109.194 38.31 108.948 37.5941C108.705 36.8782 108.584 35.9842 108.584 34.9122C108.584 33.8971 108.684 32.9956 108.885 32.2077C109.09 31.4198 109.383 30.755 109.766 30.2134C110.148 29.6679 110.61 29.2532 111.152 28.9691C111.694 28.685 112.302 28.5429 112.976 28.5429C113.669 28.5429 114.285 28.6793 114.823 28.952C115.36 29.2247 115.796 29.6016 116.129 30.0827C116.467 30.5638 116.681 31.1111 116.771 31.7247H115.039C114.921 31.2399 114.688 30.8441 114.34 30.5372C113.991 30.2304 113.537 30.077 112.976 30.077C112.124 30.077 111.459 30.4482 110.982 31.1907C110.508 31.9331 110.27 32.9653 110.266 34.2872H110.351C110.552 33.9577 110.798 33.6774 111.09 33.4463C111.385 33.2115 111.715 33.0316 112.078 32.9066C112.446 32.7778 112.832 32.7134 113.237 32.7134C113.912 32.7134 114.521 32.8782 115.067 33.2077C115.616 33.5335 116.054 33.9842 116.379 34.56C116.705 35.1357 116.868 35.7948 116.868 36.5372C116.868 37.2797 116.7 37.952 116.362 38.5543C116.029 39.1566 115.559 39.6338 114.953 39.9861C114.347 40.3346 113.639 40.505 112.828 40.4975ZM112.823 39.0202C113.27 39.0202 113.669 38.9103 114.021 38.6907C114.374 38.471 114.652 38.1755 114.857 37.8043C115.061 37.4331 115.164 37.0183 115.164 36.56C115.164 36.113 115.063 35.7058 114.862 35.3384C114.665 34.971 114.393 34.6793 114.044 34.4634C113.7 34.2475 113.306 34.1395 112.862 34.1395C112.525 34.1395 112.213 34.2039 111.925 34.3327C111.641 34.4615 111.391 34.6395 111.175 34.8668C110.959 35.0941 110.789 35.3554 110.664 35.6509C110.542 35.9425 110.482 36.2513 110.482 36.577C110.482 37.0126 110.582 37.416 110.783 37.7872C110.987 38.1585 111.266 38.4577 111.618 38.685C111.974 38.9085 112.376 39.0202 112.823 39.0202ZM121.727 34.5202C121.727 35.9482 121.54 37.2607 121.165 38.4577C120.79 39.6547 120.243 40.7588 119.523 41.7702H117.966C118.246 41.3952 118.508 40.935 118.75 40.3895C118.993 39.8441 119.205 39.2475 119.387 38.5997C119.568 37.9482 119.71 37.274 119.813 36.577C119.915 35.88 119.966 35.1944 119.966 34.5202C119.966 33.6225 119.877 32.7115 119.699 31.7872C119.521 30.863 119.28 30.005 118.977 29.2134C118.674 28.4217 118.337 27.7759 117.966 27.2759H119.523C120.243 28.2872 120.79 29.3914 121.165 30.5884C121.54 31.7853 121.727 33.096 121.727 34.5202ZM127.475 38.0657V36.6452L132.503 28.702H133.622V30.7929H132.912L129.316 36.4861V36.577H136.208V38.0657H127.475ZM132.992 40.3384V37.6338L133.003 36.9861V28.702H134.668V40.3384H132.992ZM141.529 40.4975C140.816 40.4975 140.176 40.3611 139.608 40.0884C139.044 39.8119 138.593 39.4331 138.256 38.952C137.919 38.471 137.739 37.9217 137.716 37.3043H139.421C139.462 37.8043 139.684 38.2153 140.085 38.5372C140.487 38.8592 140.968 39.0202 141.529 39.0202C141.976 39.0202 142.371 38.9179 142.716 38.7134C143.065 38.505 143.337 38.2191 143.534 37.8554C143.735 37.4918 143.835 37.077 143.835 36.6111C143.835 36.1376 143.733 35.7153 143.529 35.3441C143.324 34.9728 143.042 34.6812 142.682 34.4691C142.326 34.2569 141.917 34.149 141.455 34.1452C141.102 34.1452 140.748 34.2058 140.392 34.327C140.036 34.4482 139.748 34.6073 139.529 34.8043L137.921 34.5657L138.574 28.702H144.972V30.2077H140.034L139.665 33.4634H139.733C139.96 33.2437 140.262 33.06 140.637 32.9122C141.015 32.7645 141.421 32.6907 141.852 32.6907C142.561 32.6907 143.191 32.8592 143.744 33.1963C144.301 33.5335 144.739 33.9937 145.057 34.577C145.379 35.1566 145.538 35.8232 145.534 36.577C145.538 37.3308 145.368 38.0032 145.023 38.5941C144.682 39.185 144.209 39.6509 143.602 39.9918C143 40.3289 142.309 40.4975 141.529 40.4975ZM151.161 40.4975C150.38 40.4975 149.683 40.363 149.07 40.0941C148.46 39.8251 147.977 39.452 147.621 38.9747C147.269 38.4937 147.079 37.9369 147.053 37.3043H148.837C148.86 37.649 148.975 37.9482 149.183 38.202C149.396 38.452 149.672 38.6452 150.013 38.7816C150.354 38.9179 150.733 38.9861 151.149 38.9861C151.608 38.9861 152.013 38.9066 152.365 38.7475C152.721 38.5884 153 38.3668 153.2 38.0827C153.401 37.7948 153.502 37.4634 153.502 37.0884C153.502 36.6982 153.401 36.3554 153.2 36.06C153.003 35.7607 152.714 35.5259 152.331 35.3554C151.952 35.185 151.494 35.0997 150.956 35.0997H149.973V33.6679H150.956C151.388 33.6679 151.767 33.5903 152.093 33.435C152.422 33.2797 152.68 33.0638 152.865 32.7872C153.051 32.5069 153.144 32.1793 153.144 31.8043C153.144 31.4444 153.062 31.1319 152.899 30.8668C152.74 30.5978 152.513 30.3876 152.218 30.2361C151.926 30.0846 151.581 30.0088 151.183 30.0088C150.805 30.0088 150.45 30.0789 150.121 30.2191C149.795 30.3554 149.53 30.5524 149.325 30.81C149.121 31.0638 149.011 31.3687 148.996 31.7247H147.297C147.316 31.096 147.502 30.5429 147.854 30.0657C148.21 29.5884 148.68 29.2153 149.263 28.9463C149.846 28.6774 150.494 28.5429 151.206 28.5429C151.952 28.5429 152.596 28.6888 153.138 28.9804C153.683 29.2683 154.104 29.6528 154.399 30.1338C154.699 30.6149 154.846 31.1414 154.843 31.7134C154.846 32.3649 154.664 32.9179 154.297 33.3725C153.933 33.827 153.449 34.1319 152.843 34.2872V34.3782C153.615 34.4956 154.214 34.8024 154.638 35.2986C155.066 35.7948 155.278 36.4103 155.274 37.1452C155.278 37.7853 155.1 38.3592 154.74 38.8668C154.384 39.3744 153.897 39.774 153.28 40.0657C152.663 40.3535 151.956 40.4975 151.161 40.4975ZM162.087 33.7816V35.2588H156.928V33.7816H162.087ZM167.723 40.4975C166.943 40.4975 166.246 40.363 165.632 40.0941C165.022 39.8251 164.539 39.452 164.183 38.9747C163.831 38.4937 163.642 37.9369 163.615 37.3043H165.399C165.422 37.649 165.538 37.9482 165.746 38.202C165.958 38.452 166.235 38.6452 166.575 38.7816C166.916 38.9179 167.295 38.9861 167.712 38.9861C168.17 38.9861 168.575 38.9066 168.928 38.7475C169.284 38.5884 169.562 38.3668 169.763 38.0827C169.964 37.7948 170.064 37.4634 170.064 37.0884C170.064 36.6982 169.964 36.3554 169.763 36.06C169.566 35.7607 169.276 35.5259 168.894 35.3554C168.515 35.185 168.057 35.0997 167.519 35.0997H166.536V33.6679H167.519C167.95 33.6679 168.329 33.5903 168.655 33.435C168.985 33.2797 169.242 33.0638 169.428 32.7872C169.613 32.5069 169.706 32.1793 169.706 31.8043C169.706 31.4444 169.625 31.1319 169.462 30.8668C169.303 30.5978 169.075 30.3876 168.78 30.2361C168.488 30.0846 168.144 30.0088 167.746 30.0088C167.367 30.0088 167.013 30.0789 166.683 30.2191C166.358 30.3554 166.093 30.5524 165.888 30.81C165.683 31.0638 165.574 31.3687 165.558 31.7247H163.86C163.878 31.096 164.064 30.5429 164.416 30.0657C164.772 29.5884 165.242 29.2153 165.825 28.9463C166.409 28.6774 167.057 28.5429 167.769 28.5429C168.515 28.5429 169.159 28.6888 169.7 28.9804C170.246 29.2683 170.666 29.6528 170.962 30.1338C171.261 30.6149 171.409 31.1414 171.405 31.7134C171.409 32.3649 171.227 32.9179 170.86 33.3725C170.496 33.827 170.011 34.1319 169.405 34.2872V34.3782C170.178 34.4956 170.776 34.8024 171.2 35.2986C171.628 35.7948 171.841 36.4103 171.837 37.1452C171.841 37.7853 171.663 38.3592 171.303 38.8668C170.947 39.3744 170.46 39.774 169.843 40.0657C169.225 40.3535 168.519 40.4975 167.723 40.4975ZM173.24 38.0657V36.6452L178.269 28.702H179.388V30.7929H178.678L175.081 36.4861V36.577H181.973V38.0657H173.24ZM178.757 40.3384V37.6338L178.769 36.9861V28.702H180.433V40.3384H178.757ZM187.294 40.4975C186.582 40.4975 185.942 40.3611 185.374 40.0884C184.809 39.8119 184.359 39.4331 184.021 38.952C183.684 38.471 183.504 37.9217 183.482 37.3043H185.186C185.228 37.8043 185.45 38.2153 185.851 38.5372C186.253 38.8592 186.734 39.0202 187.294 39.0202C187.741 39.0202 188.137 38.9179 188.482 38.7134C188.83 38.505 189.103 38.2191 189.3 37.8554C189.501 37.4918 189.601 37.077 189.601 36.6111C189.601 36.1376 189.499 35.7153 189.294 35.3441C189.09 34.9728 188.807 34.6812 188.448 34.4691C188.092 34.2569 187.682 34.149 187.22 34.1452C186.868 34.1452 186.514 34.2058 186.158 34.327C185.802 34.4482 185.514 34.6073 185.294 34.8043L183.686 34.5657L184.34 28.702H190.737V30.2077H185.8L185.431 33.4634H185.499C185.726 33.2437 186.027 33.06 186.402 32.9122C186.781 32.7645 187.186 32.6907 187.618 32.6907C188.326 32.6907 188.957 32.8592 189.51 33.1963C190.067 33.5335 190.504 33.9937 190.823 34.577C191.145 35.1566 191.304 35.8232 191.3 36.577C191.304 37.3308 191.133 38.0032 190.789 38.5941C190.448 39.185 189.974 39.6509 189.368 39.9918C188.766 40.3289 188.075 40.4975 187.294 40.4975ZM196.938 40.4975C196.419 40.4899 195.907 40.3952 195.404 40.2134C194.904 40.0316 194.449 39.7285 194.04 39.3043C193.631 38.88 193.303 38.31 193.057 37.5941C192.815 36.8782 192.693 35.9842 192.693 34.9122C192.693 33.8971 192.794 32.9956 192.994 32.2077C193.199 31.4198 193.493 30.755 193.875 30.2134C194.258 29.6679 194.72 29.2532 195.262 28.9691C195.803 28.685 196.411 28.5429 197.085 28.5429C197.779 28.5429 198.394 28.6793 198.932 28.952C199.47 29.2247 199.905 29.6016 200.239 30.0827C200.576 30.5638 200.79 31.1111 200.881 31.7247H199.148C199.03 31.2399 198.798 30.8441 198.449 30.5372C198.101 30.2304 197.646 30.077 197.085 30.077C196.233 30.077 195.568 30.4482 195.091 31.1907C194.618 31.9331 194.379 32.9653 194.375 34.2872H194.46C194.661 33.9577 194.907 33.6774 195.199 33.4463C195.494 33.2115 195.824 33.0316 196.188 32.9066C196.555 32.7778 196.941 32.7134 197.347 32.7134C198.021 32.7134 198.631 32.8782 199.176 33.2077C199.726 33.5335 200.163 33.9842 200.489 34.56C200.815 35.1357 200.977 35.7948 200.977 36.5372C200.977 37.2797 200.809 37.952 200.472 38.5543C200.138 39.1566 199.669 39.6338 199.063 39.9861C198.457 40.3346 197.748 40.505 196.938 40.4975ZM196.932 39.0202C197.379 39.0202 197.779 38.9103 198.131 38.6907C198.483 38.471 198.762 38.1755 198.966 37.8043C199.171 37.4331 199.273 37.0183 199.273 36.56C199.273 36.113 199.173 35.7058 198.972 35.3384C198.775 34.971 198.502 34.6793 198.154 34.4634C197.809 34.2475 197.415 34.1395 196.972 34.1395C196.635 34.1395 196.322 34.2039 196.034 34.3327C195.75 34.4615 195.5 34.6395 195.284 34.8668C195.068 35.0941 194.898 35.3554 194.773 35.6509C194.652 35.9425 194.591 36.2513 194.591 36.577C194.591 37.0126 194.691 37.416 194.892 37.7872C195.097 38.1585 195.375 38.4577 195.727 38.685C196.084 38.9085 196.485 39.0202 196.932 39.0202Z" fill="#CAC6DD"/>
<defs>
<filter id="filter0_d_2233_1319" x="0.755859" y="0.838379" width="46" height="46" filterUnits="userSpaceOnUse" color-interpolation-filters="sRGB">
<feFlood flood-opacity="0" result="BackgroundImageFix"/>
<feColorMatrix in="SourceAlpha" type="matrix" values="0 0 0 0 0 0 0 0 0 0 0 0 0 0 0 0 0 0 127 0" result="hardAlpha"/>
<feMorphology radius="1" operator="dilate" in="SourceAlpha" result="effect1_dropShadow_2233_1319"/>
<feOffset/>
<feComposite in2="hardAlpha" operator="out"/>
<feColorMatrix type="matrix" values="0 0 0 0 0.176471 0 0 0 0 0.180392 0 0 0 0 0.282353 0 0 0 1 0"/>
<feBlend mode="normal" in2="BackgroundImageFix" result="effect1_dropShadow_2233_1319"/>
<feBlend mode="normal" in="SourceGraphic" in2="effect1_dropShadow_2233_1319" result="shape"/>
</filter>
<filter id="filter1_f_2233_1319" x="2.12266" y="1.20518" width="47.2" height="47.2" filterUnits="userSpaceOnUse" color-interpolation-filters="sRGB">
<feFlood flood-opacity="0" result="BackgroundImageFix"/>
<feBlend mode="normal" in="SourceGraphic" in2="BackgroundImageFix" result="shape"/>
<feGaussianBlur stdDeviation="8.8" result="effect1_foregroundBlur_2233_1319"/>
</filter>
<clipPath id="clip0_2233_1319">
<rect x="1.75586" y="1.83838" width="44" height="44" rx="12" fill="white"/>
</clipPath>
</defs>
</svg>
