<svg width="280" height="308" viewBox="0 0 280 308" fill="none" xmlns="http://www.w3.org/2000/svg">
<g clip-path="url(#clip0_2164_11073)">
<path d="M153.783 39.6939L227.176 39.9134C232.198 39.9271 236.258 44.0071 236.237 49.0129L236.189 64.2291C236.176 69.2418 232.088 73.2944 227.073 73.2739L169.357 73.0956L155.136 85.2397L158.18 73.0613L153.673 73.0476C148.651 73.0339 144.591 68.9538 144.611 63.948L144.659 48.7318C144.673 43.726 148.761 39.6734 153.783 39.6939Z" fill="#B9D2EE"/>
<path d="M155.136 85.6583C155.061 85.6583 154.985 85.6377 154.917 85.5965C154.765 85.5005 154.69 85.3223 154.731 85.144L157.651 73.4798L153.673 73.4661C151.131 73.4592 148.754 72.4649 146.961 70.6683C145.175 68.8717 144.192 66.4854 144.199 63.9551L144.247 48.7389C144.254 46.2017 145.25 43.8291 147.05 42.0393C148.843 40.2633 151.22 39.2827 153.749 39.2827C153.756 39.2827 153.769 39.2827 153.776 39.2827L227.169 39.5021C229.711 39.509 232.088 40.5033 233.881 42.2999C235.667 44.0965 236.65 46.4828 236.643 49.0131L236.595 64.2294C236.588 66.7666 235.592 69.1392 233.792 70.9289C231.999 72.7049 229.622 73.6855 227.093 73.6855C227.087 73.6855 227.073 73.6855 227.066 73.6855L169.509 73.5141L155.404 85.5554C155.329 85.624 155.233 85.6583 155.136 85.6583ZM153.749 40.1056C151.44 40.1056 149.269 40.997 147.627 42.6222C145.985 44.2542 145.072 46.428 145.065 48.7389L145.017 63.9551C145.01 66.266 145.903 68.4466 147.538 70.0855C149.173 71.7243 151.351 72.6364 153.666 72.6432L158.173 72.6569C158.297 72.6569 158.42 72.7186 158.496 72.8146C158.571 72.9106 158.599 73.0478 158.571 73.1644L155.837 84.0948L169.083 72.7872C169.158 72.7255 169.254 72.6912 169.351 72.6912L227.066 72.8695C227.073 72.8695 227.087 72.8695 227.093 72.8695C229.402 72.8695 231.573 71.9781 233.215 70.3529C234.857 68.7209 235.77 66.5471 235.777 64.2362L235.825 49.02C235.832 46.7091 234.939 44.5285 233.304 42.8896C231.669 41.2507 229.491 40.3387 227.176 40.3319L153.783 40.1124C153.769 40.1056 153.762 40.1056 153.749 40.1056Z" fill="white"/>
<path d="M142.737 234.474L27.9523 234.125C20.0998 234.104 13.7519 227.727 13.7794 219.889L13.855 196.087C13.8756 188.25 20.2647 181.914 28.1172 181.941L118.376 182.215L134.871 163.228L135.853 182.27L142.895 182.291C150.748 182.311 157.096 188.688 157.068 196.526L156.993 220.328C156.979 228.159 150.59 234.495 142.737 234.474Z" fill="#1834B0"/>
<path d="M142.778 234.886C142.764 234.886 142.75 234.886 142.73 234.886L27.9446 234.536C24.0355 234.522 20.3669 232.993 17.612 230.229C14.8571 227.466 13.3457 223.791 13.3595 219.889L13.435 196.087C13.4625 188.051 20.0166 181.529 28.0683 181.529C28.082 181.529 28.0957 181.529 28.1164 181.529L118.19 181.804L134.561 162.953C134.671 162.83 134.85 162.782 135.008 162.836C135.166 162.891 135.276 163.035 135.282 163.207L136.244 181.858L142.901 181.879C150.967 181.906 157.514 188.476 157.486 196.526L157.411 220.328C157.397 224.229 155.865 227.891 153.096 230.641C150.335 233.377 146.673 234.886 142.778 234.886ZM28.0614 182.352C20.47 182.352 14.2801 188.51 14.2526 196.094L14.177 219.896C14.1633 223.578 15.5922 227.041 18.1891 229.653C20.786 232.266 24.2485 233.706 27.9377 233.72L142.723 234.07C142.736 234.07 142.75 234.07 142.764 234.07C146.439 234.07 149.888 232.65 152.499 230.065C155.116 227.473 156.559 224.017 156.573 220.334L156.648 196.533C156.669 188.935 150.5 182.736 142.881 182.709L135.839 182.688C135.619 182.688 135.44 182.517 135.427 182.297L134.492 164.276L118.671 182.496C118.595 182.585 118.478 182.64 118.361 182.64L28.1026 182.366C28.0957 182.352 28.0751 182.352 28.0614 182.352Z" fill="white"/>
<path d="M212.386 263.069L236.452 263.144C239.537 263.151 242.044 260.669 242.051 257.59L242.127 233.644C242.133 230.565 239.646 228.063 236.562 228.056L221.647 228.008L209.72 216.556L212.503 227.98C209.418 227.973 206.911 230.456 206.904 233.535L206.828 257.48C206.814 260.559 209.301 263.062 212.386 263.069Z" fill="#1834B0"/>
<path d="M236.466 263.556C236.459 263.556 236.452 263.556 236.445 263.556L212.379 263.481C209.075 263.474 206.395 260.779 206.402 257.48L206.478 233.535C206.485 230.408 208.91 227.843 211.967 227.59L209.302 216.652C209.26 216.474 209.336 216.289 209.494 216.2C209.652 216.111 209.851 216.131 209.982 216.262L221.791 227.597L236.541 227.645C239.846 227.651 242.525 230.346 242.518 233.645L242.443 257.59C242.436 259.188 241.811 260.69 240.677 261.814C239.557 262.939 238.06 263.556 236.466 263.556ZM212.386 262.658L236.452 262.733C236.459 262.733 236.466 262.733 236.466 262.733C237.84 262.733 239.131 262.198 240.107 261.231C241.089 260.258 241.625 258.968 241.632 257.59L241.708 233.645C241.714 230.799 239.406 228.474 236.555 228.467L221.64 228.419C221.537 228.419 221.434 228.378 221.358 228.303L210.449 217.832L212.895 227.885C212.922 228.008 212.895 228.138 212.819 228.234C212.743 228.33 212.62 228.392 212.496 228.392C212.489 228.392 212.482 228.392 212.482 228.392C209.638 228.392 207.323 230.696 207.316 233.535L207.241 257.48C207.227 260.326 209.535 262.651 212.386 262.658Z" fill="#5182C3"/>
<path d="M259.574 97.8639C259.519 97.8639 259.457 97.8502 259.402 97.8297C251.447 94.2159 241.65 90.3278 230.287 86.2821C230.074 86.2066 229.964 85.9735 230.039 85.7541C230.115 85.5415 230.349 85.4318 230.568 85.5072C241.952 89.5667 251.769 93.4616 259.746 97.0822C259.952 97.1782 260.041 97.4182 259.952 97.6239C259.883 97.7748 259.732 97.8639 259.574 97.8639Z" fill="#5182C3"/>
<path opacity="0.3" d="M120.049 138.404C55.7593 122.825 4.33689 116.873 2.17969 125.204L20.6876 53.834C22.8448 45.5024 74.2672 51.4614 138.557 67.0342L120.049 138.404Z" fill="#E73DC4"/>
<path d="M120.05 138.816C120.016 138.816 119.988 138.809 119.954 138.802C88.7021 131.232 59.5181 125.705 37.7674 123.243C27.057 122.029 18.5519 121.604 12.4925 121.967C4.89421 122.427 2.90877 124.031 2.579 125.3C2.52404 125.519 2.29733 125.65 2.07749 125.595C1.85765 125.54 1.72712 125.314 1.78208 125.094L20.29 53.7309C20.5923 52.5652 21.7052 51.6395 23.6014 50.9812C25.3533 50.3709 27.8265 49.9663 30.9524 49.7812C37.0598 49.4109 45.6131 49.8429 56.3716 51.0635C78.1497 53.5321 107.375 59.059 138.654 66.6363C138.764 66.6637 138.854 66.7323 138.908 66.8214C138.963 66.9174 138.984 67.0271 138.957 67.1369L120.449 138.5C120.401 138.692 120.236 138.816 120.05 138.816ZM17.0611 121.021C22.619 121.021 29.5852 121.494 37.8636 122.427C59.5524 124.882 88.6196 130.374 119.755 137.91L138.057 67.3357C106.963 59.8133 77.9367 54.3275 56.2823 51.8795C45.5718 50.6658 37.0667 50.2406 31.0073 50.604C23.409 51.0635 21.4236 52.6681 21.0938 53.9367L3.08739 123.339C3.60951 122.962 4.27591 122.633 5.09345 122.345C6.84531 121.734 9.31853 121.33 12.4444 121.145C13.8528 121.062 15.3917 121.021 17.0611 121.021Z" fill="#383938"/>
<path opacity="0.3" d="M200.807 161.555C238.09 174.213 262.239 186.021 260.693 191.994L279.201 120.631C280.747 114.658 256.605 102.85 219.315 90.1914L200.807 161.555Z" fill="#E73DC4"/>
<path d="M260.693 192.405C260.659 192.405 260.624 192.398 260.59 192.391C260.37 192.337 260.239 192.11 260.294 191.891C260.624 190.615 259.477 188.86 256.969 186.817C254.4 184.718 250.415 182.304 245.125 179.651C234.655 174.384 219.28 168.261 200.676 161.945C200.47 161.877 200.353 161.664 200.408 161.452L218.916 90.0883C218.944 89.9785 219.019 89.8825 219.122 89.8277C219.225 89.7728 219.342 89.766 219.452 89.8003C238.097 96.1295 253.507 102.267 264.011 107.547C269.349 110.235 273.389 112.676 276.006 114.809C278.857 117.133 280.032 119.067 279.606 120.726L261.098 192.09C261.043 192.282 260.871 192.405 260.693 192.405ZM201.301 161.287C219.782 167.575 235.061 173.664 245.496 178.91C250.834 181.598 254.874 184.039 257.491 186.172C259.175 187.543 260.274 188.785 260.803 189.902L278.795 120.514C279.125 119.238 277.978 117.483 275.47 115.439C272.901 113.341 268.916 110.927 263.626 108.274C253.232 103.048 238.015 96.9798 219.596 90.7123L201.301 161.287Z" fill="#383938"/>
<path d="M103.3 100.731C103.272 100.731 103.245 100.731 103.21 100.724C77.4339 95.1968 54.9688 91.5282 38.2402 90.1225C38.1166 90.1156 38.0066 90.047 37.9379 89.951C37.8692 89.855 37.8418 89.7248 37.8761 89.6082L45.1515 61.5483C45.1996 61.3563 45.3851 61.226 45.5843 61.2398C57.9298 62.2752 73.9439 64.6341 91.8954 68.049C92.1221 68.0901 92.2664 68.3096 92.2252 68.529C92.1839 68.7553 91.9641 68.8993 91.7443 68.8582C73.992 65.4775 58.1359 63.1392 45.866 62.0901L38.7967 89.3407C55.4291 90.7739 77.5988 94.3945 102.997 99.8323L104.529 93.846C104.584 93.6265 104.811 93.4962 105.031 93.5511C105.251 93.606 105.381 93.8322 105.326 94.0517L103.691 100.422C103.65 100.6 103.485 100.731 103.3 100.731Z" fill="#5182C3"/>
<path d="M98.9572 86.0152C98.9297 86.0152 98.9023 86.0152 98.8748 86.0083C76.3479 81.3865 56.5552 78.287 41.6334 77.0322C41.4067 77.0116 41.235 76.8127 41.2556 76.5864C41.2762 76.3602 41.4754 76.1956 41.7021 76.2093C56.6514 77.4642 76.4852 80.5774 99.0396 85.1991C99.2595 85.2471 99.4038 85.4597 99.3625 85.686C99.3213 85.878 99.1496 86.0152 98.9572 86.0152Z" fill="#5182C3"/>
<path d="M84.5436 95.2035C84.4199 95.2035 84.3031 95.1966 84.1795 95.1761C82.8192 94.9635 81.7818 93.5646 81.0055 90.904C80.3597 88.696 79.9613 85.8639 79.604 83.361C79.3567 81.5987 79.1162 79.9324 78.8277 78.6501C78.443 76.9564 78.0789 76.5244 77.9002 76.4215C77.7766 76.3529 77.385 76.3186 76.43 77.5461C75.6743 78.5198 74.8293 79.9393 73.9362 81.441C72.0813 84.5611 70.3294 87.5097 68.6669 87.8662C68.2341 87.9554 67.8287 87.8731 67.4715 87.6194C65.857 86.4811 65.3074 83.2239 64.7235 79.7747C64.1533 76.4147 63.5693 72.938 62.0167 71.5323C60.6701 70.3117 59.3442 69.8454 57.8328 70.0511C54.0405 70.5791 49.1697 75.5918 43.3507 84.9519C43.2339 85.1439 42.9797 85.2056 42.7805 85.0822C42.5881 84.9656 42.5263 84.7119 42.65 84.5131C48.6888 74.8032 53.6215 69.8043 57.7229 69.2351C59.4747 68.9883 61.0617 69.5437 62.58 70.922C64.3387 72.5197 64.9502 76.1335 65.541 79.6307C66.07 82.7645 66.6196 86.0011 67.9524 86.9405C68.1242 87.064 68.2959 87.0982 68.502 87.0571C69.8073 86.7759 71.6279 83.7176 73.2286 81.0159C74.1355 79.4936 74.9873 78.0535 75.7774 77.0318C76.1896 76.5038 77.2751 75.0981 78.3125 75.6946C79.391 76.3186 79.817 78.9655 80.4216 83.2376C80.7719 85.7131 81.1704 88.5177 81.7956 90.6709C82.462 92.9612 83.307 94.2023 84.31 94.3601C86.3985 94.6823 88.6725 90.3417 90.8709 86.1382C92.4648 83.1005 94.1067 79.9598 95.9273 77.9232C96.0784 77.7518 96.3395 77.7381 96.5112 77.889C96.683 78.0398 96.6967 78.3004 96.5456 78.4718C94.7937 80.433 93.1724 83.5325 91.5991 86.5222C89.1671 91.1577 87.0512 95.2035 84.5436 95.2035Z" fill="#5182C3"/>
<path d="M147.076 258.043C149.652 273.122 149.172 281.776 148.196 285.753C147.22 289.723 141.381 297.561 141.381 297.561C141.381 297.561 163.764 296.176 164.986 293.515C166.209 290.861 162.053 283.86 162.053 283.86L161.16 256.26L147.076 258.043Z" fill="white"/>
<path d="M141.381 297.972C141.23 297.972 141.093 297.89 141.017 297.76C140.942 297.616 140.955 297.444 141.052 297.321C141.107 297.245 146.85 289.503 147.798 285.657C148.43 283.071 149.598 275.213 146.678 258.118C146.658 258.008 146.685 257.892 146.754 257.802C146.822 257.713 146.919 257.652 147.035 257.638L161.119 255.855C161.236 255.841 161.353 255.876 161.435 255.951C161.524 256.026 161.572 256.136 161.579 256.253L162.472 283.75C162.699 284.141 163.585 285.698 164.369 287.535C165.591 290.409 165.928 292.48 165.372 293.693C165.138 294.208 164.417 294.893 160.885 295.675C158.866 296.121 156.138 296.553 152.786 296.944C147.09 297.616 141.471 297.965 141.416 297.972C141.395 297.972 141.388 297.972 141.381 297.972ZM147.551 258.392C150.409 275.343 149.234 283.229 148.588 285.842C147.764 289.181 143.697 295.044 142.226 297.081C144.026 296.957 148.327 296.628 152.676 296.114C163.125 294.88 164.451 293.673 164.609 293.337C165.536 291.321 162.816 285.958 161.696 284.066C161.662 284.004 161.641 283.935 161.641 283.867L160.762 256.719L147.551 258.392Z" fill="#383938"/>
<path d="M106.756 219.149C94.7751 225.437 85.4661 230.312 83.0067 236.744C80.5472 243.176 73.3886 243.629 68.8406 239.048C64.2926 234.468 66.5048 229.908 72.997 227.062C80.8495 223.626 103.143 200.703 103.143 200.703L106.756 219.149Z" fill="white"/>
<path d="M75.6757 242.504C73.1475 242.504 70.5781 241.386 68.5514 239.336C66.5797 237.348 65.7416 235.229 66.1263 233.206C66.3736 231.923 67.095 230.703 68.2697 229.578C69.4033 228.495 70.9422 227.521 72.8383 226.691C80.5259 223.324 102.627 200.654 102.854 200.421C102.964 200.312 103.122 200.27 103.266 200.312C103.41 200.353 103.527 200.476 103.554 200.627L107.168 219.073C107.202 219.251 107.12 219.43 106.955 219.519L106.914 219.539C95.1179 225.731 85.8021 230.614 83.3976 236.895C82.2778 239.823 80.1481 241.75 77.3932 242.333C76.823 242.449 76.2459 242.504 75.6757 242.504ZM102.888 201.553C101.322 203.144 96.6087 207.903 91.2982 212.895C82.5663 221.103 76.4657 225.992 73.1681 227.439C69.5751 229.009 67.3629 231.114 66.937 233.357C66.6003 235.126 67.3423 236.943 69.1354 238.76C71.43 241.071 74.4528 242.106 77.2214 241.524C79.6878 241.002 81.6114 239.254 82.6282 236.6C85.1289 230.072 94.4584 225.142 106.302 218.929L102.888 201.553Z" fill="#383938"/>
<path d="M180.438 160.875C143.257 162.747 136.909 165.6 124.316 174.473C111.724 183.353 78.1152 221.143 78.1152 221.143C78.1152 221.143 86.5929 232.252 96.6644 237.231C118.649 212.764 138.448 194.393 138.448 194.393C138.448 194.393 209.629 192.946 211.937 176.194C214.245 159.442 206.874 159.099 206.874 159.099L180.438 160.875Z" fill="#A9B6C5"/>
<path d="M96.6648 237.642C96.6029 237.642 96.5411 237.629 96.4793 237.601C91.2237 235.002 86.4215 230.737 83.3163 227.61C79.9568 224.23 77.8065 221.418 77.7859 221.391C77.6691 221.233 77.6759 221.014 77.8065 220.869C77.8889 220.773 86.3253 211.297 96.1907 200.853C109.45 186.823 118.828 177.833 124.076 174.137C130.033 169.941 134.883 166.8 143.051 164.647C150.732 162.624 161.559 161.41 180.411 160.457L206.84 158.681C206.854 158.681 206.874 158.681 206.888 158.681C206.964 158.681 208.688 158.784 210.261 160.67C211.312 161.931 212.047 163.687 212.446 165.888C212.947 168.652 212.913 172.135 212.35 176.236C212.061 178.348 210.722 180.316 208.372 182.099C206.283 183.683 203.343 185.157 199.626 186.48C193.409 188.695 184.918 190.54 174.393 191.973C157.389 194.284 140.434 194.75 138.627 194.791C136.971 196.334 117.852 214.28 96.9877 237.498C96.8915 237.594 96.7747 237.642 96.6648 237.642ZM78.6515 221.164C79.2629 221.939 81.1865 224.298 83.9139 227.041C86.9162 230.058 91.526 234.166 96.5686 236.723C118.237 212.634 137.968 194.277 138.167 194.092C138.242 194.023 138.339 193.982 138.442 193.982C138.62 193.975 156.427 193.591 174.283 191.164C197.737 187.975 210.618 182.778 211.532 176.133C212.762 167.198 211.189 163.097 209.657 161.232C208.393 159.696 207.06 159.525 206.874 159.511L180.473 161.287H180.466C142.838 163.186 136.717 166.245 124.564 174.809C112.686 183.182 81.6331 217.825 78.6515 221.164Z" fill="#383938"/>
<path d="M191.217 152.146C181.51 166.917 179.277 181.379 179.277 181.379C179.277 181.379 152.456 197.486 146.953 211.53C141.45 225.574 147.702 281.316 147.702 281.316C161.896 284.978 172.359 276.249 172.359 276.249C172.359 276.249 167.859 228.049 167.598 218.586C208.811 202.245 217.165 183.888 213.792 170.092C209.333 151.845 191.217 152.146 191.217 152.146Z" fill="#A9B6C5"/>
<path d="M154.723 282.626C152.333 282.626 149.949 282.324 147.599 281.714C147.434 281.673 147.311 281.529 147.29 281.364C147.276 281.227 145.717 267.238 144.851 251.713C144.343 242.593 144.171 234.728 144.336 228.351C144.542 220.341 145.298 214.629 146.569 211.386C147.84 208.135 150.347 204.508 154.023 200.62C156.943 197.52 160.611 194.243 164.919 190.869C171.61 185.63 177.821 181.79 178.892 181.132C178.995 180.535 179.353 178.588 180.15 175.687C180.211 175.468 180.438 175.337 180.658 175.399C180.878 175.461 181.008 175.687 180.946 175.906C180.012 179.294 179.676 181.426 179.676 181.447C179.655 181.57 179.586 181.673 179.483 181.735C179.414 181.776 172.709 185.822 165.42 191.52C155.809 199.036 149.557 206.01 147.331 211.681C145.105 217.365 144.528 231.196 145.669 251.665C146.466 265.949 147.847 278.93 148.073 280.987C155.163 282.742 161.271 281.309 165.166 279.787C168.841 278.347 171.28 276.564 171.919 276.07C171.589 272.498 167.426 227.637 167.179 218.6C167.172 218.428 167.275 218.27 167.44 218.209C186.257 210.748 199.599 202.307 207.087 193.132C213.167 185.685 215.283 177.97 213.38 170.194C213.325 169.975 213.462 169.749 213.682 169.694C213.902 169.639 214.129 169.776 214.184 169.995C215.098 173.733 215.098 177.532 214.184 181.289C213.16 185.486 210.989 189.641 207.726 193.646C200.183 202.89 186.82 211.379 168.01 218.867C168.347 228.858 172.716 275.741 172.757 276.214C172.771 276.351 172.716 276.482 172.613 276.571C172.503 276.66 169.893 278.813 165.496 280.541C162.913 281.556 160.247 282.207 157.575 282.482C156.633 282.571 155.672 282.626 154.723 282.626Z" fill="#383938"/>
<path d="M123.252 304.349C124.928 300.66 129.133 299.878 135.158 299.645C139.397 299.481 143.587 292.795 146.012 288.653C147.036 286.905 146.638 286.143 148.19 285.746C151.577 285.698 152.086 288.105 152.086 288.105C157.637 288.091 162.233 285.087 162.047 283.853C165.716 287.796 169.9 300.084 169.9 300.084C169.9 300.084 146.081 307.888 137.775 307.133C129.469 306.386 123.252 304.349 123.252 304.349Z" fill="#1834B0"/>
<path d="M139.032 307.6C138.565 307.6 138.132 307.579 137.741 307.545C129.483 306.791 123.183 304.761 123.121 304.74C123.011 304.706 122.922 304.624 122.874 304.514C122.826 304.404 122.826 304.288 122.874 304.178C123.712 302.333 125.203 301.072 127.436 300.31C129.243 299.693 131.551 299.371 135.137 299.234C139.438 299.069 143.951 291.348 145.655 288.441C145.978 287.892 146.15 287.453 146.294 287.069C146.61 286.253 146.837 285.663 148.087 285.348C148.121 285.341 148.149 285.334 148.183 285.334C150.086 285.307 151.151 286.027 151.708 286.63C152.072 287.021 152.271 287.419 152.381 287.693C156.682 287.597 160.254 285.725 161.346 284.45C161.594 284.162 161.642 283.983 161.635 283.922C161.607 283.743 161.704 283.565 161.862 283.49C162.026 283.414 162.219 283.449 162.342 283.579C166.032 287.542 170.112 299.453 170.284 299.961C170.319 300.064 170.312 300.18 170.264 300.276C170.216 300.372 170.126 300.448 170.023 300.482C169.961 300.502 163.978 302.457 157.053 304.295C148.781 306.496 142.735 307.6 139.032 307.6ZM123.836 304.103C125.416 304.576 130.919 306.105 137.816 306.729C145.36 307.415 166.224 300.838 169.371 299.83C168.656 297.808 165.29 288.537 162.212 284.683C162.15 284.786 162.068 284.889 161.978 284.991C161.284 285.801 159.897 286.671 158.269 287.323C156.901 287.865 154.724 288.516 152.092 288.523C151.9 288.523 151.728 288.386 151.687 288.194C151.666 288.111 151.192 286.157 148.286 286.157C148.273 286.157 148.259 286.157 148.245 286.157C147.455 286.37 147.352 286.63 147.063 287.371C146.912 287.769 146.72 288.255 146.363 288.866C143.367 293.995 139.383 299.899 135.164 300.064C129.297 300.283 125.512 301.03 123.836 304.103Z" fill="#383938"/>
<path d="M63.4679 240.426C58.5971 236.387 43.2906 231.683 41.2296 224.339C40.4189 224.469 39.6975 224.695 39.0792 225.066C36.7709 230.888 59.6551 239.637 63.0626 243.093C66.4702 246.549 69.3075 249.094 74.0341 249.992C75.3394 250.239 76.6035 249.34 77.7577 247.914C71.451 247.557 68.1602 244.321 63.4679 240.426Z" fill="#C9C9C9"/>
<path d="M74.4737 250.445C74.302 250.445 74.1302 250.431 73.9585 250.397C69.0807 249.464 66.1266 246.783 62.7672 243.382C61.7023 242.298 58.5421 240.618 54.8803 238.678C51.0194 236.627 46.6431 234.303 43.3799 231.971C39.4571 229.167 37.925 226.856 38.6945 224.915C38.7288 224.833 38.7907 224.758 38.8662 224.716C39.5051 224.339 40.254 224.079 41.1608 223.942C41.3669 223.907 41.5662 224.038 41.6211 224.236C42.2051 226.328 43.9913 228.399 47.0828 230.559C49.824 232.479 53.2246 234.221 56.2269 235.757C59.3665 237.361 62.0802 238.746 63.729 240.118C64.148 240.461 64.5534 240.803 64.9518 241.139C68.9846 244.52 72.1654 247.194 77.7782 247.51C77.9294 247.517 78.0668 247.613 78.1286 247.757C78.1904 247.901 78.1698 248.058 78.0737 248.182C76.8645 249.684 75.6554 250.445 74.4737 250.445ZM39.4227 225.347C38.9487 226.856 40.4463 228.858 43.8676 231.299C47.0828 233.597 51.4316 235.907 55.2719 237.944C58.9955 239.919 62.2107 241.626 63.3649 242.799C66.7243 246.214 69.4655 248.696 74.1234 249.581C74.989 249.745 75.9233 249.3 76.9195 248.257C71.5402 247.722 68.38 245.076 64.4297 241.757C64.0381 241.427 63.6259 241.085 63.2137 240.742C61.6336 239.432 58.8306 237.999 55.8628 236.483C52.8399 234.934 49.4118 233.185 46.6225 231.231C43.5447 229.071 41.683 226.966 40.9547 224.812C40.357 224.929 39.8555 225.107 39.4227 225.347Z" fill="#383938"/>
<path d="M72.4725 231.169C73.9839 228.467 72.8779 226.129 72.287 226.376C62.7583 230.353 48.4342 223.208 41.2344 224.339C43.2954 231.684 58.6019 236.388 63.4728 240.426C68.165 244.315 71.4489 247.558 77.7625 247.915C80.7853 244.164 83.0112 236.744 83.0112 236.744C83.0112 236.744 74.4786 232.849 72.4725 231.169Z" fill="#1834B0"/>
<path d="M77.7566 248.326C77.7497 248.326 77.7428 248.326 77.7359 248.326C71.8483 247.997 68.5713 245.24 64.4218 241.763C64.0302 241.434 63.618 241.091 63.2058 240.749C61.6257 239.439 58.8227 238.006 55.8548 236.49C52.832 234.941 49.4038 233.192 46.6146 231.238C43.365 228.961 41.4758 226.739 40.8369 224.463C40.8025 224.346 40.8231 224.23 40.885 224.127C40.9468 224.024 41.0498 223.962 41.1666 223.942C44.1276 223.475 48.2565 224.373 52.6328 225.32C59.1524 226.732 66.5378 228.337 72.13 225.999C72.4185 225.875 72.7483 225.978 73.0093 226.273C73.662 227 74.0536 228.934 72.9956 231.059C75.3314 232.78 83.0946 236.339 83.177 236.374C83.3625 236.456 83.4587 236.669 83.4037 236.867C83.3144 237.176 81.1229 244.41 78.0794 248.175C78.0039 248.271 77.8802 248.326 77.7566 248.326ZM41.7712 224.689C42.4788 226.623 44.2238 228.55 47.0817 230.559C49.8229 232.479 53.2236 234.221 56.2258 235.757C59.3654 237.361 62.0791 238.746 63.7279 240.118C64.147 240.461 64.5523 240.803 64.9508 241.139C68.9285 244.479 72.0819 247.126 77.5642 247.496C80.0718 244.266 82.0366 238.438 82.5038 236.97C80.8893 236.223 74.0261 233.014 72.2055 231.484C72.0544 231.354 72.0132 231.142 72.1094 230.97C73.1124 229.18 72.7895 227.775 72.6727 227.384C72.5628 227.027 72.4323 226.856 72.3636 226.794C66.5446 229.18 59.0631 227.555 52.4541 226.122C48.4008 225.238 44.5536 224.408 41.7712 224.689Z" fill="#383938"/>
<path d="M231.454 115.919C213.18 100.264 189.403 105.983 189.403 105.983C189.403 105.983 185.576 112.703 183.653 121.419C181.99 128.941 182.505 138.089 179.173 144.109C171.994 157.104 167.316 158.523 167.316 158.523C167.316 158.523 166.313 169.495 179.819 171.23L182.54 167.637C190.729 175.639 218.518 178.21 218.518 178.21C218.518 178.21 220.868 149.451 224.385 139.577C227.903 129.702 234.106 118.189 231.454 115.919Z" fill="#1834B0"/>
<path d="M144.604 304.61C135.817 306.132 130.754 300.53 125.718 301.565C124.64 302.237 123.808 303.129 123.252 304.349C123.252 304.349 129.469 306.379 137.775 307.14C146.081 307.895 169.9 300.091 169.9 300.091C169.9 300.091 169.549 299.056 168.958 297.492C164.733 298.898 150.499 303.588 144.604 304.61Z" fill="#C9C9C9"/>
<path d="M139.032 307.6C138.565 307.6 138.132 307.579 137.741 307.545C129.483 306.791 123.183 304.761 123.121 304.74C123.011 304.706 122.922 304.624 122.874 304.514C122.826 304.404 122.826 304.288 122.874 304.178C123.444 302.923 124.303 301.956 125.498 301.216C125.54 301.188 125.588 301.175 125.636 301.161C127.958 300.681 130.204 301.518 132.808 302.484C136.044 303.684 139.706 305.042 144.535 304.206C150.368 303.191 164.603 298.514 168.828 297.101C169.041 297.033 169.267 297.143 169.343 297.348C169.927 298.898 170.284 299.954 170.291 299.961C170.325 300.064 170.319 300.18 170.271 300.276C170.222 300.372 170.133 300.448 170.03 300.482C169.968 300.503 163.984 302.457 157.059 304.295C148.781 306.496 142.735 307.6 139.032 307.6ZM123.836 304.103C125.416 304.576 130.919 306.105 137.816 306.729C145.36 307.415 166.224 300.839 169.371 299.831C169.233 299.447 169.006 298.809 168.711 298.007C164.06 299.556 150.402 304.02 144.673 305.015C139.623 305.892 135.852 304.487 132.52 303.252C130.067 302.34 127.937 301.552 125.869 301.95C124.99 302.519 124.317 303.225 123.836 304.103Z" fill="#383938"/>
<path d="M123.224 304.925C122.702 303.485 125.979 303.554 127.627 303.801C131.076 304.322 135.116 307.579 144.493 306.66C137.397 308.128 124.364 308.066 123.224 304.925Z" fill="#5182C3"/>
<path d="M134.292 307.997C133.371 307.997 132.471 307.977 131.606 307.929C128.013 307.737 123.575 307.092 122.84 305.062C122.654 304.548 122.819 304.192 122.991 303.986C123.932 302.841 127.539 303.369 127.69 303.389C128.741 303.547 129.82 303.938 131.063 304.397C133.955 305.453 137.912 306.893 144.453 306.249C144.673 306.228 144.865 306.379 144.899 306.598C144.934 306.818 144.789 307.017 144.576 307.065C141.691 307.661 137.871 307.997 134.292 307.997ZM125.752 304.075C124.743 304.075 123.877 304.212 123.63 304.514C123.602 304.548 123.547 304.61 123.616 304.788C124.323 306.742 131.379 307.497 138.146 307.065C134.986 306.708 132.664 305.858 130.781 305.179C129.572 304.74 128.535 304.363 127.566 304.212C126.982 304.123 126.343 304.075 125.752 304.075Z" fill="#383938"/>
<path d="M215.551 164.859L209.285 202.951L258.124 204.302L263.655 170.379L215.551 164.859Z" fill="#B9D2EE"/>
<path d="M258.125 204.714C258.118 204.714 258.118 204.714 258.111 204.714L209.272 203.363C209.155 203.363 209.038 203.308 208.962 203.212C208.887 203.123 208.852 202.999 208.873 202.883L215.139 164.791C215.173 164.571 215.372 164.421 215.592 164.448L263.696 169.968C263.806 169.982 263.909 170.037 263.978 170.126C264.047 170.215 264.074 170.332 264.053 170.441L258.523 204.364C258.496 204.57 258.324 204.714 258.125 204.714ZM209.766 202.554L257.774 203.884L263.174 170.736L215.887 165.312L209.766 202.554Z" fill="#383938"/>
<path d="M231.99 193.954C226.748 196.121 223.602 201.491 220.95 201.964C217.508 202.574 219.775 204.076 222.015 204.014C224.254 203.952 228.713 202.409 228.713 202.409C228.713 202.409 228.761 206.284 229.551 208.684C230.334 211.091 233.034 209.287 233.083 208.005C233.996 211.557 236.696 210.302 236.676 208.073C238.338 211.879 240.653 209.712 240.557 207.984C242.295 210.59 244.322 208.821 245.414 204L242.426 203.911C242.426 203.911 244.123 194.894 241.031 193.365C237.94 191.842 233.543 193.317 231.99 193.954Z" fill="white"/>
<path d="M235.007 210.645C234.54 210.645 233.654 210.446 233.035 209.13C232.596 209.699 231.888 210.165 231.194 210.261C230.246 210.391 229.504 209.87 229.161 208.814C228.535 206.901 228.364 204.151 228.322 202.979C227.058 203.39 223.864 204.371 222.029 204.426C220.566 204.467 218.869 203.877 218.78 202.965C218.711 202.293 219.419 201.82 220.882 201.559C221.988 201.36 223.3 200.119 224.819 198.686C226.66 196.944 228.948 194.777 231.84 193.577C233.186 193.022 237.837 191.328 241.218 193.001C242.653 193.715 243.354 195.806 243.299 199.221C243.272 201.038 243.038 202.725 242.914 203.52L245.429 203.596C245.553 203.603 245.669 203.658 245.745 203.754C245.821 203.85 245.848 203.973 245.82 204.096C245.079 207.374 243.917 209.322 242.543 209.575C242.104 209.658 241.486 209.589 240.833 208.958C240.558 209.74 239.947 210.385 239.225 210.556C238.689 210.679 237.748 210.638 236.855 209.274C236.539 210.001 235.934 210.535 235.22 210.631C235.158 210.638 235.089 210.645 235.007 210.645ZM233.083 207.594C233.269 207.594 233.434 207.717 233.482 207.902C233.812 209.185 234.416 209.898 235.103 209.809C235.667 209.733 236.271 209.047 236.257 208.074C236.257 207.875 236.388 207.71 236.58 207.669C236.773 207.628 236.965 207.731 237.047 207.909C237.625 209.239 238.346 209.911 239.019 209.747C239.644 209.596 240.18 208.766 240.139 208.005C240.132 207.82 240.242 207.649 240.421 207.594C240.599 207.532 240.792 207.601 240.895 207.758C241.238 208.279 241.781 208.869 242.379 208.759C243.114 208.622 244.137 207.402 244.886 204.398L242.406 204.33C242.282 204.33 242.172 204.268 242.097 204.179C242.021 204.083 241.994 203.966 242.014 203.843C242.468 201.415 243.148 194.88 240.84 193.742C237.693 192.185 233.049 193.968 232.149 194.339C229.394 195.477 227.264 197.5 225.375 199.283C223.692 200.874 222.366 202.128 221.02 202.368C219.859 202.574 219.632 202.842 219.597 202.89C219.68 203.123 220.69 203.637 222.002 203.603C224.152 203.541 228.535 202.039 228.577 202.026C228.7 201.984 228.838 202.005 228.948 202.08C229.058 202.156 229.119 202.279 229.119 202.41C229.119 202.451 229.181 206.25 229.937 208.561C230.157 209.226 230.535 209.521 231.07 209.445C231.854 209.335 232.637 208.519 232.657 207.991C232.664 207.786 232.822 207.621 233.028 207.601C233.056 207.601 233.07 207.594 233.083 207.594Z" fill="#383938"/>
<path d="M232.273 203.609C232.08 205.111 233.083 208.005 233.083 208.005L232.273 203.609Z" fill="#C9C9C9"/>
<path d="M233.082 208.416C232.911 208.416 232.753 208.307 232.691 208.135C232.65 208.012 231.667 205.125 231.866 203.554C231.894 203.328 232.1 203.17 232.327 203.198C232.553 203.225 232.711 203.431 232.684 203.657C232.512 205.043 233.46 207.84 233.474 207.868C233.55 208.08 233.433 208.313 233.22 208.389C233.172 208.409 233.124 208.416 233.082 208.416Z" fill="#383938"/>
<path d="M235.551 203.719C235.406 205.728 236.67 208.08 236.67 208.08L235.551 203.719Z" fill="#C9C9C9"/>
<path d="M236.677 208.492C236.533 208.492 236.389 208.417 236.313 208.273C236.258 208.17 234.994 205.797 235.145 203.692C235.159 203.466 235.358 203.294 235.585 203.308C235.812 203.322 235.983 203.52 235.97 203.747C235.839 205.612 237.028 207.861 237.041 207.882C237.151 208.081 237.076 208.334 236.87 208.437C236.808 208.471 236.739 208.492 236.677 208.492Z" fill="#383938"/>
<path d="M239.094 203.856C239.808 206.839 240.557 207.985 240.557 207.985L239.094 203.856Z" fill="#C9C9C9"/>
<path d="M240.558 208.403C240.42 208.403 240.29 208.334 240.214 208.218C240.18 208.17 239.417 206.97 238.696 203.959C238.641 203.74 238.778 203.514 238.998 203.466C239.218 203.411 239.445 203.548 239.493 203.767C240.18 206.647 240.894 207.758 240.901 207.772C241.025 207.964 240.97 208.218 240.784 208.341C240.709 208.382 240.633 208.403 240.558 208.403Z" fill="#383938"/>
<path d="M221.995 117.208C212.762 123.592 236.903 156.932 236.903 156.932C236.903 156.932 227.615 196.464 235.357 198.926C243.1 201.388 251.117 157.632 248.143 150.075C245.161 142.505 234.457 108.596 221.995 117.208Z" fill="white"/>
<path d="M232.616 194.469C232.417 194.469 232.245 194.325 232.211 194.126C231.455 189.456 231.95 181.762 233.681 171.25C234.849 164.167 236.216 158.132 236.47 157.021C235.735 156 231.469 149.958 227.429 142.909C224.833 138.377 222.847 134.317 221.514 130.847C219.831 126.459 219.192 122.982 219.618 120.5C219.893 118.888 220.621 117.668 221.775 116.872C223.857 115.432 226.028 115.055 228.219 115.748C236.972 118.511 244.014 137.677 247.401 146.893C247.847 148.107 248.232 149.163 248.534 149.924C249.84 153.236 249.022 162.37 247.82 169.81C246.247 179.582 243.794 188.585 241.266 193.893C241.17 194.099 240.922 194.188 240.716 194.085C240.51 193.989 240.421 193.742 240.524 193.536C243.018 188.297 245.443 179.376 247.009 169.68C248.493 160.464 248.795 152.825 247.765 150.226C247.463 149.458 247.071 148.402 246.624 147.181C244.941 142.607 242.406 135.702 239.164 129.455C235.309 122.015 231.538 117.675 227.965 116.543C226 115.919 224.125 116.255 222.236 117.565C221.26 118.244 220.662 119.252 220.422 120.651C219.701 124.868 222.366 132.424 228.137 142.511C232.527 150.178 237.192 156.644 237.24 156.706C237.309 156.802 237.336 156.925 237.309 157.042C237.295 157.104 235.77 163.618 234.492 171.401C232.802 181.673 232.293 189.49 233.029 194.009C233.063 194.236 232.912 194.448 232.685 194.483C232.658 194.462 232.637 194.469 232.616 194.469Z" fill="#383938"/>
<path d="M233.29 157.694C233.668 163.941 233.469 164.345 236.176 165.024C242.132 166.512 248.521 166.032 250.939 165.045C253.358 164.064 253.419 159.038 252.382 157.81C251.345 156.583 233.132 155.074 233.29 157.694Z" fill="#E73DC4"/>
<path d="M220.792 114.425C208.68 118.464 235.02 156.576 235.02 156.576L234.986 158.085C234.986 158.085 244.528 161.555 250.814 158.537C251.206 155.726 251.137 152.379 249.523 148.21C246.905 141.387 237.795 108.761 220.792 114.425Z" fill="#1834B0"/>
<path d="M244.542 160.176C243.079 160.176 241.677 160.032 240.489 159.847C237.315 159.36 234.951 158.51 234.855 158.469C234.642 158.393 234.532 158.153 234.608 157.941C234.683 157.728 234.924 157.618 235.137 157.694C235.157 157.701 237.534 158.558 240.633 159.031C243.463 159.47 247.503 159.669 250.649 158.16C250.856 158.064 251.103 158.146 251.199 158.352C251.295 158.558 251.213 158.805 251.007 158.901C249.007 159.861 246.706 160.176 244.542 160.176Z" fill="#383938"/>
<path d="M189.296 153.723C187.792 157.94 185.662 162.569 182.543 167.63L189.296 153.723Z" fill="#5182C3"/>
<path d="M182.534 168.041C182.459 168.041 182.383 168.02 182.321 167.979C182.129 167.863 182.067 167.609 182.184 167.41C185.042 162.775 187.24 158.249 188.903 153.579C188.979 153.366 189.212 153.25 189.432 153.332C189.645 153.408 189.762 153.641 189.679 153.86C187.996 158.585 185.777 163.159 182.885 167.842C182.809 167.972 182.672 168.041 182.534 168.041Z" fill="#383938"/>
<path d="M124.646 81.0707C129.386 74.9952 155.54 110.879 155.54 110.879C155.54 110.879 194.226 103.007 197.729 109.748C204.936 123.592 160.549 126.425 150.752 120.911C136.105 112.676 121.657 84.897 124.646 81.0707Z" fill="white"/>
<path d="M167.571 123.97C160.055 123.97 153.59 122.989 150.547 121.275C143.045 117.058 136.511 108.376 133.289 103.576C128.604 96.6024 124.976 89.1417 124.056 84.568C123.692 82.7714 123.781 81.5096 124.317 80.8239C124.77 80.2479 125.388 79.9599 126.172 79.9736C127.951 80.001 130.541 81.6125 134.086 84.8971C136.834 87.4411 140.132 90.9795 143.883 95.4161C149.66 102.246 154.772 109.144 155.72 110.433C157.334 110.111 166.176 108.397 175.279 107.389C181.173 106.731 186.017 106.497 189.685 106.683C194.467 106.923 197.215 107.869 198.101 109.569C198.836 110.982 199.09 112.354 198.843 113.643C198.616 114.85 197.95 115.988 196.871 117.03C194.941 118.888 191.719 120.438 187.288 121.638C183.392 122.694 178.68 123.428 173.664 123.764C171.583 123.901 169.542 123.97 167.571 123.97ZM126.124 80.7896C125.629 80.7896 125.251 80.9679 124.969 81.3245C124.756 81.5988 124.454 82.3668 124.866 84.3965C125.766 88.8743 129.339 96.2184 133.976 103.11C139.479 111.291 145.504 117.49 150.952 120.555C154.669 122.646 163.771 123.606 173.603 122.941C184.34 122.214 192.825 119.787 196.294 116.434C198.287 114.514 198.637 112.388 197.366 109.94C196.865 108.98 195.12 107.773 189.644 107.499C186.024 107.313 181.221 107.553 175.375 108.198C165.4 109.309 155.727 111.263 155.63 111.284C155.472 111.318 155.308 111.256 155.211 111.126C155.156 111.051 149.605 103.453 143.251 95.9373C132.705 83.4777 128.136 80.8239 126.165 80.7896C126.144 80.7896 126.137 80.7896 126.124 80.7896Z" fill="#383938"/>
<path d="M155.306 104.056C149.425 101.889 149.137 101.54 147.426 103.741C143.661 108.582 141.532 114.616 141.456 117.215C141.38 119.814 145.97 121.906 147.509 121.446C149.047 121 157.766 104.961 155.306 104.056Z" fill="#E73DC4"/>
<path d="M200.532 111.482C201.521 100.73 168.998 105.352 159.016 107.018C157.209 107.32 156.907 106.929 154.626 105.859C151.136 106.95 147.426 115.988 147.316 119.389C148.903 121.158 153.857 123.579 157.986 124.148C161.599 124.648 171.767 125.931 181.261 124.881C184.078 124.573 189.897 124.237 188.88 128.262C194.892 126.349 199.955 117.791 200.532 111.482Z" fill="#1834B0"/>
<path d="M183.995 116.866C183.967 116.866 183.933 116.866 183.905 116.859C183.686 116.811 183.541 116.591 183.589 116.365C183.61 116.262 184.146 113.89 185.595 111.284C187.533 107.8 190.185 105.606 193.262 104.941C193.482 104.893 193.702 105.037 193.75 105.256C193.798 105.476 193.654 105.695 193.434 105.743C190.556 106.36 188.165 108.356 186.324 111.661C184.929 114.164 184.393 116.516 184.393 116.536C184.359 116.735 184.187 116.866 183.995 116.866Z" fill="#383938"/>
<path d="M147.317 119.8C147.31 119.8 147.31 119.8 147.303 119.8C147.076 119.793 146.898 119.601 146.904 119.375C146.98 117.037 148.574 112.614 150.456 109.508C150.573 109.316 150.827 109.254 151.02 109.37C151.212 109.487 151.274 109.741 151.157 109.933C149.178 113.19 147.784 117.455 147.722 119.403C147.722 119.629 147.543 119.8 147.317 119.8Z" fill="#383938"/>
<path d="M99.9976 79.8566C98.919 82.1744 110.035 82.0098 109.465 82.5721C105.995 86.035 105.026 88.3802 106.133 88.7025C107.417 89.0796 112.872 84.0738 112.872 84.0738C112.872 84.0738 108.668 88.9219 110.708 90.0945C111.958 90.8077 114.37 87.043 116.273 84.1836C118.677 85.8842 122.621 86.5836 122.799 86.2544C125.465 81.3172 117.207 80.2544 117.207 80.2544C117.207 80.2544 101.076 77.5389 99.9976 79.8566Z" fill="white"/>
<path d="M111.044 90.5882C110.859 90.5882 110.68 90.5471 110.508 90.4442C110.103 90.2111 109.849 89.8477 109.766 89.3814C109.629 88.5859 110.041 87.5436 110.584 86.5767C110.474 86.6659 110.357 86.7619 110.24 86.851C107.389 89.1071 106.482 89.2374 106.015 89.1002C105.658 88.9974 105.411 88.7436 105.321 88.3871C105.047 87.3036 106.283 85.2533 108.729 82.7298C108.269 82.6681 107.575 82.5995 106.936 82.5378C103.336 82.195 100.299 81.8178 99.6398 80.6727C99.4681 80.3641 99.4543 80.0281 99.6124 79.6852C99.9559 78.9515 101.302 78.0601 109.038 78.7801C113.091 79.1572 117.062 79.8155 117.268 79.8498C117.557 79.8909 122.119 80.5218 123.403 83.0247C123.926 84.0327 123.843 85.1916 123.163 86.4533C123.094 86.5836 122.964 86.6727 122.785 86.7139C122.009 86.899 118.697 86.227 116.382 84.7596L116.313 84.8624C115.393 86.2476 114.356 87.8111 113.401 88.9288C112.769 89.6762 111.875 90.5882 111.044 90.5882ZM112.872 83.6624C112.975 83.6624 113.078 83.7036 113.16 83.779C113.318 83.9299 113.325 84.1767 113.188 84.3413C112.391 85.267 110.357 87.9482 110.584 89.2442C110.625 89.4636 110.728 89.6214 110.92 89.7311C111.037 89.7997 111.504 89.8957 112.782 88.3871C113.703 87.3036 114.733 85.7607 115.64 84.3961L115.936 83.9504C115.997 83.8544 116.094 83.7927 116.204 83.7721C116.313 83.7516 116.423 83.779 116.52 83.8407C118.581 85.3013 121.789 85.9665 122.517 85.9185C123.005 84.9516 123.06 84.1219 122.682 83.395C121.576 81.2487 117.213 80.6658 117.165 80.6589C117.158 80.6589 117.152 80.6589 117.152 80.6589C117.11 80.6521 113.078 79.9801 108.976 79.5961C101.316 78.8829 100.471 79.8292 100.375 80.0281C100.32 80.1515 100.341 80.2132 100.368 80.2612C100.457 80.4189 100.883 80.8304 102.828 81.1938C104.153 81.4407 105.747 81.5984 107.025 81.715C109.306 81.9344 109.739 81.9824 109.876 82.3801C109.938 82.5447 109.89 82.7367 109.759 82.867C106.613 86.0076 106.008 87.7219 106.125 88.1882C106.139 88.2499 106.166 88.2842 106.249 88.3116C106.276 88.3185 106.881 88.4625 109.725 86.2133C111.223 85.0339 112.583 83.7858 112.597 83.7721C112.672 83.6967 112.775 83.6624 112.872 83.6624Z" fill="#383938"/>
<path d="M98.9315 73.3425C98.0865 75.5985 110.583 81.2695 114.568 82.0992C119.562 83.1415 121.163 85.5689 121.163 85.5689C121.163 85.5689 112.795 88.8536 113.86 91.3496C114.238 92.2273 122.008 90.3073 123.76 89.9987C125.512 89.6901 127.944 88.2433 128.706 85.1918C129.469 82.1403 129.366 80.8992 126.707 79.9734C124.048 79.0477 119.899 77.9437 113.317 77.882C108.192 77.834 99.6803 71.3539 98.9315 73.3425Z" fill="white"/>
<path d="M114.739 91.9941C113.901 91.9941 113.605 91.809 113.482 91.5141C113.303 91.0958 113.31 90.6501 113.509 90.1838C114.361 88.1472 118.909 86.0763 120.482 85.4112C119.802 84.7117 118.023 83.2511 114.485 82.5105C112.637 82.1265 109.071 80.7482 105.808 79.1574C103.534 78.0533 99.5906 75.9482 98.6837 74.3024C98.4639 73.9047 98.4158 73.5344 98.5394 73.1984C98.6356 72.9378 98.828 72.7458 99.0822 72.643C99.9959 72.2795 101.686 73.0475 104.592 74.4464C107.367 75.7836 110.823 77.443 113.31 77.4705C120.18 77.539 124.323 78.7116 126.837 79.5894C128.232 80.0762 129.001 80.6728 129.331 81.53C129.413 81.7425 129.31 81.9825 129.097 82.0648C128.884 82.1471 128.644 82.0443 128.562 81.8317C128.321 81.2077 127.723 80.7757 126.562 80.3711C124.103 79.5139 120.05 78.3619 113.303 78.3002C110.631 78.2728 107.079 76.5653 104.235 75.1939C103.067 74.6316 101.961 74.0967 101.081 73.7607C99.9409 73.3218 99.5356 73.3561 99.3913 73.411C99.3501 73.4316 99.3295 73.4453 99.3089 73.4933C99.2608 73.6167 99.3364 73.7881 99.3982 73.9047C99.9684 74.947 102.497 76.6339 106.158 78.4168C109.367 79.9802 112.85 81.3311 114.643 81.7014C119.747 82.7643 121.43 85.2397 121.499 85.3494C121.568 85.4523 121.588 85.5826 121.547 85.6992C121.513 85.8157 121.424 85.9117 121.307 85.9597C119.596 86.6317 114.993 88.7643 114.258 90.5061C114.162 90.7392 114.141 90.9381 114.203 91.1301C114.361 91.1781 114.973 91.2672 117.185 90.9038C118.744 90.6501 120.572 90.2524 121.911 89.9712C122.695 89.8066 123.306 89.6695 123.677 89.6078C124.907 89.3884 126.157 88.6478 127.023 87.626C127.167 87.4546 127.428 87.4272 127.607 87.578C127.778 87.722 127.806 87.9826 127.655 88.1609C126.665 89.3266 125.236 90.1769 123.821 90.4238C123.464 90.4855 122.853 90.6158 122.083 90.7804C120.634 91.089 118.655 91.5141 117.006 91.7747C115.989 91.9187 115.261 91.9941 114.739 91.9941Z" fill="#383938"/>
<path d="M65.2617 226.726C68.3258 228.659 68.6418 229.736 68.6418 229.736L65.2617 226.726Z" fill="#5182C3"/>
<path d="M68.2505 229.866C68.2436 229.859 67.852 228.851 65.0353 227.075C64.8429 226.952 64.7879 226.698 64.9047 226.506C65.0284 226.314 65.2826 226.259 65.475 226.376C68.5802 228.337 68.9993 229.489 69.0336 229.619L68.2436 229.852C68.2505 229.852 68.2505 229.859 68.2505 229.866Z" fill="#383938"/>
<path d="M61.8867 226.986C64.9508 228.92 65.2668 229.996 65.2668 229.996L61.8867 226.986Z" fill="#5182C3"/>
<path d="M64.8833 230.126C64.8764 230.12 64.4848 229.112 61.6681 227.336C61.4757 227.212 61.4208 226.958 61.5375 226.766C61.6612 226.574 61.9154 226.519 62.1078 226.636C65.213 228.597 65.6321 229.749 65.6665 229.88L64.8764 230.113C64.8764 230.113 64.8764 230.12 64.8833 230.126Z" fill="#383938"/>
<path d="M57.4238 226.417C60.4879 228.351 60.8039 229.427 60.8039 229.427L57.4238 226.417Z" fill="#5182C3"/>
<path d="M60.4126 229.558C60.4057 229.551 60.0141 228.543 57.1974 226.767C57.005 226.643 56.9501 226.39 57.0668 226.198C57.1836 226.006 57.4447 225.951 57.6371 226.067C60.7423 228.028 61.1614 229.18 61.1958 229.311L60.4057 229.544C60.4057 229.544 60.4126 229.544 60.4126 229.558Z" fill="#383938"/>
<path d="M144.447 289.654C146.659 289.222 148.789 290.21 148.789 290.21L144.447 289.654Z" fill="#5182C3"/>
<path d="M148.788 290.621C148.733 290.621 148.672 290.607 148.617 290.58C148.596 290.573 146.576 289.654 144.529 290.052C144.302 290.093 144.089 289.949 144.048 289.73C144.007 289.503 144.151 289.291 144.371 289.25C146.686 288.797 148.871 289.791 148.967 289.839C149.173 289.935 149.262 290.182 149.166 290.388C149.091 290.532 148.946 290.621 148.788 290.621Z" fill="#383938"/>
<path d="M142.592 292.898C144.804 292.466 146.934 293.453 146.934 293.453L142.592 292.898Z" fill="#5182C3"/>
<path d="M146.933 293.865C146.878 293.865 146.816 293.851 146.761 293.824C146.741 293.817 144.721 292.898 142.673 293.296C142.447 293.337 142.234 293.193 142.193 292.973C142.151 292.747 142.296 292.534 142.515 292.493C144.831 292.041 147.015 293.035 147.112 293.083C147.318 293.179 147.407 293.426 147.311 293.632C147.235 293.782 147.091 293.865 146.933 293.865Z" fill="#383938"/>
<path d="M140.049 295.545C142.261 295.113 144.391 296.1 144.391 296.1L140.049 295.545Z" fill="#5182C3"/>
<path d="M144.39 296.512C144.335 296.512 144.273 296.498 144.218 296.471C144.198 296.464 142.178 295.545 140.131 295.943C139.904 295.984 139.691 295.84 139.65 295.62C139.608 295.394 139.753 295.181 139.972 295.14C142.288 294.688 144.472 295.682 144.569 295.73C144.775 295.826 144.864 296.073 144.768 296.279C144.692 296.423 144.541 296.512 144.39 296.512Z" fill="#383938"/>
<path d="M218.669 104.145C217.433 101.245 205.094 101.56 202.71 103.514C200.333 105.462 199.914 116.365 199.914 116.365C199.914 116.365 202.683 111.277 204.922 109.919C207.162 108.561 218.374 110.481 218.374 110.481L218.669 104.145Z" fill="#5182C3"/>
<path d="M211.147 64.4969C201.666 63.674 198.966 74.3028 201.377 78.1085C203.796 81.9143 210.673 91.8024 209.505 95.1556C208.337 98.5157 213.187 100.751 218.209 97.3774C227.284 91.295 230.816 77.9714 223.856 73.2193C216.897 68.4672 210.947 68.6661 211.147 64.4969Z" fill="#383938"/>
<path d="M218.271 88.6757C218.236 88.6757 218.202 88.6689 218.168 88.662L207.615 86.0082C207.395 85.9534 207.258 85.7271 207.313 85.5077C207.368 85.2882 207.595 85.1511 207.814 85.2059L218.367 87.8597C218.587 87.9146 218.724 88.1408 218.669 88.3603C218.621 88.5523 218.456 88.6757 218.271 88.6757Z" fill="#383938"/>
<path d="M202.765 90.3691L203.857 108.918C203.857 108.918 201.192 111.256 199.914 116.365C199.364 118.875 199.158 122.228 199.158 122.228C199.158 122.228 203.067 117.935 203.699 116.852C206.605 111.88 216.258 112.209 217.089 109.775L217.439 85.0547L202.765 90.3691Z" fill="white"/>
<path d="M217.09 110.18C216.856 110.18 216.678 109.988 216.678 109.762L217.021 85.6311L203.192 90.6437L204.27 108.884C204.284 109.11 204.112 109.302 203.886 109.316C203.659 109.33 203.467 109.158 203.453 108.932L202.361 90.3832C202.347 90.2049 202.457 90.0334 202.628 89.9717L217.303 84.6505C217.433 84.6025 217.571 84.6231 217.681 84.7054C217.791 84.7808 217.853 84.9111 217.853 85.0482L217.502 109.769C217.502 110.002 217.317 110.18 217.09 110.18Z" fill="#383938"/>
<path d="M218.272 88.2642C218.272 88.2642 222.587 81.9075 215.401 77.6697C210.887 75.0091 208.043 73.4114 206.786 71.6079C198.514 78.1977 196.535 91.7339 196.494 95.2517C196.446 99.3523 209.905 100.189 211.677 98.214C213.443 96.2391 214.769 94.3534 214.769 94.3534C214.769 94.3534 217.819 95.3957 219.942 92.6528C222.944 88.7647 218.272 88.2642 218.272 88.2642Z" fill="white"/>
<path d="M214.76 94.3529C214.76 94.3529 217.81 95.3952 219.933 92.6523C222.942 88.7642 218.27 88.2637 218.27 88.2637C218.27 88.2637 222.585 81.907 215.399 77.6692C210.885 75.0086 208.041 73.4109 206.784 71.6074C198.512 78.1972 196.534 91.7334 196.492 95.2512C196.444 99.3518 209.903 100.188 211.675 98.2135" fill="white"/>
<path d="M206.743 99.647C206.668 99.647 206.592 99.647 206.531 99.647C203.831 99.6196 201.076 99.1602 199.159 98.4196C196.59 97.4253 196.067 96.143 196.074 95.2515C196.116 91.9189 198.012 78.0741 206.524 71.2923C206.613 71.2237 206.73 71.1895 206.84 71.21C206.95 71.2237 207.053 71.2855 207.121 71.3815C208.241 72.9929 210.824 74.5084 214.733 76.8124C215.015 76.977 215.31 77.1484 215.613 77.3267C217.935 78.6981 219.35 80.4262 219.81 82.4765C220.353 84.8697 219.439 87.0228 218.931 87.9828C219.645 88.1611 220.786 88.5931 221.205 89.5806C221.597 90.4926 221.281 91.6172 220.271 92.9201C219.082 94.4561 217.612 94.8744 216.595 94.9567C215.496 95.0458 214.672 94.7647 214.637 94.7578C214.424 94.6824 214.307 94.4492 214.383 94.2367C214.459 94.0241 214.692 93.9075 214.905 93.9829C215.022 94.0241 217.708 94.8881 219.618 92.4195C220.174 91.6995 220.772 90.6777 220.449 89.9097C220.092 89.0731 218.732 88.744 218.237 88.696C218.093 88.6823 217.969 88.5931 217.907 88.4629C217.845 88.3326 217.859 88.1817 217.942 88.0583C217.955 88.0308 219.645 85.4868 219.007 82.6616C218.594 80.8445 217.317 79.2947 215.201 78.0467C214.898 77.8684 214.61 77.697 214.328 77.5324C210.598 75.3381 208.049 73.8364 206.723 72.218C202.573 75.6878 200.21 80.913 198.953 84.7325C197.38 89.4846 196.933 93.7086 196.912 95.279C196.899 96.431 198.293 97.2127 199.468 97.6721C201.296 98.3784 203.941 98.8173 206.551 98.8447C209.313 98.8722 210.962 98.4196 211.374 97.9601C211.525 97.7887 211.786 97.775 211.958 97.9258C212.13 98.0767 212.143 98.3373 211.992 98.5087C211.051 99.5167 208.159 99.647 206.743 99.647Z" fill="#383938"/>
<path d="M199.764 85.617C198.301 85.617 197.14 83.8479 197.119 81.5781C197.099 79.3015 198.239 77.5118 199.716 77.4981C201.186 77.4912 202.354 79.2604 202.375 81.537C202.396 83.8136 201.255 85.6033 199.778 85.617C199.771 85.617 199.771 85.617 199.764 85.617ZM199.73 78.3209H199.723C198.748 78.3278 197.93 79.8158 197.944 81.5713C197.958 83.3199 198.789 84.7942 199.764 84.7942H199.771C200.747 84.7873 201.564 83.2993 201.551 81.5438C201.537 79.7952 200.706 78.3209 199.73 78.3209Z" fill="#383938"/>
<path d="M205.225 89.3402C204.49 89.3402 203.81 88.8944 203.309 88.0853C202.848 87.3379 202.587 86.3436 202.58 85.3013C202.56 83.0246 203.7 81.2349 205.177 81.2212C205.184 81.2212 205.184 81.2212 205.191 81.2212C206.654 81.2212 207.815 82.9904 207.836 85.2601C207.843 86.3093 207.602 87.3036 207.149 88.0579C206.661 88.8807 205.981 89.3333 205.239 89.3402C205.232 89.3402 205.232 89.3402 205.225 89.3402ZM205.191 82.0441H205.184C204.209 82.0509 203.391 83.5389 203.405 85.2944C203.412 86.1927 203.625 87.0361 204.009 87.6533C204.353 88.2087 204.786 88.5173 205.232 88.5173C205.672 88.5173 206.105 88.2019 206.441 87.6396C206.819 87.0087 207.018 86.1721 207.012 85.267C206.998 83.5184 206.167 82.0441 205.191 82.0441Z" fill="#383938"/>
<path d="M203.378 83.6217C203.302 83.6217 203.22 83.6011 203.151 83.5531L201.695 82.5931C201.502 82.4696 201.454 82.2159 201.578 82.0239C201.702 81.8319 201.956 81.7839 202.148 81.9073L203.605 82.8674C203.797 82.9908 203.845 83.2445 203.721 83.4365C203.639 83.5599 203.508 83.6217 203.378 83.6217Z" fill="#383938"/>
<path d="M203.699 116.845C205.231 109.35 207.972 108.198 212.438 107.711C216.903 107.224 218.559 105.03 218.676 104.146L218.381 110.482C218.381 110.482 217.508 113.492 211.05 113.636C206.434 113.732 203.699 116.845 203.699 116.845Z" fill="#5182C3"/>
<path d="M245.8 196.17C239.088 196.17 230.363 195.484 219.797 194.133C194.57 190.897 161.656 184.204 127.113 175.276C92.5705 166.355 60.5285 156.268 36.9024 146.88C25.4019 142.306 16.512 138.151 10.487 134.516C7.40922 132.665 5.11462 130.958 3.66504 129.449C2.09179 127.817 1.46662 126.349 1.78951 125.101L20.2906 53.7312C20.3455 53.5118 20.5723 53.3815 20.7921 53.4364C21.0119 53.4912 21.1425 53.7175 21.0875 53.9369C20.7303 55.3152 21.8844 57.9073 29.414 62.4468C35.4047 66.0537 44.2465 70.1955 55.7126 74.7487C79.3113 84.1294 111.312 94.2027 145.82 103.117C180.329 112.032 213.209 118.724 238.401 121.954C250.637 123.524 260.385 124.189 267.379 123.929C276.166 123.607 278.44 121.899 278.797 120.521C278.852 120.301 279.079 120.171 279.299 120.226C279.519 120.281 279.649 120.507 279.594 120.727L261.086 192.09C260.763 193.345 259.499 194.318 257.328 194.984C255.322 195.601 252.485 195.978 248.899 196.115C247.923 196.156 246.886 196.17 245.8 196.17ZM20.5791 55.8981L2.57957 125.3C2.22232 126.679 3.37649 129.271 10.9061 133.81C16.8968 137.417 25.7385 141.559 37.2047 146.112C60.8033 155.493 92.804 165.566 127.312 174.48C161.821 183.395 194.701 190.088 219.893 193.317C232.129 194.888 241.877 195.553 248.871 195.292C257.658 194.97 259.932 193.262 260.289 191.884L278.289 122.482C277.67 122.928 276.86 123.305 275.843 123.62C273.837 124.237 271 124.615 267.413 124.752C260.379 125.012 250.582 124.34 238.305 122.77C213.078 119.533 180.164 112.841 145.621 103.913C111.078 94.9844 79.0433 84.9042 55.4103 75.5098C43.903 70.9429 35.02 66.7806 28.9881 63.1462C25.9103 61.2948 23.6157 59.5873 22.1661 58.0787C21.431 57.3107 20.902 56.5838 20.5791 55.8981Z" fill="#383938"/>
<path d="M65.4125 164.078C65.3713 164.078 65.3232 164.071 65.282 164.057C45.4206 157.46 28.9325 151.028 17.5969 145.46C11.8535 142.635 7.51164 140.07 4.68118 137.835C1.60339 135.401 0.325561 133.378 0.772115 131.663C0.827075 131.444 1.05379 131.314 1.27363 131.368C1.49347 131.423 1.624 131.65 1.56904 131.869C1.15684 133.46 2.73695 137.238 17.961 144.72C29.2623 150.274 45.716 156.692 65.543 163.275C65.756 163.344 65.8728 163.577 65.8041 163.796C65.7423 163.975 65.5843 164.078 65.4125 164.078Z" fill="#5182C3"/>
<path d="M106.268 161.746C84.9916 155.554 63.9005 148.67 43.0293 141.099C46.904 126.164 50.7787 111.229 54.6466 96.3008C75.5178 103.864 96.6089 110.749 117.885 116.948C114.018 131.883 110.143 146.818 106.268 161.746Z" fill="white"/>
<path d="M106.268 162.158C106.227 162.158 106.192 162.151 106.151 162.144C84.9499 155.973 63.6665 149.026 42.8914 141.49C42.6922 141.415 42.5823 141.209 42.6304 141.003L54.2476 96.2051C54.2751 96.0953 54.3507 95.9993 54.4537 95.9445C54.5568 95.8896 54.6805 95.8828 54.7835 95.9239C75.5448 103.446 96.8145 110.393 117.995 116.557C118.208 116.619 118.332 116.839 118.277 117.058L106.659 161.856C106.632 161.966 106.563 162.055 106.467 162.11C106.412 162.144 106.343 162.158 106.268 162.158ZM43.5235 140.846C64.0375 148.272 85.0461 155.129 105.972 161.232L117.383 117.229C96.4573 111.126 75.4487 104.269 54.9278 96.8428L43.5235 140.846Z" fill="#5182C3"/>
<path d="M75.0362 125.328C67.8638 122.941 60.7189 120.473 53.6016 117.922C54.9344 112.786 56.2671 107.657 57.5931 102.521C64.7105 105.065 71.8622 107.533 79.0277 109.926C77.6949 115.062 76.3621 120.198 75.0362 125.328Z" fill="#B9D2EE"/>
<path d="M75.0371 125.739C74.9959 125.739 74.9478 125.733 74.9066 125.719C67.7686 123.339 60.555 120.85 53.4582 118.313C53.259 118.244 53.1422 118.032 53.1972 117.819L57.1887 102.418C57.2162 102.308 57.2917 102.212 57.3948 102.157C57.4978 102.103 57.6146 102.096 57.7245 102.137C64.8076 104.674 72.0211 107.163 79.1523 109.536C79.3584 109.604 79.4752 109.817 79.4202 110.029L75.4287 125.431C75.4012 125.541 75.3256 125.637 75.2295 125.691C75.1676 125.726 75.1058 125.739 75.0371 125.739ZM54.0903 117.668C60.9191 120.11 67.8647 122.51 74.7485 124.8L78.534 110.201C71.657 107.904 64.7114 105.511 57.8757 103.069L54.0903 117.668Z" fill="#5182C3"/>
<path d="M72.9062 133.941C72.865 133.941 72.8169 133.934 72.7757 133.92C65.6308 131.54 58.4173 129.051 51.3274 126.514C51.1281 126.446 51.0114 126.233 51.0663 126.02L51.9182 122.743C51.9457 122.633 52.0213 122.537 52.1243 122.482C52.2274 122.427 52.3441 122.42 52.4541 122.462C59.5371 124.992 66.7438 127.481 73.8818 129.86C74.0879 129.929 74.2047 130.142 74.1497 130.354L73.2978 133.632C73.2703 133.742 73.1948 133.838 73.0986 133.893C73.0436 133.927 72.9749 133.941 72.9062 133.941ZM51.9663 125.87C58.7951 128.311 65.7408 130.711 72.6246 133.001L73.2703 130.519C66.3865 128.222 59.4409 125.828 52.6121 123.387L51.9663 125.87Z" fill="#5182C3"/>
<path d="M71.4844 139.44C71.4431 139.44 71.395 139.433 71.3538 139.419C64.2158 137.04 56.9954 134.551 49.9055 132.014C49.7063 131.945 49.5895 131.733 49.6444 131.52L50.4963 128.242C50.5238 128.132 50.5994 128.036 50.7024 127.982C50.8055 127.927 50.9223 127.92 51.0322 127.961C58.1084 130.491 65.3219 132.981 72.4599 135.36C72.666 135.429 72.7828 135.641 72.7278 135.854L71.876 139.131C71.8485 139.241 71.7729 139.337 71.6767 139.392C71.6149 139.426 71.5462 139.44 71.4844 139.44ZM50.5375 131.369C57.3664 133.81 64.312 136.21 71.1958 138.501L71.8416 136.018C64.9578 133.721 58.0122 131.328 51.1833 128.887L50.5375 131.369Z" fill="#5182C3"/>
<path d="M70.0566 144.94C70.0154 144.94 69.9673 144.933 69.9261 144.919C62.7881 142.54 55.5745 140.05 48.4778 137.513C48.2785 137.445 48.1617 137.232 48.2167 137.019L49.0686 133.742C49.0961 133.632 49.1716 133.536 49.2747 133.481C49.3777 133.426 49.4945 133.419 49.6045 133.461C56.6875 135.998 63.9011 138.487 71.0322 140.859C71.2383 140.928 71.3551 141.141 71.3001 141.353L70.4482 144.631C70.4207 144.741 70.3452 144.837 70.249 144.892C70.194 144.926 70.1253 144.94 70.0566 144.94ZM49.1098 136.869C55.9455 139.31 62.8912 141.71 69.7681 144L70.4139 141.518C63.5369 139.221 56.5913 136.827 49.7556 134.386L49.1098 136.869Z" fill="#5182C3"/>
<path d="M109.484 122.002C109.443 122.002 109.408 121.995 109.367 121.982C101.013 119.486 92.5697 116.852 84.2775 114.144C84.0645 114.075 83.9409 113.842 84.0165 113.623C84.0852 113.41 84.3187 113.287 84.5386 113.362C92.8239 116.064 101.26 118.704 109.607 121.193C109.827 121.255 109.951 121.488 109.882 121.707C109.827 121.886 109.662 122.002 109.484 122.002Z" fill="#5182C3"/>
<path d="M108.445 126C108.403 126 108.369 125.993 108.328 125.979C99.967 123.483 91.5306 120.85 83.2385 118.141C83.0255 118.073 82.9018 117.84 82.9774 117.62C83.0461 117.408 83.2797 117.284 83.4995 117.36C91.7848 120.061 100.221 122.701 108.568 125.191C108.788 125.252 108.912 125.486 108.843 125.705C108.788 125.883 108.623 126 108.445 126Z" fill="#5182C3"/>
<path d="M107.408 129.998C107.366 129.998 107.332 129.991 107.291 129.977C98.9299 127.481 90.4935 124.848 82.2013 122.139C81.9884 122.071 81.8647 121.838 81.9403 121.618C82.009 121.406 82.2426 121.282 82.4624 121.358C90.7477 124.059 99.1841 126.7 107.531 129.189C107.751 129.25 107.875 129.484 107.806 129.703C107.751 129.881 107.586 129.998 107.408 129.998Z" fill="#5182C3"/>
<path d="M106.37 133.995C106.329 133.995 106.295 133.989 106.254 133.975C97.8997 131.479 89.4564 128.846 81.1642 126.137C80.9513 126.068 80.8276 125.835 80.9032 125.616C80.9719 125.403 81.2055 125.28 81.4253 125.355C89.7106 128.064 98.147 130.697 106.494 133.186C106.714 133.248 106.838 133.481 106.769 133.701C106.714 133.886 106.549 133.995 106.37 133.995Z" fill="#5182C3"/>
<path d="M80.3534 144.089C81.1092 143.17 81.8649 142.258 82.6137 141.34C82.229 141.004 81.7687 140.736 81.2603 140.572C79.3161 139.941 77.3306 141.004 76.8291 142.944C76.3276 144.885 77.4955 146.976 79.4397 147.6C81.384 148.231 83.3763 147.154 83.8778 145.214C84.0083 144.7 84.0221 144.178 83.9396 143.671C82.7442 143.815 81.5488 143.952 80.3534 144.089Z" fill="#5182C3"/>
<path d="M80.5742 148.197C80.1552 148.197 79.7361 148.128 79.317 147.998C77.1735 147.305 75.8751 144.995 76.4316 142.841C76.6995 141.806 77.3522 140.956 78.2796 140.448C79.2208 139.927 80.3269 139.831 81.3918 140.174C81.9414 140.352 82.4429 140.633 82.8894 141.017C83.0612 141.161 83.0818 141.415 82.9375 141.586C82.3948 142.245 81.8589 142.896 81.3162 143.555C82.1749 143.459 83.0406 143.356 83.8925 143.26C84.1123 143.232 84.3115 143.383 84.3459 143.603C84.4421 144.185 84.4215 144.761 84.2772 145.31C84.0093 146.352 83.3497 147.203 82.4223 147.71C81.8521 148.039 81.22 148.197 80.5742 148.197ZM80.1277 140.805C79.6193 140.805 79.1178 140.928 78.6712 141.175C77.9499 141.573 77.4415 142.238 77.2285 143.054C76.7751 144.789 77.8262 146.661 79.5643 147.216C80.4093 147.491 81.2818 147.415 82.0238 147.004C82.752 146.606 83.2673 145.934 83.4803 145.118C83.5627 144.803 83.597 144.473 83.5764 144.137C82.5185 144.261 81.4536 144.384 80.4025 144.501C80.2376 144.521 80.0727 144.432 79.9971 144.288C79.9147 144.144 79.9353 143.959 80.0384 143.829C80.7048 143.02 81.3712 142.211 82.0307 141.401C81.7559 141.209 81.4536 141.065 81.1376 140.962C80.8009 140.86 80.4643 140.805 80.1277 140.805Z" fill="#5182C3"/>
<path d="M88.8544 146.791C89.0743 145.598 89.2941 144.405 89.514 143.211C87.6453 142.766 85.8041 143.822 85.3232 145.68C84.8217 147.621 85.9896 149.698 87.9407 150.309C89.6445 150.844 91.3826 150.082 92.1246 148.588C91.0391 147.984 89.9468 147.388 88.8544 146.791Z" fill="#A9B6C5"/>
<path d="M89.0387 150.885C88.6333 150.885 88.228 150.823 87.8227 150.7C85.6655 150.028 84.367 147.73 84.9304 145.577C85.4594 143.527 87.5204 142.306 89.6158 142.807C89.8287 142.855 89.9661 143.067 89.9249 143.28L89.3203 146.572C90.3165 147.12 91.3333 147.676 92.3363 148.217C92.5287 148.32 92.6042 148.567 92.508 148.759C91.8348 150.096 90.4814 150.885 89.0387 150.885ZM88.6677 143.52C87.3005 143.52 86.0777 144.412 85.7204 145.783C85.2739 147.518 86.325 149.369 88.0631 149.918C89.4028 150.336 90.8111 149.849 91.56 148.745C90.5913 148.217 89.6158 147.682 88.6539 147.154C88.4959 147.072 88.4135 146.894 88.4478 146.722L89.0318 143.547C88.9081 143.527 88.7913 143.52 88.6677 143.52Z" fill="#5182C3"/>
<path d="M98.2854 145.9C96.3274 145.303 94.3351 146.393 93.8336 148.334C93.7443 148.663 93.7168 148.999 93.7237 149.335C94.9397 149.362 96.1557 149.39 97.3785 149.417C96.9526 150.542 96.5266 151.673 96.1007 152.798C96.2175 152.846 96.3412 152.894 96.4717 152.928C98.4297 153.525 100.422 152.421 100.923 150.48C101.425 148.546 100.243 146.496 98.2854 145.9Z" fill="#B9D2EE"/>
<path d="M97.5432 153.504C97.1448 153.504 96.7394 153.443 96.3478 153.326C96.2104 153.285 96.073 153.237 95.9425 153.175C95.7364 153.086 95.6402 152.86 95.7158 152.654L96.7875 149.815C95.7845 149.795 94.754 149.774 93.7166 149.747C93.4968 149.74 93.3182 149.561 93.3113 149.342C93.3044 148.958 93.3456 148.581 93.4349 148.231C93.7029 147.196 94.3624 146.338 95.283 145.824C96.2311 145.296 97.3371 145.18 98.4089 145.509C100.573 146.167 101.878 148.444 101.322 150.59C101.054 151.632 100.394 152.489 99.4669 153.011C98.8692 153.34 98.2096 153.504 97.5432 153.504ZM96.6295 152.551C97.4608 152.791 98.3196 152.695 99.0547 152.284C99.7829 151.872 100.305 151.2 100.518 150.377C100.965 148.656 99.9065 146.818 98.1684 146.29C97.3165 146.03 96.4372 146.119 95.6883 146.537C94.9601 146.942 94.4448 147.614 94.2387 148.43C94.1975 148.588 94.17 148.752 94.1563 148.924C95.2555 148.951 96.341 148.972 97.3921 148.992C97.5226 148.992 97.6532 149.061 97.7219 149.171C97.7974 149.28 97.8112 149.424 97.7631 149.548L96.6295 152.551Z" fill="#5182C3"/>
<path d="M218.292 164.14C218.271 164.14 218.243 164.14 218.223 164.133C194.975 160.025 171.582 155.033 148.684 149.287C148.574 149.259 148.485 149.191 148.43 149.095C148.375 148.999 148.361 148.889 148.389 148.779L156.571 117.222C156.626 117.003 156.853 116.873 157.072 116.928C179.95 122.667 203.329 127.659 226.556 131.76C226.666 131.78 226.769 131.849 226.831 131.945C226.893 132.041 226.914 132.158 226.886 132.267L218.704 163.824C218.642 164.016 218.477 164.14 218.292 164.14ZM149.289 148.587C171.912 154.258 195.023 159.189 217.989 163.255L225.965 132.494C202.999 128.427 179.888 123.49 157.265 117.826L149.289 148.587Z" fill="#383938"/>
<path d="M216.615 156.206C216.588 156.206 216.567 156.206 216.54 156.199C195.675 152.434 174.66 147.95 154.084 142.862C153.864 142.807 153.727 142.587 153.782 142.361C153.837 142.135 154.063 142.005 154.283 142.059C174.845 147.141 195.84 151.625 216.684 155.383C216.911 155.424 217.055 155.637 217.014 155.863C216.986 156.069 216.814 156.206 216.615 156.206Z" fill="#383938"/>
<path d="M161.236 134.55C160.294 134.324 159.353 134.091 158.412 133.865C157.629 136.889 156.846 139.906 156.062 142.93C157.004 143.163 157.945 143.389 158.886 143.616C159.669 140.592 160.452 137.575 161.236 134.55Z" fill="#B9D2EE"/>
<path d="M158.886 144.027C158.851 144.027 158.824 144.02 158.789 144.014C157.848 143.787 156.907 143.554 155.959 143.328C155.849 143.3 155.76 143.232 155.705 143.136C155.65 143.04 155.629 142.93 155.657 142.82L158.006 133.755C158.061 133.536 158.288 133.405 158.501 133.46C159.442 133.693 160.383 133.92 161.324 134.146C161.434 134.173 161.524 134.242 161.579 134.331C161.634 134.427 161.654 134.537 161.627 134.647L159.277 143.712C159.236 143.904 159.071 144.027 158.886 144.027ZM156.563 142.628C157.237 142.793 157.917 142.958 158.59 143.122L160.734 134.859C160.06 134.695 159.38 134.53 158.707 134.365L156.563 142.628Z" fill="#383938"/>
<path d="M165.784 142.149C164.843 141.929 163.895 141.703 162.954 141.477C162.7 142.45 162.446 143.431 162.191 144.405C163.133 144.631 164.081 144.85 165.022 145.077C165.276 144.103 165.53 143.129 165.784 142.149Z" fill="#B9D2EE"/>
<path d="M165.022 145.488C164.988 145.488 164.96 145.481 164.926 145.474C163.985 145.255 163.037 145.029 162.096 144.802C161.986 144.775 161.896 144.706 161.841 144.617C161.786 144.521 161.766 144.412 161.793 144.302L162.556 141.374C162.611 141.154 162.831 141.024 163.051 141.079C163.992 141.305 164.94 141.525 165.881 141.751C165.991 141.778 166.08 141.847 166.142 141.936C166.204 142.025 166.218 142.142 166.19 142.252L165.428 145.18C165.373 145.365 165.208 145.488 165.022 145.488ZM162.693 144.103C163.367 144.261 164.047 144.425 164.72 144.583L165.27 142.45C164.596 142.293 163.916 142.128 163.243 141.97L162.693 144.103Z" fill="#383938"/>
<path d="M174.308 134.386C173.36 134.166 172.419 133.954 171.471 133.734C170.42 137.773 169.375 141.812 168.324 145.858C169.272 146.077 170.213 146.297 171.162 146.509C172.213 142.464 173.257 138.425 174.308 134.386Z" fill="#5182C3"/>
<path d="M171.162 146.914C171.135 146.914 171.1 146.914 171.073 146.9C170.125 146.681 169.183 146.468 168.235 146.249C168.125 146.222 168.036 146.153 167.974 146.064C167.919 145.968 167.899 145.858 167.926 145.748L171.073 133.625C171.128 133.405 171.347 133.275 171.567 133.33C172.509 133.549 173.457 133.769 174.398 133.981C174.508 134.009 174.597 134.07 174.659 134.166C174.714 134.262 174.734 134.379 174.707 134.482L171.56 146.606C171.512 146.791 171.347 146.914 171.162 146.914ZM168.833 145.55C169.513 145.707 170.186 145.865 170.867 146.016L173.807 134.694C173.127 134.537 172.454 134.386 171.773 134.228L168.833 145.55Z" fill="#383938"/>
<path d="M179.31 140.201C178.362 139.988 177.414 139.776 176.473 139.563C175.806 142.128 175.14 144.692 174.48 147.25C175.429 147.463 176.37 147.675 177.318 147.888C177.984 145.33 178.644 142.765 179.31 140.201Z" fill="#B9D2EE"/>
<path d="M177.318 148.306C177.291 148.306 177.256 148.306 177.229 148.299C176.281 148.087 175.333 147.874 174.392 147.662C174.282 147.634 174.185 147.572 174.131 147.476C174.076 147.38 174.055 147.264 174.082 147.161L176.075 139.474C176.13 139.261 176.35 139.124 176.563 139.179C177.511 139.392 178.452 139.604 179.4 139.817C179.51 139.844 179.606 139.906 179.661 140.002C179.716 140.098 179.736 140.215 179.709 140.317L177.717 148.004C177.669 148.183 177.504 148.306 177.318 148.306ZM174.982 146.948C175.663 147.099 176.336 147.25 177.016 147.401L178.802 140.509C178.122 140.359 177.449 140.208 176.769 140.057L174.982 146.948Z" fill="#383938"/>
<path d="M187.775 132.686C186.827 132.48 185.879 132.274 184.931 132.068C183.502 137.588 182.066 143.102 180.637 148.622C181.585 148.827 182.533 149.033 183.481 149.239C184.91 143.719 186.339 138.206 187.775 132.686Z" fill="#B9D2EE"/>
<path d="M183.481 149.65C183.453 149.65 183.426 149.65 183.391 149.643C182.443 149.438 181.495 149.232 180.547 149.026C180.437 149.006 180.341 148.937 180.286 148.841C180.224 148.745 180.211 148.629 180.238 148.526L184.532 131.972C184.587 131.76 184.8 131.63 185.02 131.671C185.968 131.876 186.916 132.082 187.864 132.288C187.974 132.308 188.07 132.377 188.125 132.473C188.18 132.569 188.201 132.686 188.173 132.795L183.879 149.349C183.831 149.527 183.666 149.65 183.481 149.65ZM181.145 148.313C181.825 148.464 182.505 148.608 183.185 148.752L187.273 132.994C186.593 132.85 185.913 132.699 185.233 132.555L181.145 148.313Z" fill="#383938"/>
<path d="M190.406 147.621C189.458 147.422 188.509 147.223 187.561 147.024C187.307 147.998 187.053 148.978 186.799 149.952C187.747 150.151 188.695 150.35 189.643 150.549C189.904 149.575 190.158 148.594 190.406 147.621Z" fill="#5182C3"/>
<path d="M189.65 150.96C189.622 150.96 189.595 150.96 189.567 150.953C188.619 150.754 187.671 150.555 186.716 150.357C186.606 150.336 186.51 150.267 186.448 150.171C186.386 150.075 186.373 149.959 186.4 149.849L187.163 146.921C187.218 146.709 187.431 146.578 187.651 146.619C188.599 146.818 189.547 147.017 190.495 147.216C190.605 147.237 190.701 147.305 190.763 147.401C190.825 147.497 190.838 147.614 190.811 147.723L190.048 150.651C190 150.837 189.835 150.96 189.65 150.96ZM187.307 149.637C187.987 149.781 188.667 149.925 189.347 150.069L189.897 147.936C189.217 147.792 188.537 147.648 187.857 147.504L187.307 149.637Z" fill="#383938"/>
<path d="M198.244 142.505C197.296 142.313 196.341 142.121 195.393 141.922C194.589 145.029 193.785 148.128 192.975 151.235C193.923 151.427 194.878 151.625 195.826 151.817C196.636 148.718 197.44 145.612 198.244 142.505Z" fill="#B9D2EE"/>
<path d="M195.826 152.229C195.798 152.229 195.771 152.229 195.743 152.222C194.795 152.03 193.84 151.838 192.892 151.639C192.782 151.619 192.686 151.55 192.624 151.454C192.562 151.358 192.549 151.241 192.576 151.132L194.994 141.82C195.049 141.607 195.262 141.477 195.475 141.518C196.423 141.71 197.378 141.909 198.326 142.101C198.436 142.121 198.532 142.19 198.594 142.286C198.656 142.382 198.67 142.498 198.642 142.608L196.224 151.92C196.176 152.105 196.011 152.229 195.826 152.229ZM193.483 150.919C194.163 151.056 194.843 151.2 195.523 151.337L197.729 142.821C197.048 142.684 196.368 142.546 195.688 142.402L193.483 150.919Z" fill="#383938"/>
<path d="M203.459 147.483C202.504 147.298 201.556 147.106 200.601 146.921C200.12 148.779 199.639 150.631 199.158 152.489C200.106 152.681 201.061 152.866 202.016 153.051C202.497 151.193 202.978 149.342 203.459 147.483Z" fill="#B9D2EE"/>
<path d="M202.016 153.463C201.989 153.463 201.961 153.463 201.934 153.456C200.979 153.271 200.031 153.079 199.076 152.894C198.966 152.873 198.87 152.804 198.808 152.708C198.746 152.612 198.732 152.496 198.76 152.386L200.202 146.818C200.257 146.606 200.47 146.475 200.683 146.516C201.631 146.708 202.586 146.894 203.534 147.079C203.644 147.099 203.74 147.168 203.802 147.264C203.864 147.36 203.878 147.476 203.85 147.586L202.408 153.154C202.366 153.339 202.202 153.463 202.016 153.463ZM199.666 152.167C200.347 152.304 201.027 152.434 201.714 152.571L202.95 147.799C202.27 147.662 201.59 147.531 200.903 147.394L199.666 152.167Z" fill="#383938"/>
<path d="M211.648 140.997C210.694 140.819 209.745 140.633 208.79 140.455C207.643 144.871 206.503 149.287 205.355 153.703C206.31 153.888 207.258 154.067 208.213 154.245C209.361 149.829 210.501 145.413 211.648 140.997Z" fill="#5182C3"/>
<path d="M208.213 154.656C208.186 154.656 208.165 154.656 208.138 154.65C207.183 154.471 206.228 154.286 205.28 154.101C205.17 154.08 205.067 154.012 205.012 153.916C204.95 153.82 204.929 153.703 204.964 153.594L208.399 140.345C208.454 140.133 208.66 140.003 208.873 140.044C209.828 140.229 210.776 140.407 211.731 140.585C211.841 140.606 211.944 140.675 212.006 140.771C212.067 140.867 212.088 140.983 212.054 141.093L208.619 154.341C208.564 154.533 208.399 154.656 208.213 154.656ZM205.864 153.374C206.544 153.504 207.231 153.635 207.911 153.765L211.14 141.319C210.46 141.189 209.773 141.059 209.093 140.928L205.864 153.374Z" fill="#383938"/>
<path d="M216.408 147.703C215.453 147.532 214.498 147.354 213.543 147.175C212.877 149.74 212.21 152.305 211.551 154.862C212.506 155.041 213.461 155.212 214.416 155.39C215.082 152.833 215.742 150.268 216.408 147.703Z" fill="#B9D2EE"/>
<path d="M214.417 155.809C214.389 155.809 214.368 155.809 214.341 155.802C213.386 155.63 212.431 155.452 211.476 155.274C211.366 155.253 211.263 155.185 211.201 155.089C211.14 154.993 211.119 154.876 211.153 154.766L213.146 147.079C213.201 146.867 213.407 146.736 213.62 146.778C214.575 146.956 215.529 147.127 216.484 147.306C216.594 147.326 216.697 147.395 216.759 147.491C216.821 147.587 216.842 147.703 216.814 147.813L214.822 155.5C214.767 155.685 214.602 155.809 214.417 155.809ZM212.06 154.547C212.74 154.67 213.427 154.801 214.107 154.924L215.894 148.032C215.213 147.909 214.526 147.779 213.846 147.655L212.06 154.547Z" fill="#383938"/>
<path d="M105.583 181.2C105.548 181.2 105.507 181.193 105.473 181.186C88.758 176.558 72.9912 171.751 58.6191 166.889C44.5835 162.144 32.4991 157.556 22.7093 153.271C22.5032 153.181 22.407 152.935 22.4963 152.729C22.5856 152.523 22.8329 152.427 23.039 152.516C43.0446 161.28 72.4004 171.182 105.693 180.391C105.913 180.453 106.043 180.679 105.981 180.898C105.926 181.084 105.761 181.2 105.583 181.2Z" fill="#5182C3"/>
<path d="M170.21 0.607566L105.83 0.408706C102.746 0.401848 100.238 2.88417 100.231 5.96307L100.107 47.2917C100.101 50.3706 102.588 52.8735 105.672 52.8803L153.611 53.0243L171.446 70.1469L167.283 53.0655L170.052 53.0723C173.136 53.0792 175.644 50.5969 175.651 47.518L175.774 6.18936C175.781 3.11732 173.287 0.614423 170.21 0.607566Z" fill="white"/>
<path d="M171.445 70.5586C171.342 70.5586 171.239 70.5175 171.157 70.442L153.439 53.4292L105.664 53.2852C102.36 53.2783 99.6806 50.5834 99.6875 47.2851L99.818 5.96336C99.8249 4.36562 100.45 2.86389 101.584 1.7393C102.717 0.614711 104.215 -0.00244141 105.809 -0.00244141C105.816 -0.00244141 105.822 -0.00244141 105.829 -0.00244141L170.209 0.189561C173.513 0.196419 176.193 2.89132 176.186 6.18965L176.062 47.5183C176.055 50.8097 173.362 53.4841 170.071 53.4841C170.064 53.4841 170.058 53.4841 170.051 53.4841L167.811 53.4772L171.851 70.0512C171.892 70.2294 171.816 70.4146 171.658 70.5037C171.583 70.5449 171.514 70.5586 171.445 70.5586ZM105.809 0.820428C104.435 0.820428 103.143 1.35529 102.168 2.32216C101.185 3.29589 100.649 4.58505 100.642 5.96336L100.519 47.292C100.512 50.1377 102.82 52.4623 105.671 52.4692L153.611 52.6132C153.714 52.6132 153.817 52.6543 153.892 52.7298L170.71 68.8717L166.884 53.1618C166.856 53.0383 166.884 52.9081 166.959 52.8121C167.035 52.716 167.158 52.6543 167.282 52.6543L170.051 52.6612C172.902 52.668 175.231 50.364 175.238 47.5183L175.361 6.18965C175.368 3.34389 173.06 1.01929 170.209 1.01243L105.829 0.820428C105.822 0.820428 105.816 0.820428 105.809 0.820428Z" fill="#5182C3"/>
<path d="M119.614 28.5513L106.053 28.5103L105.996 46.9357L119.558 46.9768L119.614 28.5513Z" fill="#B9D2EE"/>
<path d="M136.229 10.983L122.668 10.9419L122.558 46.9904L136.119 47.0315L136.229 10.983Z" fill="#B9D2EE"/>
<path d="M152.765 21.2345L139.203 21.1934L139.124 47.0383L152.686 47.0794L152.765 21.2345Z" fill="#B9D2EE"/>
<path d="M169.382 4.441L155.82 4.3999L155.69 47.0931L169.252 47.1342L169.382 4.441Z" fill="#B9D2EE"/>
<path d="M108.702 42.5193C108.599 42.5193 108.496 42.4781 108.413 42.4027C108.248 42.245 108.241 41.9844 108.399 41.8198L132.431 16.9006C132.513 16.8183 132.63 16.7703 132.747 16.7772C132.864 16.784 132.974 16.8389 133.049 16.9349L143.306 29.9088L165.799 8.86391L163.394 8.85705C163.168 8.85705 162.982 8.6719 162.982 8.44561C162.982 8.21933 163.168 8.03418 163.394 8.03418L166.836 8.04789C167.008 8.04789 167.159 8.15075 167.221 8.30847C167.283 8.46619 167.242 8.64447 167.118 8.76105L143.547 30.8139C143.464 30.8894 143.347 30.9305 143.231 30.9237C143.114 30.9168 143.011 30.8619 142.935 30.7659L132.692 17.8126L108.99 42.389C108.915 42.4781 108.805 42.5193 108.702 42.5193Z" fill="#5182C3"/>
<path d="M166.83 12.1759C166.603 12.1759 166.418 11.9908 166.418 11.7645L166.425 8.45929C166.425 8.233 166.61 8.04785 166.837 8.04785C167.064 8.04785 167.249 8.233 167.249 8.45929L167.242 11.7645C167.242 11.9908 167.057 12.1759 166.83 12.1759Z" fill="#5182C3"/>
<path d="M235.563 238.534C234.697 236.929 233.461 235.558 231.963 234.529L225.443 243.965L235.563 238.534Z" fill="#5182C3"/>
<path d="M229.587 236.717C227.746 235.448 225.513 234.701 223.102 234.687C217.255 234.667 212.426 239.014 211.684 244.651L223.067 246.152L229.587 236.717Z" fill="#B9D2EE"/>
<path d="M211.683 244.65C211.621 245.13 211.58 245.624 211.58 246.118C211.56 252.447 216.685 257.597 223.033 257.617C227.739 257.631 231.785 254.82 233.571 250.788L223.067 246.152L211.683 244.65Z" fill="#5182C3"/>
<path d="M233.186 240.721L223.066 246.152L233.571 250.788C234.196 249.382 234.546 247.825 234.553 246.186C234.56 244.205 234.065 242.346 233.186 240.721Z" fill="#B9D2EE"/>
<path d="M53.6313 219.669L8.57062 219.532C5.48597 219.525 2.999 217.022 3.00587 213.944L3.03335 204.604C3.04022 201.525 5.5478 199.043 8.63245 199.05L44.0682 199.159L55.1977 182.126L50.9314 199.187L53.7 199.194C56.7847 199.201 59.2717 201.703 59.2648 204.782L59.2373 214.122C59.2236 217.194 56.716 219.676 53.6313 219.669Z" fill="white"/>
<path d="M53.652 220.081C53.6452 220.081 53.6383 220.081 53.6314 220.081L8.57072 219.944C5.26622 219.937 2.58689 217.242 2.59376 213.944L2.62124 204.604C2.62811 203.006 3.25329 201.505 4.38685 200.38C5.52041 199.256 7.01808 198.638 8.61194 198.638C8.61881 198.638 8.62568 198.638 8.63255 198.638L43.8416 198.748L54.8474 181.9C54.9574 181.728 55.1703 181.667 55.3558 181.749C55.5413 181.831 55.6375 182.03 55.5894 182.229L51.4536 198.769L53.6933 198.776C56.9978 198.782 59.6771 201.477 59.6702 204.776L59.6427 214.115C59.6359 215.713 59.0107 217.215 57.8771 218.339C56.7436 219.464 55.2459 220.081 53.652 220.081ZM8.61881 199.461C7.24479 199.461 5.95322 199.996 4.97767 200.963C3.99526 201.937 3.45939 203.226 3.45252 204.604L3.41817 213.944C3.4113 216.79 5.71964 219.114 8.57072 219.121L53.6314 219.258C53.6383 219.258 53.6452 219.258 53.6452 219.258C55.0192 219.258 56.3108 218.723 57.2863 217.756C58.2687 216.783 58.8046 215.494 58.8115 214.115L58.8389 204.776C58.8458 201.93 56.5375 199.605 53.6864 199.598L50.9178 199.592C50.7941 199.592 50.6704 199.53 50.5949 199.434C50.5193 199.338 50.4918 199.208 50.5193 199.084L54.1948 184.403L44.4049 199.393C44.3294 199.509 44.1988 199.578 44.0614 199.578L8.62568 199.468C8.62568 199.461 8.61881 199.461 8.61881 199.461Z" fill="#B9D2EE"/>
<path d="M16.4023 213.081C18.5352 210.952 18.5352 207.5 16.4023 205.371C14.2694 203.242 10.8113 203.242 8.67837 205.371C6.54547 207.5 6.54547 210.952 8.67837 213.081C10.8113 215.21 14.2694 215.21 16.4023 213.081Z" fill="#E73DC4"/>
<path d="M46.0126 206.421L23.0392 206.353C22.8124 206.353 22.627 206.168 22.627 205.941C22.627 205.715 22.8124 205.53 23.0392 205.53L46.0126 205.598C46.2394 205.598 46.4248 205.784 46.4248 206.01C46.4248 206.243 46.2394 206.421 46.0126 206.421Z" fill="#B9D2EE"/>
<path d="M49.5567 209.747L23.0313 209.665C22.8046 209.665 22.6191 209.48 22.6191 209.253C22.6191 209.027 22.8046 208.842 23.0313 208.842L49.5567 208.924C49.7834 208.924 49.9689 209.109 49.9689 209.336C49.9689 209.569 49.7834 209.747 49.5567 209.747Z" fill="#B9D2EE"/>
<path d="M38.3379 213.032L23.0177 212.984C22.791 212.984 22.6055 212.798 22.6055 212.572C22.6055 212.346 22.791 212.161 23.0177 212.161L38.3379 212.209C38.5646 212.209 38.7501 212.394 38.7501 212.62C38.7501 212.846 38.5646 213.032 38.3379 213.032Z" fill="#B9D2EE"/>
</g>
<defs>
<clipPath id="clip0_2164_11073">
<rect width="279" height="308" fill="white" transform="translate(0.683594 -0.00244141)"/>
</clipPath>
</defs>
</svg>
