<svg width="615" height="679" viewBox="0 0 615 679" fill="none" xmlns="http://www.w3.org/2000/svg">
<g clip-path="url(#clip0_2233_1037)">
<path d="M337.756 87.5002L499.273 87.9832C510.325 88.0134 519.261 96.9948 519.215 108.014L519.109 141.51C519.079 152.544 510.083 161.465 499.046 161.42L372.031 161.027L340.735 187.76L347.433 160.952L337.514 160.922C326.462 160.891 317.527 151.91 317.572 140.891L317.678 107.395C317.709 96.3759 326.704 87.4549 337.756 87.5002Z" fill="#B9D2EE"/>
<path d="M340.736 188.681C340.569 188.681 340.403 188.636 340.252 188.545C339.919 188.334 339.753 187.941 339.844 187.549L346.269 161.873L337.515 161.843C331.921 161.827 326.69 159.639 322.744 155.684C318.813 151.729 316.651 146.476 316.666 140.906L316.772 107.411C316.787 101.825 318.979 96.6026 322.941 92.6628C326.887 88.7533 332.118 86.5947 337.682 86.5947C337.697 86.5947 337.727 86.5947 337.742 86.5947L499.259 87.0778C504.853 87.0928 510.084 89.2816 514.03 93.2365C517.961 97.1913 520.123 102.444 520.108 108.014L520.002 141.51C519.987 147.095 517.795 152.318 513.834 156.257C509.888 160.167 504.656 162.326 499.093 162.326C499.078 162.326 499.047 162.326 499.032 162.326L372.365 161.948L341.325 188.455C341.159 188.606 340.947 188.681 340.736 188.681ZM337.682 88.4061C332.602 88.4061 327.824 90.3684 324.21 93.9459C320.597 97.5385 318.586 102.324 318.571 107.411L318.465 140.906C318.45 145.993 320.416 150.793 324.014 154.401C327.612 158.008 332.405 160.016 337.5 160.031L347.418 160.061C347.69 160.061 347.963 160.197 348.129 160.409C348.295 160.62 348.356 160.922 348.295 161.178L342.278 185.24L371.427 160.348C371.594 160.212 371.805 160.137 372.017 160.137L499.032 160.529C499.047 160.529 499.078 160.529 499.093 160.529C504.173 160.529 508.95 158.567 512.564 154.989C516.177 151.397 518.188 146.612 518.203 141.525L518.309 108.029C518.324 102.942 516.359 98.1423 512.76 94.5346C509.162 90.9269 504.369 88.9193 499.274 88.9042L337.757 88.4212C337.727 88.4061 337.712 88.4061 337.682 88.4061Z" fill="white"/>
<path d="M313.448 516.269L60.8392 515.5C43.5582 515.454 29.5882 501.416 29.6486 484.163L29.8149 431.769C29.8603 414.515 43.921 400.568 61.2021 400.628L259.836 401.232L296.137 359.434L298.299 401.352L313.796 401.398C331.077 401.443 345.047 415.481 344.987 432.735L344.82 485.129C344.79 502.367 330.729 516.315 313.448 516.269Z" fill="#1834B0"/>
<path d="M313.538 517.175C313.507 517.175 313.477 517.175 313.432 517.175L60.8226 516.405C52.2198 516.375 44.1462 513.009 38.0835 506.926C32.0208 500.842 28.6946 492.751 28.7248 484.163L28.8911 431.768C28.9516 414.077 43.3752 399.722 61.0947 399.722C61.125 399.722 61.1552 399.722 61.2005 399.722L259.426 400.326L295.455 358.83C295.697 358.558 296.09 358.453 296.438 358.573C296.786 358.694 297.028 359.011 297.043 359.389L299.159 400.447L313.81 400.492C331.56 400.552 345.968 415.013 345.908 432.734L345.741 485.129C345.711 493.718 342.339 501.778 336.246 507.831C330.169 513.854 322.11 517.175 313.538 517.175ZM61.0796 401.533C44.373 401.533 30.7508 415.089 30.6903 431.783L30.524 484.178C30.4937 492.284 33.6385 499.906 39.3535 505.658C45.0685 511.409 52.6885 514.579 60.8075 514.609L313.417 515.379C313.447 515.379 313.477 515.379 313.507 515.379C321.596 515.379 329.186 512.254 334.931 506.563C340.691 500.857 343.866 493.25 343.897 485.144L344.063 432.75C344.108 416.024 330.531 402.379 313.764 402.318L298.267 402.273C297.784 402.273 297.39 401.896 297.36 401.413L295.304 361.743L260.485 401.85C260.319 402.047 260.061 402.167 259.804 402.167L61.1703 401.564C61.1552 401.533 61.1098 401.533 61.0796 401.533Z" fill="white"/>
<path d="M466.726 579.214L519.688 579.381C526.476 579.396 531.995 573.931 532.01 567.154L532.176 514.443C532.191 507.665 526.718 502.155 519.93 502.14L487.106 502.035L460.859 476.826L466.983 501.974C460.194 501.959 454.676 507.423 454.661 514.201L454.494 566.912C454.464 573.69 459.937 579.199 466.726 579.214Z" fill="#1834B0"/>
<path d="M519.718 580.286C519.703 580.286 519.687 580.286 519.672 580.286L466.71 580.12C459.438 580.105 453.542 574.173 453.557 566.912L453.723 514.201C453.738 507.318 459.075 501.673 465.803 501.114L459.937 477.038C459.846 476.645 460.013 476.238 460.36 476.041C460.708 475.845 461.146 475.891 461.434 476.177L487.423 501.129L519.884 501.235C527.156 501.25 533.053 507.182 533.038 514.443L532.871 567.154C532.856 570.671 531.48 573.977 528.986 576.452C526.521 578.928 523.225 580.286 519.718 580.286ZM466.725 578.309L519.687 578.475C519.703 578.475 519.718 578.475 519.718 578.475C522.741 578.475 525.584 577.298 527.731 575.169C529.893 573.026 531.072 570.188 531.087 567.154L531.254 514.443C531.269 508.178 526.189 503.061 519.914 503.046L487.091 502.94C486.864 502.94 486.637 502.85 486.471 502.684L462.462 479.634L467.844 501.763C467.905 502.035 467.844 502.322 467.678 502.533C467.512 502.744 467.239 502.88 466.967 502.88C466.952 502.88 466.937 502.88 466.937 502.88C460.678 502.88 455.583 507.952 455.568 514.201L455.401 566.912C455.371 573.177 460.451 578.294 466.725 578.309Z" fill="#5182C3"/>
<path d="M570.577 215.55C570.456 215.55 570.32 215.519 570.199 215.474C552.691 207.519 531.131 198.96 506.124 190.054C505.655 189.888 505.413 189.375 505.58 188.892C505.746 188.424 506.26 188.183 506.744 188.349C531.796 197.285 553.401 205.859 570.955 213.829C571.408 214.04 571.605 214.569 571.408 215.021C571.257 215.353 570.924 215.55 570.577 215.55Z" fill="#5182C3"/>
<path opacity="0.3" d="M263.525 304.79C122.04 270.495 8.87434 257.393 4.12695 275.733L44.8577 118.626C49.6051 100.285 162.771 113.403 304.255 147.683L263.525 304.79Z" fill="#E73DC4"/>
<path d="M263.525 305.696C263.449 305.696 263.389 305.681 263.313 305.666C194.537 289.001 130.311 276.835 82.4439 271.416C58.8733 268.744 40.1559 267.808 26.8209 268.608C10.0992 269.62 5.72979 273.152 5.00408 275.944C4.88312 276.427 4.38419 276.714 3.90039 276.593C3.41658 276.473 3.12931 275.975 3.25027 275.492L43.981 118.4C44.6462 115.833 47.0955 113.796 51.2684 112.346C55.1237 111.003 60.5666 110.112 67.4458 109.705C80.8866 108.89 99.7098 109.841 123.386 112.528C171.314 117.962 235.63 130.128 304.467 146.808C304.709 146.868 304.906 147.019 305.027 147.216C305.148 147.427 305.193 147.668 305.132 147.91L264.402 305.002C264.296 305.425 263.933 305.696 263.525 305.696ZM36.875 266.525C49.1064 266.525 64.4371 267.567 82.6556 269.62C130.386 275.024 194.355 287.115 262.875 303.704L303.152 148.348C234.723 131.789 170.845 119.713 123.19 114.324C99.6191 111.652 80.9017 110.716 67.5667 111.516C50.8451 112.528 46.4757 116.06 45.7499 118.852L6.12289 271.627C7.27193 270.797 8.73848 270.073 10.5377 269.439C14.393 268.095 19.8359 267.204 26.715 266.797C29.8144 266.616 33.2011 266.525 36.875 266.525Z" fill="#383938"/>
<path opacity="0.3" d="M441.248 355.751C523.299 383.616 576.443 409.61 573.041 422.757L613.772 265.665C617.173 252.518 564.045 226.524 481.979 198.659L441.248 355.751Z" fill="#E73DC4"/>
<path d="M573.041 423.663C572.966 423.663 572.89 423.648 572.815 423.633C572.331 423.512 572.043 423.014 572.164 422.531C572.89 419.723 570.365 415.859 564.847 411.36C559.192 406.741 550.423 401.428 538.782 395.586C515.74 383.993 481.904 370.514 440.961 356.611C440.508 356.46 440.251 355.993 440.372 355.525L481.102 198.433C481.163 198.191 481.329 197.98 481.556 197.859C481.783 197.738 482.04 197.723 482.282 197.799C523.315 211.731 557.227 225.241 580.344 236.864C592.091 242.781 600.981 248.155 606.742 252.849C613.016 257.967 615.601 262.223 614.664 265.876L573.933 422.968C573.812 423.391 573.434 423.663 573.041 423.663ZM442.337 355.162C483.007 369.004 516.632 382.409 539.598 393.956C551.345 399.873 560.236 405.247 565.996 409.942C569.7 412.96 572.119 415.693 573.283 418.153L612.88 265.408C613.606 262.601 611.081 258.736 605.562 254.238C599.908 249.619 591.139 244.306 579.497 238.464C556.622 226.962 523.133 213.603 482.599 199.806L442.337 355.162Z" fill="#383938"/>
<path d="M226.664 221.86C226.603 221.86 226.543 221.86 226.467 221.845C169.74 209.678 120.301 201.602 83.4862 198.508C83.2141 198.493 82.9721 198.342 82.821 198.131C82.6698 197.919 82.6093 197.632 82.6849 197.376L98.696 135.608C98.8018 135.185 99.21 134.898 99.6485 134.928C126.817 137.208 162.06 142.4 201.566 149.918C202.065 150.008 202.382 150.491 202.292 150.974C202.201 151.472 201.717 151.789 201.233 151.699C162.166 144.257 127.271 139.11 100.268 136.8L84.7108 196.787C121.314 199.942 170.103 207.912 225.998 219.882L229.37 206.704C229.491 206.221 229.99 205.935 230.474 206.055C230.957 206.176 231.245 206.674 231.124 207.157L227.525 221.18C227.435 221.573 227.072 221.86 226.664 221.86Z" fill="#5182C3"/>
<path d="M217.108 189.466C217.047 189.466 216.987 189.466 216.926 189.451C167.351 179.277 123.793 172.454 90.9544 169.692C90.4555 169.647 90.0775 169.209 90.1228 168.711C90.1682 168.213 90.6066 167.85 91.1056 167.881C124.005 170.643 167.653 177.496 217.289 187.67C217.773 187.776 218.091 188.244 218 188.742C217.909 189.164 217.531 189.466 217.108 189.466Z" fill="#5182C3"/>
<path d="M185.388 209.693C185.116 209.693 184.859 209.678 184.586 209.633C181.593 209.165 179.31 206.086 177.601 200.229C176.18 195.368 175.303 189.134 174.517 183.624C173.973 179.745 173.444 176.077 172.809 173.254C171.962 169.526 171.161 168.575 170.768 168.348C170.495 168.197 169.634 168.122 167.532 170.824C165.869 172.967 164.009 176.092 162.044 179.398C157.962 186.266 154.106 192.757 150.448 193.542C149.495 193.738 148.603 193.557 147.817 192.998C144.264 190.493 143.054 183.323 141.769 175.73C140.514 168.333 139.229 160.68 135.812 157.586C132.849 154.899 129.931 153.872 126.605 154.325C118.259 155.488 107.54 166.522 94.7338 187.126C94.4768 187.549 93.9174 187.685 93.479 187.413C93.0556 187.157 92.9196 186.598 93.1917 186.16C106.481 164.786 117.337 153.782 126.363 152.529C130.218 151.986 133.711 153.208 137.052 156.242C140.923 159.759 142.268 167.714 143.568 175.413C144.733 182.311 145.942 189.436 148.875 191.504C149.253 191.776 149.631 191.851 150.085 191.761C152.957 191.142 156.964 184.409 160.487 178.462C162.482 175.111 164.357 171.941 166.096 169.692C167.003 168.53 169.392 165.435 171.675 166.748C174.048 168.122 174.986 173.949 176.316 183.353C177.087 188.802 177.964 194.976 179.34 199.716C180.807 204.757 182.666 207.489 184.874 207.837C189.47 208.546 194.474 198.991 199.312 189.738C202.82 183.051 206.433 176.137 210.44 171.654C210.773 171.277 211.347 171.247 211.725 171.579C212.103 171.911 212.133 172.484 211.801 172.862C207.945 177.179 204.377 184.002 200.915 190.583C195.563 200.787 190.906 209.693 185.388 209.693Z" fill="#5182C3"/>
<path d="M323.002 568.15C328.672 601.344 327.614 620.394 325.467 629.149C323.32 637.888 310.469 655.142 310.469 655.142C310.469 655.142 359.727 652.093 362.418 646.236C365.109 640.394 355.962 624.982 355.962 624.982L353.996 564.226L323.002 568.15Z" fill="white"/>
<path d="M310.469 656.048C310.136 656.048 309.834 655.866 309.667 655.58C309.501 655.263 309.531 654.885 309.743 654.614C309.864 654.448 322.503 637.406 324.59 628.937C325.981 623.247 328.551 605.948 322.125 568.316C322.08 568.075 322.14 567.818 322.292 567.622C322.443 567.426 322.655 567.29 322.912 567.26L353.906 563.335C354.163 563.305 354.42 563.38 354.601 563.546C354.798 563.713 354.903 563.954 354.919 564.211L356.884 624.741C357.383 625.601 359.333 629.028 361.057 633.073C363.748 639.398 364.489 643.957 363.264 646.628C362.75 647.761 361.163 649.27 353.392 650.991C348.947 651.972 342.944 652.923 335.566 653.783C323.033 655.263 310.665 656.033 310.544 656.048C310.499 656.048 310.484 656.048 310.469 656.048ZM324.046 568.92C330.335 606.235 327.75 623.594 326.328 629.345C324.514 636.696 315.564 649.602 312.328 654.085C316.289 653.814 325.754 653.089 335.324 651.957C358.32 649.24 361.238 646.583 361.586 645.844C363.627 641.406 357.64 629.602 355.176 625.435C355.1 625.299 355.055 625.149 355.055 624.998L353.119 565.237L324.046 568.92Z" fill="#383938"/>
<path d="M234.267 482.532C207.899 496.374 187.413 507.107 182 521.266C176.588 535.425 160.834 536.421 150.825 526.338C140.816 516.254 145.684 506.216 159.972 499.952C177.253 492.389 226.314 441.927 226.314 441.927L234.267 482.532Z" fill="white"/>
<path d="M165.868 533.945C160.305 533.945 154.65 531.485 150.19 526.971C145.851 522.594 144.006 517.93 144.853 513.477C145.397 510.654 146.985 507.967 149.57 505.491C152.065 503.106 155.451 500.963 159.624 499.137C176.542 491.725 225.18 441.821 225.679 441.308C225.921 441.067 226.269 440.976 226.587 441.067C226.904 441.157 227.161 441.429 227.222 441.761L235.174 482.366C235.25 482.759 235.068 483.151 234.705 483.347L234.615 483.393C208.655 497.023 188.154 507.771 182.862 521.598C180.398 528.043 175.711 532.285 169.648 533.568C168.393 533.824 167.123 533.945 165.868 533.945ZM225.755 443.799C222.308 447.301 211.936 457.777 200.249 468.766C181.033 486.834 167.607 497.597 160.35 500.782C152.443 504.239 147.574 508.873 146.637 513.809C145.896 517.703 147.529 521.703 151.475 525.703C156.525 530.79 163.177 533.07 169.27 531.787C174.698 530.639 178.931 526.79 181.169 520.949C186.672 506.578 207.204 495.725 233.269 482.049L225.755 443.799Z" fill="#383938"/>
<path d="M396.42 354.256C314.595 358.377 300.625 364.657 272.912 384.189C245.199 403.737 171.236 486.925 171.236 486.925C171.236 486.925 189.893 511.378 212.058 522.337C260.439 468.479 304.012 428.04 304.012 428.04C304.012 428.04 460.66 424.855 465.74 387.978C470.82 351.101 454.598 350.347 454.598 350.347L396.42 354.256Z" fill="#A9B6C5"/>
<path d="M212.057 523.243C211.921 523.243 211.785 523.213 211.649 523.153C200.083 517.432 189.515 508.043 182.681 501.16C175.288 493.718 170.556 487.529 170.51 487.469C170.253 487.121 170.268 486.638 170.556 486.321C170.737 486.11 189.303 465.249 211.014 442.26C240.194 411.376 260.831 391.586 272.382 383.45C285.491 374.212 296.165 367.299 314.141 362.559C331.044 358.106 354.872 355.434 396.359 353.336L454.522 349.426C454.552 349.426 454.597 349.426 454.627 349.426C454.794 349.426 458.589 349.653 462.051 353.804C464.364 356.581 465.982 360.445 466.859 365.291C467.962 371.374 467.887 379.042 466.647 388.069C466.012 392.718 463.064 397.05 457.893 400.975C453.297 404.462 446.826 407.707 438.647 410.621C424.964 415.496 406.277 419.557 383.114 422.712C345.695 427.799 308.381 428.825 304.405 428.916C300.761 432.312 258.685 471.815 212.768 522.926C212.556 523.138 212.299 523.243 212.057 523.243ZM172.415 486.97C173.761 488.676 177.994 493.869 183.996 499.907C190.603 506.548 200.748 515.59 211.846 521.221C259.531 468.192 302.953 427.784 303.392 427.376C303.558 427.225 303.77 427.134 303.996 427.134C304.389 427.119 343.578 426.274 382.872 420.931C434.489 413.911 462.837 402.47 464.848 387.843C467.554 368.174 464.092 359.147 460.72 355.042C457.939 351.66 455.005 351.283 454.597 351.253L396.495 355.162H396.48C313.673 359.344 300.201 366.076 273.456 384.929C247.315 403.36 178.977 479.619 172.415 486.97Z" fill="#383938"/>
<path d="M420.14 335.041C398.777 367.555 393.863 399.391 393.863 399.391C393.863 399.391 334.839 434.848 322.728 465.763C310.618 496.677 324.376 619.383 324.376 619.383C355.612 627.443 378.638 608.228 378.638 608.228C378.638 608.228 368.736 502.126 368.161 481.295C458.86 445.324 477.245 404.915 469.822 374.544C460.009 334.377 420.14 335.041 420.14 335.041Z" fill="#A9B6C5"/>
<path d="M339.829 622.265C334.568 622.265 329.321 621.601 324.151 620.258C323.788 620.167 323.516 619.85 323.47 619.488C323.44 619.186 320.008 588.392 318.103 554.218C316.984 534.142 316.606 516.828 316.969 502.79C317.423 485.159 319.086 472.585 321.883 465.445C324.68 458.29 330.198 450.305 338.287 441.746C344.713 434.923 352.786 427.708 362.266 420.281C376.992 408.749 390.66 400.296 393.018 398.846C393.245 397.533 394.031 393.246 395.785 386.861C395.921 386.378 396.42 386.091 396.904 386.227C397.387 386.363 397.675 386.861 397.539 387.344C395.482 394.801 394.742 399.496 394.742 399.541C394.696 399.813 394.545 400.039 394.318 400.175C394.167 400.265 379.411 409.171 363.37 421.715C342.218 438.259 328.46 453.611 323.561 466.094C318.663 478.608 317.393 509.054 319.902 554.112C321.656 585.555 324.695 614.129 325.194 618.658C340.797 622.522 354.238 619.367 362.81 616.016C370.899 612.846 376.266 608.921 377.672 607.835C376.947 599.97 367.784 501.22 367.24 481.325C367.225 480.947 367.452 480.6 367.815 480.464C409.226 464.041 438.587 445.459 455.067 425.262C468.447 408.869 473.104 391.888 468.916 374.77C468.795 374.287 469.097 373.789 469.581 373.668C470.065 373.547 470.564 373.849 470.685 374.332C472.695 382.559 472.695 390.922 470.685 399.194C468.432 408.432 463.654 417.579 456.473 426.395C439.872 446.742 410.465 465.43 369.07 481.913C369.81 503.907 379.426 607.11 379.517 608.152C379.547 608.453 379.426 608.74 379.199 608.936C378.957 609.133 373.212 613.872 363.536 617.676C357.851 619.91 351.985 621.344 346.104 621.948C344.032 622.144 341.916 622.265 339.829 622.265Z" fill="#383938"/>
<path d="M270.568 670.086C274.257 661.965 283.51 660.244 296.77 659.731C306.098 659.368 315.321 644.651 320.658 635.534C322.911 631.684 322.034 630.009 325.451 629.133C332.904 629.028 334.023 634.326 334.023 634.326C346.239 634.296 356.354 627.684 355.946 624.967C364.019 633.647 373.227 660.697 373.227 660.697C373.227 660.697 320.809 677.875 302.53 676.214C284.251 674.569 270.568 670.086 270.568 670.086Z" fill="#1834B0"/>
<path d="M305.298 677.241C304.27 677.241 303.317 677.196 302.455 677.12C284.282 675.46 270.418 670.992 270.282 670.946C270.04 670.871 269.843 670.69 269.738 670.448C269.632 670.207 269.632 669.95 269.738 669.709C271.582 665.648 274.863 662.871 279.777 661.195C283.753 659.837 288.833 659.127 296.725 658.825C306.19 658.463 316.123 641.466 319.872 635.066C320.583 633.858 320.961 632.892 321.278 632.047C321.974 630.251 322.473 628.952 325.225 628.258C325.3 628.243 325.361 628.228 325.436 628.228C329.624 628.168 331.968 629.753 333.192 631.081C333.994 631.941 334.432 632.817 334.674 633.421C344.138 633.209 352 629.088 354.404 626.281C354.949 625.647 355.054 625.254 355.039 625.118C354.979 624.726 355.19 624.334 355.538 624.167C355.901 624.001 356.324 624.077 356.597 624.364C364.715 633.088 373.696 659.308 374.074 660.425C374.15 660.652 374.135 660.908 374.029 661.12C373.923 661.331 373.726 661.497 373.5 661.572C373.364 661.618 360.195 665.92 344.955 669.965C326.752 674.811 313.447 677.241 305.298 677.241ZM271.854 669.543C275.332 670.584 287.442 673.95 302.622 675.324C319.222 676.833 365.139 662.357 372.063 660.138C370.491 655.685 363.083 635.277 356.309 626.794C356.173 627.02 355.992 627.247 355.795 627.473C354.268 629.254 351.214 631.171 347.631 632.605C344.622 633.798 339.83 635.232 334.039 635.247C333.616 635.247 333.238 634.945 333.147 634.522C333.102 634.341 332.058 630.039 325.663 630.039C325.633 630.039 325.602 630.039 325.572 630.039C323.834 630.507 323.607 631.081 322.972 632.711C322.639 633.587 322.216 634.658 321.43 636.002C314.838 647.293 306.069 660.289 296.786 660.652C283.874 661.135 275.543 662.78 271.854 669.543Z" fill="#383938"/>
<path d="M139.001 529.371C128.281 520.48 94.5959 510.125 90.0602 493.958C88.2761 494.245 86.6886 494.743 85.3279 495.559C80.2479 508.374 130.61 527.635 138.109 535.243C145.608 542.851 151.852 548.451 162.254 550.428C165.126 550.972 167.908 548.994 170.448 545.855C156.569 545.07 149.327 537.945 139.001 529.371Z" fill="#C9C9C9"/>
<path d="M163.222 551.425C162.844 551.425 162.466 551.395 162.088 551.319C151.354 549.266 144.853 543.364 137.459 535.877C135.116 533.492 128.161 529.794 120.103 525.522C111.606 521.009 101.975 515.892 94.7935 510.759C86.1605 504.586 82.7889 499.499 84.4823 495.227C84.5579 495.046 84.6939 494.88 84.8603 494.789C86.2663 493.959 87.9143 493.385 89.91 493.083C90.3636 493.008 90.802 493.295 90.923 493.732C92.2081 498.336 96.1391 502.895 102.943 507.65C108.975 511.876 116.459 515.711 123.066 519.092C129.976 522.624 135.948 525.673 139.576 528.692C140.498 529.447 141.39 530.202 142.267 530.941C151.142 538.383 158.142 544.27 170.495 544.964C170.827 544.979 171.13 545.191 171.266 545.508C171.402 545.825 171.356 546.172 171.145 546.444C168.484 549.749 165.823 551.425 163.222 551.425ZM86.0849 496.178C85.0417 499.499 88.3376 503.906 95.8669 509.28C102.943 514.337 112.513 519.424 120.965 523.907C129.159 528.254 136.235 532.013 138.775 534.594C146.168 542.111 152.201 547.576 162.451 549.523C164.356 549.885 166.412 548.904 168.605 546.61C156.766 545.432 149.812 539.606 141.118 532.3C140.256 531.575 139.349 530.82 138.442 530.066C134.965 527.183 128.796 524.028 122.265 520.692C115.612 517.28 108.068 513.431 101.93 509.129C95.1563 504.374 91.0591 499.74 89.4564 495C88.1411 495.257 87.0374 495.649 86.0849 496.178Z" fill="#383938"/>
<path d="M158.821 508.993C162.147 503.046 159.713 497.899 158.412 498.442C137.442 507.197 105.919 491.468 90.0742 493.959C94.6099 510.126 128.295 520.481 139.015 529.371C149.341 537.93 156.568 545.07 170.462 545.855C177.115 537.598 182.013 521.266 182.013 521.266C182.013 521.266 163.235 512.692 158.821 508.993Z" fill="#1834B0"/>
<path d="M170.448 546.761C170.433 546.761 170.418 546.761 170.403 546.761C157.446 546.036 150.234 539.968 141.102 532.315C140.24 531.59 139.333 530.836 138.426 530.081C134.949 527.198 128.78 524.043 122.249 520.707C115.596 517.296 108.052 513.446 101.914 509.144C94.7623 504.133 90.6046 499.242 89.1985 494.231C89.1229 493.974 89.1683 493.717 89.3044 493.491C89.4404 493.265 89.6672 493.129 89.9242 493.083C96.4406 492.057 105.527 494.034 115.158 496.117C129.506 499.227 145.759 502.759 158.066 497.612C158.701 497.34 159.427 497.567 160.001 498.216C161.437 499.816 162.299 504.072 159.971 508.752C165.111 512.541 182.196 520.375 182.377 520.45C182.785 520.631 182.997 521.099 182.876 521.537C182.68 522.216 177.857 538.141 171.159 546.429C170.993 546.64 170.72 546.761 170.448 546.761ZM91.2547 494.729C92.812 498.985 96.6522 503.227 102.942 507.65C108.974 511.876 116.458 515.711 123.065 519.092C129.975 522.624 135.947 525.673 139.575 528.692C140.497 529.447 141.39 530.202 142.266 530.941C151.02 538.292 157.96 544.119 170.025 544.934C175.543 537.825 179.867 524.994 180.896 521.764C177.343 520.118 162.239 513.054 158.232 509.688C157.9 509.401 157.809 508.933 158.02 508.556C160.228 504.616 159.517 501.521 159.26 500.661C159.018 499.876 158.731 499.499 158.58 499.363C145.774 504.616 129.309 501.038 114.765 497.884C105.845 495.936 97.3779 494.11 91.2547 494.729Z" fill="#383938"/>
<path d="M508.694 255.294C468.478 220.833 416.151 233.422 416.151 233.422C416.151 233.422 407.729 248.215 403.496 267.4C399.837 283.959 400.971 304.096 393.638 317.349C377.839 345.954 367.543 349.079 367.543 349.079C367.543 349.079 365.335 373.23 395.059 377.049L401.047 369.14C419.069 386.755 480.225 392.416 480.225 392.416C480.225 392.416 485.396 329.108 493.137 307.372C500.878 285.635 514.53 260.291 508.694 255.294Z" fill="#1834B0"/>
<path d="M317.558 670.659C298.221 674.01 287.078 661.678 275.996 663.957C273.622 665.436 271.793 667.399 270.568 670.086C270.568 670.086 284.251 674.554 302.53 676.229C320.809 677.89 373.227 660.712 373.227 660.712C373.227 660.712 372.456 658.432 371.155 654.991C361.857 658.085 330.531 668.41 317.558 670.659Z" fill="#C9C9C9"/>
<path d="M305.298 677.241C304.27 677.241 303.317 677.195 302.455 677.12C284.282 675.459 270.418 670.991 270.282 670.946C270.04 670.871 269.843 670.689 269.738 670.448C269.632 670.206 269.632 669.95 269.738 669.708C270.992 666.946 272.882 664.818 275.513 663.187C275.604 663.127 275.71 663.097 275.815 663.066C280.926 662.01 285.87 663.851 291.6 665.98C298.721 668.621 306.779 671.61 317.408 669.769C330.244 667.535 361.571 657.24 370.869 654.13C371.338 653.979 371.837 654.221 372.003 654.674C373.288 658.085 374.074 660.41 374.089 660.425C374.165 660.651 374.15 660.908 374.044 661.119C373.938 661.331 373.742 661.497 373.515 661.572C373.379 661.617 360.21 665.919 344.97 669.965C326.752 674.81 313.447 677.241 305.298 677.241ZM271.854 669.542C275.332 670.584 287.442 673.95 302.622 675.324C319.222 676.833 365.139 662.357 372.063 660.138C371.761 659.293 371.262 657.889 370.612 656.123C360.376 659.534 330.32 669.361 317.71 671.55C306.598 673.482 298.297 670.387 290.965 667.67C285.567 665.663 280.88 663.927 276.329 664.802C274.394 666.055 272.913 667.61 271.854 669.542Z" fill="#383938"/>
<path d="M270.509 671.354C269.36 668.184 276.572 668.335 280.201 668.878C287.79 670.026 296.68 677.196 317.318 675.173C301.7 678.403 273.019 678.267 270.509 671.354Z" fill="#5182C3"/>
<path d="M294.866 678.116C292.84 678.116 290.859 678.071 288.954 677.965C281.047 677.543 271.28 676.124 269.662 671.656C269.254 670.524 269.617 669.739 269.995 669.286C272.066 666.765 280.004 667.927 280.336 667.973C282.65 668.32 285.023 669.18 287.76 670.191C294.125 672.516 302.833 675.686 317.227 674.267C317.711 674.222 318.134 674.554 318.21 675.037C318.285 675.52 317.968 675.958 317.499 676.063C311.149 677.377 302.743 678.116 294.866 678.116ZM276.073 669.482C273.85 669.482 271.945 669.784 271.401 670.448C271.341 670.524 271.22 670.659 271.371 671.052C272.928 675.354 288.455 677.014 303.348 676.063C296.393 675.278 291.283 673.407 287.14 671.912C284.479 670.946 282.196 670.116 280.064 669.784C278.779 669.588 277.373 669.482 276.073 669.482Z" fill="#383938"/>
<path d="M473.693 363.026L459.904 446.878L567.386 449.852L579.557 375.178L473.693 363.026Z" fill="#B9D2EE"/>
<path d="M567.386 450.758C567.371 450.758 567.371 450.758 567.356 450.758L459.874 447.784C459.617 447.784 459.36 447.663 459.194 447.452C459.028 447.256 458.952 446.984 458.997 446.727L472.786 362.876C472.862 362.393 473.3 362.06 473.784 362.121L579.647 374.272C579.889 374.302 580.116 374.423 580.267 374.619C580.418 374.816 580.479 375.072 580.434 375.314L568.263 449.988C568.202 450.441 567.824 450.758 567.386 450.758ZM460.963 446.003L566.615 448.931L578.498 375.963L474.434 364.023L460.963 446.003Z" fill="#383938"/>
<path d="M509.873 427.074C498.337 431.844 491.413 443.663 485.577 444.705C478.002 446.048 482.991 449.354 487.92 449.218C492.849 449.082 502.661 445.686 502.661 445.686C502.661 445.686 502.767 454.214 504.506 459.498C506.229 464.796 512.171 460.826 512.277 458.003C514.288 465.822 520.23 463.06 520.184 458.154C523.843 466.532 528.938 461.762 528.727 457.958C532.552 463.694 537.012 459.799 539.416 449.188L532.839 448.992C532.839 448.992 536.573 429.142 529.77 425.776C522.966 422.425 513.29 425.67 509.873 427.074Z" fill="white"/>
<path d="M516.51 463.815C515.482 463.815 513.532 463.377 512.171 460.479C511.204 461.732 509.646 462.758 508.119 462.97C506.033 463.256 504.4 462.109 503.644 459.785C502.268 455.573 501.89 449.52 501.799 446.939C499.018 447.845 491.987 450.003 487.95 450.124C484.73 450.214 480.996 448.916 480.799 446.909C480.648 445.429 482.205 444.388 485.426 443.814C487.86 443.376 490.747 440.644 494.089 437.49C498.141 433.655 503.175 428.885 509.54 426.244C512.504 425.021 522.739 421.293 530.178 424.976C533.338 426.546 534.88 431.15 534.759 438.667C534.699 442.667 534.184 446.38 533.912 448.131L539.446 448.297C539.718 448.313 539.975 448.433 540.141 448.645C540.308 448.856 540.368 449.128 540.308 449.399C538.675 456.615 536.12 460.902 533.096 461.46C532.128 461.641 530.768 461.49 529.331 460.102C528.727 461.822 527.381 463.241 525.793 463.619C524.614 463.89 522.543 463.8 520.577 460.796C519.882 462.396 518.551 463.573 516.979 463.785C516.843 463.8 516.692 463.815 516.51 463.815ZM512.277 457.098C512.685 457.098 513.048 457.369 513.154 457.777C513.88 460.6 515.21 462.17 516.722 461.973C517.962 461.807 519.292 460.298 519.262 458.154C519.262 457.717 519.549 457.354 519.973 457.264C520.396 457.173 520.819 457.4 521.001 457.792C522.271 460.72 523.858 462.2 525.34 461.838C526.716 461.505 527.895 459.679 527.804 458.003C527.789 457.596 528.031 457.218 528.424 457.098C528.817 456.962 529.241 457.113 529.467 457.46C530.223 458.607 531.418 459.905 532.733 459.664C534.351 459.362 536.604 456.675 538.252 450.064L532.794 449.913C532.521 449.913 532.279 449.777 532.113 449.581C531.947 449.369 531.886 449.113 531.932 448.841C532.93 443.497 534.426 429.112 529.346 426.606C522.422 423.18 512.201 427.104 510.221 427.919C504.158 430.425 499.471 434.878 495.313 438.803C491.609 442.305 488.691 445.067 485.728 445.595C483.173 446.048 482.674 446.637 482.598 446.743C482.78 447.256 485.002 448.388 487.89 448.313C492.622 448.177 502.268 444.871 502.359 444.841C502.631 444.75 502.933 444.795 503.175 444.961C503.417 445.128 503.553 445.399 503.553 445.686C503.553 445.777 503.689 454.139 505.352 459.226C505.836 460.69 506.668 461.339 507.847 461.173C509.571 460.932 511.294 459.136 511.34 457.973C511.355 457.52 511.702 457.158 512.156 457.113C512.216 457.113 512.247 457.098 512.277 457.098Z" fill="#383938"/>
<path d="M510.491 448.328C510.068 451.633 512.275 458.003 512.275 458.003L510.491 448.328Z" fill="#C9C9C9"/>
<path d="M512.276 458.909C511.898 458.909 511.55 458.668 511.414 458.29C511.323 458.018 509.161 451.663 509.6 448.207C509.66 447.709 510.114 447.361 510.613 447.422C511.112 447.482 511.459 447.935 511.399 448.433C511.021 451.482 513.107 457.641 513.137 457.701C513.304 458.169 513.047 458.683 512.578 458.849C512.472 458.894 512.366 458.909 512.276 458.909Z" fill="#383938"/>
<path d="M517.705 448.569C517.387 452.992 520.169 458.169 520.169 458.169L517.705 448.569Z" fill="#C9C9C9"/>
<path d="M520.184 459.075C519.867 459.075 519.549 458.909 519.383 458.592C519.262 458.366 516.48 453.143 516.813 448.509C516.843 448.011 517.281 447.633 517.78 447.663C518.279 447.694 518.657 448.131 518.627 448.629C518.34 452.735 520.955 457.686 520.986 457.732C521.227 458.169 521.061 458.728 520.608 458.954C520.472 459.03 520.32 459.075 520.184 459.075Z" fill="#383938"/>
<path d="M525.506 448.871C527.078 455.437 528.726 457.958 528.726 457.958L525.506 448.871Z" fill="#C9C9C9"/>
<path d="M528.726 458.879C528.423 458.879 528.136 458.728 527.97 458.471C527.894 458.366 526.216 455.724 524.628 449.097C524.507 448.614 524.81 448.116 525.293 448.011C525.777 447.89 526.276 448.192 526.382 448.675C527.894 455.015 529.466 457.46 529.481 457.49C529.754 457.913 529.633 458.471 529.224 458.743C529.058 458.834 528.892 458.879 528.726 458.879Z" fill="#383938"/>
<path d="M487.875 258.132C467.555 272.185 520.684 345.577 520.684 345.577C520.684 345.577 500.243 432.598 517.282 438.017C534.321 443.436 551.965 347.116 545.419 330.482C538.857 313.817 515.301 239.173 487.875 258.132Z" fill="white"/>
<path d="M511.248 428.206C510.81 428.206 510.432 427.889 510.356 427.451C508.693 417.172 509.782 400.235 513.592 377.095C516.162 361.502 519.171 348.218 519.73 345.773C518.112 343.524 508.723 330.225 499.833 314.708C494.118 304.73 489.749 295.794 486.816 288.156C483.112 278.495 481.706 270.842 482.643 265.378C483.248 261.831 484.85 259.144 487.39 257.393C491.971 254.223 496.749 253.393 501.572 254.917C520.834 261 536.331 303.19 543.784 323.478C544.767 326.15 545.614 328.474 546.279 330.15C549.152 337.441 547.352 357.547 544.707 373.925C541.244 395.435 535.847 415.255 530.283 426.938C530.071 427.391 529.527 427.587 529.074 427.361C528.62 427.149 528.423 426.606 528.65 426.153C534.138 414.621 539.475 394.982 542.923 373.638C546.188 353.351 546.854 336.535 544.586 330.814C543.92 329.123 543.059 326.799 542.076 324.112C538.372 314.044 532.793 298.843 525.657 285.092C517.175 268.714 508.874 259.159 501.013 256.668C496.689 255.294 492.561 256.034 488.403 258.917C486.256 260.412 484.941 262.631 484.412 265.71C482.824 274.993 488.691 291.628 501.391 313.832C511.052 330.708 521.317 344.943 521.423 345.079C521.574 345.29 521.635 345.562 521.574 345.818C521.544 345.954 518.188 360.294 515.376 377.427C511.656 400.039 510.538 417.247 512.155 427.195C512.231 427.693 511.898 428.161 511.399 428.236C511.339 428.191 511.294 428.206 511.248 428.206Z" fill="#383938"/>
<path d="M512.731 347.252C513.562 361.004 513.124 361.894 519.081 363.389C532.189 366.664 546.25 365.608 551.572 363.434C556.894 361.276 557.03 350.211 554.747 347.509C552.464 344.807 512.383 341.486 512.731 347.252Z" fill="#E73DC4"/>
<path d="M485.229 252.004C458.574 260.895 516.541 344.792 516.541 344.792L516.465 348.113C516.465 348.113 537.465 355.751 551.299 349.109C552.161 342.92 552.01 335.554 548.457 326.376C542.697 311.357 522.649 239.536 485.229 252.004Z" fill="#1834B0"/>
<path d="M537.495 352.717C534.274 352.717 531.19 352.4 528.574 351.992C521.589 350.921 516.389 349.049 516.177 348.958C515.708 348.792 515.466 348.264 515.633 347.796C515.799 347.328 516.328 347.087 516.797 347.253C516.842 347.268 522.073 349.155 528.892 350.196C535.121 351.162 544.011 351.6 550.936 348.279C551.389 348.068 551.933 348.249 552.145 348.702C552.357 349.155 552.175 349.698 551.722 349.909C547.322 352.023 542.257 352.717 537.495 352.717Z" fill="#383938"/>
<path d="M415.911 338.513C412.6 347.796 407.913 357.985 401.049 369.125L415.911 338.513Z" fill="#5182C3"/>
<path d="M401.032 370.031C400.866 370.031 400.699 369.985 400.563 369.895C400.14 369.638 400.004 369.08 400.261 368.642C406.55 358.438 411.388 348.475 415.047 338.196C415.214 337.728 415.728 337.471 416.211 337.652C416.68 337.818 416.937 338.331 416.756 338.814C413.052 349.215 408.168 359.283 401.803 369.593C401.637 369.88 401.334 370.031 401.032 370.031Z" fill="#383938"/>
<path d="M273.639 178.583C284.071 165.209 341.629 244.2 341.629 244.2C341.629 244.2 426.764 226.871 434.475 241.709C450.335 272.186 352.651 278.42 331.091 266.284C298.857 248.155 267.062 187.006 273.639 178.583Z" fill="white"/>
<path d="M368.103 273.016C351.563 273.016 337.336 270.857 330.638 267.084C314.128 257.8 299.75 238.69 292.659 228.124C282.348 212.773 274.365 196.349 272.339 186.281C271.538 182.326 271.734 179.549 272.914 178.039C273.911 176.771 275.272 176.137 276.996 176.168C280.912 176.228 286.611 179.775 294.413 187.006C300.461 192.606 307.718 200.395 315.973 210.161C328.688 225.196 339.936 240.381 342.023 243.219C345.576 242.509 365.034 238.736 385.067 236.517C398.039 235.068 408.698 234.554 416.771 234.962C427.294 235.49 433.342 237.573 435.292 241.317C436.91 244.426 437.469 247.445 436.925 250.283C436.426 252.94 434.96 255.446 432.586 257.74C428.337 261.831 421.247 265.242 411.495 267.884C402.922 270.208 392.551 271.824 381.514 272.563C376.933 272.865 372.442 273.016 368.103 273.016ZM276.89 177.964C275.801 177.964 274.97 178.356 274.35 179.141C273.881 179.745 273.216 181.436 274.123 185.904C276.104 195.761 283.966 211.927 294.171 227.098C306.281 245.106 319.541 258.751 331.53 265.499C339.71 270.103 359.742 272.216 381.378 270.752C405.009 269.152 423.681 263.808 431.316 256.427C435.7 252.2 436.472 247.521 433.674 242.132C432.571 240.019 428.731 237.362 416.681 236.758C408.713 236.351 398.145 236.879 385.278 238.298C363.326 240.743 342.038 245.045 341.826 245.091C341.478 245.166 341.116 245.03 340.904 244.743C340.783 244.577 328.567 227.852 314.582 211.308C291.374 183.881 281.32 178.039 276.981 177.964C276.935 177.964 276.92 177.964 276.89 177.964Z" fill="#383938"/>
<path d="M341.115 229.181C328.173 224.411 327.538 223.641 323.773 228.486C315.488 239.143 310.801 252.427 310.635 258.148C310.469 263.869 320.568 268.473 323.955 267.461C327.341 266.48 346.527 231.173 341.115 229.181Z" fill="#E73DC4"/>
<path d="M440.643 245.528C442.821 221.86 371.247 232.034 349.279 235.702C345.303 236.366 344.637 235.505 339.618 233.151C331.937 235.551 323.773 255.446 323.531 262.933C327.024 266.827 337.925 272.156 347.011 273.409C354.964 274.51 377.34 277.333 398.235 275.024C404.433 274.344 417.239 273.605 415.002 282.465C428.231 278.254 439.373 259.416 440.643 245.528Z" fill="#1834B0"/>
<path d="M404.252 257.378C404.192 257.378 404.116 257.378 404.056 257.363C403.572 257.257 403.254 256.774 403.36 256.276C403.406 256.05 404.585 250.827 407.775 245.091C412.039 237.423 417.875 232.592 424.648 231.128C425.132 231.023 425.615 231.34 425.721 231.823C425.827 232.306 425.51 232.789 425.026 232.894C418.691 234.253 413.43 238.645 409.378 245.921C406.308 251.431 405.129 256.608 405.129 256.654C405.054 257.091 404.676 257.378 404.252 257.378Z" fill="#383938"/>
<path d="M323.531 263.839C323.515 263.839 323.516 263.839 323.5 263.839C323.001 263.823 322.608 263.401 322.623 262.903C322.79 257.755 326.297 248.019 330.44 241.181C330.697 240.759 331.256 240.623 331.68 240.879C332.103 241.136 332.239 241.694 331.982 242.117C327.628 249.287 324.559 258.676 324.423 262.963C324.423 263.461 324.03 263.839 323.531 263.839Z" fill="#383938"/>
<path d="M219.393 175.911C217.019 181.014 241.482 180.651 240.227 181.889C232.592 189.512 230.46 194.674 232.894 195.384C235.721 196.214 247.726 185.195 247.726 185.195C247.726 185.195 238.473 195.867 242.963 198.448C245.715 200.018 251.022 191.731 255.21 185.436C260.502 189.18 269.18 190.72 269.573 189.995C275.439 179.127 257.266 176.787 257.266 176.787C257.266 176.787 221.766 170.809 219.393 175.911Z" fill="white"/>
<path d="M243.704 199.535C243.296 199.535 242.902 199.444 242.525 199.218C241.632 198.704 241.073 197.904 240.892 196.878C240.589 195.127 241.496 192.833 242.691 190.704C242.449 190.9 242.192 191.112 241.935 191.308C235.66 196.274 233.665 196.561 232.637 196.259C231.85 196.033 231.306 195.474 231.11 194.689C230.505 192.304 233.226 187.791 238.609 182.236C237.596 182.1 236.069 181.949 234.663 181.813C226.74 181.059 220.058 180.228 218.606 177.708C218.228 177.028 218.198 176.289 218.546 175.534C219.302 173.919 222.265 171.956 239.289 173.541C248.209 174.372 256.948 175.821 257.402 175.896C258.037 175.987 268.076 177.375 270.903 182.885C272.052 185.104 271.871 187.655 270.374 190.433C270.223 190.719 269.935 190.916 269.542 191.006C267.834 191.414 260.546 189.934 255.451 186.704L255.3 186.931C253.274 189.98 250.991 193.421 248.89 195.882C247.499 197.527 245.533 199.535 243.704 199.535ZM247.725 184.289C247.952 184.289 248.179 184.379 248.36 184.546C248.708 184.878 248.723 185.421 248.421 185.783C246.667 187.821 242.192 193.723 242.691 196.576C242.782 197.059 243.008 197.406 243.432 197.648C243.689 197.799 244.717 198.01 247.529 194.689C249.555 192.304 251.823 188.908 253.818 185.904L254.469 184.923C254.605 184.712 254.816 184.576 255.058 184.53C255.3 184.485 255.542 184.546 255.754 184.681C260.289 187.897 267.35 189.361 268.953 189.255C270.026 187.127 270.147 185.3 269.315 183.7C266.881 178.976 257.281 177.692 257.175 177.677C257.16 177.677 257.145 177.677 257.145 177.677C257.054 177.662 248.179 176.183 239.153 175.338C222.295 173.768 220.436 175.851 220.224 176.289C220.103 176.56 220.148 176.696 220.209 176.802C220.405 177.149 221.343 178.055 225.621 178.855C228.539 179.398 232.047 179.745 234.859 180.002C239.879 180.485 240.831 180.591 241.134 181.466C241.27 181.828 241.164 182.251 240.877 182.538C233.952 189.451 232.622 193.225 232.879 194.252C232.909 194.387 232.969 194.463 233.151 194.523C233.211 194.538 234.542 194.855 240.801 189.904C244.097 187.308 247.09 184.561 247.121 184.53C247.287 184.364 247.514 184.289 247.725 184.289Z" fill="#383938"/>
<path d="M217.049 161.571C215.189 166.537 242.691 179.02 251.46 180.847C262.451 183.141 265.974 188.485 265.974 188.485C265.974 188.485 247.559 195.715 249.903 201.21C250.734 203.142 267.834 198.915 271.689 198.236C275.545 197.557 280.897 194.372 282.575 187.655C284.253 180.938 284.026 178.205 278.175 176.168C272.324 174.13 263.192 171.699 248.708 171.564C237.429 171.458 218.697 157.193 217.049 161.571Z" fill="white"/>
<path d="M251.837 202.629C249.992 202.629 249.342 202.221 249.07 201.572C248.677 200.651 248.692 199.67 249.13 198.644C251.005 194.16 261.014 189.602 264.476 188.138C262.979 186.598 259.064 183.383 251.277 181.753C247.21 180.907 239.364 177.873 232.182 174.371C227.178 171.941 218.499 167.307 216.504 163.684C216.02 162.809 215.914 161.993 216.186 161.254C216.398 160.68 216.821 160.257 217.38 160.031C219.391 159.231 223.111 160.922 229.506 164.001C235.614 166.944 243.219 170.597 248.692 170.658C263.811 170.809 272.928 173.39 278.461 175.322C281.531 176.394 283.224 177.707 283.95 179.594C284.131 180.062 283.904 180.59 283.436 180.771C282.967 180.953 282.438 180.726 282.256 180.258C281.727 178.885 280.412 177.934 277.857 177.043C272.444 175.156 263.524 172.62 248.677 172.484C242.796 172.424 234.979 168.665 228.72 165.646C226.149 164.409 223.715 163.231 221.78 162.492C219.27 161.525 218.378 161.601 218.061 161.722C217.97 161.767 217.925 161.797 217.879 161.903C217.774 162.175 217.94 162.552 218.076 162.809C219.331 165.103 224.895 168.816 232.953 172.741C240.014 176.183 247.679 179.156 251.625 179.971C262.859 182.311 266.563 187.76 266.714 188.002C266.865 188.228 266.91 188.515 266.82 188.772C266.744 189.028 266.548 189.24 266.291 189.345C262.526 190.825 252.396 195.519 250.778 199.353C250.567 199.866 250.521 200.304 250.657 200.727C251.005 200.832 252.351 201.029 257.219 200.229C260.651 199.67 264.673 198.795 267.621 198.176C269.345 197.813 270.69 197.512 271.507 197.376C274.213 196.893 276.965 195.262 278.87 193.013C279.187 192.636 279.762 192.576 280.155 192.908C280.533 193.225 280.593 193.798 280.261 194.191C278.083 196.757 274.939 198.629 271.824 199.172C271.038 199.308 269.692 199.595 267.999 199.957C264.809 200.636 260.455 201.572 256.826 202.146C254.588 202.463 252.986 202.629 251.837 202.629Z" fill="#383938"/>
<path d="M142.951 499.212C149.694 503.469 150.39 505.839 150.39 505.839L142.951 499.212Z" fill="#5182C3"/>
<path d="M149.526 506.125C149.511 506.11 148.65 503.891 142.451 499.982C142.027 499.71 141.906 499.152 142.164 498.729C142.436 498.306 142.995 498.185 143.418 498.442C150.252 502.759 151.174 505.295 151.25 505.582L149.511 506.095C149.526 506.095 149.526 506.11 149.526 506.125Z" fill="#383938"/>
<path d="M135.523 499.786C142.267 504.042 142.962 506.412 142.962 506.412L135.523 499.786Z" fill="#5182C3"/>
<path d="M142.116 506.699C142.101 506.684 141.239 504.465 135.041 500.556C134.617 500.284 134.496 499.725 134.753 499.303C135.025 498.88 135.585 498.759 136.008 499.016C142.842 503.333 143.764 505.869 143.84 506.156L142.101 506.669C142.101 506.669 142.101 506.684 142.116 506.699Z" fill="#383938"/>
<path d="M125.701 498.533C132.444 502.789 133.14 505.159 133.14 505.159L125.701 498.533Z" fill="#5182C3"/>
<path d="M132.276 505.446C132.261 505.431 131.4 503.212 125.201 499.303C124.777 499.031 124.656 498.472 124.914 498.05C125.171 497.627 125.745 497.506 126.168 497.763C133.002 502.08 133.924 504.616 134 504.903L132.261 505.416C132.261 505.416 132.276 505.416 132.276 505.446Z" fill="#383938"/>
<path d="M317.213 637.737C322.081 636.786 326.768 638.96 326.768 638.96L317.213 637.737Z" fill="#5182C3"/>
<path d="M326.768 639.866C326.647 639.866 326.511 639.835 326.39 639.775C326.345 639.76 321.9 637.737 317.394 638.613C316.895 638.703 316.426 638.386 316.336 637.903C316.245 637.405 316.563 636.937 317.046 636.847C322.141 635.85 326.949 638.039 327.161 638.145C327.615 638.356 327.811 638.9 327.599 639.352C327.433 639.669 327.116 639.866 326.768 639.866Z" fill="#383938"/>
<path d="M313.129 644.877C317.997 643.926 322.684 646.1 322.684 646.1L313.129 644.877Z" fill="#5182C3"/>
<path d="M322.684 647.006C322.563 647.006 322.427 646.976 322.306 646.915C322.261 646.9 317.816 644.877 313.31 645.753C312.811 645.843 312.343 645.526 312.252 645.043C312.161 644.545 312.479 644.077 312.962 643.987C318.058 642.991 322.865 645.179 323.077 645.285C323.531 645.496 323.727 646.04 323.515 646.493C323.349 646.825 323.032 647.006 322.684 647.006Z" fill="#383938"/>
<path d="M307.535 650.704C312.403 649.753 317.09 651.927 317.09 651.927L307.535 650.704Z" fill="#5182C3"/>
<path d="M317.09 652.832C316.969 652.832 316.833 652.802 316.712 652.742C316.667 652.727 312.222 650.704 307.716 651.58C307.217 651.67 306.749 651.353 306.658 650.87C306.567 650.372 306.885 649.904 307.369 649.813C312.464 648.817 317.272 651.006 317.483 651.112C317.937 651.323 318.133 651.866 317.922 652.319C317.755 652.636 317.423 652.832 317.09 652.832Z" fill="#383938"/>
<path d="M480.558 229.377C477.837 222.992 450.683 223.686 445.437 227.988C440.205 232.275 439.283 256.276 439.283 256.276C439.283 256.276 445.376 245.075 450.305 242.087C455.234 239.098 479.908 243.324 479.908 243.324L480.558 229.377Z" fill="#5182C3"/>
<path d="M464.003 142.099C443.139 140.287 437.197 163.684 442.504 172.062C447.826 180.439 462.96 202.206 460.39 209.588C457.82 216.984 468.494 221.905 479.546 214.478C499.518 201.089 507.289 171.76 491.973 161.299C476.658 150.839 463.565 151.276 464.003 142.099Z" fill="#383938"/>
<path d="M479.681 195.323C479.605 195.323 479.529 195.308 479.454 195.293L456.231 189.451C455.747 189.33 455.445 188.832 455.566 188.349C455.687 187.866 456.186 187.564 456.669 187.685L479.892 193.527C480.376 193.647 480.678 194.145 480.558 194.628C480.452 195.051 480.089 195.323 479.681 195.323Z" fill="#383938"/>
<path d="M445.557 199.051L447.961 239.883C447.961 239.883 442.094 245.03 439.282 256.276C438.073 261.8 437.619 269.182 437.619 269.182C437.619 269.182 446.222 259.732 447.613 257.347C454.008 246.404 475.25 247.128 477.08 241.769L477.851 187.353L445.557 199.051Z" fill="white"/>
<path d="M477.08 242.66C476.566 242.66 476.173 242.238 476.173 241.74L476.929 188.621L446.494 199.655L448.868 239.808C448.898 240.306 448.52 240.728 448.021 240.759C447.522 240.789 447.099 240.411 447.069 239.913L444.665 199.082C444.634 198.689 444.876 198.312 445.254 198.176L477.549 186.462C477.836 186.357 478.138 186.402 478.38 186.583C478.622 186.749 478.758 187.036 478.758 187.338L477.987 241.755C477.987 242.268 477.579 242.66 477.08 242.66Z" fill="#383938"/>
<path d="M479.682 194.417C479.682 194.417 489.176 180.424 473.362 171.095C463.429 165.238 457.169 161.721 454.403 157.751C436.199 172.258 431.845 202.055 431.754 209.798C431.648 218.825 461.267 220.667 465.167 216.319C469.053 211.972 471.971 207.821 471.971 207.821C471.971 207.821 478.684 210.115 483.356 204.078C489.963 195.519 479.682 194.417 479.682 194.417Z" fill="white"/>
<path d="M471.954 207.821C471.954 207.821 478.667 210.115 483.338 204.078C489.961 195.519 479.68 194.417 479.68 194.417C479.68 194.417 489.174 180.424 473.36 171.095C463.427 165.238 457.167 161.721 454.401 157.751C436.197 172.258 431.843 202.055 431.752 209.798C431.646 218.825 461.265 220.667 465.165 216.319" fill="white"/>
<path d="M454.31 219.475C454.144 219.475 453.977 219.475 453.841 219.475C447.9 219.414 441.837 218.403 437.619 216.773C431.964 214.584 430.815 211.761 430.83 209.799C430.921 202.463 435.094 171.986 453.826 157.057C454.023 156.907 454.28 156.831 454.522 156.876C454.764 156.907 454.99 157.042 455.142 157.254C457.606 160.801 463.291 164.137 471.894 169.209C472.513 169.571 473.164 169.948 473.829 170.341C478.939 173.36 482.054 177.164 483.067 181.677C484.261 186.945 482.25 191.685 481.131 193.798C482.704 194.191 485.213 195.142 486.136 197.315C486.997 199.323 486.302 201.799 484.08 204.667C481.464 208.048 478.228 208.969 475.991 209.15C473.572 209.346 471.757 208.727 471.682 208.712C471.213 208.546 470.956 208.033 471.123 207.565C471.289 207.097 471.803 206.84 472.272 207.006C472.529 207.097 478.44 208.999 482.643 203.565C483.868 201.98 485.183 199.731 484.473 198.04C483.686 196.198 480.693 195.474 479.604 195.368C479.287 195.338 479.015 195.142 478.879 194.855C478.742 194.568 478.773 194.236 478.954 193.964C478.984 193.904 482.704 188.304 481.298 182.085C480.39 178.085 477.578 174.673 472.922 171.926C472.256 171.533 471.621 171.156 471.002 170.794C462.792 165.963 457.183 162.658 454.265 159.095C445.133 166.733 439.932 178.236 437.165 186.643C433.703 197.104 432.72 206.403 432.675 209.859C432.645 212.395 435.714 214.116 438.299 215.127C442.321 216.682 448.142 217.648 453.887 217.709C459.965 217.769 463.593 216.773 464.5 215.761C464.833 215.384 465.407 215.354 465.785 215.686C466.163 216.018 466.194 216.592 465.861 216.969C463.79 219.188 457.425 219.475 454.31 219.475Z" fill="#383938"/>
<path d="M438.95 188.591C435.73 188.591 433.175 184.696 433.13 179.7C433.084 174.688 435.594 170.748 438.845 170.718C442.08 170.703 444.65 174.598 444.696 179.609C444.741 184.621 442.231 188.56 438.981 188.591C438.965 188.591 438.965 188.591 438.95 188.591ZM438.875 172.53H438.86C436.713 172.545 434.914 175.82 434.944 179.685C434.974 183.534 436.803 186.779 438.95 186.779H438.965C441.112 186.764 442.912 183.489 442.881 179.624C442.851 175.775 441.022 172.53 438.875 172.53Z" fill="#383938"/>
<path d="M450.97 196.787C449.352 196.787 447.855 195.806 446.752 194.024C445.739 192.379 445.164 190.19 445.149 187.896C445.104 182.884 447.613 178.945 450.864 178.915C450.879 178.915 450.879 178.915 450.894 178.915C454.115 178.915 456.67 182.809 456.715 187.805C456.73 190.115 456.201 192.304 455.203 193.964C454.13 195.775 452.633 196.772 451 196.787C450.985 196.787 450.985 196.787 450.97 196.787ZM450.894 180.726H450.879C448.732 180.741 446.933 184.017 446.963 187.881C446.978 189.858 447.447 191.715 448.294 193.074C449.05 194.296 450.002 194.975 450.985 194.975C451.953 194.975 452.905 194.281 453.646 193.043C454.477 191.655 454.916 189.813 454.901 187.821C454.871 183.971 453.041 180.726 450.894 180.726Z" fill="#383938"/>
<path d="M446.902 184.198C446.736 184.198 446.554 184.153 446.403 184.047L443.198 181.934C442.775 181.662 442.669 181.104 442.941 180.681C443.213 180.259 443.772 180.153 444.196 180.425L447.401 182.538C447.824 182.81 447.93 183.368 447.658 183.791C447.477 184.062 447.189 184.198 446.902 184.198Z" fill="#383938"/>
<path d="M447.613 257.333C450.985 240.834 457.017 238.298 466.845 237.226C476.672 236.155 480.316 231.324 480.573 229.377L479.923 243.325C479.923 243.325 478.003 249.951 463.791 250.268C453.631 250.48 447.613 257.333 447.613 257.333Z" fill="#5182C3"/>
<path d="M540.262 431.95C525.491 431.95 506.29 430.44 483.036 427.467C427.519 420.342 355.084 405.609 279.065 385.956C203.047 366.318 132.531 344.113 80.537 323.448C55.2277 313.38 35.6637 304.232 22.4043 296.232C15.6309 292.157 10.5812 288.398 7.39104 285.077C3.92878 281.484 2.55295 278.254 3.26354 275.507L43.9792 118.4C44.1001 117.917 44.599 117.63 45.0828 117.751C45.5667 117.871 45.8539 118.37 45.733 118.853C44.9468 121.887 47.4868 127.593 64.0573 137.585C77.2411 145.525 96.6993 154.643 121.933 164.665C173.867 185.315 244.292 207.49 320.235 227.113C396.178 246.736 468.537 261.469 523.979 268.578C550.906 272.035 572.36 273.499 587.751 272.926C607.088 272.216 612.093 268.458 612.879 265.424C613 264.941 613.499 264.654 613.983 264.774C614.466 264.895 614.754 265.393 614.633 265.876L573.902 422.968C573.191 425.731 570.409 427.874 565.632 429.338C561.217 430.697 554.973 431.527 547.081 431.829C544.934 431.92 542.651 431.95 540.262 431.95ZM44.6142 123.17L5.00223 275.945C4.21604 278.979 6.75604 284.685 23.3265 294.677C36.5103 302.617 55.9686 311.735 81.2023 321.758C133.136 342.407 203.561 364.582 279.504 384.205C355.447 403.828 427.807 418.561 483.248 425.67C510.175 429.127 531.629 430.591 547.02 430.018C566.358 429.308 571.362 425.55 572.148 422.516L611.76 269.741C610.399 270.722 608.615 271.552 606.378 272.246C601.963 273.605 595.719 274.435 587.827 274.737C572.345 275.311 550.785 273.831 523.767 270.375C468.25 263.25 395.815 248.517 319.796 228.864C243.777 209.21 173.277 187.021 121.268 166.341C95.9433 156.288 76.3944 147.125 63.1199 139.125C56.3465 135.049 51.2968 131.291 48.1067 127.97C46.4889 126.279 45.3248 124.679 44.6142 123.17Z" fill="#383938"/>
<path d="M143.282 361.306C143.191 361.306 143.085 361.291 142.994 361.261C99.2852 346.739 62.9995 332.58 38.053 320.323C25.4135 314.104 15.8582 308.459 9.62919 303.538C2.85585 298.179 0.0437099 293.726 1.02645 289.953C1.1474 289.469 1.64633 289.183 2.13014 289.303C2.61395 289.424 2.90121 289.922 2.78026 290.405C1.87312 293.907 5.3505 302.225 38.8543 318.693C63.7252 330.92 99.9353 345.049 143.569 359.54C144.038 359.691 144.295 360.204 144.143 360.687C144.007 361.079 143.66 361.306 143.282 361.306Z" fill="#5182C3"/>
<path d="M233.194 356.174C186.371 342.543 139.955 327.388 94.0234 310.723C102.551 277.846 111.078 244.97 119.59 212.108C165.521 228.758 211.937 243.913 258.761 257.559C250.249 290.436 241.721 323.312 233.194 356.174Z" fill="white"/>
<path d="M233.194 357.08C233.103 357.08 233.027 357.064 232.937 357.049C186.279 343.464 139.44 328.173 93.7203 311.584C93.2819 311.418 93.04 310.965 93.1458 310.512L118.712 211.897C118.773 211.656 118.939 211.444 119.166 211.324C119.392 211.203 119.665 211.188 119.891 211.278C165.581 227.837 212.39 243.129 259.002 256.699C259.471 256.835 259.743 257.318 259.622 257.801L234.055 356.415C233.995 356.657 233.844 356.853 233.632 356.974C233.511 357.049 233.36 357.08 233.194 357.08ZM95.1113 310.165C140.257 326.512 186.491 341.607 232.544 355.042L257.656 258.178C211.604 244.744 165.37 229.649 120.209 213.301L95.1113 310.165Z" fill="#5182C3"/>
<path d="M164.462 276.005C148.678 270.752 132.954 265.318 117.291 259.702C120.224 248.396 123.157 237.105 126.075 225.799C141.739 231.4 157.477 236.834 173.247 242.102C170.314 253.408 167.38 264.714 164.462 276.005Z" fill="#B9D2EE"/>
<path d="M164.463 276.911C164.372 276.911 164.266 276.896 164.175 276.865C148.467 271.627 132.592 266.148 116.974 260.563C116.535 260.412 116.278 259.944 116.399 259.476L125.183 225.573C125.244 225.332 125.41 225.12 125.637 225C125.864 224.879 126.121 224.864 126.362 224.954C141.95 230.539 157.825 236.019 173.519 241.242C173.972 241.393 174.229 241.86 174.108 242.328L165.324 276.231C165.264 276.473 165.098 276.684 164.886 276.805C164.75 276.88 164.614 276.911 164.463 276.911ZM118.365 259.144C133.393 264.518 148.678 269.801 163.828 274.843L172.158 242.706C157.024 237.649 141.739 232.381 126.695 227.007L118.365 259.144Z" fill="#5182C3"/>
<path d="M159.775 294.964C159.684 294.964 159.578 294.949 159.488 294.919C143.764 289.681 127.889 284.202 112.286 278.616C111.848 278.466 111.591 277.998 111.712 277.53L113.586 270.314C113.647 270.073 113.813 269.861 114.04 269.741C114.267 269.62 114.524 269.605 114.766 269.695C130.353 275.265 146.213 280.745 161.922 285.983C162.375 286.134 162.633 286.602 162.512 287.07L160.637 294.285C160.576 294.526 160.41 294.738 160.198 294.859C160.077 294.934 159.926 294.964 159.775 294.964ZM113.692 277.198C128.72 282.571 144.006 287.855 159.155 292.896L160.576 287.432C145.427 282.375 130.142 277.107 115.113 271.733L113.692 277.198Z" fill="#5182C3"/>
<path d="M156.646 307.07C156.555 307.07 156.45 307.055 156.359 307.025C140.65 301.787 124.76 296.308 109.157 290.722C108.719 290.571 108.462 290.104 108.583 289.636L110.457 282.42C110.518 282.179 110.684 281.967 110.911 281.847C111.138 281.726 111.395 281.711 111.637 281.801C127.209 287.371 143.084 292.851 158.793 298.089C159.247 298.24 159.504 298.708 159.383 299.176L157.508 306.391C157.447 306.632 157.281 306.844 157.069 306.964C156.933 307.04 156.782 307.07 156.646 307.07ZM110.548 289.304C125.576 294.677 140.862 299.96 156.011 305.002L157.432 299.538C142.283 294.481 126.998 289.213 111.969 283.839L110.548 289.304Z" fill="#5182C3"/>
<path d="M153.502 319.177C153.411 319.177 153.305 319.161 153.214 319.131C137.506 313.893 121.631 308.414 106.013 302.829C105.574 302.678 105.317 302.21 105.438 301.742L107.313 294.527C107.373 294.285 107.54 294.074 107.766 293.953C107.993 293.832 108.25 293.817 108.492 293.908C124.08 299.493 139.955 304.972 155.648 310.195C156.102 310.346 156.359 310.814 156.238 311.282L154.363 318.497C154.303 318.739 154.137 318.95 153.925 319.071C153.804 319.146 153.653 319.177 153.502 319.177ZM107.404 301.41C122.447 306.784 137.732 312.067 152.867 317.109L154.288 311.644C139.154 306.588 123.868 301.319 108.825 295.946L107.404 301.41Z" fill="#5182C3"/>
<path d="M240.269 268.684C240.179 268.684 240.103 268.669 240.012 268.639C221.627 263.144 203.046 257.348 184.797 251.386C184.329 251.235 184.057 250.721 184.223 250.238C184.374 249.77 184.888 249.499 185.372 249.665C203.606 255.612 222.172 261.424 240.541 266.903C241.025 267.039 241.297 267.552 241.146 268.035C241.025 268.428 240.662 268.684 240.269 268.684Z" fill="#5182C3"/>
<path d="M237.986 277.484C237.895 277.484 237.82 277.469 237.729 277.439C219.329 271.944 200.763 266.148 182.514 260.185C182.046 260.034 181.773 259.521 181.94 259.038C182.091 258.57 182.605 258.299 183.089 258.465C201.322 264.412 219.889 270.223 238.258 275.703C238.742 275.839 239.014 276.352 238.863 276.835C238.742 277.227 238.379 277.484 237.986 277.484Z" fill="#5182C3"/>
<path d="M235.703 286.285C235.612 286.285 235.537 286.27 235.446 286.24C217.046 280.745 198.48 274.949 180.231 268.986C179.762 268.835 179.49 268.322 179.657 267.839C179.808 267.371 180.322 267.099 180.806 267.265C199.039 273.213 217.605 279.024 235.975 284.504C236.459 284.639 236.731 285.153 236.58 285.636C236.459 286.028 236.096 286.285 235.703 286.285Z" fill="#5182C3"/>
<path d="M233.422 295.085C233.331 295.085 233.255 295.07 233.165 295.04C214.78 289.545 196.199 283.749 177.95 277.786C177.481 277.635 177.209 277.122 177.375 276.639C177.526 276.171 178.041 275.9 178.524 276.066C196.758 282.028 215.324 287.825 233.694 293.304C234.178 293.44 234.45 293.953 234.299 294.436C234.178 294.844 233.815 295.085 233.422 295.085Z" fill="#5182C3"/>
<path d="M176.164 317.305C177.827 315.282 179.49 313.274 181.138 311.252C180.292 310.512 179.279 309.923 178.16 309.561C173.881 308.172 169.512 310.512 168.408 314.784C167.304 319.056 169.875 323.66 174.153 325.033C178.432 326.422 182.817 324.052 183.92 319.78C184.208 318.648 184.238 317.501 184.056 316.384C181.426 316.701 178.795 317.003 176.164 317.305Z" fill="#5182C3"/>
<path d="M176.648 326.347C175.726 326.347 174.804 326.196 173.882 325.909C169.164 324.384 166.307 319.297 167.532 314.558C168.121 312.278 169.558 310.407 171.599 309.29C173.67 308.142 176.104 307.931 178.448 308.686C179.657 309.078 180.761 309.697 181.744 310.542C182.121 310.859 182.167 311.418 181.849 311.795C180.655 313.244 179.476 314.678 178.281 316.128C180.171 315.916 182.076 315.69 183.951 315.478C184.435 315.418 184.873 315.75 184.949 316.233C185.16 317.516 185.115 318.784 184.798 319.992C184.208 322.286 182.756 324.158 180.715 325.275C179.461 326 178.07 326.347 176.648 326.347ZM175.666 310.074C174.547 310.074 173.443 310.346 172.46 310.89C170.873 311.765 169.754 313.229 169.285 315.026C168.288 318.845 170.601 322.965 174.426 324.188C176.286 324.792 178.206 324.626 179.839 323.72C181.441 322.845 182.575 321.365 183.044 319.569C183.225 318.875 183.301 318.15 183.255 317.411C180.927 317.682 178.584 317.954 176.27 318.211C175.908 318.256 175.545 318.06 175.378 317.743C175.197 317.426 175.242 317.018 175.469 316.731C176.936 314.95 178.402 313.169 179.854 311.388C179.249 310.965 178.584 310.648 177.888 310.422C177.147 310.195 176.406 310.074 175.666 310.074Z" fill="#5182C3"/>
<path d="M194.869 323.252C195.353 320.626 195.836 317.999 196.32 315.373C192.208 314.391 188.156 316.716 187.098 320.807C185.994 325.079 188.564 329.652 192.858 330.996C196.607 332.173 200.433 330.498 202.065 327.207C199.677 325.879 197.273 324.565 194.869 323.252Z" fill="#A9B6C5"/>
<path d="M195.276 332.264C194.384 332.264 193.492 332.128 192.6 331.856C187.853 330.377 184.995 325.32 186.235 320.58C187.399 316.067 191.935 313.38 196.546 314.482C197.015 314.588 197.317 315.056 197.226 315.524L195.896 322.769C198.088 323.977 200.326 325.199 202.533 326.392C202.956 326.618 203.123 327.162 202.911 327.584C201.429 330.528 198.451 332.264 195.276 332.264ZM194.46 316.052C191.451 316.052 188.76 318.014 187.974 321.033C186.991 324.852 189.304 328.928 193.129 330.135C196.077 331.056 199.177 329.984 200.825 327.554C198.693 326.392 196.546 325.215 194.429 324.052C194.082 323.871 193.9 323.479 193.976 323.101L195.261 316.112C194.989 316.067 194.732 316.052 194.46 316.052Z" fill="#5182C3"/>
<path d="M215.625 321.289C211.316 319.976 206.932 322.376 205.828 326.648C205.632 327.373 205.571 328.112 205.586 328.852C208.262 328.912 210.938 328.973 213.63 329.033C212.692 331.509 211.755 333.999 210.817 336.475C211.074 336.581 211.347 336.686 211.634 336.762C215.943 338.075 220.327 335.645 221.431 331.373C222.535 327.116 219.934 322.603 215.625 321.289Z" fill="#B9D2EE"/>
<path d="M213.993 338.03C213.116 338.03 212.224 337.894 211.362 337.637C211.06 337.547 210.757 337.441 210.47 337.305C210.016 337.109 209.805 336.611 209.971 336.158L212.33 329.909C210.122 329.863 207.854 329.818 205.571 329.758C205.088 329.743 204.694 329.35 204.679 328.867C204.664 328.022 204.755 327.192 204.951 326.422C205.541 324.142 206.993 322.256 209.019 321.123C211.105 319.961 213.539 319.705 215.898 320.429C220.66 321.878 223.533 326.89 222.308 331.614C221.719 333.909 220.267 335.796 218.226 336.943C216.911 337.667 215.459 338.03 213.993 338.03ZM211.982 335.931C213.811 336.46 215.701 336.249 217.319 335.343C218.921 334.437 220.071 332.958 220.539 331.146C221.522 327.358 219.194 323.312 215.369 322.15C213.494 321.576 211.559 321.773 209.911 322.693C208.308 323.584 207.174 325.063 206.72 326.86C206.63 327.207 206.569 327.569 206.539 327.946C208.958 328.007 211.347 328.052 213.66 328.097C213.947 328.097 214.235 328.248 214.386 328.49C214.552 328.731 214.582 329.048 214.476 329.32L211.982 335.931Z" fill="#5182C3"/>
<path d="M479.726 361.442C479.681 361.442 479.62 361.442 479.575 361.427C428.412 352.385 376.932 341.396 326.54 328.746C326.298 328.686 326.101 328.535 325.98 328.324C325.859 328.112 325.829 327.871 325.89 327.629L343.896 258.163C344.017 257.68 344.516 257.393 345 257.514C395.347 270.148 446.797 281.137 497.914 290.164C498.156 290.209 498.383 290.36 498.519 290.572C498.655 290.783 498.7 291.04 498.64 291.281L480.633 360.748C480.497 361.17 480.134 361.442 479.726 361.442ZM327.87 327.207C377.657 339.69 428.518 350.543 479.061 359.495L496.614 291.779C446.071 282.828 395.21 271.96 345.423 259.491L327.87 327.207Z" fill="#383938"/>
<path d="M476.036 343.977C475.976 343.977 475.93 343.977 475.87 343.962C429.953 335.675 383.704 325.803 338.422 314.603C337.939 314.482 337.636 313.999 337.757 313.501C337.878 313.003 338.377 312.716 338.861 312.837C384.112 324.022 430.316 333.894 476.187 342.166C476.686 342.256 477.004 342.724 476.913 343.223C476.852 343.675 476.474 343.977 476.036 343.977Z" fill="#383938"/>
<path d="M354.162 296.307C352.091 295.809 350.019 295.296 347.948 294.798C346.224 301.455 344.501 308.096 342.777 314.753C344.849 315.266 346.92 315.765 348.991 316.263C350.715 309.606 352.438 302.964 354.162 296.307Z" fill="#B9D2EE"/>
<path d="M348.99 317.169C348.914 317.169 348.854 317.153 348.778 317.138C346.707 316.64 344.636 316.127 342.549 315.629C342.307 315.569 342.111 315.418 341.99 315.206C341.869 314.995 341.824 314.753 341.884 314.512L347.055 294.557C347.176 294.073 347.675 293.787 348.143 293.907C350.215 294.421 352.286 294.919 354.357 295.417C354.599 295.477 354.796 295.628 354.917 295.824C355.038 296.036 355.083 296.277 355.023 296.519L349.852 316.474C349.761 316.897 349.398 317.169 348.99 317.169ZM343.88 314.089C345.361 314.452 346.858 314.814 348.34 315.176L353.057 296.987C351.575 296.625 350.079 296.262 348.597 295.9L343.88 314.089Z" fill="#383938"/>
<path d="M364.171 313.033C362.1 312.549 360.013 312.051 357.942 311.553C357.382 313.697 356.823 315.855 356.264 317.999C358.335 318.497 360.421 318.98 362.493 319.478C363.052 317.335 363.612 315.191 364.171 313.033Z" fill="#B9D2EE"/>
<path d="M362.494 320.384C362.418 320.384 362.358 320.369 362.282 320.354C360.211 319.871 358.125 319.373 356.053 318.874C355.811 318.814 355.615 318.663 355.494 318.467C355.373 318.256 355.328 318.014 355.388 317.773L357.066 311.327C357.187 310.844 357.671 310.557 358.155 310.678C360.226 311.176 362.313 311.659 364.384 312.157C364.626 312.218 364.822 312.369 364.958 312.565C365.094 312.761 365.125 313.018 365.064 313.259L363.386 319.705C363.265 320.112 362.902 320.384 362.494 320.384ZM357.369 317.335C358.85 317.682 360.347 318.044 361.829 318.391L363.038 313.697C361.557 313.35 360.06 312.987 358.578 312.64L357.369 317.335Z" fill="#383938"/>
<path d="M382.934 295.945C380.848 295.462 378.777 294.994 376.69 294.511C374.377 303.402 372.079 312.293 369.766 321.199C371.852 321.682 373.923 322.165 376.01 322.633C378.323 313.727 380.621 304.836 382.934 295.945Z" fill="#5182C3"/>
<path d="M376.009 323.524C375.949 323.524 375.873 323.524 375.813 323.494C373.726 323.01 371.655 322.543 369.568 322.06C369.326 321.999 369.13 321.848 368.994 321.652C368.873 321.441 368.828 321.199 368.888 320.958L375.813 294.27C375.933 293.787 376.417 293.5 376.901 293.621C378.972 294.104 381.059 294.587 383.13 295.055C383.372 295.115 383.569 295.251 383.705 295.462C383.826 295.674 383.871 295.93 383.811 296.157L376.886 322.844C376.78 323.252 376.417 323.524 376.009 323.524ZM370.884 320.52C372.381 320.867 373.862 321.214 375.359 321.546L381.83 296.625C380.333 296.278 378.851 295.945 377.355 295.598L370.884 320.52Z" fill="#383938"/>
<path d="M393.941 308.746C391.855 308.278 389.768 307.81 387.697 307.342C386.23 312.987 384.764 318.633 383.312 324.263C385.399 324.731 387.47 325.199 389.557 325.667C391.023 320.037 392.475 314.391 393.941 308.746Z" fill="#B9D2EE"/>
<path d="M389.556 326.588C389.495 326.588 389.42 326.588 389.359 326.573C387.273 326.105 385.187 325.637 383.115 325.169C382.873 325.108 382.662 324.972 382.541 324.761C382.42 324.55 382.374 324.293 382.435 324.067L386.819 307.145C386.94 306.678 387.424 306.376 387.893 306.496C389.979 306.964 392.051 307.432 394.137 307.9C394.379 307.961 394.591 308.096 394.712 308.308C394.832 308.519 394.878 308.776 394.817 309.002L390.433 325.923C390.327 326.316 389.964 326.588 389.556 326.588ZM384.415 323.599C385.912 323.931 387.394 324.263 388.891 324.595L392.822 309.425C391.325 309.093 389.843 308.761 388.346 308.429L384.415 323.599Z" fill="#383938"/>
<path d="M412.566 292.202C410.48 291.749 408.393 291.296 406.307 290.843C403.162 302.995 400.002 315.131 396.857 327.282C398.944 327.735 401.03 328.188 403.117 328.641C406.261 316.489 409.406 304.353 412.566 292.202Z" fill="#B9D2EE"/>
<path d="M403.117 329.546C403.057 329.546 402.996 329.547 402.921 329.531C400.834 329.079 398.748 328.626 396.661 328.173C396.419 328.128 396.208 327.977 396.087 327.765C395.951 327.554 395.92 327.297 395.981 327.071L405.43 290.632C405.551 290.164 406.02 289.877 406.504 289.968C408.59 290.421 410.677 290.874 412.763 291.326C413.005 291.372 413.217 291.523 413.338 291.734C413.458 291.945 413.504 292.202 413.443 292.443L403.994 328.882C403.888 329.275 403.525 329.546 403.117 329.546ZM397.977 326.603C399.473 326.935 400.97 327.252 402.467 327.569L411.463 292.881C409.966 292.564 408.469 292.232 406.972 291.915L397.977 326.603Z" fill="#383938"/>
<path d="M418.357 325.078C416.271 324.641 414.185 324.203 412.098 323.765C411.539 325.909 410.979 328.067 410.42 330.211C412.506 330.648 414.593 331.086 416.679 331.524C417.254 329.38 417.813 327.222 418.357 325.078Z" fill="#5182C3"/>
<path d="M416.695 332.43C416.634 332.43 416.574 332.43 416.513 332.415C414.427 331.977 412.34 331.539 410.239 331.101C409.997 331.056 409.785 330.905 409.649 330.694C409.513 330.482 409.483 330.226 409.543 329.984L411.222 323.539C411.343 323.071 411.811 322.784 412.295 322.875C414.381 323.312 416.468 323.75 418.554 324.188C418.796 324.233 419.008 324.384 419.144 324.595C419.28 324.807 419.31 325.063 419.25 325.305L417.572 331.75C417.466 332.158 417.103 332.43 416.695 332.43ZM411.539 329.516C413.036 329.833 414.533 330.15 416.029 330.467L417.239 325.773C415.742 325.456 414.245 325.139 412.749 324.822L411.539 329.516Z" fill="#383938"/>
<path d="M435.608 313.818C433.522 313.395 431.42 312.972 429.334 312.535C427.565 319.373 425.796 326.196 424.012 333.033C426.098 333.456 428.2 333.894 430.286 334.317C432.07 327.494 433.839 320.656 435.608 313.818Z" fill="#B9D2EE"/>
<path d="M430.286 335.222C430.226 335.222 430.166 335.222 430.105 335.207C428.019 334.784 425.917 334.362 423.831 333.924C423.589 333.879 423.377 333.728 423.241 333.517C423.105 333.305 423.075 333.049 423.135 332.807L428.457 312.308C428.578 311.84 429.047 311.554 429.515 311.644C431.602 312.067 433.703 312.505 435.79 312.927C436.032 312.972 436.243 313.123 436.379 313.335C436.516 313.546 436.546 313.803 436.485 314.044L431.163 334.543C431.058 334.951 430.695 335.222 430.286 335.222ZM425.131 332.339C426.628 332.641 428.124 332.958 429.621 333.26L434.474 314.512C432.978 314.21 431.481 313.908 429.984 313.591L425.131 332.339Z" fill="#383938"/>
<path d="M447.084 324.776C444.982 324.369 442.896 323.946 440.794 323.539C439.736 327.629 438.677 331.705 437.619 335.796C439.706 336.218 441.807 336.626 443.909 337.033C444.967 332.943 446.025 328.867 447.084 324.776Z" fill="#B9D2EE"/>
<path d="M443.909 337.939C443.849 337.939 443.788 337.939 443.728 337.924C441.626 337.516 439.54 337.094 437.438 336.686C437.196 336.641 436.984 336.49 436.848 336.279C436.712 336.067 436.682 335.811 436.743 335.569L439.918 323.312C440.039 322.844 440.507 322.557 440.976 322.648C443.062 323.071 445.164 323.478 447.25 323.886C447.492 323.931 447.704 324.082 447.84 324.293C447.976 324.505 448.006 324.761 447.946 325.003L444.771 337.26C444.68 337.667 444.317 337.939 443.909 337.939ZM438.738 335.086C440.235 335.388 441.732 335.675 443.244 335.977L445.965 325.471C444.468 325.169 442.972 324.882 441.46 324.58L438.738 335.086Z" fill="#383938"/>
<path d="M465.105 310.497C463.003 310.105 460.917 309.697 458.815 309.305C456.291 319.026 453.781 328.747 451.256 338.468C453.357 338.875 455.444 339.268 457.545 339.66C460.07 329.939 462.58 320.218 465.105 310.497Z" fill="#5182C3"/>
<path d="M457.545 340.566C457.485 340.566 457.439 340.566 457.379 340.551C455.277 340.159 453.176 339.751 451.089 339.343C450.847 339.298 450.621 339.147 450.5 338.936C450.364 338.725 450.318 338.468 450.394 338.226L457.953 309.063C458.074 308.595 458.528 308.308 458.997 308.399C461.098 308.807 463.185 309.199 465.286 309.591C465.528 309.637 465.755 309.788 465.891 309.999C466.027 310.21 466.072 310.467 465.997 310.709L458.437 339.872C458.316 340.294 457.953 340.566 457.545 340.566ZM452.374 337.743C453.871 338.03 455.383 338.317 456.88 338.604L463.986 311.207C462.489 310.92 460.977 310.633 459.48 310.346L452.374 337.743Z" fill="#383938"/>
<path d="M475.582 325.26C473.48 324.883 471.379 324.49 469.277 324.098C467.811 329.743 466.344 335.389 464.893 341.019C466.994 341.411 469.096 341.789 471.197 342.181C472.664 336.551 474.115 330.905 475.582 325.26Z" fill="#B9D2EE"/>
<path d="M471.198 343.102C471.138 343.102 471.093 343.102 471.032 343.087C468.931 342.71 466.829 342.317 464.727 341.925C464.486 341.879 464.259 341.728 464.123 341.517C463.987 341.306 463.941 341.049 464.017 340.808L468.401 323.886C468.522 323.418 468.976 323.132 469.445 323.222C471.546 323.615 473.648 323.992 475.749 324.385C475.991 324.43 476.218 324.581 476.354 324.792C476.49 325.003 476.535 325.26 476.475 325.502L472.09 342.423C471.969 342.83 471.607 343.102 471.198 343.102ZM466.013 340.325C467.509 340.596 469.021 340.883 470.518 341.155L474.449 325.985C472.952 325.713 471.44 325.426 469.944 325.154L466.013 340.325Z" fill="#383938"/>
<path d="M231.683 398.997C231.608 398.997 231.517 398.982 231.441 398.967C194.657 388.778 159.958 378.197 128.329 367.494C97.441 357.049 70.8466 346.95 49.3019 337.516C48.8484 337.32 48.6367 336.776 48.8333 336.324C49.0298 335.871 49.5741 335.659 50.0277 335.856C94.0543 355.147 158.658 376.944 231.925 397.216C232.409 397.352 232.696 397.85 232.56 398.333C232.439 398.741 232.076 398.997 231.683 398.997Z" fill="#5182C3"/>
<path d="M373.91 1.45927L232.229 1.02152C225.441 1.00642 219.922 6.47075 219.907 13.2483L219.635 104.225C219.62 111.003 225.093 116.512 231.881 116.527L337.382 116.844L376.631 154.536L367.469 116.935L373.562 116.95C380.35 116.965 385.869 111.501 385.884 104.723L386.156 13.7465C386.171 6.98398 380.683 1.47436 373.91 1.45927Z" fill="white"/>
<path d="M376.63 155.442C376.403 155.442 376.176 155.352 375.995 155.186L337.002 117.735L231.865 117.418C224.592 117.403 218.696 111.471 218.711 104.21L218.998 13.2487C219.013 9.73163 220.389 6.42585 222.884 3.9503C225.378 1.47475 228.674 0.116211 232.182 0.116211C232.197 0.116211 232.212 0.116211 232.227 0.116211L373.908 0.538867C381.18 0.553961 387.077 6.48624 387.062 13.7469L386.79 104.723C386.774 111.969 380.848 117.856 373.606 117.856C373.591 117.856 373.576 117.856 373.56 117.856L368.632 117.841L377.522 154.325C377.612 154.718 377.446 155.125 377.098 155.321C376.932 155.412 376.781 155.442 376.63 155.442ZM232.182 1.92759C229.158 1.92759 226.316 3.10499 224.169 5.23336C222.007 7.37683 220.828 10.2147 220.813 13.2487L220.54 104.225C220.525 110.49 225.605 115.607 231.88 115.622L337.38 115.939C337.607 115.939 337.834 116.03 338 116.196L375.012 151.729L366.59 117.147C366.53 116.875 366.59 116.588 366.757 116.377C366.923 116.165 367.195 116.03 367.467 116.03L373.56 116.045C379.835 116.06 384.96 110.988 384.975 104.723L385.247 13.7469C385.263 7.48249 380.183 2.36534 373.908 2.35025L232.227 1.92759C232.212 1.92759 232.197 1.92759 232.182 1.92759Z" fill="#5182C3"/>
<path d="M262.56 62.9718L232.715 62.8813L232.591 103.441L262.436 103.532L262.56 62.9718Z" fill="#B9D2EE"/>
<path d="M299.13 24.2985L269.285 24.208L269.043 103.562L298.888 103.652L299.13 24.2985Z" fill="#B9D2EE"/>
<path d="M335.519 46.8654L305.674 46.7749L305.5 103.667L335.345 103.758L335.519 46.8654Z" fill="#B9D2EE"/>
<path d="M372.087 9.89761L342.242 9.80713L341.955 103.788L371.8 103.878L372.087 9.89761Z" fill="#B9D2EE"/>
<path d="M238.548 93.7191C238.321 93.7191 238.094 93.6285 237.913 93.4625C237.55 93.1153 237.535 92.5417 237.882 92.1794L290.769 37.3248C290.95 37.1436 291.207 37.038 291.464 37.0531C291.721 37.0681 291.963 37.1889 292.13 37.4002L314.702 65.9597L364.202 19.6336L358.91 19.6185C358.412 19.6185 358.003 19.2109 358.003 18.7128C358.003 18.2147 358.412 17.8071 358.91 17.8071L366.485 17.8373C366.863 17.8373 367.196 18.0637 367.332 18.4109C367.468 18.7581 367.377 19.1506 367.105 19.4072L315.232 67.9522C315.05 68.1182 314.793 68.2088 314.536 68.1937C314.279 68.1786 314.052 68.0579 313.886 67.8465L291.343 39.3324L239.183 93.4323C239.016 93.6285 238.775 93.7191 238.548 93.7191Z" fill="#5182C3"/>
<path d="M366.47 26.9245C365.971 26.9245 365.562 26.5169 365.562 26.0188L365.578 18.7431C365.578 18.245 365.986 17.8374 366.485 17.8374C366.984 17.8374 367.392 18.245 367.392 18.7431L367.377 26.0188C367.377 26.5169 366.969 26.9245 366.47 26.9245Z" fill="#5182C3"/>
<path d="M517.735 525.206C515.83 521.673 513.109 518.654 509.813 516.39L495.465 537.161L517.735 525.206Z" fill="#5182C3"/>
<path d="M504.582 521.206C500.53 518.413 495.616 516.768 490.31 516.737C477.443 516.692 466.814 526.262 465.182 538.67L490.234 541.976L504.582 521.206Z" fill="#B9D2EE"/>
<path d="M465.182 538.67C465.046 539.727 464.955 540.814 464.955 541.901C464.91 555.833 476.189 567.169 490.159 567.215C500.515 567.245 509.42 561.056 513.351 552.18L490.234 541.976L465.182 538.67Z" fill="#5182C3"/>
<path d="M512.505 530.021L490.234 541.976L513.351 552.18C514.727 549.086 515.498 545.659 515.513 542.052C515.529 537.689 514.44 533.598 512.505 530.021Z" fill="#B9D2EE"/>
<path d="M117.352 483.68L18.1859 483.378C11.3975 483.363 5.92437 477.853 5.93948 471.076L5.99996 450.517C6.01508 443.739 11.5335 438.275 18.322 438.29L96.3061 438.531L120.799 401.036L111.41 438.592L117.503 438.607C124.291 438.622 129.765 444.131 129.749 450.909L129.689 471.468C129.659 478.231 124.14 483.695 117.352 483.68Z" fill="white"/>
<path d="M117.398 484.586C117.383 484.586 117.368 484.586 117.353 484.586L18.1868 484.284C10.9145 484.269 5.01811 478.336 5.03323 471.076L5.09371 450.517C5.10883 446.999 6.48466 443.694 8.97931 441.218C11.474 438.743 14.7699 437.384 18.2775 437.384C18.2926 437.384 18.3078 437.384 18.3229 437.384L95.8081 437.626L120.029 400.538C120.271 400.16 120.739 400.024 121.148 400.205C121.556 400.387 121.767 400.824 121.662 401.262L112.56 437.671L117.489 437.686C124.761 437.701 130.657 443.633 130.642 450.894L130.582 471.453C130.567 474.97 129.191 478.276 126.696 480.752C124.202 483.227 120.906 484.586 117.398 484.586ZM18.2926 439.195C15.2688 439.195 12.4265 440.373 10.2795 442.501C8.11752 444.645 6.93823 447.483 6.92311 450.517L6.84752 471.076C6.8324 477.34 11.9124 482.457 18.1868 482.472L117.353 482.774C117.368 482.774 117.383 482.774 117.383 482.774C120.407 482.774 123.249 481.597 125.396 479.469C127.558 477.325 128.737 474.487 128.752 471.453L128.813 450.894C128.828 444.63 123.748 439.512 117.474 439.497L111.381 439.482C111.109 439.482 110.836 439.346 110.67 439.135C110.504 438.924 110.443 438.637 110.504 438.365L118.592 406.047L97.0478 439.045C96.8815 439.301 96.5942 439.452 96.2919 439.452L18.3078 439.211C18.3078 439.195 18.2926 439.195 18.2926 439.195Z" fill="#B9D2EE"/>
<path d="M35.4211 469.177C40.115 464.49 40.115 456.892 35.4211 452.206C30.7272 447.52 23.1168 447.52 18.4229 452.206C13.729 456.892 13.729 464.49 18.4229 469.177C23.1168 473.863 30.7272 473.863 35.4211 469.177Z" fill="#E73DC4"/>
<path d="M100.586 454.517L50.0282 454.366C49.5293 454.366 49.1211 453.958 49.1211 453.46C49.1211 452.962 49.5293 452.554 50.0282 452.554L100.586 452.705C101.085 452.705 101.494 453.113 101.494 453.611C101.494 454.124 101.085 454.517 100.586 454.517Z" fill="#B9D2EE"/>
<path d="M108.387 461.837L50.0126 461.656C49.5137 461.656 49.1055 461.249 49.1055 460.75C49.1055 460.252 49.5137 459.845 50.0126 459.845L108.387 460.026C108.886 460.026 109.294 460.433 109.294 460.932C109.294 461.445 108.886 461.837 108.387 461.837Z" fill="#B9D2EE"/>
<path d="M83.6968 469.068L49.9814 468.962C49.4824 468.962 49.0742 468.555 49.0742 468.057C49.0742 467.558 49.4824 467.151 49.9814 467.151L83.6968 467.257C84.1958 467.257 84.604 467.664 84.604 468.162C84.604 468.66 84.1958 469.068 83.6968 469.068Z" fill="#B9D2EE"/>
</g>
<defs>
<clipPath id="clip0_2233_1037">
<rect width="614" height="678" fill="white" transform="translate(0.830078 0.116211)"/>
</clipPath>
</defs>
</svg>
