<svg width="31" height="19" viewBox="0 0 31 19" fill="none" xmlns="http://www.w3.org/2000/svg">
<path d="M30.7719 3.71658C30.6526 4.09229 30.5536 4.47392 30.4174 4.84458C29.9937 5.99808 29.4034 7.04368 28.5043 7.89021C27.8012 8.5536 26.9829 9.02206 26.0662 9.31478C25.3121 9.55567 24.5381 9.67037 23.7494 9.70767C22.4621 9.76902 21.2082 9.61378 19.9994 9.148C19.1838 8.83361 18.454 8.37168 17.7848 7.80993C17.203 7.32071 16.6795 6.76989 16.1486 6.22591C15.6506 5.71685 15.1443 5.21673 14.5311 4.84606C13.9364 4.48666 13.2916 4.31273 12.5996 4.27421C11.2294 4.20014 10.1155 4.74829 9.15282 5.68339C8.84172 5.98421 8.55662 6.3113 8.30057 6.66117C8.27272 6.58681 8.29472 6.53584 8.30732 6.48902C8.58622 5.44369 8.97762 4.44754 9.58552 3.54858C10.4568 2.26058 11.6387 1.40043 13.1146 0.957469C13.7284 0.773172 14.3565 0.653469 14.9996 0.631543C15.0428 0.626153 15.0855 0.617436 15.1273 0.605469H16.4164C16.5869 0.655839 16.7644 0.638358 16.9385 0.657321C18.3986 0.816135 19.7217 1.3231 20.8976 2.2188C21.5586 2.72251 22.1381 3.3151 22.7179 3.90769C23.1772 4.37821 23.6381 4.84666 24.1675 5.24102C25.0932 5.92813 26.1339 6.15955 27.2559 6.01408C28.4469 5.85969 29.3785 5.21584 30.1765 4.3468C30.3816 4.1234 30.5738 3.88754 30.7719 3.65732V3.71658Z" fill="#8F8E93"/>
<path d="M0.771484 15.6869C0.871094 15.3672 0.965137 15.0451 1.07148 14.7278C1.39111 13.7746 1.8458 12.8946 2.48242 12.1174C3.01982 11.4621 3.68374 10.9245 4.43359 10.5375C5.3875 10.0392 6.40818 9.80896 7.46903 9.72747C8.52988 9.64602 9.58513 9.71476 10.6228 9.97195C11.7018 10.2386 12.6669 10.7423 13.5411 11.4303C14.1903 11.942 14.7581 12.5405 15.3361 13.1286C15.8145 13.6158 16.2868 14.1133 16.8678 14.4771C18.1612 15.2869 19.5165 15.3832 20.9107 14.7734C21.7932 14.3882 22.4682 13.7346 23.0646 12.99C23.1139 12.9287 23.1619 12.8664 23.2111 12.8054C23.2192 12.7987 23.2283 12.7934 23.2381 12.7897C23.2826 12.8226 23.2498 12.8626 23.2416 12.894C22.9305 14.0792 22.4755 15.1968 21.7331 16.1758C20.8542 17.3355 19.7058 18.0978 18.3147 18.489C17.5998 18.6941 16.8606 18.7996 16.1175 18.8027C16.0692 18.7986 16.0206 18.8072 15.9766 18.8276H15.625C15.5804 18.8068 15.5311 18.7987 15.4823 18.8039C15.0136 18.8131 14.548 18.7595 14.0851 18.6833C12.9094 18.4939 11.7934 18.0304 10.8253 17.3296C10.1831 16.867 9.61768 16.3165 9.05958 15.7574C8.55743 15.2537 8.07783 14.7278 7.51853 14.2842C6.55173 13.5174 5.45488 13.2445 4.24844 13.4096C3.23681 13.5479 2.40976 14.0573 1.67969 14.753C1.34775 15.0679 1.06152 15.4235 0.771484 15.7758V15.6869Z" fill="#8F8E93"/>
</svg>
