<svg width="111" height="95" viewBox="0 0 111 95" fill="none" xmlns="http://www.w3.org/2000/svg">
<path d="M68.1985 30.3777C69.8397 30.0861 71.4625 29.7012 73.0588 29.2256C78.1571 27.6657 80.8522 25.5534 80.851 23.1185C80.8474 19.6194 75.3833 17.1675 68.195 15.8686C70.6368 9.0904 71.205 3.20574 68.1258 1.45843C65.047 -0.288684 60.155 3.14242 55.4179 8.61902C50.6751 3.14755 45.7795 -0.27911 42.7023 1.47069C40.5598 2.68916 40.0514 6.04237 41.2326 11.1656C41.6129 12.7628 42.0863 14.3367 42.6504 15.8803C41.0092 16.1719 39.3863 16.5568 37.7901 17.0324C32.6939 18.5935 29.9989 20.7059 30 23.1408C30 24.8098 31.2459 26.2416 33.3293 27.4238C36.2556 28.9015 39.4059 29.9033 42.6576 30.3897C40.2121 37.1676 39.6439 43.0523 42.7227 44.7994C45.8019 46.5467 50.6939 43.1156 55.431 37.639C57.4878 40.164 59.9464 42.3451 62.7115 44.0969C64.7942 45.2788 66.6777 45.6219 68.1466 44.7873C70.2891 43.5688 70.7975 40.2156 69.6163 35.0924C69.236 33.4952 68.7626 31.9213 68.1985 30.3777ZM79.1562 23.1193C79.1566 24.681 76.6889 26.3687 72.5561 27.6333C70.9296 28.1166 69.2755 28.5034 67.6018 28.7917C66.8752 26.95 66.0223 25.049 65.0417 23.1196C65.9986 21.2255 66.8614 19.3142 67.5991 17.4476C74.7404 18.7151 79.1507 20.9983 79.1537 23.1179L79.1562 23.1193ZM55.4275 29.7999C54.1013 29.7993 52.8148 29.7692 51.5673 29.7094C50.8907 28.6787 50.2198 27.5977 49.5544 26.4671C48.899 25.3507 48.2895 24.234 47.7092 23.1231C48.276 22.0337 48.8899 20.9245 49.5512 19.7962C50.2125 18.6679 50.8808 17.5896 51.5552 16.5613C52.8231 16.4991 54.1107 16.4589 55.421 16.4579C56.7467 16.4577 58.0335 16.4881 59.2808 16.5491C59.9573 17.5816 60.6306 18.6626 61.2941 19.7907C61.9499 20.9073 62.5594 22.024 63.1397 23.1349C62.5728 24.2243 61.9587 25.3333 61.2973 26.4616C60.636 27.5899 59.968 28.6684 59.2937 29.6968C58.0257 29.7589 56.7382 29.7991 55.4275 29.7999ZM58.1307 31.4193C57.2272 32.7172 56.323 33.9224 55.4281 35.0287C54.5333 33.9212 53.6274 32.7162 52.7221 31.418C53.6238 31.4484 54.5268 31.4669 55.4258 31.467C56.3249 31.4668 57.2384 31.4493 58.1307 31.4193ZM49.4858 29.5778C47.893 29.4575 46.3767 29.2889 44.9543 29.0815C45.4814 27.7666 46.0889 26.3929 46.7758 24.9722C47.1965 25.7467 47.6335 26.522 48.0861 27.2983C48.5373 28.068 49.007 28.8248 49.4858 29.5778ZM46.7815 21.2787C46.1054 19.892 45.4982 18.5294 44.9593 17.1905C46.4036 16.9789 47.907 16.8125 49.4699 16.6921C48.9947 17.4424 48.5301 18.2001 48.0829 18.963C47.6358 19.7259 47.202 20.5011 46.7799 21.2815L46.7815 21.2787ZM52.7199 14.8358C53.623 13.5387 54.5268 12.3341 55.4212 11.2286C56.315 12.3346 57.219 13.5395 58.1234 14.8352C57.2233 14.8044 56.3235 14.7887 55.4248 14.7882C54.5118 14.79 53.6096 14.8068 52.7182 14.8387L52.7199 14.8358ZM61.3649 16.6812C62.9574 16.8014 64.4725 16.9702 65.8941 17.1772C65.367 18.4921 64.7596 19.8658 64.0726 21.2865C63.6522 20.5083 63.2153 19.7312 62.7619 18.9555C62.3123 18.1904 61.8433 17.434 61.3649 16.6812ZM64.0669 24.98C64.7435 26.366 65.3507 27.7286 65.8896 29.0675C64.4454 29.2788 62.9421 29.4452 61.379 29.5659C61.8538 28.8154 62.3184 28.0577 62.7656 27.2948C63.2127 26.5319 63.6466 25.7567 64.069 24.9765L64.0669 24.98ZM67.279 2.90313C69.1477 3.96352 68.9538 8.86575 66.5022 15.5871C64.4905 15.2841 62.3753 15.0657 60.2306 14.9377C59.0402 13.1732 57.7876 11.4805 56.5179 9.9215C61.1951 4.464 65.4107 1.84294 67.279 2.90313ZM42.8847 10.796C41.9269 6.64276 42.1761 3.6961 43.55 2.91434C44.3788 2.44321 45.6691 2.69501 47.2585 3.59694C49.9464 5.31349 52.3332 7.44817 54.3261 9.91767C53.0552 11.478 51.8068 13.1695 50.6199 14.9321C48.4316 15.0632 46.3316 15.2901 44.3482 15.5925C43.7633 14.024 43.2744 12.422 42.8847 10.796ZM31.6952 23.1401C31.6948 21.5785 34.1621 19.8905 38.2953 18.6261C39.9214 18.1426 41.5755 17.7558 43.2492 17.4675C43.9759 19.3092 44.8287 21.2103 45.8093 23.1396C44.8528 25.0339 43.9897 26.945 43.252 28.8116C36.1085 27.5429 31.6982 25.2597 31.6952 23.1401ZM43.5695 43.3547C41.7012 42.2945 41.8958 37.3927 44.3499 30.6736C46.3608 30.9762 48.4771 31.1952 50.6252 31.3256C51.8158 33.0898 53.068 34.7822 54.3413 36.3433C49.6526 41.7943 45.4381 44.4151 43.5695 43.3547ZM67.2989 43.3437C65.4336 44.4031 61.2135 41.7889 56.5232 36.3396C57.7945 34.7786 59.0433 33.0864 60.2321 31.3206C62.4201 31.1898 64.5204 30.9626 66.5036 30.6606C67.0884 32.23 67.5763 33.8328 67.9654 35.4599C68.922 39.6152 68.6728 42.5619 67.2989 43.3437Z" fill="#8F8E93"/>
<path d="M57.536 19.5155C55.5089 18.3652 52.9174 19.0498 51.7484 21.0443C50.5793 23.0389 51.275 25.5887 53.3021 26.739C55.3296 27.8895 57.9207 27.2048 59.0897 25.2102C60.2562 23.2151 59.5609 20.6679 57.536 19.5155Z" fill="#8F8E93"/>
<path d="M40.3407 71.94H38.5067V76H37.1067V66.2H41.3907C42.044 66.2 42.604 66.326 43.0707 66.578C43.5467 66.8207 43.906 67.1613 44.1487 67.6C44.4007 68.0293 44.5267 68.5193 44.5267 69.07C44.5267 69.8073 44.3073 70.4373 43.8687 70.96C43.43 71.4733 42.814 71.786 42.0207 71.898L45.2827 76H43.5187L40.3407 71.94ZM38.5067 70.666H41.3067C41.8667 70.666 42.296 70.5307 42.5947 70.26C42.9027 69.98 43.0567 69.5833 43.0567 69.07C43.0567 68.5567 42.9027 68.1647 42.5947 67.894C42.296 67.614 41.8667 67.474 41.3067 67.474H38.5067V70.666ZM49.3543 68.86C50.0729 68.86 50.6983 69.014 51.2303 69.322C51.7716 69.63 52.1869 70.0687 52.4763 70.638C52.7656 71.198 52.9103 71.856 52.9103 72.612C52.9103 72.808 52.9056 72.9527 52.8963 73.046H47.1563C47.2496 73.5873 47.5016 74.0353 47.9123 74.39C48.3323 74.7353 48.8176 74.908 49.3683 74.908C50.2736 74.908 50.9176 74.5767 51.3003 73.914H52.6723C52.4483 74.5673 52.0329 75.104 51.4263 75.524C50.8196 75.9347 50.1336 76.14 49.3683 76.14C48.6869 76.14 48.0709 75.986 47.5203 75.678C46.9696 75.3607 46.5403 74.9267 46.2323 74.376C45.9243 73.816 45.7703 73.1907 45.7703 72.5C45.7703 71.8093 45.9243 71.1887 46.2323 70.638C46.5403 70.078 46.9649 69.644 47.5063 69.336C48.0569 69.0187 48.6729 68.86 49.3543 68.86ZM49.3263 70.036C48.7756 70.036 48.2996 70.2087 47.8983 70.554C47.5063 70.8993 47.2636 71.3427 47.1703 71.884H51.4683C51.4123 71.324 51.1836 70.876 50.7823 70.54C50.3903 70.204 49.9049 70.036 49.3263 70.036ZM60.9597 69V76H59.6297V74.95C59.3404 75.3233 58.9904 75.6173 58.5797 75.832C58.1691 76.0373 57.7304 76.14 57.2637 76.14C56.6477 76.14 56.0877 75.986 55.5837 75.678C55.0797 75.3607 54.6831 74.9267 54.3937 74.376C54.1044 73.8253 53.9597 73.2 53.9597 72.5C53.9597 71.8 54.1044 71.1747 54.3937 70.624C54.6831 70.0733 55.0797 69.644 55.5837 69.336C56.0877 69.0187 56.6477 68.86 57.2637 68.86C57.7491 68.86 58.2017 68.972 58.6217 69.196C59.0417 69.42 59.4011 69.7327 59.6997 70.134V69H60.9597ZM57.4877 74.908C57.8984 74.908 58.2717 74.8053 58.6077 74.6C58.9437 74.3947 59.2051 74.11 59.3917 73.746C59.5784 73.3727 59.6717 72.9573 59.6717 72.5C59.6717 72.0427 59.5784 71.632 59.3917 71.268C59.2051 70.8947 58.9437 70.6053 58.6077 70.4C58.2717 70.1947 57.8984 70.092 57.4877 70.092C57.0771 70.092 56.7084 70.1947 56.3817 70.4C56.0551 70.6053 55.7984 70.8947 55.6117 71.268C55.4251 71.632 55.3317 72.0427 55.3317 72.5C55.3317 72.9573 55.4251 73.3727 55.6117 73.746C55.7984 74.11 56.0551 74.3947 56.3817 74.6C56.7084 74.8053 57.0771 74.908 57.4877 74.908ZM62.573 72.5C62.573 71.828 62.7363 71.2167 63.063 70.666C63.3897 70.106 63.8377 69.6673 64.407 69.35C64.9763 69.0233 65.6063 68.86 66.297 68.86C67.0717 68.86 67.767 69.0887 68.383 69.546C69.0083 69.994 69.419 70.582 69.615 71.31H68.159C68.0003 70.9367 67.7437 70.6427 67.389 70.428C67.0437 70.204 66.6563 70.092 66.227 70.092C65.7883 70.092 65.3963 70.1993 65.051 70.414C64.7057 70.6193 64.435 70.9087 64.239 71.282C64.043 71.646 63.945 72.052 63.945 72.5C63.945 72.948 64.043 73.3587 64.239 73.732C64.435 74.096 64.7057 74.3853 65.051 74.6C65.3963 74.8053 65.7883 74.908 66.227 74.908C66.6563 74.908 67.0437 74.8007 67.389 74.586C67.7437 74.362 68.0003 74.0633 68.159 73.69H69.615C69.419 74.418 69.0083 75.0107 68.383 75.468C67.767 75.916 67.0717 76.14 66.297 76.14C65.6063 76.14 64.9763 75.9813 64.407 75.664C63.8377 75.3373 63.3897 74.8987 63.063 74.348C62.7363 73.788 62.573 73.172 62.573 72.5ZM72.7733 70.26V73.956C72.7733 74.2547 72.8433 74.4833 72.9833 74.642C73.1327 74.8007 73.3847 74.88 73.7393 74.88C74.0753 74.88 74.36 74.852 74.5933 74.796V76.014C74.3413 76.098 74.0333 76.14 73.6693 76.14C72.1853 76.14 71.4433 75.412 71.4433 73.956V70.26H70.0433V69H71.4433V67.18H72.7733V69H74.7333V70.26H72.7733Z" fill="#8F8E93"/>
</svg>
