<svg width="230" height="47" viewBox="0 0 230 47" fill="none" xmlns="http://www.w3.org/2000/svg">
<mask id="path-1-outside-1_2164_11047" maskUnits="userSpaceOnUse" x="-0.982422" y="-1.00244" width="232" height="49" fill="black">
<rect fill="white" x="-0.982422" y="-1.00244" width="232" height="49"/>
<path d="M16.832 30.4409H5.8457V24.1128L16.832 24.1128C18.6289 24.1128 20.084 23.8198 21.1973 23.2339C22.3301 22.6284 23.1602 21.8081 23.6875 20.7729C24.2148 19.7183 24.4785 18.5171 24.4785 17.1694C24.4785 15.8608 24.2148 14.6401 23.6875 13.5073C23.1602 12.3745 22.3301 11.4565 21.1973 10.7534C20.084 10.0503 18.6289 9.69873 16.832 9.69873L8.48242 9.69873V45.9976H0.425781L0.425781 3.34131L16.832 3.34131C20.1523 3.34131 22.9844 3.93701 25.3281 5.12842C27.6914 6.30029 29.4883 7.93115 30.7187 10.021C31.9688 12.0913 32.5938 14.4546 32.5938 17.1108C32.5938 19.8647 31.9688 22.2378 30.7187 24.23C29.4883 26.2222 27.6914 27.7554 25.3281 28.8296C22.9844 29.9038 20.1523 30.4409 16.832 30.4409ZM36.5488 30.4702V29.855C36.5488 27.5308 36.8809 25.3921 37.5449 23.439C38.209 21.4663 39.1758 19.7573 40.4453 18.312C41.7148 16.8667 43.2676 15.7437 45.1035 14.9429C46.9395 14.1226 49.0293 13.7124 51.373 13.7124C53.7559 13.7124 55.8652 14.1226 57.7012 14.9429C59.5566 15.7437 61.1191 16.8667 62.3887 18.312C63.6582 19.7573 64.625 21.4663 65.2891 23.439C65.9531 25.3921 66.2852 27.5308 66.2852 29.855V30.4702C66.2852 32.7749 65.9531 34.9136 65.2891 36.8862C64.625 38.8394 63.6582 40.5483 62.3887 42.0132C61.1191 43.4585 59.5664 44.5815 57.7305 45.3823C55.8945 46.1831 53.7949 46.5835 51.4316 46.5835C49.0879 46.5835 46.9883 46.1831 45.1328 45.3823C43.2773 44.5815 41.7148 43.4585 40.4453 42.0132C39.1758 40.5483 38.209 38.8394 37.5449 36.8862C36.8809 34.9136 36.5488 32.7749 36.5488 30.4702ZM44.2832 29.855V30.4702C44.2832 31.8569 44.4199 33.1558 44.6934 34.3667C44.9668 35.5776 45.3867 36.6421 45.9531 37.5601C46.5195 38.478 47.252 39.2007 48.1504 39.728C49.0684 40.2358 50.1621 40.4897 51.4316 40.4897C52.6816 40.4897 53.7559 40.2358 54.6543 39.728C55.5527 39.2007 56.2852 38.478 56.8516 37.5601C57.4375 36.6421 57.8672 35.5776 58.1406 34.3667C58.4141 33.1558 58.5508 31.8569 58.5508 30.4702V29.855C58.5508 28.4878 58.4141 27.2085 58.1406 26.0171C57.8672 24.8062 57.4375 23.7417 56.8516 22.8237C56.2852 21.8862 55.543 21.1538 54.625 20.6265C53.7266 20.0796 52.6426 19.8062 51.373 19.8062C50.123 19.8062 49.0488 20.0796 48.1504 20.6265C47.252 21.1538 46.5195 21.8862 45.9531 22.8237C45.3867 23.7417 44.9668 24.8062 44.6934 26.0171C44.4199 27.2085 44.2832 28.4878 44.2832 29.855ZM79.6445 20.7729V45.9976H71.9102V14.2983H79.2344L79.6445 20.7729ZM89.2832 14.0933L89.166 21.3003C88.7363 21.2222 88.248 21.1636 87.7012 21.1245C87.1738 21.0854 86.6758 21.0659 86.207 21.0659C85.0156 21.0659 83.9707 21.2319 83.0723 21.564C82.1738 21.8765 81.4219 22.3354 80.8164 22.9409C80.2305 23.5464 79.7812 24.2886 79.4688 25.1675C79.1562 26.0269 78.9805 27.0034 78.9414 28.0972L77.2715 27.8921C77.2715 25.8804 77.4766 24.0151 77.8867 22.2964C78.2969 20.5776 78.8926 19.0737 79.6738 17.7847C80.4551 16.4956 81.4316 15.4995 82.6035 14.7964C83.7949 14.0737 85.1621 13.7124 86.7051 13.7124C87.1348 13.7124 87.5938 13.7515 88.082 13.8296C88.5898 13.8882 88.9902 13.9761 89.2832 14.0933ZM109.996 14.2983V19.8647L91.832 19.8647V14.2983L109.996 14.2983ZM96.6953 6.50537L104.459 6.50537V36.8569C104.459 37.7944 104.586 38.5171 104.84 39.0249C105.094 39.5327 105.475 39.8745 105.982 40.0503C106.49 40.2261 107.096 40.314 107.799 40.314C108.307 40.314 108.775 40.2847 109.205 40.2261C109.635 40.1675 109.996 40.1089 110.289 40.0503L110.318 45.8511C109.674 46.0659 108.941 46.2417 108.121 46.3784C107.32 46.5151 106.412 46.5835 105.396 46.5835C103.658 46.5835 102.135 46.2905 100.826 45.7046C99.5176 45.0991 98.502 44.1323 97.7793 42.8042C97.0566 41.4565 96.6953 39.6792 96.6953 37.4722V6.50537ZM125.289 45.9976L117.496 45.9976V11.3687C117.496 8.98584 117.955 6.98389 118.873 5.36279C119.791 3.72217 121.1 2.48193 122.799 1.64209C124.498 0.802246 126.5 0.382324 128.805 0.382324C129.566 0.382324 130.289 0.431152 130.973 0.528809C131.676 0.626465 132.369 0.763184 133.053 0.938965L132.906 6.82764C132.535 6.72998 132.125 6.66162 131.676 6.62256C131.246 6.5835 130.768 6.56396 130.24 6.56396C129.186 6.56396 128.287 6.74951 127.545 7.12061C126.803 7.4917 126.236 8.03857 125.846 8.76123C125.475 9.46436 125.289 10.3335 125.289 11.3687V45.9976ZM131.705 14.2983V19.8647H112.721V14.2983H131.705ZM135.104 30.4702V29.855C135.104 27.5308 135.436 25.3921 136.1 23.439C136.764 21.4663 137.73 19.7573 139 18.312C140.27 16.8667 141.822 15.7437 143.658 14.9429C145.494 14.1226 147.584 13.7124 149.928 13.7124C152.311 13.7124 154.42 14.1226 156.256 14.9429C158.111 15.7437 159.674 16.8667 160.943 18.312C162.213 19.7573 163.18 21.4663 163.844 23.439C164.508 25.3921 164.84 27.5308 164.84 29.855V30.4702C164.84 32.7749 164.508 34.9136 163.844 36.8862C163.18 38.8394 162.213 40.5483 160.943 42.0132C159.674 43.4585 158.121 44.5815 156.285 45.3823C154.449 46.1831 152.35 46.5835 149.986 46.5835C147.643 46.5835 145.543 46.1831 143.688 45.3823C141.832 44.5815 140.27 43.4585 139 42.0132C137.73 40.5483 136.764 38.8394 136.1 36.8862C135.436 34.9136 135.104 32.7749 135.104 30.4702ZM142.838 29.855V30.4702C142.838 31.8569 142.975 33.1558 143.248 34.3667C143.521 35.5776 143.941 36.6421 144.508 37.5601C145.074 38.478 145.807 39.2007 146.705 39.728C147.623 40.2358 148.717 40.4897 149.986 40.4897C151.236 40.4897 152.311 40.2358 153.209 39.728C154.107 39.2007 154.84 38.478 155.406 37.5601C155.992 36.6421 156.422 35.5776 156.695 34.3667C156.969 33.1558 157.105 31.8569 157.105 30.4702V29.855C157.105 28.4878 156.969 27.2085 156.695 26.0171C156.422 24.8062 155.992 23.7417 155.406 22.8237C154.84 21.8862 154.098 21.1538 153.18 20.6265C152.281 20.0796 151.197 19.8062 149.928 19.8062C148.678 19.8062 147.604 20.0796 146.705 20.6265C145.807 21.1538 145.074 21.8862 144.508 22.8237C143.941 23.7417 143.521 24.8062 143.248 26.0171C142.975 27.2085 142.838 28.4878 142.838 29.855ZM178.668 0.997559V45.9976H170.904V0.997559H178.668ZM194.254 14.2983V45.9976H186.49V14.2983L194.254 14.2983ZM185.963 6.00732C185.963 4.85498 186.354 3.89795 187.135 3.13623C187.936 2.37451 189.01 1.99365 190.357 1.99365C191.705 1.99365 192.77 2.37451 193.551 3.13623C194.352 3.89795 194.752 4.85498 194.752 6.00732C194.752 7.14014 194.352 8.0874 193.551 8.84912C192.77 9.61084 191.705 9.9917 190.357 9.9917C189.01 9.9917 187.936 9.61084 187.135 8.84912C186.354 8.0874 185.963 7.14014 185.963 6.00732ZM200.26 30.4702V29.855C200.26 27.5308 200.592 25.3921 201.256 23.439C201.92 21.4663 202.887 19.7573 204.156 18.312C205.426 16.8667 206.979 15.7437 208.814 14.9429C210.65 14.1226 212.74 13.7124 215.084 13.7124C217.467 13.7124 219.576 14.1226 221.412 14.9429C223.268 15.7437 224.83 16.8667 226.1 18.312C227.369 19.7573 228.336 21.4663 229 23.439C229.664 25.3921 229.996 27.5308 229.996 29.855V30.4702C229.996 32.7749 229.664 34.9136 229 36.8862C228.336 38.8394 227.369 40.5483 226.1 42.0132C224.83 43.4585 223.277 44.5815 221.441 45.3823C219.605 46.1831 217.506 46.5835 215.143 46.5835C212.799 46.5835 210.699 46.1831 208.844 45.3823C206.988 44.5815 205.426 43.4585 204.156 42.0132C202.887 40.5483 201.92 38.8394 201.256 36.8862C200.592 34.9136 200.26 32.7749 200.26 30.4702ZM207.994 29.855V30.4702C207.994 31.8569 208.131 33.1558 208.404 34.3667C208.678 35.5776 209.098 36.6421 209.664 37.5601C210.23 38.478 210.963 39.2007 211.861 39.728C212.779 40.2358 213.873 40.4897 215.143 40.4897C216.393 40.4897 217.467 40.2358 218.365 39.728C219.264 39.2007 219.996 38.478 220.562 37.5601C221.148 36.6421 221.578 35.5776 221.852 34.3667C222.125 33.1558 222.262 31.8569 222.262 30.4702V29.855C222.262 28.4878 222.125 27.2085 221.852 26.0171C221.578 24.8062 221.148 23.7417 220.562 22.8237C219.996 21.8862 219.254 21.1538 218.336 20.6265C217.438 20.0796 216.354 19.8062 215.084 19.8062C213.834 19.8062 212.76 20.0796 211.861 20.6265C210.963 21.1538 210.23 21.8862 209.664 22.8237C209.098 23.7417 208.678 24.8062 208.404 26.0171C208.131 27.2085 207.994 28.4878 207.994 29.855Z"/>
</mask>
<path d="M5.8457 30.4409H4.8457V31.4409H5.8457V30.4409ZM5.8457 24.1128V23.1128H4.8457V24.1128H5.8457ZM21.1973 23.2339L21.663 24.1188L21.6686 24.1158L21.1973 23.2339ZM23.6875 20.7729L24.5786 21.2269L24.5819 21.2202L23.6875 20.7729ZM23.6875 13.5073L24.5941 13.0853L23.6875 13.5073ZM21.1973 10.7534L20.6633 11.5989L20.6699 11.6031L21.1973 10.7534ZM8.48242 9.69873V8.69873H7.48242V9.69873H8.48242ZM8.48242 45.9976V46.9976H9.48242V45.9976H8.48242ZM0.425781 45.9976H-0.574219V46.9976H0.425781V45.9976ZM0.425781 3.34131V2.34131H-0.574219V3.34131H0.425781ZM25.3281 5.12842L24.875 6.0199L24.8839 6.02432L25.3281 5.12842ZM30.7187 10.021L29.857 10.5284L29.8627 10.5379L30.7187 10.021ZM30.7187 24.23L29.8717 23.6985L29.868 23.7045L30.7187 24.23ZM25.3281 28.8296L24.9143 27.9192L24.9115 27.9205L25.3281 28.8296ZM16.832 29.4409H5.8457V31.4409H16.832V29.4409ZM6.8457 30.4409V24.1128H4.8457V30.4409H6.8457ZM5.8457 25.1128L16.832 25.1128V23.1128L5.8457 23.1128V25.1128ZM16.832 25.1128C18.7261 25.1128 20.3579 24.8057 21.663 24.1188L20.7315 22.349C19.8101 22.8339 18.5317 23.1128 16.832 23.1128V25.1128ZM21.6686 24.1158C22.9619 23.4246 23.9486 22.4634 24.5785 21.2269L22.7965 20.319C22.3717 21.1528 21.6982 21.8322 20.7259 22.352L21.6686 24.1158ZM24.5819 21.2202C25.188 20.008 25.4785 18.6501 25.4785 17.1694H23.4785C23.4785 18.3841 23.2417 19.4285 22.7931 20.3257L24.5819 21.2202ZM25.4785 17.1694C25.4785 15.7221 25.1859 14.3565 24.5941 13.0853L22.7809 13.9294C23.2438 14.9237 23.4785 15.9996 23.4785 17.1694H25.4785ZM24.5941 13.0853C23.979 11.7641 23.0111 10.7023 21.7246 9.90378L20.6699 11.6031C21.649 12.2108 22.3413 12.9849 22.7809 13.9294L24.5941 13.0853ZM21.7313 9.90793C20.4099 9.07337 18.7513 8.69873 16.832 8.69873V10.6987C18.5065 10.6987 19.7581 11.0272 20.6633 11.5989L21.7313 9.90793ZM16.832 8.69873L8.48242 8.69873V10.6987L16.832 10.6987V8.69873ZM7.48242 9.69873V45.9976H9.48242V9.69873H7.48242ZM8.48242 44.9976H0.425781V46.9976H8.48242V44.9976ZM1.42578 45.9976L1.42578 3.34131H-0.574219L-0.574219 45.9976H1.42578ZM0.425781 4.34131L16.832 4.34131V2.34131L0.425781 2.34131V4.34131ZM16.832 4.34131C20.0352 4.34131 22.7037 4.9161 24.875 6.01986L25.7813 4.23698C23.2651 2.95793 20.2695 2.34131 16.832 2.34131V4.34131ZM24.8839 6.02432C27.0891 7.11784 28.7337 8.62048 29.857 10.5284L31.5805 9.51362C30.2429 7.24183 28.2937 5.48275 25.7724 4.23251L24.8839 6.02432ZM29.8627 10.5379C31.0094 12.4371 31.5938 14.6183 31.5938 17.1108H33.5938C33.5938 14.2909 32.9281 11.7455 31.5748 9.50413L29.8627 10.5379ZM31.5938 17.1108C31.5938 19.7094 31.0057 21.8911 29.8717 23.6985L31.5658 24.7615C32.9318 22.5844 33.5938 20.0201 33.5938 17.1108H31.5938ZM29.868 23.7045C28.7529 25.5098 27.1174 26.9178 24.9143 27.9192L25.7419 29.74C28.2654 28.5929 30.2236 26.9346 31.5695 24.7555L29.868 23.7045ZM24.9115 27.9205C22.7304 28.9202 20.0484 29.4409 16.832 29.4409V31.4409C20.2563 31.4409 23.2384 30.8874 25.7448 29.7387L24.9115 27.9205ZM37.5449 23.439L38.4917 23.7609L38.4927 23.758L37.5449 23.439ZM45.1035 14.9429L45.5033 15.8595L45.5115 15.8559L45.1035 14.9429ZM57.7012 14.9429L57.2932 15.856L57.3049 15.861L57.7012 14.9429ZM65.2891 23.439L64.3413 23.758L64.3423 23.7609L65.2891 23.439ZM65.2891 36.8862L66.2358 37.2081L66.2368 37.2053L65.2891 36.8862ZM62.3887 42.0132L63.14 42.6731L63.1444 42.6681L62.3887 42.0132ZM57.7305 45.3823L57.3307 44.4657L57.7305 45.3823ZM40.4453 42.0132L39.6896 42.6681L39.694 42.6731L40.4453 42.0132ZM37.5449 36.8862L36.5972 37.2053L36.5981 37.2081L37.5449 36.8862ZM45.9531 37.5601L45.1021 38.0852L45.9531 37.5601ZM48.1504 39.728L47.6442 40.5904L47.6552 40.5969L47.6663 40.6031L48.1504 39.728ZM54.6543 39.728L55.1463 40.5986L55.1535 40.5946L55.1605 40.5904L54.6543 39.728ZM56.8516 37.5601L56.0086 37.022L56.0045 37.0285L56.0005 37.035L56.8516 37.5601ZM58.1406 26.0171L57.1652 26.2374L57.166 26.2408L58.1406 26.0171ZM56.8516 22.8237L55.9957 23.3408L56.002 23.3514L56.0086 23.3618L56.8516 22.8237ZM54.625 20.6265L54.1051 21.4807L54.1159 21.4873L54.1269 21.4936L54.625 20.6265ZM48.1504 20.6265L48.6566 21.4889L48.6635 21.4848L48.6703 21.4807L48.1504 20.6265ZM45.9531 22.8237L46.8042 23.3489L46.809 23.3408L45.9531 22.8237ZM44.6934 26.0171L45.668 26.2408L45.6688 26.2374L44.6934 26.0171ZM37.5488 30.4702V29.855L35.5488 29.855V30.4702L37.5488 30.4702ZM37.5488 29.855C37.5488 27.6265 37.867 25.5981 38.4917 23.7609L36.5981 23.1171C35.8947 25.1861 35.5488 27.435 35.5488 29.855L37.5488 29.855ZM38.4927 23.758C39.118 21.9005 40.0215 20.3098 41.1966 18.972L39.694 17.6521C38.3301 19.2048 37.3 21.0321 36.5972 23.1199L38.4927 23.758ZM41.1966 18.972C42.3652 17.6415 43.7963 16.604 45.5033 15.8595L44.7037 14.0263C42.7389 14.8833 41.0645 16.0919 39.694 17.6521L41.1966 18.972ZM45.5115 15.8559C47.1995 15.1016 49.1468 14.7124 51.373 14.7124V12.7124C48.9118 12.7124 46.6794 13.1435 44.6956 14.0299L45.5115 15.8559ZM51.373 14.7124C53.6409 14.7124 55.6072 15.1025 57.2932 15.8559L58.1091 14.0299C56.1233 13.1426 53.8708 12.7124 51.373 12.7124V14.7124ZM57.3049 15.861C59.0314 16.6061 60.4705 17.6436 61.6374 18.972L63.14 17.6521C61.7677 16.0898 60.0819 14.8812 58.0974 14.0247L57.3049 15.861ZM61.6374 18.972C62.8125 20.3098 63.716 21.9005 64.3413 23.758L66.2368 23.1199C65.534 21.0321 64.5039 19.2048 63.14 17.6521L61.6374 18.972ZM64.3423 23.7609C64.9669 25.5981 65.2852 27.6265 65.2852 29.855H67.2852C67.2852 27.435 66.9393 25.1861 66.2358 23.1171L64.3423 23.7609ZM65.2852 29.855V30.4702H67.2852V29.855H65.2852ZM65.2852 30.4702C65.2852 32.678 64.9673 34.7077 64.3413 36.5672L66.2368 37.2053C66.939 35.1194 67.2852 32.8718 67.2852 30.4702H65.2852ZM64.3423 36.5643C63.7171 38.4031 62.8126 39.9972 61.633 41.3583L63.1444 42.6681C64.5038 41.0995 65.5329 39.2756 66.2358 37.2081L64.3423 36.5643ZM61.6374 41.3532C60.4688 42.6837 59.0377 43.7212 57.3307 44.4657L58.1303 46.2989C60.0951 45.4419 61.7695 44.2333 63.14 42.6731L61.6374 41.3532ZM57.3307 44.4657C55.6414 45.2025 53.6817 45.5835 51.4316 45.5835V47.5835C53.9081 47.5835 56.1476 47.1637 58.1303 46.2989L57.3307 44.4657ZM51.4316 45.5835C49.2026 45.5835 47.241 45.203 45.5291 44.4642L44.7366 46.3005C46.7355 47.1632 48.9732 47.5835 51.4316 47.5835V45.5835ZM45.5291 44.4642C43.8026 43.7191 42.3634 42.6816 41.1966 41.3532L39.694 42.6731C41.0662 44.2354 42.7521 45.444 44.7366 46.3005L45.5291 44.4642ZM41.201 41.3583C40.0214 39.9972 39.1169 38.4031 38.4917 36.5643L36.5981 37.2081C37.3011 39.2756 38.3302 41.0995 39.6896 42.6681L41.201 41.3583ZM38.4927 36.5672C37.8667 34.7077 37.5488 32.678 37.5488 30.4702L35.5488 30.4702C35.5488 32.8718 35.895 35.1194 36.5972 37.2053L38.4927 36.5672ZM43.2832 29.855V30.4702H45.2832V29.855H43.2832ZM43.2832 30.4702C43.2832 31.9225 43.4264 33.2959 43.7179 34.587L45.6688 34.1464C45.4135 33.0156 45.2832 31.7913 45.2832 30.4702H43.2832ZM43.7179 34.587C44.0121 35.8897 44.4696 37.0602 45.1021 38.0852L46.8042 37.035C46.3038 36.224 45.9215 35.2656 45.6688 34.1464L43.7179 34.587ZM45.1021 38.0852C45.7511 39.1369 46.5999 39.9775 47.6442 40.5904L48.6566 38.8656C47.904 38.4239 47.288 37.8191 46.8042 37.035L45.1021 38.0852ZM47.6663 40.6031C48.7606 41.2084 50.0282 41.4897 51.4316 41.4897V39.4897C50.296 39.4897 49.3761 39.2633 48.6344 38.853L47.6663 40.6031ZM51.4316 41.4897C52.8178 41.4897 54.0691 41.2075 55.1463 40.5986L54.1622 38.8575C53.4426 39.2642 52.5455 39.4897 51.4316 39.4897V41.4897ZM55.1605 40.5904C56.2048 39.9775 57.0536 39.1369 57.7026 38.0852L56.0005 37.035C55.5167 37.8191 54.9007 38.4239 54.1481 38.8656L55.1605 40.5904ZM57.6945 38.0981C58.3507 37.07 58.8207 35.8951 59.1161 34.587L57.1652 34.1464C56.9137 35.2602 56.5243 36.2141 56.0086 37.022L57.6945 38.0981ZM59.1161 34.587C59.4076 33.2959 59.5508 31.9225 59.5508 30.4702H57.5508C57.5508 31.7913 57.4205 33.0156 57.1652 34.1464L59.1161 34.587ZM59.5508 30.4702V29.855H57.5508V30.4702H59.5508ZM59.5508 29.855C59.5508 28.4212 59.4074 27.0662 59.1153 25.7934L57.166 26.2408C57.4207 27.3508 57.5508 28.5543 57.5508 29.855H59.5508ZM59.1161 25.7968C58.8207 24.4887 58.3507 23.3137 57.6945 22.2857L56.0086 23.3618C56.5243 24.1697 56.9137 25.1236 57.1652 26.2374L59.1161 25.7968ZM57.7075 22.3066C57.0566 21.2292 56.1933 20.3741 55.1231 19.7594L54.1269 21.4936C54.8926 21.9335 55.5137 22.5432 55.9957 23.3408L57.7075 22.3066ZM55.1449 19.7723C54.0602 19.112 52.7879 18.8062 51.373 18.8062V20.8062C52.4973 20.8062 53.3929 21.0472 54.1051 21.4807L55.1449 19.7723ZM51.373 18.8062C49.9745 18.8062 48.7129 19.1134 47.6304 19.7723L48.6703 21.4807C49.3848 21.0458 50.2716 20.8062 51.373 20.8062V18.8062ZM47.6442 19.764C46.5948 20.38 45.7451 21.2343 45.0972 22.3066L46.809 23.3408C47.294 22.5382 47.9091 21.9276 48.6566 21.4889L47.6442 19.764ZM45.1021 22.2986C44.4696 23.3236 44.0121 24.4941 43.7179 25.7968L45.6688 26.2374C45.9215 25.1182 46.3038 24.1598 46.8042 23.3488L45.1021 22.2986ZM43.7187 25.7934C43.4266 27.0662 43.2832 28.4212 43.2832 29.855H45.2832C45.2832 28.5543 45.4133 27.3508 45.668 26.2408L43.7187 25.7934ZM79.6445 20.7729H80.6445V20.7413L80.6425 20.7097L79.6445 20.7729ZM79.6445 45.9976V46.9976H80.6445V45.9976H79.6445ZM71.9102 45.9976H70.9102V46.9976H71.9102V45.9976ZM71.9102 14.2983V13.2983H70.9102V14.2983H71.9102ZM79.2344 14.2983L80.2324 14.2351L80.173 13.2983H79.2344V14.2983ZM89.2832 14.0933L90.2831 14.1095L90.2943 13.4207L89.6546 13.1648L89.2832 14.0933ZM89.166 21.3003L88.9871 22.2842L90.1467 22.495L90.1659 21.3166L89.166 21.3003ZM87.7012 21.1245L87.6273 22.1218L87.6299 22.122L87.7012 21.1245ZM83.0723 21.564L83.4008 22.5085L83.4099 22.5053L83.4189 22.502L83.0723 21.564ZM80.8164 22.9409L80.1093 22.2338L80.1035 22.2396L80.0978 22.2455L80.8164 22.9409ZM79.4688 25.1675L80.4086 25.5092L80.411 25.5025L79.4688 25.1675ZM78.9414 28.0972L78.8195 29.0897L79.9019 29.2226L79.9408 28.1329L78.9414 28.0972ZM77.2715 27.8921H76.2715V28.7768L77.1496 28.8846L77.2715 27.8921ZM82.6035 14.7964L83.118 15.6539L83.1221 15.6514L82.6035 14.7964ZM88.082 13.8296L87.924 14.817L87.9457 14.8205L87.9674 14.823L88.082 13.8296ZM78.6445 20.7729V45.9976H80.6445V20.7729H78.6445ZM79.6445 44.9976H71.9102V46.9976H79.6445V44.9976ZM72.9102 45.9976V14.2983H70.9102V45.9976H72.9102ZM71.9102 15.2983H79.2344V13.2983H71.9102V15.2983ZM78.2364 14.3616L78.6465 20.8362L80.6425 20.7097L80.2324 14.2351L78.2364 14.3616ZM88.2833 14.077L88.1662 21.284L90.1659 21.3166L90.2831 14.1095L88.2833 14.077ZM89.3449 20.3164C88.872 20.2304 88.3467 20.1681 87.7724 20.1271L87.6299 22.122C88.1494 22.1591 88.6007 22.2139 88.9871 22.2842L89.3449 20.3164ZM87.775 20.1272C87.2262 20.0866 86.7033 20.0659 86.207 20.0659V22.0659C86.6483 22.0659 87.1215 22.0843 87.6273 22.1218L87.775 20.1272ZM86.207 20.0659C84.9251 20.0659 83.7584 20.2443 82.7256 20.626L83.4189 22.502C84.183 22.2196 85.1062 22.0659 86.207 22.0659V20.0659ZM82.7437 20.6195C81.7188 20.976 80.8328 21.5103 80.1093 22.2338L81.5235 23.648C82.011 23.1606 82.6289 22.777 83.4008 22.5085L82.7437 20.6195ZM80.0978 22.2455C79.4022 22.9643 78.8818 23.8334 78.5265 24.8325L80.411 25.5025C80.6807 24.7438 81.0587 24.1285 81.535 23.6363L80.0978 22.2455ZM78.529 24.8257C78.1745 25.8005 77.9841 26.8832 77.942 28.0615L79.9408 28.1329C79.9768 27.1237 80.138 26.2532 80.4085 25.5092L78.529 24.8257ZM79.0633 27.1046L77.3934 26.8995L77.1496 28.8846L78.8195 29.0897L79.0633 27.1046ZM78.2715 27.8921C78.2715 25.948 78.4697 24.1616 78.8594 22.5285L76.914 22.0643C76.4834 23.8687 76.2715 25.8128 76.2715 27.8921H78.2715ZM78.8594 22.5285C79.2495 20.8937 79.8099 19.4895 80.529 18.303L78.8186 17.2664C77.9753 18.6579 77.3442 20.2616 76.914 22.0643L78.8594 22.5285ZM80.529 18.303C81.2348 17.1384 82.0995 16.265 83.118 15.6539L82.089 13.9389C80.7637 14.7341 79.6753 15.8528 78.8186 17.2664L80.529 18.303ZM83.1221 15.6514C84.1407 15.0335 85.3248 14.7124 86.7051 14.7124V12.7124C84.9994 12.7124 83.4491 13.1139 82.0849 13.9414L83.1221 15.6514ZM86.7051 14.7124C87.0747 14.7124 87.4804 14.746 87.924 14.817L88.24 12.8421C87.7071 12.7569 87.1949 12.7124 86.7051 12.7124V14.7124ZM87.9674 14.823C88.4344 14.8769 88.736 14.9514 88.9118 15.0217L89.6546 13.1648C89.2445 13.0007 88.7453 12.8995 88.1967 12.8362L87.9674 14.823ZM109.996 14.2983H110.996V13.2983H109.996V14.2983ZM109.996 19.8647V20.8647H110.996V19.8647H109.996ZM91.832 19.8647H90.832V20.8647H91.832V19.8647ZM91.832 14.2983V13.2983H90.832V14.2983H91.832ZM96.6953 6.50537V5.50537H95.6953V6.50537H96.6953ZM104.459 6.50537H105.459V5.50537H104.459V6.50537ZM110.289 40.0503L111.289 40.0452L111.283 38.8317L110.093 39.0697L110.289 40.0503ZM110.318 45.8511L110.635 46.7998L111.322 46.5706L111.318 45.846L110.318 45.8511ZM108.121 46.3784L107.957 45.392L107.953 45.3927L108.121 46.3784ZM100.826 45.7046L100.406 46.6122L100.418 46.6173L100.826 45.7046ZM97.7793 42.8042L96.898 43.2768L96.9009 43.2821L97.7793 42.8042ZM108.996 14.2983V19.8647H110.996V14.2983H108.996ZM109.996 18.8647L91.832 18.8647V20.8647L109.996 20.8647V18.8647ZM92.832 19.8647V14.2983H90.832V19.8647H92.832ZM91.832 15.2983L109.996 15.2983V13.2983L91.832 13.2983V15.2983ZM96.6953 7.50537L104.459 7.50537V5.50537L96.6953 5.50537V7.50537ZM103.459 6.50537V36.8569H105.459V6.50537H103.459ZM103.459 36.8569C103.459 37.8606 103.591 38.7632 103.945 39.4721L105.734 38.5777C105.581 38.271 105.459 37.7282 105.459 36.8569H103.459ZM103.945 39.4721C104.309 40.199 104.886 40.7288 105.655 40.9953L106.31 39.1053C106.064 39.0202 105.879 38.8665 105.734 38.5777L103.945 39.4721ZM105.655 40.9953C106.295 41.2168 107.017 41.314 107.799 41.314V39.314C107.175 39.314 106.685 39.2354 106.31 39.1053L105.655 40.9953ZM107.799 41.314C108.344 41.314 108.859 41.2825 109.34 41.2169L109.07 39.2352C108.692 39.2868 108.269 39.314 107.799 39.314V41.314ZM109.34 41.2169C109.782 41.1566 110.165 41.0949 110.485 41.0309L110.093 39.0697C109.827 39.1229 109.487 39.1783 109.07 39.2352L109.34 41.2169ZM109.289 40.0553L109.318 45.8561L111.318 45.846L111.289 40.0452L109.289 40.0553ZM110.002 44.9024C109.417 45.0975 108.736 45.2621 107.957 45.392L108.285 47.3648C109.146 47.2213 109.931 47.0343 110.635 46.7998L110.002 44.9024ZM107.953 45.3927C107.219 45.5179 106.369 45.5835 105.396 45.5835V47.5835C106.455 47.5835 107.421 47.5124 108.289 47.3642L107.953 45.3927ZM105.396 45.5835C103.77 45.5835 102.391 45.3094 101.235 44.7919L100.418 46.6173C101.879 47.2717 103.547 47.5835 105.396 47.5835V45.5835ZM101.246 44.797C100.142 44.2864 99.283 43.4754 98.6577 42.3263L96.9009 43.2821C97.7209 44.7892 98.8928 45.9119 100.406 46.6122L101.246 44.797ZM98.6606 42.3316C98.0428 41.1795 97.6953 39.5826 97.6953 37.4722H95.6953C95.6953 39.7758 96.0705 41.7336 96.898 43.2768L98.6606 42.3316ZM97.6953 37.4722V6.50537H95.6953V37.4722H97.6953ZM125.289 45.9976V46.9976H126.289V45.9976H125.289ZM117.496 45.9976H116.496V46.9976H117.496V45.9976ZM118.873 5.36279L119.743 5.85555L119.746 5.85108L118.873 5.36279ZM130.973 0.528809L130.831 1.51876L130.835 1.5193L130.973 0.528809ZM133.053 0.938965L134.052 0.963833L134.072 0.168583L133.302 -0.0295296L133.053 0.938965ZM132.906 6.82764L132.652 7.79471L133.874 8.11649L133.906 6.8525L132.906 6.82764ZM131.676 6.62256L131.585 7.61846L131.589 7.6188L131.676 6.62256ZM127.545 7.12061L127.992 8.01503L127.545 7.12061ZM125.846 8.76123L124.966 8.28569L124.961 8.29447L125.846 8.76123ZM131.705 14.2983H132.705V13.2983H131.705V14.2983ZM131.705 19.8647V20.8647H132.705V19.8647H131.705ZM112.721 19.8647H111.721V20.8647H112.721V19.8647ZM112.721 14.2983V13.2983H111.721V14.2983H112.721ZM125.289 44.9976L117.496 44.9976V46.9976L125.289 46.9976V44.9976ZM118.496 45.9976V11.3687H116.496V45.9976H118.496ZM118.496 11.3687C118.496 9.11137 118.931 7.29003 119.743 5.85554L118.003 4.87004C116.979 6.67774 116.496 8.86031 116.496 11.3687H118.496ZM119.746 5.85108C120.564 4.38834 121.722 3.28967 123.242 2.53857L122.356 0.745613C120.477 1.6742 119.018 3.05599 118 4.8745L119.746 5.85108ZM123.242 2.53857C124.777 1.77996 126.621 1.38232 128.805 1.38232V-0.617676C126.379 -0.617676 124.219 -0.175465 122.356 0.745613L123.242 2.53857ZM128.805 1.38232C129.524 1.38232 130.199 1.42844 130.831 1.51876L131.114 -0.46114C130.379 -0.566132 129.609 -0.617676 128.805 -0.617676V1.38232ZM130.835 1.5193C131.501 1.61177 132.157 1.74117 132.804 1.90746L133.302 -0.0295296C132.581 -0.214802 131.851 -0.358841 131.11 -0.461685L130.835 1.5193ZM132.053 0.914097L131.907 6.80277L133.906 6.8525L134.052 0.963833L132.053 0.914097ZM133.161 5.86056C132.726 5.74618 132.259 5.66948 131.762 5.62632L131.589 7.6188C131.991 7.65376 132.344 7.71378 132.652 7.79471L133.161 5.86056ZM131.766 5.62667C131.301 5.58435 130.791 5.56396 130.24 5.56396V7.56396C130.744 7.56396 131.191 7.58265 131.585 7.61845L131.766 5.62667ZM130.24 5.56396C129.071 5.56396 128.011 5.76943 127.098 6.22618L127.992 8.01503C128.563 7.72959 129.3 7.56396 130.24 7.56396V5.56396ZM127.098 6.22618C126.174 6.68816 125.455 7.38035 124.966 8.28571L126.725 9.23675C127.017 8.6968 127.432 8.29523 127.992 8.01503L127.098 6.22618ZM124.961 8.29447C124.495 9.17833 124.289 10.2184 124.289 11.3687H126.289C126.289 10.4486 126.454 9.75038 126.73 9.22799L124.961 8.29447ZM124.289 11.3687V45.9976H126.289V11.3687H124.289ZM130.705 14.2983V19.8647H132.705V14.2983H130.705ZM131.705 18.8647H112.721V20.8647H131.705V18.8647ZM113.721 19.8647V14.2983H111.721V19.8647H113.721ZM112.721 15.2983H131.705V13.2983H112.721V15.2983ZM136.1 23.439L137.046 23.7609L137.047 23.758L136.1 23.439ZM143.658 14.9429L144.058 15.8595L144.066 15.8559L143.658 14.9429ZM156.256 14.9429L155.848 15.856L155.86 15.861L156.256 14.9429ZM163.844 23.439L162.896 23.758L162.897 23.7609L163.844 23.439ZM163.844 36.8862L164.791 37.2081L164.792 37.2053L163.844 36.8862ZM160.943 42.0132L161.695 42.6731L161.699 42.6681L160.943 42.0132ZM156.285 45.3823L155.885 44.4657L156.285 45.3823ZM139 42.0132L138.244 42.6681L138.249 42.6731L139 42.0132ZM136.1 36.8862L135.152 37.2053L135.153 37.2081L136.1 36.8862ZM144.508 37.5601L143.657 38.0852L144.508 37.5601ZM146.705 39.728L146.199 40.5904L146.21 40.5969L146.221 40.6031L146.705 39.728ZM153.209 39.728L153.701 40.5986L153.708 40.5946L153.715 40.5904L153.209 39.728ZM155.406 37.5601L154.563 37.022L154.559 37.0285L154.555 37.035L155.406 37.5601ZM156.695 26.0171L155.72 26.2374L155.721 26.2408L156.695 26.0171ZM155.406 22.8237L154.55 23.3408L154.557 23.3514L154.563 23.3618L155.406 22.8237ZM153.18 20.6265L152.66 21.4807L152.671 21.4873L152.682 21.4936L153.18 20.6265ZM146.705 20.6265L147.211 21.4889L147.218 21.4848L147.225 21.4807L146.705 20.6265ZM144.508 22.8237L145.359 23.3489L145.364 23.3408L144.508 22.8237ZM143.248 26.0171L144.223 26.2408L144.223 26.2374L143.248 26.0171ZM136.104 30.4702V29.855H134.104V30.4702H136.104ZM136.104 29.855C136.104 27.6265 136.422 25.5981 137.046 23.7609L135.153 23.1171C134.449 25.1861 134.104 27.435 134.104 29.855H136.104ZM137.047 23.758C137.673 21.9005 138.576 20.3098 139.751 18.972L138.249 17.6521C136.885 19.2048 135.855 21.0321 135.152 23.1199L137.047 23.758ZM139.751 18.972C140.92 17.6415 142.351 16.604 144.058 15.8595L143.258 14.0263C141.294 14.8833 139.619 16.0919 138.249 17.6521L139.751 18.972ZM144.066 15.8559C145.754 15.1016 147.701 14.7124 149.928 14.7124V12.7124C147.466 12.7124 145.234 13.1435 143.25 14.0299L144.066 15.8559ZM149.928 14.7124C152.196 14.7124 154.162 15.1025 155.848 15.8559L156.664 14.0299C154.678 13.1426 152.425 12.7124 149.928 12.7124V14.7124ZM155.86 15.861C157.586 16.6061 159.025 17.6436 160.192 18.972L161.695 17.6521C160.322 16.0898 158.637 14.8812 156.652 14.0247L155.86 15.861ZM160.192 18.972C161.367 20.3098 162.271 21.9005 162.896 23.758L164.792 23.1199C164.089 21.0321 163.059 19.2048 161.695 17.6521L160.192 18.972ZM162.897 23.7609C163.522 25.5981 163.84 27.6265 163.84 29.855H165.84C165.84 27.435 165.494 25.1861 164.791 23.1171L162.897 23.7609ZM163.84 29.855V30.4702H165.84V29.855H163.84ZM163.84 30.4702C163.84 32.678 163.522 34.7077 162.896 36.5672L164.792 37.2053C165.494 35.1194 165.84 32.8718 165.84 30.4702H163.84ZM162.897 36.5643C162.272 38.4031 161.367 39.9972 160.188 41.3583L161.699 42.6681C163.059 41.0995 164.088 39.2756 164.791 37.2081L162.897 36.5643ZM160.192 41.3532C159.023 42.6837 157.592 43.7212 155.885 44.4657L156.685 46.2989C158.65 45.4419 160.324 44.2333 161.695 42.6731L160.192 41.3532ZM155.885 44.4657C154.196 45.2025 152.236 45.5835 149.986 45.5835V47.5835C152.463 47.5835 154.702 47.1637 156.685 46.2989L155.885 44.4657ZM149.986 45.5835C147.757 45.5835 145.796 45.203 144.084 44.4642L143.291 46.3005C145.29 47.1632 147.528 47.5835 149.986 47.5835V45.5835ZM144.084 44.4642C142.357 43.7191 140.918 42.6816 139.751 41.3532L138.249 42.6731C139.621 44.2354 141.307 45.444 143.291 46.3005L144.084 44.4642ZM139.756 41.3583C138.576 39.9972 137.672 38.4031 137.046 36.5643L135.153 37.2081C135.856 39.2756 136.885 41.0995 138.244 42.6681L139.756 41.3583ZM137.047 36.5672C136.421 34.7077 136.104 32.678 136.104 30.4702H134.104C134.104 32.8718 134.45 35.1194 135.152 37.2053L137.047 36.5672ZM141.838 29.855V30.4702H143.838V29.855H141.838ZM141.838 30.4702C141.838 31.9225 141.981 33.2959 142.273 34.587L144.223 34.1464C143.968 33.0156 143.838 31.7913 143.838 30.4702H141.838ZM142.273 34.587C142.567 35.8897 143.024 37.0602 143.657 38.0852L145.359 37.035C144.858 36.224 144.476 35.2656 144.223 34.1464L142.273 34.587ZM143.657 38.0852C144.306 39.1369 145.155 39.9775 146.199 40.5904L147.211 38.8656C146.459 38.4239 145.843 37.8191 145.359 37.035L143.657 38.0852ZM146.221 40.6031C147.315 41.2084 148.583 41.4897 149.986 41.4897V39.4897C148.851 39.4897 147.931 39.2633 147.189 38.853L146.221 40.6031ZM149.986 41.4897C151.372 41.4897 152.624 41.2075 153.701 40.5986L152.717 38.8575C151.997 39.2642 151.1 39.4897 149.986 39.4897V41.4897ZM153.715 40.5904C154.759 39.9775 155.608 39.1369 156.257 38.0852L154.555 37.035C154.071 37.8191 153.455 38.4239 152.703 38.8656L153.715 40.5904ZM156.249 38.0981C156.905 37.07 157.375 35.8951 157.671 34.587L155.72 34.1464C155.468 35.2602 155.079 36.2141 154.563 37.022L156.249 38.0981ZM157.671 34.587C157.962 33.2959 158.105 31.9225 158.105 30.4702H156.105C156.105 31.7913 155.975 33.0156 155.72 34.1464L157.671 34.587ZM158.105 30.4702V29.855H156.105V30.4702H158.105ZM158.105 29.855C158.105 28.4212 157.962 27.0662 157.67 25.7934L155.721 26.2408C155.975 27.3508 156.105 28.5543 156.105 29.855H158.105ZM157.671 25.7968C157.375 24.4887 156.905 23.3137 156.249 22.2857L154.563 23.3618C155.079 24.1697 155.468 25.1236 155.72 26.2374L157.671 25.7968ZM156.262 22.3066C155.611 21.2292 154.748 20.3741 153.678 19.7594L152.682 21.4936C153.447 21.9335 154.068 22.5432 154.55 23.3408L156.262 22.3066ZM153.7 19.7723C152.615 19.112 151.343 18.8062 149.928 18.8062V20.8062C151.052 20.8062 151.948 21.0472 152.66 21.4807L153.7 19.7723ZM149.928 18.8062C148.529 18.8062 147.268 19.1134 146.185 19.7723L147.225 21.4807C147.939 21.0458 148.826 20.8062 149.928 20.8062V18.8062ZM146.199 19.764C145.15 20.38 144.3 21.2343 143.652 22.3066L145.364 23.3408C145.849 22.5382 146.464 21.9276 147.211 21.4889L146.199 19.764ZM143.657 22.2986C143.024 23.3236 142.567 24.4941 142.273 25.7968L144.223 26.2374C144.476 25.1182 144.858 24.1598 145.359 23.3488L143.657 22.2986ZM142.273 25.7934C141.981 27.0662 141.838 28.4212 141.838 29.855H143.838C143.838 28.5543 143.968 27.3508 144.223 26.2408L142.273 25.7934ZM178.668 0.997559H179.668V-0.00244141H178.668V0.997559ZM178.668 45.9976V46.9976H179.668V45.9976H178.668ZM170.904 45.9976H169.904V46.9976H170.904V45.9976ZM170.904 0.997559V-0.00244141H169.904V0.997559H170.904ZM177.668 0.997559V45.9976H179.668V0.997559H177.668ZM178.668 44.9976H170.904V46.9976H178.668V44.9976ZM171.904 45.9976V0.997559H169.904V45.9976H171.904ZM170.904 1.99756H178.668V-0.00244141H170.904V1.99756ZM194.254 14.2983H195.254V13.2983H194.254V14.2983ZM194.254 45.9976V46.9976H195.254V45.9976H194.254ZM186.49 45.9976H185.49V46.9976H186.49V45.9976ZM186.49 14.2983V13.2983H185.49V14.2983H186.49ZM187.135 3.13623L186.445 2.41162L186.437 2.42023L187.135 3.13623ZM193.551 3.13623L192.853 3.85228L192.862 3.86079L193.551 3.13623ZM193.551 8.84912L192.862 8.12451L192.853 8.13312L193.551 8.84912ZM187.135 8.84912L186.437 9.56517L186.446 9.57368L187.135 8.84912ZM193.254 14.2983V45.9976H195.254V14.2983H193.254ZM194.254 44.9976H186.49V46.9976H194.254V44.9976ZM187.49 45.9976V14.2983H185.49V45.9976H187.49ZM186.49 15.2983L194.254 15.2983V13.2983L186.49 13.2983V15.2983ZM186.963 6.00732C186.963 5.10771 187.256 4.41428 187.833 3.85223L186.437 2.42023C185.451 3.38162 184.963 4.60225 184.963 6.00732H186.963ZM187.824 3.86079C188.4 3.31303 189.207 2.99365 190.357 2.99365V0.993652C188.813 0.993652 187.471 1.43599 186.446 2.41167L187.824 3.86079ZM190.357 2.99365C191.509 2.99365 192.3 3.3133 192.853 3.85223L194.249 2.42023C193.239 1.43572 191.901 0.993652 190.357 0.993652V2.99365ZM192.862 3.86079C193.455 4.42488 193.752 5.11574 193.752 6.00732H195.752C195.752 4.59422 195.249 3.37102 194.24 2.41167L192.862 3.86079ZM193.752 6.00732C193.752 6.87397 193.458 7.55687 192.862 8.12456L194.24 9.57368C195.245 8.61794 195.752 7.4063 195.752 6.00732H193.752ZM192.853 8.13312C192.3 8.67205 191.509 8.9917 190.357 8.9917V10.9917C191.901 10.9917 193.239 10.5496 194.249 9.56512L192.853 8.13312ZM190.357 8.9917C189.207 8.9917 188.4 8.67232 187.824 8.12456L186.446 9.57368C187.471 10.5494 188.813 10.9917 190.357 10.9917V8.9917ZM187.833 8.13312C187.253 7.56752 186.963 6.88207 186.963 6.00732H184.963C184.963 7.3982 185.454 8.60728 186.437 9.56512L187.833 8.13312ZM201.256 23.439L202.203 23.7609L202.204 23.758L201.256 23.439ZM208.814 14.9429L209.214 15.8595L209.222 15.8559L208.814 14.9429ZM221.412 14.9429L221.004 15.856L221.016 15.861L221.412 14.9429ZM229 23.439L228.052 23.758L228.053 23.7609L229 23.439ZM229 36.8862L229.947 37.2081L229.948 37.2053L229 36.8862ZM226.1 42.0132L226.851 42.6731L226.855 42.6681L226.1 42.0132ZM221.441 45.3823L221.042 44.4657L221.441 45.3823ZM204.156 42.0132L203.401 42.6681L203.405 42.6731L204.156 42.0132ZM201.256 36.8862L200.308 37.2053L200.309 37.2081L201.256 36.8862ZM209.664 37.5601L208.813 38.0852L209.664 37.5601ZM211.861 39.728L211.355 40.5904L211.366 40.5969L211.377 40.6031L211.861 39.728ZM218.365 39.728L218.857 40.5986L218.864 40.5946L218.871 40.5904L218.365 39.728ZM220.562 37.5601L219.72 37.022L219.715 37.0285L219.711 37.035L220.562 37.5601ZM221.852 26.0171L220.876 26.2374L220.877 26.2408L221.852 26.0171ZM220.562 22.8237L219.707 23.3408L219.713 23.3514L219.72 23.3618L220.562 22.8237ZM218.336 20.6265L217.816 21.4807L217.827 21.4873L217.838 21.4936L218.336 20.6265ZM211.861 20.6265L212.368 21.4889L212.374 21.4848L212.381 21.4807L211.861 20.6265ZM209.664 22.8237L210.515 23.3489L210.52 23.3408L209.664 22.8237ZM208.404 26.0171L209.379 26.2408L209.38 26.2374L208.404 26.0171ZM201.26 30.4702V29.855H199.26V30.4702H201.26ZM201.26 29.855C201.26 27.6265 201.578 25.5981 202.203 23.7609L200.309 23.1171C199.606 25.1861 199.26 27.435 199.26 29.855H201.26ZM202.204 23.758C202.829 21.9005 203.732 20.3098 204.908 18.972L203.405 17.6521C202.041 19.2048 201.011 21.0321 200.308 23.1199L202.204 23.758ZM204.908 18.972C206.076 17.6415 207.507 16.604 209.214 15.8595L208.415 14.0263C206.45 14.8833 204.775 16.0919 203.405 17.6521L204.908 18.972ZM209.222 15.8559C210.91 15.1016 212.858 14.7124 215.084 14.7124V12.7124C212.623 12.7124 210.39 13.1435 208.407 14.0299L209.222 15.8559ZM215.084 14.7124C217.352 14.7124 219.318 15.1025 221.004 15.8559L221.82 14.0299C219.834 13.1426 217.582 12.7124 215.084 12.7124V14.7124ZM221.016 15.861C222.742 16.6061 224.181 17.6436 225.348 18.972L226.851 17.6521C225.479 16.0898 223.793 14.8812 221.808 14.0247L221.016 15.861ZM225.348 18.972C226.523 20.3098 227.427 21.9005 228.052 23.758L229.948 23.1199C229.245 21.0321 228.215 19.2048 226.851 17.6521L225.348 18.972ZM228.053 23.7609C228.678 25.5981 228.996 27.6265 228.996 29.855H230.996C230.996 27.435 230.65 25.1861 229.947 23.1171L228.053 23.7609ZM228.996 29.855V30.4702H230.996V29.855H228.996ZM228.996 30.4702C228.996 32.678 228.678 34.7077 228.052 36.5672L229.948 37.2053C230.65 35.1194 230.996 32.8718 230.996 30.4702H228.996ZM228.053 36.5643C227.428 38.4031 226.523 39.9972 225.344 41.3583L226.855 42.6681C228.215 41.0995 229.244 39.2756 229.947 37.2081L228.053 36.5643ZM225.348 41.3532C224.18 42.6837 222.749 43.7212 221.042 44.4657L221.841 46.2989C223.806 45.4419 225.48 44.2333 226.851 42.6731L225.348 41.3532ZM221.042 44.4657C219.352 45.2025 217.393 45.5835 215.143 45.5835V47.5835C217.619 47.5835 219.859 47.1637 221.841 46.2989L221.042 44.4657ZM215.143 45.5835C212.914 45.5835 210.952 45.203 209.24 44.4642L208.448 46.3005C210.446 47.1632 212.684 47.5835 215.143 47.5835V45.5835ZM209.24 44.4642C207.514 43.7191 206.074 42.6816 204.908 41.3532L203.405 42.6731C204.777 44.2354 206.463 45.444 208.448 46.3005L209.24 44.4642ZM204.912 41.3583C203.732 39.9972 202.828 38.4031 202.203 36.5643L200.309 37.2081C201.012 39.2756 202.041 41.0995 203.401 42.6681L204.912 41.3583ZM202.204 36.5672C201.578 34.7077 201.26 32.678 201.26 30.4702H199.26C199.26 32.8718 199.606 35.1194 200.308 37.2053L202.204 36.5672ZM206.994 29.855V30.4702H208.994V29.855H206.994ZM206.994 30.4702C206.994 31.9225 207.137 33.2959 207.429 34.587L209.38 34.1464C209.124 33.0156 208.994 31.7913 208.994 30.4702H206.994ZM207.429 34.587C207.723 35.8897 208.181 37.0602 208.813 38.0852L210.515 37.035C210.015 36.224 209.632 35.2656 209.38 34.1464L207.429 34.587ZM208.813 38.0852C209.462 39.1369 210.311 39.9775 211.355 40.5904L212.368 38.8656C211.615 38.4239 210.999 37.8191 210.515 37.035L208.813 38.0852ZM211.377 40.6031C212.472 41.2084 213.739 41.4897 215.143 41.4897V39.4897C214.007 39.4897 213.087 39.2633 212.345 38.853L211.377 40.6031ZM215.143 41.4897C216.529 41.4897 217.78 41.2075 218.857 40.5986L217.873 38.8575C217.154 39.2642 216.256 39.4897 215.143 39.4897V41.4897ZM218.871 40.5904C219.916 39.9775 220.765 39.1369 221.414 38.0852L219.711 37.035C219.228 37.8191 218.612 38.4239 217.859 38.8656L218.871 40.5904ZM221.405 38.0981C222.062 37.07 222.532 35.8951 222.827 34.587L220.876 34.1464C220.625 35.2602 220.235 36.2141 219.72 37.022L221.405 38.0981ZM222.827 34.587C223.119 33.2959 223.262 31.9225 223.262 30.4702H221.262C221.262 31.7913 221.131 33.0156 220.876 34.1464L222.827 34.587ZM223.262 30.4702V29.855H221.262V30.4702H223.262ZM223.262 29.855C223.262 28.4212 223.118 27.0662 222.826 25.7934L220.877 26.2408C221.132 27.3508 221.262 28.5543 221.262 29.855H223.262ZM222.827 25.7968C222.532 24.4887 222.062 23.3137 221.405 22.2857L219.72 23.3618C220.235 24.1697 220.625 25.1236 220.876 26.2374L222.827 25.7968ZM221.418 22.3066C220.767 21.2292 219.904 20.3741 218.834 19.7594L217.838 21.4936C218.604 21.9335 219.225 22.5432 219.707 23.3408L221.418 22.3066ZM218.856 19.7723C217.771 19.112 216.499 18.8062 215.084 18.8062V20.8062C216.208 20.8062 217.104 21.0472 217.816 21.4807L218.856 19.7723ZM215.084 18.8062C213.685 18.8062 212.424 19.1134 211.341 19.7723L212.381 21.4807C213.096 21.0458 213.983 20.8062 215.084 20.8062V18.8062ZM211.355 19.764C210.306 20.38 209.456 21.2343 208.808 22.3066L210.52 23.3408C211.005 22.5382 211.62 21.9276 212.368 21.4889L211.355 19.764ZM208.813 22.2986C208.181 23.3236 207.723 24.4941 207.429 25.7968L209.38 26.2374C209.632 25.1182 210.015 24.1598 210.515 23.3488L208.813 22.2986ZM207.43 25.7934C207.138 27.0662 206.994 28.4212 206.994 29.855H208.994C208.994 28.5543 209.124 27.3508 209.379 26.2408L207.43 25.7934Z" fill="white" fill-opacity="0.3" mask="url(#path-1-outside-1_2164_11047)"/>
</svg>
