<svg width="111" height="95" viewBox="0 0 111 95" fill="none" xmlns="http://www.w3.org/2000/svg">
<path d="M35 4.17969L68.7947 37.9744C64.1379 42.3234 61.5218 43.6648 56.2579 43.9702C49.4663 44.1997 46.2232 43.1694 41.5409 39.0645C39.1241 36.9211 37.6713 35.1783 36.6144 32.9514C35.173 29.9146 35 26.4632 35 23.1017V4.17969Z" fill="#8F8E93"/>
<path d="M76.207 41.8203L42.1328 8.30753C46.7533 3.91998 49.3581 2.55684 54.6193 2.20777C61.4087 1.9218 64.6604 2.92515 69.3766 6.99102C71.8111 9.11434 73.2783 10.8449 74.3537 13.063C75.8203 16.0877 76.0219 19.5376 76.0499 22.899L76.207 41.8203Z" fill="#8F8E93"/>
<path d="M37.105 76.14C35.9664 76.14 35.005 75.86 34.221 75.3C33.4464 74.7307 32.975 73.942 32.807 72.934H34.207C34.4404 73.578 34.7904 74.0493 35.257 74.348C35.733 74.6467 36.363 74.796 37.147 74.796C37.903 74.796 38.5144 74.6607 38.981 74.39C39.4477 74.11 39.681 73.7507 39.681 73.312C39.681 72.9293 39.5084 72.6213 39.163 72.388C38.8177 72.1453 38.2484 71.9447 37.455 71.786L36.391 71.59C35.2804 71.394 34.4497 71.058 33.899 70.582C33.3484 70.0967 33.073 69.4993 33.073 68.79C33.073 68.2487 33.2364 67.7727 33.563 67.362C33.8897 66.9513 34.347 66.634 34.935 66.41C35.523 66.1767 36.1997 66.06 36.965 66.06C37.9637 66.06 38.8317 66.3073 39.569 66.802C40.3064 67.2873 40.7917 67.9733 41.025 68.86H39.555C39.3684 68.384 39.0324 68.0247 38.547 67.782C38.071 67.53 37.5204 67.404 36.895 67.404C36.1577 67.404 35.5744 67.5347 35.145 67.796C34.725 68.048 34.515 68.398 34.515 68.846C34.515 69.21 34.683 69.504 35.019 69.728C35.3644 69.952 35.9057 70.1293 36.643 70.26L37.707 70.442C38.883 70.638 39.7464 70.974 40.297 71.45C40.8477 71.926 41.123 72.5373 41.123 73.284C41.123 73.844 40.9504 74.3387 40.605 74.768C40.269 75.1973 39.7977 75.5333 39.191 75.776C38.5844 76.0187 37.889 76.14 37.105 76.14ZM51.2779 68.86C51.8379 68.86 52.3372 68.9813 52.7759 69.224C53.2239 69.4667 53.5739 69.8353 53.8259 70.33C54.0872 70.8153 54.2179 71.4127 54.2179 72.122V76H52.8879V72.15C52.8879 71.534 52.7105 71.044 52.3559 70.68C52.0105 70.316 51.5719 70.134 51.0399 70.134C50.4612 70.134 49.9945 70.3393 49.6399 70.75C49.2852 71.1607 49.1079 71.6647 49.1079 72.262V76H47.7779V72.15C47.7779 71.534 47.6005 71.044 47.2459 70.68C46.9005 70.316 46.4619 70.134 45.9299 70.134C45.3512 70.134 44.8845 70.3393 44.5299 70.75C44.1752 71.1607 43.9979 71.6647 43.9979 72.262V76H42.6679V69H43.9279V70.106C44.1799 69.7233 44.5019 69.42 44.8939 69.196C45.2952 68.972 45.7199 68.86 46.1679 68.86C46.7185 68.86 47.2132 68.9813 47.6519 69.224C48.0999 69.4573 48.4452 69.8073 48.6879 70.274C48.9585 69.8447 49.3225 69.504 49.7799 69.252C50.2465 68.9907 50.7459 68.86 51.2779 68.86ZM62.6824 69V76H61.3524V74.95C61.063 75.3233 60.713 75.6173 60.3024 75.832C59.8917 76.0373 59.453 76.14 58.9864 76.14C58.3704 76.14 57.8104 75.986 57.3064 75.678C56.8024 75.3607 56.4057 74.9267 56.1164 74.376C55.827 73.8253 55.6824 73.2 55.6824 72.5C55.6824 71.8 55.827 71.1747 56.1164 70.624C56.4057 70.0733 56.8024 69.644 57.3064 69.336C57.8104 69.0187 58.3704 68.86 58.9864 68.86C59.4717 68.86 59.9244 68.972 60.3444 69.196C60.7644 69.42 61.1237 69.7327 61.4224 70.134V69H62.6824ZM59.2104 74.908C59.621 74.908 59.9944 74.8053 60.3304 74.6C60.6664 74.3947 60.9277 74.11 61.1144 73.746C61.301 73.3727 61.3944 72.9573 61.3944 72.5C61.3944 72.0427 61.301 71.632 61.1144 71.268C60.9277 70.8947 60.6664 70.6053 60.3304 70.4C59.9944 70.1947 59.621 70.092 59.2104 70.092C58.7997 70.092 58.431 70.1947 58.1044 70.4C57.7777 70.6053 57.521 70.8947 57.3344 71.268C57.1477 71.632 57.0544 72.0427 57.0544 72.5C57.0544 72.9573 57.1477 73.3727 57.3344 73.746C57.521 74.11 57.7777 74.3947 58.1044 74.6C58.431 74.8053 58.7997 74.908 59.2104 74.908ZM68.4957 68.86C68.7197 68.86 68.9297 68.874 69.1257 68.902V70.204C68.9577 70.1667 68.6917 70.148 68.3277 70.148C67.917 70.148 67.553 70.2413 67.2357 70.428C66.9277 70.6147 66.685 70.8667 66.5077 71.184C66.3397 71.492 66.2557 71.8327 66.2557 72.206V76H64.9257V69H66.1857V70.078C66.447 69.7047 66.7783 69.4107 67.1797 69.196C67.5903 68.972 68.029 68.86 68.4957 68.86ZM72.2811 70.26V73.956C72.2811 74.2547 72.3511 74.4833 72.4911 74.642C72.6405 74.8007 72.8925 74.88 73.2471 74.88C73.5831 74.88 73.8678 74.852 74.1011 74.796V76.014C73.8491 76.098 73.5411 76.14 73.1771 76.14C71.6931 76.14 70.9511 75.412 70.9511 73.956V70.26H69.5511V69H70.9511V67.18H72.2811V69H74.2411V70.26H72.2811ZM23.991 89.5C23.991 88.828 24.1543 88.2167 24.481 87.666C24.8076 87.106 25.2556 86.6673 25.825 86.35C26.3943 86.0233 27.0243 85.86 27.715 85.86C28.4896 85.86 29.185 86.0887 29.801 86.546C30.4263 86.994 30.837 87.582 31.033 88.31H29.577C29.4183 87.9367 29.1616 87.6427 28.807 87.428C28.4616 87.204 28.0743 87.092 27.645 87.092C27.2063 87.092 26.8143 87.1993 26.469 87.414C26.1236 87.6193 25.853 87.9087 25.657 88.282C25.461 88.646 25.363 89.052 25.363 89.5C25.363 89.948 25.461 90.3587 25.657 90.732C25.853 91.096 26.1236 91.3853 26.469 91.6C26.8143 91.8053 27.2063 91.908 27.645 91.908C28.0743 91.908 28.4616 91.8007 28.807 91.586C29.1616 91.362 29.4183 91.0633 29.577 90.69H31.033C30.837 91.418 30.4263 92.0107 29.801 92.468C29.185 92.916 28.4896 93.14 27.715 93.14C27.0243 93.14 26.3943 92.9813 25.825 92.664C25.2556 92.3373 24.8076 91.8987 24.481 91.348C24.1543 90.788 23.991 90.172 23.991 89.5ZM35.672 93.14C34.9813 93.14 34.3513 92.9813 33.782 92.664C33.2127 92.3373 32.7647 91.8987 32.438 91.348C32.1113 90.788 31.948 90.172 31.948 89.5C31.948 88.828 32.1113 88.2167 32.438 87.666C32.7647 87.106 33.2127 86.6673 33.782 86.35C34.3513 86.0233 34.9813 85.86 35.672 85.86C36.3533 85.86 36.974 86.0233 37.534 86.35C38.1033 86.6673 38.5513 87.106 38.878 87.666C39.2047 88.2167 39.368 88.828 39.368 89.5C39.368 90.172 39.2047 90.788 38.878 91.348C38.5513 91.8987 38.1033 92.3373 37.534 92.664C36.974 92.9813 36.3533 93.14 35.672 93.14ZM35.672 91.908C36.1013 91.908 36.4933 91.8053 36.848 91.6C37.2027 91.3853 37.4827 91.096 37.688 90.732C37.8933 90.3587 37.996 89.948 37.996 89.5C37.996 89.052 37.8933 88.646 37.688 88.282C37.4827 87.9087 37.2027 87.6193 36.848 87.414C36.4933 87.1993 36.1013 87.092 35.672 87.092C35.2333 87.092 34.832 87.1993 34.468 87.414C34.1133 87.6193 33.8333 87.9087 33.628 88.282C33.4227 88.646 33.32 89.052 33.32 89.5C33.32 89.948 33.4227 90.3587 33.628 90.732C33.8333 91.096 34.1133 91.3853 34.468 91.6C34.832 91.8053 35.2333 91.908 35.672 91.908ZM44.5425 85.86C45.1119 85.86 45.6205 85.9813 46.0685 86.224C46.5259 86.4667 46.8852 86.8353 47.1465 87.33C47.4172 87.8153 47.5525 88.4127 47.5525 89.122V93H46.2225V89.15C46.2225 88.534 46.0405 88.044 45.6765 87.68C45.3125 87.316 44.8552 87.134 44.3045 87.134C43.9032 87.134 43.5485 87.232 43.2405 87.428C42.9419 87.6147 42.7085 87.8713 42.5405 88.198C42.3819 88.5247 42.3025 88.8793 42.3025 89.262V93H40.9725V86H42.2325V87.12C42.4939 86.7373 42.8252 86.434 43.2265 86.21C43.6372 85.9767 44.0759 85.86 44.5425 85.86ZM51.2675 87.26V90.956C51.2675 91.2547 51.3375 91.4833 51.4775 91.642C51.6268 91.8007 51.8788 91.88 52.2335 91.88C52.5695 91.88 52.8541 91.852 53.0875 91.796V93.014C52.8355 93.098 52.5275 93.14 52.1635 93.14C50.6795 93.14 49.9375 92.412 49.9375 90.956V87.26H48.5375V86H49.9375V84.18H51.2675V86H53.2275V87.26H51.2675ZM58.3375 85.86C58.5615 85.86 58.7715 85.874 58.9675 85.902V87.204C58.7995 87.1667 58.5335 87.148 58.1695 87.148C57.7588 87.148 57.3948 87.2413 57.0775 87.428C56.7695 87.6147 56.5268 87.8667 56.3495 88.184C56.1815 88.492 56.0975 88.8327 56.0975 89.206V93H54.7675V86H56.0275V87.078C56.2888 86.7047 56.6201 86.4107 57.0215 86.196C57.4321 85.972 57.8708 85.86 58.3375 85.86ZM66.3191 86V93H64.9891V91.95C64.6998 92.3233 64.3498 92.6173 63.9391 92.832C63.5284 93.0373 63.0898 93.14 62.6231 93.14C62.0071 93.14 61.4471 92.986 60.9431 92.678C60.4391 92.3607 60.0424 91.9267 59.7531 91.376C59.4638 90.8253 59.3191 90.2 59.3191 89.5C59.3191 88.8 59.4638 88.1747 59.7531 87.624C60.0424 87.0733 60.4391 86.644 60.9431 86.336C61.4471 86.0187 62.0071 85.86 62.6231 85.86C63.1084 85.86 63.5611 85.972 63.9811 86.196C64.4011 86.42 64.7604 86.7327 65.0591 87.134V86H66.3191ZM62.8471 91.908C63.2578 91.908 63.6311 91.8053 63.9671 91.6C64.3031 91.3947 64.5644 91.11 64.7511 90.746C64.9378 90.3727 65.0311 89.9573 65.0311 89.5C65.0311 89.0427 64.9378 88.632 64.7511 88.268C64.5644 87.8947 64.3031 87.6053 63.9671 87.4C63.6311 87.1947 63.2578 87.092 62.8471 87.092C62.4364 87.092 62.0678 87.1947 61.7411 87.4C61.4144 87.6053 61.1578 87.8947 60.9711 88.268C60.7844 88.632 60.6911 89.0427 60.6911 89.5C60.6911 89.9573 60.7844 90.3727 60.9711 90.746C61.1578 91.11 61.4144 91.3947 61.7411 91.6C62.0678 91.8053 62.4364 91.908 62.8471 91.908ZM67.9324 89.5C67.9324 88.828 68.0957 88.2167 68.4224 87.666C68.749 87.106 69.197 86.6673 69.7664 86.35C70.3357 86.0233 70.9657 85.86 71.6564 85.86C72.431 85.86 73.1264 86.0887 73.7424 86.546C74.3677 86.994 74.7784 87.582 74.9744 88.31H73.5184C73.3597 87.9367 73.103 87.6427 72.7484 87.428C72.403 87.204 72.0157 87.092 71.5864 87.092C71.1477 87.092 70.7557 87.1993 70.4104 87.414C70.065 87.6193 69.7944 87.9087 69.5984 88.282C69.4024 88.646 69.3044 89.052 69.3044 89.5C69.3044 89.948 69.4024 90.3587 69.5984 90.732C69.7944 91.096 70.065 91.3853 70.4104 91.6C70.7557 91.8053 71.1477 91.908 71.5864 91.908C72.0157 91.908 72.403 91.8007 72.7484 91.586C73.103 91.362 73.3597 91.0633 73.5184 90.69H74.9744C74.7784 91.418 74.3677 92.0107 73.7424 92.468C73.1264 92.916 72.431 93.14 71.6564 93.14C70.9657 93.14 70.3357 92.9813 69.7664 92.664C69.197 92.3373 68.749 91.8987 68.4224 91.348C68.0957 90.788 67.9324 90.172 67.9324 89.5ZM78.1327 87.26V90.956C78.1327 91.2547 78.2027 91.4833 78.3427 91.642C78.492 91.8007 78.744 91.88 79.0987 91.88C79.4347 91.88 79.7194 91.852 79.9527 91.796V93.014C79.7007 93.098 79.3927 93.14 79.0287 93.14C77.5447 93.14 76.8027 92.412 76.8027 90.956V87.26H75.4027V86H76.8027V84.18H78.1327V86H80.0927V87.26H78.1327ZM83.96 93.14C83.0826 93.14 82.3406 92.9347 81.734 92.524C81.1366 92.104 80.7913 91.5253 80.698 90.788H82.028C82.1493 91.1893 82.3733 91.488 82.7 91.684C83.036 91.8707 83.4746 91.964 84.016 91.964C84.52 91.964 84.926 91.8847 85.234 91.726C85.542 91.558 85.696 91.3433 85.696 91.082C85.696 90.8207 85.5886 90.6153 85.374 90.466C85.1686 90.3073 84.7813 90.1813 84.212 90.088L83.414 89.948C81.734 89.6493 80.894 88.9727 80.894 87.918C80.894 87.302 81.1646 86.8073 81.706 86.434C82.2473 86.0513 82.9566 85.86 83.834 85.86C84.6273 85.86 85.304 86.0467 85.864 86.42C86.424 86.784 86.7786 87.2927 86.928 87.946H85.514C85.402 87.666 85.1873 87.4513 84.87 87.302C84.5526 87.1433 84.2026 87.064 83.82 87.064C83.3346 87.064 82.9473 87.1387 82.658 87.288C82.378 87.428 82.238 87.624 82.238 87.876C82.238 88.1 82.3453 88.2867 82.56 88.436C82.7746 88.576 83.12 88.6833 83.596 88.758L84.408 88.898C85.36 89.0567 86.032 89.318 86.424 89.682C86.816 90.0367 87.012 90.5033 87.012 91.082C87.012 91.698 86.7366 92.1973 86.186 92.58C85.6446 92.9533 84.9026 93.14 83.96 93.14Z" fill="#8F8E93"/>
</svg>
