<svg width="111" height="95" viewBox="0 0 111 95" fill="none" xmlns="http://www.w3.org/2000/svg">
<path d="M48.6517 35.5589C48.6517 34.9507 48.5929 34.3229 48.4948 33.7344H40V37.2068H44.8654C44.6692 38.3251 44.0218 39.306 43.0605 39.9338L45.964 42.1899C47.6708 40.6008 48.6517 38.2859 48.6517 35.5589Z" fill="#8F8E93"/>
<path d="M40.0006 44.3448C42.4333 44.3448 44.4736 43.5404 45.9646 42.1671L43.0611 39.9306C42.2567 40.4799 41.217 40.7938 40.0006 40.7938C37.6464 40.7938 35.6649 39.2047 34.939 37.0859L31.957 39.3813C33.4873 42.4222 36.587 44.3448 40.0006 44.3448Z" fill="#8F8E93"/>
<path d="M34.9384 37.0647C34.5657 35.9465 34.5657 34.7301 34.9384 33.6119L31.9564 31.2969C30.6812 33.8473 30.6812 36.8489 31.9564 39.3797L34.9384 37.0647Z" fill="#8F8E93"/>
<path d="M40.0006 29.9068C41.2758 29.8872 42.5314 30.3777 43.4535 31.2605L46.0235 28.6709C44.3951 27.1406 42.2371 26.3167 40.0006 26.3363C36.587 26.3363 33.4873 28.2589 31.957 31.2998L34.939 33.6147C35.6649 31.4763 37.6464 29.9068 40.0006 29.9068Z" fill="#8F8E93"/>
<path d="M64.0583 44.3448C72.3444 44.3448 76.8811 37.7079 76.8811 31.9508C76.8811 31.764 76.8811 31.5738 76.867 31.387C77.7491 30.7688 78.5116 30.008 79.116 29.1316C78.2937 29.4849 77.4222 29.7158 76.5297 29.8177C77.4714 29.2743 78.1743 28.4184 78.5116 27.4096C77.6261 27.9157 76.6597 28.2757 75.6512 28.4659C73.9433 26.7133 71.0899 26.6284 69.2766 28.2757C68.1065 29.3388 67.611 30.925 67.9729 32.4365C64.3499 32.2599 60.9729 30.6057 58.6853 27.8851C57.4905 29.8755 58.0984 32.4195 60.0803 33.7C59.3635 33.6796 58.6607 33.4928 58.0352 33.1566C58.0352 33.1735 58.0352 33.1939 58.0352 33.2109C58.0352 35.2828 59.5462 37.0694 61.6511 37.4804C60.987 37.6536 60.2912 37.6808 59.6165 37.5551C60.2068 39.3281 61.8971 40.544 63.8263 40.5814C62.2309 41.794 60.2596 42.4529 58.2319 42.4495C57.8735 42.4495 57.5151 42.4291 57.1602 42.385C59.2124 43.6655 61.6125 44.3448 64.0583 44.3414" fill="#8F8E93"/>
<path d="M59.3693 17.7589L60.1008 12.6886H55.5249V9.39846C55.5249 8.01133 56.1642 6.65915 58.2137 6.65915H60.2942V2.34258C60.2942 2.34258 58.4061 2 56.6009 2C52.8322 2 50.3689 4.42824 50.3689 8.82428V12.6886H46.1797V17.7589H50.3689V30.0159C51.209 30.156 52.0697 30.229 52.9469 30.229C53.8241 30.229 54.6848 30.156 55.5249 30.0159V17.7589H59.3693Z" fill="#8F8E93"/>
<path d="M14.3345 76.14C13.1959 76.14 12.2345 75.86 11.4505 75.3C10.6759 74.7307 10.2045 73.942 10.0365 72.934H11.4365C11.6699 73.578 12.0199 74.0493 12.4865 74.348C12.9625 74.6467 13.5925 74.796 14.3765 74.796C15.1325 74.796 15.7439 74.6607 16.2105 74.39C16.6772 74.11 16.9105 73.7507 16.9105 73.312C16.9105 72.9293 16.7379 72.6213 16.3925 72.388C16.0472 72.1453 15.4779 71.9447 14.6845 71.786L13.6205 71.59C12.5099 71.394 11.6792 71.058 11.1285 70.582C10.5779 70.0967 10.3025 69.4993 10.3025 68.79C10.3025 68.2487 10.4659 67.7727 10.7925 67.362C11.1192 66.9513 11.5765 66.634 12.1645 66.41C12.7525 66.1767 13.4292 66.06 14.1945 66.06C15.1932 66.06 16.0612 66.3073 16.7985 66.802C17.5359 67.2873 18.0212 67.9733 18.2545 68.86H16.7845C16.5979 68.384 16.2619 68.0247 15.7765 67.782C15.3005 67.53 14.7499 67.404 14.1245 67.404C13.3872 67.404 12.8039 67.5347 12.3745 67.796C11.9545 68.048 11.7445 68.398 11.7445 68.846C11.7445 69.21 11.9125 69.504 12.2485 69.728C12.5939 69.952 13.1352 70.1293 13.8725 70.26L14.9365 70.442C16.1125 70.638 16.9759 70.974 17.5265 71.45C18.0772 71.926 18.3525 72.5373 18.3525 73.284C18.3525 73.844 18.1799 74.3387 17.8345 74.768C17.4985 75.1973 17.0272 75.5333 16.4205 75.776C15.8139 76.0187 15.1185 76.14 14.3345 76.14ZM22.9913 76.14C22.3007 76.14 21.6707 75.9813 21.1013 75.664C20.532 75.3373 20.084 74.8987 19.7573 74.348C19.4307 73.788 19.2673 73.172 19.2673 72.5C19.2673 71.828 19.4307 71.2167 19.7573 70.666C20.084 70.106 20.532 69.6673 21.1013 69.35C21.6707 69.0233 22.3007 68.86 22.9913 68.86C23.6727 68.86 24.2933 69.0233 24.8533 69.35C25.4227 69.6673 25.8707 70.106 26.1973 70.666C26.524 71.2167 26.6873 71.828 26.6873 72.5C26.6873 73.172 26.524 73.788 26.1973 74.348C25.8707 74.8987 25.4227 75.3373 24.8533 75.664C24.2933 75.9813 23.6727 76.14 22.9913 76.14ZM22.9913 74.908C23.4207 74.908 23.8127 74.8053 24.1673 74.6C24.522 74.3853 24.802 74.096 25.0073 73.732C25.2127 73.3587 25.3153 72.948 25.3153 72.5C25.3153 72.052 25.2127 71.646 25.0073 71.282C24.802 70.9087 24.522 70.6193 24.1673 70.414C23.8127 70.1993 23.4207 70.092 22.9913 70.092C22.5527 70.092 22.1513 70.1993 21.7873 70.414C21.4327 70.6193 21.1527 70.9087 20.9473 71.282C20.742 71.646 20.6393 72.052 20.6393 72.5C20.6393 72.948 20.742 73.3587 20.9473 73.732C21.1527 74.096 21.4327 74.3853 21.7873 74.6C22.1513 74.8053 22.5527 74.908 22.9913 74.908ZM27.7302 72.5C27.7302 71.828 27.8936 71.2167 28.2202 70.666C28.5469 70.106 28.9949 69.6673 29.5642 69.35C30.1336 69.0233 30.7636 68.86 31.4542 68.86C32.2289 68.86 32.9242 69.0887 33.5402 69.546C34.1656 69.994 34.5762 70.582 34.7722 71.31H33.3162C33.1576 70.9367 32.9009 70.6427 32.5462 70.428C32.2009 70.204 31.8136 70.092 31.3842 70.092C30.9456 70.092 30.5536 70.1993 30.2082 70.414C29.8629 70.6193 29.5922 70.9087 29.3962 71.282C29.2002 71.646 29.1022 72.052 29.1022 72.5C29.1022 72.948 29.2002 73.3587 29.3962 73.732C29.5922 74.096 29.8629 74.3853 30.2082 74.6C30.5536 74.8053 30.9456 74.908 31.3842 74.908C31.8136 74.908 32.2009 74.8007 32.5462 74.586C32.9009 74.362 33.1576 74.0633 33.3162 73.69H34.7722C34.5762 74.418 34.1656 75.0107 33.5402 75.468C32.9242 75.916 32.2289 76.14 31.4542 76.14C30.7636 76.14 30.1336 75.9813 29.5642 75.664C28.9949 75.3373 28.5469 74.8987 28.2202 74.348C27.8936 73.788 27.7302 73.172 27.7302 72.5ZM37.5789 69V76H36.2489V69H37.5789ZM37.6629 66.2V67.74H36.1789V66.2H37.6629ZM46.1873 69V76H44.8573V74.95C44.5679 75.3233 44.2179 75.6173 43.8073 75.832C43.3966 76.0373 42.9579 76.14 42.4913 76.14C41.8753 76.14 41.3153 75.986 40.8113 75.678C40.3073 75.3607 39.9106 74.9267 39.6213 74.376C39.3319 73.8253 39.1873 73.2 39.1873 72.5C39.1873 71.8 39.3319 71.1747 39.6213 70.624C39.9106 70.0733 40.3073 69.644 40.8113 69.336C41.3153 69.0187 41.8753 68.86 42.4913 68.86C42.9766 68.86 43.4293 68.972 43.8493 69.196C44.2693 69.42 44.6286 69.7327 44.9273 70.134V69H46.1873ZM42.7153 74.908C43.1259 74.908 43.4993 74.8053 43.8353 74.6C44.1713 74.3947 44.4326 74.11 44.6193 73.746C44.8059 73.3727 44.8993 72.9573 44.8993 72.5C44.8993 72.0427 44.8059 71.632 44.6193 71.268C44.4326 70.8947 44.1713 70.6053 43.8353 70.4C43.4993 70.1947 43.1259 70.092 42.7153 70.092C42.3046 70.092 41.9359 70.1947 41.6093 70.4C41.2826 70.6053 41.0259 70.8947 40.8393 71.268C40.6526 71.632 40.5593 72.0427 40.5593 72.5C40.5593 72.9573 40.6526 73.3727 40.8393 73.746C41.0259 74.11 41.2826 74.3947 41.6093 74.6C41.9359 74.8053 42.3046 74.908 42.7153 74.908ZM49.7605 66.13V76H48.4305V66.13H49.7605ZM64.5327 68.86C65.0927 68.86 65.5921 68.9813 66.0307 69.224C66.4787 69.4667 66.8287 69.8353 67.0807 70.33C67.3421 70.8153 67.4727 71.4127 67.4727 72.122V76H66.1427V72.15C66.1427 71.534 65.9654 71.044 65.6107 70.68C65.2654 70.316 64.8267 70.134 64.2947 70.134C63.7161 70.134 63.2494 70.3393 62.8947 70.75C62.5401 71.1607 62.3627 71.6647 62.3627 72.262V76H61.0327V72.15C61.0327 71.534 60.8554 71.044 60.5007 70.68C60.1554 70.316 59.7167 70.134 59.1847 70.134C58.6061 70.134 58.1394 70.3393 57.7847 70.75C57.4301 71.1607 57.2527 71.6647 57.2527 72.262V76H55.9227V69H57.1827V70.106C57.4347 69.7233 57.7567 69.42 58.1487 69.196C58.5501 68.972 58.9747 68.86 59.4227 68.86C59.9734 68.86 60.4681 68.9813 60.9067 69.224C61.3547 69.4573 61.7001 69.8073 61.9427 70.274C62.2134 69.8447 62.5774 69.504 63.0347 69.252C63.5014 68.9907 64.0007 68.86 64.5327 68.86ZM72.5213 68.86C73.2399 68.86 73.8653 69.014 74.3973 69.322C74.9386 69.63 75.3539 70.0687 75.6433 70.638C75.9326 71.198 76.0773 71.856 76.0773 72.612C76.0773 72.808 76.0726 72.9527 76.0633 73.046H70.3233C70.4166 73.5873 70.6686 74.0353 71.0793 74.39C71.4993 74.7353 71.9846 74.908 72.5353 74.908C73.4406 74.908 74.0846 74.5767 74.4673 73.914H75.8393C75.6153 74.5673 75.1999 75.104 74.5933 75.524C73.9866 75.9347 73.3006 76.14 72.5353 76.14C71.8539 76.14 71.2379 75.986 70.6873 75.678C70.1366 75.3607 69.7073 74.9267 69.3993 74.376C69.0913 73.816 68.9373 73.1907 68.9373 72.5C68.9373 71.8093 69.0913 71.1887 69.3993 70.638C69.7073 70.078 70.1319 69.644 70.6733 69.336C71.2239 69.0187 71.8399 68.86 72.5213 68.86ZM72.4933 70.036C71.9426 70.036 71.4666 70.2087 71.0653 70.554C70.6733 70.8993 70.4306 71.3427 70.3373 71.884H74.6353C74.5793 71.324 74.3506 70.876 73.9493 70.54C73.5573 70.204 73.0719 70.036 72.4933 70.036ZM84.1267 66.13V76H82.7967V74.95C82.5074 75.3233 82.1574 75.6173 81.7467 75.832C81.3361 76.0373 80.8974 76.14 80.4307 76.14C79.8147 76.14 79.2547 75.986 78.7507 75.678C78.2467 75.3607 77.8501 74.9267 77.5607 74.376C77.2714 73.8253 77.1267 73.2 77.1267 72.5C77.1267 71.8 77.2714 71.1747 77.5607 70.624C77.8501 70.0733 78.2467 69.644 78.7507 69.336C79.2547 69.0187 79.8147 68.86 80.4307 68.86C80.9161 68.86 81.3687 68.972 81.7887 69.196C82.2087 69.42 82.5681 69.7327 82.8667 70.134V66.13H84.1267ZM80.6547 74.908C81.0654 74.908 81.4387 74.8053 81.7747 74.6C82.1107 74.3947 82.3721 74.11 82.5587 73.746C82.7454 73.3727 82.8387 72.9573 82.8387 72.5C82.8387 72.0427 82.7454 71.632 82.5587 71.268C82.3721 70.8947 82.1107 70.6053 81.7747 70.4C81.4387 70.1947 81.0654 70.092 80.6547 70.092C80.2441 70.092 79.8754 70.1947 79.5487 70.4C79.2221 70.6053 78.9654 70.8947 78.7787 71.268C78.5921 71.632 78.4987 72.0427 78.4987 72.5C78.4987 72.9573 78.5921 73.3727 78.7787 73.746C78.9654 74.11 79.2221 74.3947 79.5487 74.6C79.8754 74.8053 80.2441 74.908 80.6547 74.908ZM87.7 69V76H86.37V69H87.7ZM87.784 66.2V67.74H86.3V66.2H87.784ZM96.3084 69V76H94.9784V74.95C94.689 75.3233 94.339 75.6173 93.9284 75.832C93.5177 76.0373 93.079 76.14 92.6124 76.14C91.9964 76.14 91.4364 75.986 90.9324 75.678C90.4284 75.3607 90.0317 74.9267 89.7424 74.376C89.453 73.8253 89.3084 73.2 89.3084 72.5C89.3084 71.8 89.453 71.1747 89.7424 70.624C90.0317 70.0733 90.4284 69.644 90.9324 69.336C91.4364 69.0187 91.9964 68.86 92.6124 68.86C93.0977 68.86 93.5504 68.972 93.9704 69.196C94.3904 69.42 94.7497 69.7327 95.0484 70.134V69H96.3084ZM92.8364 74.908C93.247 74.908 93.6204 74.8053 93.9564 74.6C94.2924 74.3947 94.5537 74.11 94.7404 73.746C94.927 73.3727 95.0204 72.9573 95.0204 72.5C95.0204 72.0427 94.927 71.632 94.7404 71.268C94.5537 70.8947 94.2924 70.6053 93.9564 70.4C93.6204 70.1947 93.247 70.092 92.8364 70.092C92.4257 70.092 92.057 70.1947 91.7304 70.4C91.4037 70.6053 91.147 70.8947 90.9604 71.268C90.7737 71.632 90.6804 72.0427 90.6804 72.5C90.6804 72.9573 90.7737 73.3727 90.9604 73.746C91.147 74.11 91.4037 74.3947 91.7304 74.6C92.057 74.8053 92.4257 74.908 92.8364 74.908ZM43.34 90.76H38.048L37.082 93H35.556L39.952 83.2H41.52L45.916 93H44.306L43.34 90.76ZM42.794 89.472L40.708 84.642L38.608 89.472H42.794ZM50.4584 93.14C49.6557 93.14 48.9277 92.9627 48.2744 92.608C47.6304 92.244 47.1217 91.7447 46.7484 91.11C46.375 90.4753 46.1884 89.7707 46.1884 88.996V83.2H47.5884V88.996C47.5884 89.5187 47.7144 89.9947 47.9664 90.424C48.2184 90.8533 48.559 91.1893 48.9884 91.432C49.427 91.6747 49.917 91.796 50.4584 91.796C50.9997 91.796 51.485 91.6747 51.9144 91.432C52.353 91.1893 52.6984 90.8533 52.9504 90.424C53.2024 89.9947 53.3284 89.5187 53.3284 88.996V83.2H54.7284V88.996C54.7284 89.7707 54.5417 90.4753 54.1684 91.11C53.795 91.7447 53.2817 92.244 52.6284 92.608C51.9844 92.9627 51.261 93.14 50.4584 93.14ZM64.4518 84.544H60.9518V93H59.5518V84.544H56.0518V83.2H64.4518V84.544ZM74.3202 83.2V93H72.9202V88.772H67.3202V93H65.9202V83.2H67.3202V87.428H72.9202V83.2H74.3202Z" fill="#8F8E93"/>
</svg>
