<svg width="60" height="81" viewBox="0 0 60 81" fill="none" xmlns="http://www.w3.org/2000/svg">
<path d="M7.74667 66.7067V67.6933H5.21333V76H4V67.6933H1.45333V66.7067H7.74667ZM9.05354 72.32C9.05354 71.5733 9.20465 70.92 9.50688 70.36C9.8091 69.7911 10.2224 69.3511 10.7469 69.04C11.2802 68.7289 11.8713 68.5733 12.5202 68.5733C13.1602 68.5733 13.7158 68.7111 14.1869 68.9867C14.658 69.2622 15.0091 69.6089 15.2402 70.0267V68.6933H16.4669V76H15.2402V74.64C15.0002 75.0667 14.6402 75.4222 14.1602 75.7067C13.6891 75.9822 13.138 76.12 12.5069 76.12C11.858 76.12 11.2713 75.96 10.7469 75.64C10.2224 75.32 9.8091 74.8711 9.50688 74.2933C9.20465 73.7156 9.05354 73.0578 9.05354 72.32ZM15.2402 72.3333C15.2402 71.7822 15.1291 71.3022 14.9069 70.8933C14.6847 70.4844 14.3824 70.1733 14.0002 69.96C13.6269 69.7378 13.2135 69.6267 12.7602 69.6267C12.3069 69.6267 11.8935 69.7333 11.5202 69.9467C11.1469 70.16 10.8491 70.4711 10.6269 70.88C10.4047 71.2889 10.2935 71.7689 10.2935 72.32C10.2935 72.88 10.4047 73.3689 10.6269 73.7867C10.8491 74.1956 11.1469 74.5111 11.5202 74.7333C11.8935 74.9467 12.3069 75.0533 12.7602 75.0533C13.2135 75.0533 13.6269 74.9467 14.0002 74.7333C14.3824 74.5111 14.6847 74.1956 14.9069 73.7867C15.1291 73.3689 15.2402 72.8844 15.2402 72.3333ZM19.4106 67.5067C19.1795 67.5067 18.984 67.4267 18.824 67.2667C18.664 67.1067 18.584 66.9111 18.584 66.68C18.584 66.4489 18.664 66.2533 18.824 66.0933C18.984 65.9333 19.1795 65.8533 19.4106 65.8533C19.6328 65.8533 19.8195 65.9333 19.9706 66.0933C20.1306 66.2533 20.2106 66.4489 20.2106 66.68C20.2106 66.9111 20.1306 67.1067 19.9706 67.2667C19.8195 67.4267 19.6328 67.5067 19.4106 67.5067ZM19.9973 68.6933V76H18.784V68.6933H19.9973ZM23.5452 66.1333V76H22.3319V66.1333H23.5452ZM35.6131 68.6933L33.3331 76H32.0798L30.3198 70.2L28.5598 76H27.3065L25.0131 68.6933H26.2531L27.9331 74.8267L29.7465 68.6933H30.9865L32.7598 74.84L34.4131 68.6933H35.6131ZM37.7106 67.5067C37.4795 67.5067 37.284 67.4267 37.124 67.2667C36.964 67.1067 36.884 66.9111 36.884 66.68C36.884 66.4489 36.964 66.2533 37.124 66.0933C37.284 65.9333 37.4795 65.8533 37.7106 65.8533C37.9328 65.8533 38.1195 65.9333 38.2706 66.0933C38.4306 66.2533 38.5106 66.4489 38.5106 66.68C38.5106 66.9111 38.4306 67.1067 38.2706 67.2667C38.1195 67.4267 37.9328 67.5067 37.7106 67.5067ZM38.2973 68.6933V76H37.084V68.6933H38.2973ZM44.1919 68.56C45.0808 68.56 45.8008 68.8311 46.3519 69.3733C46.903 69.9067 47.1785 70.68 47.1785 71.6933V76H45.9785V71.8667C45.9785 71.1378 45.7963 70.5822 45.4319 70.2C45.0674 69.8089 44.5697 69.6133 43.9385 69.6133C43.2985 69.6133 42.7874 69.8133 42.4052 70.2133C42.0319 70.6133 41.8452 71.1956 41.8452 71.96V76H40.6319V68.6933H41.8452V69.7333C42.0852 69.36 42.4097 69.0711 42.8185 68.8667C43.2363 68.6622 43.6941 68.56 44.1919 68.56ZM48.9739 72.32C48.9739 71.5733 49.125 70.92 49.4272 70.36C49.7294 69.7911 50.1427 69.3511 50.6672 69.04C51.2005 68.7289 51.7961 68.5733 52.4539 68.5733C53.0227 68.5733 53.5516 68.7067 54.0405 68.9733C54.5294 69.2311 54.9027 69.5733 55.1605 70V66.1333H56.3872V76H55.1605V74.6267C54.9205 75.0622 54.565 75.4222 54.0939 75.7067C53.6227 75.9822 53.0716 76.12 52.4405 76.12C51.7916 76.12 51.2005 75.96 50.6672 75.64C50.1427 75.32 49.7294 74.8711 49.4272 74.2933C49.125 73.7156 48.9739 73.0578 48.9739 72.32ZM55.1605 72.3333C55.1605 71.7822 55.0494 71.3022 54.8272 70.8933C54.605 70.4844 54.3027 70.1733 53.9205 69.96C53.5472 69.7378 53.1339 69.6267 52.6805 69.6267C52.2272 69.6267 51.8139 69.7333 51.4405 69.9467C51.0672 70.16 50.7694 70.4711 50.5472 70.88C50.325 71.2889 50.2139 71.7689 50.2139 72.32C50.2139 72.88 50.325 73.3689 50.5472 73.7867C50.7694 74.1956 51.0672 74.5111 51.4405 74.7333C51.8139 74.9467 52.2272 75.0533 52.6805 75.0533C53.1339 75.0533 53.5472 74.9467 53.9205 74.7333C54.3027 74.5111 54.605 74.1956 54.8272 73.7867C55.0494 73.3689 55.1605 72.8844 55.1605 72.3333Z" fill="#8F8E93"/>
<path d="M59.9998 6.14634C59.7613 6.88859 59.5632 7.64254 59.2908 8.37483C58.4435 10.6537 57.2629 12.7194 55.4646 14.3918C54.0584 15.7024 52.4218 16.6279 50.5884 17.2062C49.0802 17.6821 47.5322 17.9087 45.9548 17.9824C43.3802 18.1036 40.8724 17.7969 38.4548 16.8767C36.8236 16.2556 35.364 15.343 34.0257 14.2332C32.8621 13.2667 31.815 12.1785 30.7533 11.1038C29.7572 10.0981 28.7447 9.11005 27.5183 8.37776C26.3289 7.66771 25.0392 7.3241 23.6552 7.248C20.9148 7.10166 18.6871 8.18459 16.7617 10.032C16.1395 10.6263 15.5693 11.2725 15.0572 11.9637C15.0015 11.8168 15.0455 11.7161 15.0707 11.6236C15.6285 9.55844 16.4113 7.59044 17.6271 5.81444C19.3697 3.26985 21.7334 1.57054 24.6853 0.695415C25.9129 0.331317 27.1691 0.0948292 28.4552 0.0515121C28.5416 0.0408642 28.627 0.0236435 28.7107 0H31.2888C31.6298 0.0995122 31.9849 0.0649756 32.333 0.102439C35.2533 0.416195 37.8994 1.41776 40.2513 3.18732C41.5732 4.18244 42.7322 5.35317 43.8918 6.5239C44.8105 7.45346 45.7322 8.37893 46.791 9.15805C48.6425 10.5155 50.7238 10.9727 52.9679 10.6853C55.3498 10.3803 57.2131 9.10829 58.8091 7.39141C59.2193 6.95005 59.6037 6.4841 59.9998 6.02927V6.14634Z" fill="#8F8E93"/>
<path d="M0 29.7951C0.199219 29.1635 0.387305 28.5272 0.6 27.9003C1.23926 26.0171 2.14863 24.2786 3.42188 22.7432C4.49668 21.4485 5.82452 20.3865 7.32422 19.622C9.23203 18.6374 11.2734 18.1826 13.3951 18.0216C15.5168 17.8607 17.6273 17.9965 19.7027 18.5046C21.8607 19.0314 23.7908 20.0265 25.5393 21.3857C26.8377 22.3967 27.9732 23.5791 29.1293 24.741C30.0861 25.7034 31.0307 26.6862 32.1926 27.405C34.7795 29.0049 37.49 29.1951 40.2785 27.9904C42.0434 27.2294 43.3934 25.9381 44.5863 24.4671C44.6848 24.3459 44.7809 24.223 44.8793 24.1024C44.8954 24.0892 44.9136 24.0787 44.9332 24.0714C45.0223 24.1364 44.9566 24.2154 44.9402 24.2774C44.318 26.6189 43.408 28.8269 41.9232 30.761C40.1654 33.0521 37.8686 34.5582 35.0865 35.3309C33.6567 35.7361 32.1782 35.9446 30.692 35.9508C30.5954 35.9427 30.4983 35.9596 30.4102 36H29.707C29.6179 35.9589 29.5193 35.9428 29.4217 35.9531C28.4842 35.9713 27.5531 35.8653 26.6273 35.7149C24.2759 35.3406 22.0438 34.4249 20.1076 33.0404C18.8232 32.1266 17.6924 31.039 16.5762 29.9344C15.5719 28.9393 14.6127 27.9003 13.4941 27.024C11.5605 25.509 9.3668 24.9699 6.95391 25.296C4.93066 25.5693 3.27656 26.5756 1.81641 27.95C1.15254 28.5723 0.580078 29.2747 0 29.9707V29.7951Z" fill="#8F8E93"/>
</svg>
