<svg width="111" height="95" viewBox="0 0 111 95" fill="none" xmlns="http://www.w3.org/2000/svg">
<path fill-rule="evenodd" clip-rule="evenodd" d="M67.7507 9.72266C66.9515 9.72266 66.1734 9.81551 65.4261 9.99128C65.0856 4.41485 60.5777 0 55.0671 0C49.6336 0 45.1749 4.29225 44.7249 9.75805C43.971 9.579 43.1857 9.48438 42.3789 9.48438C36.6473 9.48438 32 14.2626 32 20.1551C32 24.5429 34.5774 28.3129 38.2607 29.9518C37.3624 31.531 36.8477 33.3687 36.8477 35.33C36.8477 41.2226 41.4944 45.9998 47.2274 45.9998C50.4214 45.9998 53.2783 44.5167 55.1822 42.1838C57.0862 44.5167 59.9431 45.9998 63.1367 45.9998C68.8706 45.9998 73.5172 41.2226 73.5172 35.33C73.5172 33.411 73.0244 31.6103 72.1617 30.0543C75.6883 28.3495 78.1296 24.6641 78.1296 20.3934C78.1296 14.5007 73.483 9.72266 67.7507 9.72266ZM45.0715 33.0086H46.6952L44.5793 40.0213L58.4957 33.0088H65.4315C66.8651 33.0088 68.0299 31.8144 68.0299 30.3448V15.2371C68.0299 13.7674 66.8651 12.5723 65.4315 12.5723H45.0715C43.6382 12.5723 42.4727 13.7674 42.4727 15.2371V30.3448C42.4727 31.8144 43.6382 33.0086 45.0715 33.0086Z" fill="#8F8E93"/>
<path d="M40.7333 66.2L37.8493 76H36.0153L33.3553 68.048L30.6813 76H28.9033L26.0333 66.2H27.5873L29.8553 74.334L32.6133 66.2H34.2093L36.9393 74.334L39.2353 66.2H40.7333ZM44.3982 68.86C45.1169 68.86 45.7422 69.014 46.2742 69.322C46.8156 69.63 47.2309 70.0687 47.5202 70.638C47.8096 71.198 47.9542 71.856 47.9542 72.612C47.9542 72.808 47.9496 72.9527 47.9402 73.046H42.2002C42.2936 73.5873 42.5456 74.0353 42.9562 74.39C43.3762 74.7353 43.8616 74.908 44.4122 74.908C45.3176 74.908 45.9616 74.5767 46.3442 73.914H47.7162C47.4922 74.5673 47.0769 75.104 46.4702 75.524C45.8636 75.9347 45.1776 76.14 44.4122 76.14C43.7309 76.14 43.1149 75.986 42.5642 75.678C42.0136 75.3607 41.5842 74.9267 41.2762 74.376C40.9682 73.816 40.8142 73.1907 40.8142 72.5C40.8142 71.8093 40.9682 71.1887 41.2762 70.638C41.5842 70.078 42.0089 69.644 42.5502 69.336C43.1009 69.0187 43.7169 68.86 44.3982 68.86ZM44.3702 70.036C43.8196 70.036 43.3436 70.2087 42.9422 70.554C42.5502 70.8993 42.3076 71.3427 42.2142 71.884H46.5122C46.4562 71.324 46.2276 70.876 45.8262 70.54C45.4342 70.204 44.9489 70.036 44.3702 70.036ZM53.2613 68.86C53.8773 68.86 54.4373 69.0187 54.9413 69.336C55.4453 69.644 55.842 70.0733 56.1313 70.624C56.4206 71.1747 56.5653 71.8 56.5653 72.5C56.5653 73.2 56.4206 73.8253 56.1313 74.376C55.842 74.9267 55.4453 75.3607 54.9413 75.678C54.4373 75.986 53.8773 76.14 53.2613 76.14C52.7946 76.14 52.356 76.0373 51.9453 75.832C51.5346 75.6173 51.1846 75.3233 50.8953 74.95V76H49.5653V66.13H50.8253V70.134C51.124 69.7327 51.4833 69.42 51.9033 69.196C52.3233 68.972 52.776 68.86 53.2613 68.86ZM53.0373 74.908C53.448 74.908 53.8166 74.8053 54.1433 74.6C54.47 74.3947 54.7266 74.11 54.9133 73.746C55.1 73.3727 55.1933 72.9573 55.1933 72.5C55.1933 72.0427 55.1 71.632 54.9133 71.268C54.7266 70.8947 54.47 70.6053 54.1433 70.4C53.8166 70.1947 53.448 70.092 53.0373 70.092C52.6266 70.092 52.2533 70.1947 51.9173 70.4C51.5813 70.6053 51.32 70.8947 51.1333 71.268C50.9466 71.632 50.8533 72.0427 50.8533 72.5C50.8533 72.9573 50.9466 73.3727 51.1333 73.746C51.32 74.11 51.5813 74.3947 51.9173 74.6C52.2533 74.8053 52.6266 74.908 53.0373 74.908ZM61.5526 71.94H59.7186V76H58.3186V66.2H62.6026C63.2559 66.2 63.8159 66.326 64.2826 66.578C64.7586 66.8207 65.1179 67.1613 65.3606 67.6C65.6126 68.0293 65.7386 68.5193 65.7386 69.07C65.7386 69.8073 65.5193 70.4373 65.0806 70.96C64.6419 71.4733 64.0259 71.786 63.2326 71.898L66.4946 76H64.7306L61.5526 71.94ZM59.7186 70.666H62.5186C63.0786 70.666 63.5079 70.5307 63.8066 70.26C64.1146 69.98 64.2686 69.5833 64.2686 69.07C64.2686 68.5567 64.1146 68.1647 63.8066 67.894C63.5079 67.614 63.0786 67.474 62.5186 67.474H59.7186V70.666ZM75.1022 67.544H71.6022V76H70.2022V67.544H66.7022V66.2H75.1022V67.544ZM75.2433 71.1C75.2433 70.1667 75.4626 69.3173 75.9013 68.552C76.3493 67.7773 76.9559 67.1707 77.7213 66.732C78.4866 66.284 79.3359 66.06 80.2693 66.06C80.9879 66.06 81.6599 66.2 82.2853 66.48C82.9106 66.7507 83.4473 67.1427 83.8953 67.656C84.3526 68.16 84.6886 68.748 84.9033 69.42H83.3493C83.0599 68.7947 82.6493 68.3047 82.1173 67.95C81.5946 67.586 80.9786 67.404 80.2693 67.404C79.6066 67.404 79.0046 67.5673 78.4633 67.894C77.9219 68.2207 77.4926 68.6687 77.1753 69.238C76.8673 69.798 76.7133 70.4187 76.7133 71.1C76.7133 71.7813 76.8673 72.4067 77.1753 72.976C77.4926 73.536 77.9219 73.9793 78.4633 74.306C79.0046 74.6327 79.6066 74.796 80.2693 74.796C80.9786 74.796 81.5946 74.6187 82.1173 74.264C82.6493 73.9 83.0599 73.4053 83.3493 72.78H84.9033C84.6886 73.452 84.3526 74.0447 83.8953 74.558C83.4473 75.062 82.9106 75.454 82.2853 75.734C81.6599 76.0047 80.9879 76.14 80.2693 76.14C79.3359 76.14 78.4866 75.9207 77.7213 75.482C76.9559 75.034 76.3493 74.4273 75.9013 73.662C75.4626 72.8873 75.2433 72.0333 75.2433 71.1Z" fill="#8F8E93"/>
</svg>
