<svg width="116" height="116" viewBox="0 0 116 116" fill="none" xmlns="http://www.w3.org/2000/svg">
<circle cx="57.6797" cy="58.123" r="50" stroke="#0E35E3" stroke-width="15"/>
<path d="M60.9905 29.8984C60.6315 30.0696 60.2725 30.0696 59.9023 29.8984C60.2725 29.8984 60.6315 29.8984 60.9905 29.8984Z" fill="white"/>
<path d="M80.3911 47.9693C79.9648 44.33 78.5738 41.0558 76.3863 38.1467C73.1331 33.8343 68.859 31.199 63.5978 30.2065C62.9023 30.081 62.2068 30.1266 61.5337 29.8984C61.3542 29.8984 61.1747 29.8984 60.9952 29.8984C60.6363 29.9897 60.2773 29.9897 59.9071 29.8984C59.5145 29.8984 59.1106 29.8984 58.718 29.8984C58.7404 30.3548 58.7741 30.8111 58.7741 31.2788C58.7741 31.6667 58.8975 31.8036 59.3126 31.7808C60.5577 31.7124 61.8029 31.7808 63.0369 31.9862C67.8046 32.8076 71.7309 35.1235 74.7373 38.9795C78.2709 43.52 79.4937 48.6994 78.4729 54.3808C77.5642 59.4689 74.9392 63.5074 70.7885 66.485C68.9488 67.8084 67.4344 69.3713 66.5033 71.4705C66.4023 71.6986 66.2677 71.7899 66.0097 71.7899C61.9936 71.7785 57.9888 71.7785 53.9728 71.7899C53.7709 71.7899 53.6363 71.7443 53.5577 71.5389C52.5705 69.2344 50.843 67.6487 48.891 66.177C44.101 62.5606 41.5881 57.655 41.2628 51.5971C41.2404 51.1408 41.4647 50.5476 41.1619 50.2738C40.8478 50 40.2644 50.2167 39.7933 50.1711C39.5128 50.1483 39.4231 50.2281 39.4231 50.5247C39.4006 52.738 39.6923 54.917 40.3429 57.0275C41.7564 61.6137 44.4263 65.2757 48.2853 68.0366C49.2837 68.7439 50.2036 69.5425 50.9215 70.5464C51.1907 70.9229 51.4487 71.2993 51.6282 71.7671C51.2468 71.7671 50.9439 71.7671 50.6298 71.7671C49.2388 71.7671 49.2388 71.7671 49.2725 73.2045C49.2725 73.5126 49.351 73.6267 49.6651 73.6152C50.3157 73.5924 50.9664 73.6038 51.617 73.6038C52.4247 73.6038 52.4247 73.6038 52.6154 74.4138C52.851 75.4064 52.851 75.4064 51.8526 75.4064C51.6731 75.4064 51.4936 75.4064 51.3141 75.4064C51.1907 75.4064 51.0449 75.4064 51.0561 75.5889C51.0786 76.1137 50.8766 76.7183 51.1346 77.1518C51.3029 77.437 51.875 77.2089 52.2677 77.2431C52.3574 77.2545 52.4471 77.2545 52.5369 77.2431C52.8061 77.2089 52.8734 77.323 52.8622 77.5854C52.851 78.2699 52.851 78.9429 52.8622 79.6274C52.8622 80.5743 53.1539 80.9052 54.085 80.8824C54.5337 80.871 54.6459 81.0193 54.6907 81.4528C54.9488 83.8599 56.6427 85.7195 58.9648 86.2329C61.9263 86.8832 64.9552 84.6928 65.3254 81.6239C65.3927 81.0991 65.4937 80.8253 66.1106 80.871C66.8623 80.9166 67.1764 80.5287 67.1764 79.7529C67.1876 79.0684 67.1988 78.3953 67.1651 77.7108C67.1427 77.3116 67.2885 77.2317 67.6587 77.2317C69.0049 77.2431 68.9937 77.2317 69.0049 75.8741C69.0049 75.4862 68.9039 75.3835 68.5225 75.3949C67.1315 75.4064 67.1427 75.3949 67.5017 74.0031C67.569 73.7179 67.6812 73.5696 68.0065 73.5924C68.4552 73.6267 68.9039 73.6038 69.3639 73.6038C70.811 73.6038 70.7998 73.6038 70.7661 72.1436C70.7661 71.8127 70.6539 71.7557 70.3623 71.7671C69.7116 71.7899 69.0498 71.7785 68.3542 71.7785C69.1619 70.1699 70.3623 69.0747 71.6972 68.0708C78.3943 63.0853 81.3671 56.3886 80.3911 47.9693ZM63.5529 81.3387C63.2725 83.2211 61.7917 84.5216 59.9295 84.4874C58.1347 84.4532 56.71 83.107 56.4856 81.2702C56.4407 80.9508 56.5305 80.9052 56.8109 80.9052C57.8879 80.9166 58.976 80.9052 60.0529 80.9052C61.0962 80.9052 62.1507 80.9166 63.194 80.8938C63.5529 80.8938 63.609 80.9964 63.5529 81.3387ZM64.1363 79.0684C62.7677 79.0684 61.3879 79.0684 60.0193 79.0684C58.3927 79.0684 56.7661 79.057 55.1395 79.0798C54.7581 79.0798 54.6683 78.9772 54.6683 78.5893C54.6795 77.2659 54.6683 77.2659 55.992 77.2659C58.9536 77.2659 61.9151 77.2773 64.8767 77.2545C65.2917 77.2545 65.3815 77.3686 65.3815 77.7679C65.3703 79.0684 65.3815 79.0684 64.1363 79.0684ZM65.5946 74.2655C65.5834 74.2769 65.5834 74.2997 65.5834 74.3226C65.5273 74.6762 65.5834 75.201 65.3815 75.3607C65.1347 75.5433 64.6523 75.4406 64.2821 75.4406C62.8574 75.4406 61.4327 75.4406 59.9968 75.4406C58.3366 75.4406 56.6763 75.4292 55.0161 75.452C54.6907 75.452 54.5561 75.3721 54.5449 75.0413C54.5449 74.893 54.5113 74.7447 54.4888 74.6078C54.4439 74.2997 54.2532 73.8662 54.3879 73.7293C54.601 73.4898 55.0273 73.6495 55.375 73.6495C58.6283 73.6381 61.8815 73.6609 65.1235 73.6266C65.6731 73.6038 65.7741 73.7864 65.5946 74.2655Z" fill="white"/>
<path d="M47.5088 34.439C47.3854 34.4161 47.262 34.4276 47.1274 34.4161C45.4447 34.2564 44.0761 32.8532 43.9527 31.1419C43.9303 30.6286 43.7844 30.1722 43.3245 29.8984C43.1113 29.8984 42.887 29.8984 42.6738 29.8984C42.2027 30.2065 42.1129 30.697 42.0456 31.2104C41.8213 33.0471 40.52 34.2792 38.7027 34.4276C38.0184 34.4846 37.637 34.8154 37.637 35.3516C37.6257 35.8992 37.9959 36.2301 38.6802 36.2985C39.4318 36.367 40.1161 36.5951 40.7219 37.0743C41.6642 37.8044 42.0232 38.8198 42.1354 39.9834C42.1915 40.5995 42.6963 40.9531 43.2347 40.7934C43.8405 40.6223 43.919 40.0975 43.9527 39.5727C44.0312 38.5916 44.4575 37.8044 45.1867 37.1541C45.8373 36.5723 46.6113 36.3327 47.4639 36.2757C48.0024 36.2415 48.3838 35.8536 48.395 35.3744C48.4062 34.9295 48.036 34.5188 47.5088 34.439ZM43.1674 36.6864C43.044 36.8689 42.9543 36.8347 42.8533 36.675C42.5056 36.1616 42.0232 35.7737 41.5296 35.3516C42.1242 34.9181 42.5841 34.4161 43.0216 33.8457C43.4591 34.4276 43.9078 34.9295 44.5248 35.3516C43.9863 35.7737 43.5152 36.173 43.1674 36.6864Z" fill="white"/>
<path d="M59.1427 38.2837C59.1427 36.4583 58.1667 35.1008 56.5401 34.5988C54.9808 34.1196 53.4776 34.7129 52.4904 36.2302C52.3221 36.4926 52.1763 36.4469 51.9632 36.3899C49.3606 35.7282 46.9936 38.0213 47.5769 40.668C47.6555 41.0445 47.5882 41.17 47.274 41.3183C45.1651 42.3679 44.2452 44.8321 45.1314 47.0453C45.2548 47.3419 45.2212 47.456 44.9295 47.6157C43.6843 48.2888 43 49.3726 43 50.8101C43 52.2703 43.6731 53.3655 44.9631 54.05C45.2436 54.1983 45.2548 54.3124 45.1426 54.5862C44.2452 56.8451 45.1651 59.2865 47.2965 60.3588C47.5882 60.5072 47.6555 60.6212 47.5769 60.9749C46.9712 63.6102 49.3494 65.9603 51.9295 65.2758C52.2212 65.196 52.3558 65.2416 52.5241 65.504C53.4552 66.9871 55.093 67.5689 56.7084 67.0213C58.1891 66.5194 59.1315 65.1047 59.1315 63.3592C59.1315 59.1838 59.1315 55.0197 59.1315 50.8443C59.1427 46.6688 59.1539 42.482 59.1427 38.2837ZM57.3141 63.576C57.3141 64.3632 56.843 65.0363 56.1699 65.2758C55.452 65.5382 54.6779 65.3215 54.1731 64.694C53.9039 64.3632 53.7805 64.0552 54.0946 63.6444C54.4423 63.1881 54.5657 62.6291 54.633 62.0587C54.6667 61.7849 54.577 61.7393 54.3526 61.7621C54.2292 61.7735 54.0946 61.7735 53.9712 61.7621C53.3542 61.7278 52.8269 61.648 52.6026 62.5493C52.4007 63.3707 51.4135 63.7243 50.5946 63.5076C49.8542 63.3136 49.2708 62.5378 49.2708 61.7621C49.2708 60.9521 49.8542 60.1421 50.6507 60.028C51.0657 59.9596 51.0994 59.7884 51.0769 59.4576C51.0545 59.1496 51.0433 58.8301 51.0769 58.5221C51.1218 58.1342 50.9311 58.0886 50.6282 58.1456C50.0673 58.2369 49.5401 58.3966 49.0801 58.7503C48.8109 58.9556 48.5753 58.9556 48.2837 58.8301C47.0497 58.3282 46.3766 57.0732 46.6458 55.7156C46.8926 54.4607 48.0481 53.5595 49.3718 53.5937C50.6282 53.6279 51.7051 54.609 51.8622 55.8982C51.9071 56.2176 51.9968 56.3659 52.3221 56.3317C52.5353 56.3089 52.7596 56.3317 52.9728 56.3317C53.7805 56.3317 53.8141 56.2861 53.6571 55.4647C53.0401 52.3045 49.585 50.7644 46.8926 52.4643C46.6122 52.6354 46.3542 52.6582 46.0737 52.5783C45.3782 52.373 44.8622 51.7341 44.8061 51.0382C44.75 50.251 45.1202 49.5551 45.7821 49.2357C46.1971 49.0304 46.5673 49.0304 46.9936 49.2927C49.8654 51.0496 53.3991 49.0304 53.702 45.836C53.7356 45.4367 53.6122 45.2998 53.242 45.3683C53.1747 45.3797 53.0962 45.3683 53.0289 45.3683C52.7036 45.3683 52.3446 45.2884 52.0641 45.4025C51.7164 45.5394 51.8846 45.9843 51.7837 46.2809C51.3574 47.4446 50.1907 48.2318 48.9904 48.0949C47.6891 47.9466 46.7692 46.9768 46.601 45.585C46.4664 44.4556 47.2628 43.2121 48.351 42.8356C48.5866 42.7558 48.8109 42.7329 49.0465 42.9269C49.5289 43.3034 50.0898 43.4859 50.6843 43.5657C50.9535 43.6114 51.0994 43.5429 51.0657 43.2235C51.0545 43.098 51.0545 42.9611 51.0657 42.8356C51.0994 42.2196 51.1667 41.6948 50.2805 41.5122C49.5176 41.3525 49.125 40.36 49.2933 39.5956C49.484 38.74 50.1234 38.1696 50.9648 38.1354C51.8173 38.1011 52.5465 38.6145 52.726 39.4473C52.8157 39.8466 52.9616 40.0063 53.3542 39.9493C53.5337 39.9265 53.7132 39.9493 53.8927 39.9493C54.734 39.9493 54.7452 39.9493 54.5209 39.1051C54.4199 38.7172 54.2965 38.3179 54.0385 38.0099C53.7132 37.6334 53.8814 37.3482 54.1058 37.0516C54.577 36.4127 55.3622 36.1731 56.0802 36.4241C56.8093 36.6751 57.2693 37.3254 57.2693 38.1354C57.2693 42.3793 57.2693 46.6232 57.2693 50.8671C57.2693 55.111 57.3141 59.3321 57.3141 63.576Z" fill="white"/>
<path d="M75.0971 54.05C76.3535 53.3769 77.0153 52.2931 77.0266 50.8557C77.0378 49.384 76.3423 48.3002 75.0746 47.6157C74.8166 47.4788 74.7717 47.3761 74.8839 47.0909C75.7814 44.7978 74.8839 42.3907 72.6964 41.2955C72.4048 41.1472 72.3823 41.0331 72.4496 40.725C73.0554 38.0441 70.6996 35.7396 68.0746 36.4127C67.7605 36.4925 67.6483 36.3785 67.4913 36.1389C66.706 34.941 65.6067 34.3135 64.182 34.4733C62.1291 34.7128 60.8839 36.2073 60.8839 38.3407C60.8727 42.5162 60.8839 46.6802 60.8839 50.8557C60.8839 55.0311 60.8839 59.1952 60.8839 63.3706C60.8839 65.2074 61.8486 66.5764 63.464 67.0783C65.0682 67.5689 66.549 66.9985 67.5586 65.4469C67.7381 65.1731 67.8727 65.2416 68.0858 65.2986C70.6996 65.9717 73.0666 63.633 72.4496 60.9521C72.3711 60.6098 72.4608 60.5185 72.7189 60.3816C74.8615 59.2978 75.7926 56.8565 74.8951 54.6204C74.783 54.3238 74.8054 54.2097 75.0971 54.05ZM73.908 52.5897C73.6387 52.6582 73.3919 52.6468 73.1339 52.4756C70.4192 50.7758 67.0313 52.2589 66.3695 55.4418C66.3246 55.6358 66.3358 55.8411 66.3134 56.0465C66.291 56.2632 66.3695 56.3545 66.5826 56.3317C66.6724 56.3203 66.7621 56.3317 66.8519 56.3317C67.2108 56.3317 67.6035 56.4115 67.9288 56.3089C68.3326 56.1719 68.1307 55.67 68.2541 55.3505C68.6916 54.2211 69.8695 53.4796 71.1035 53.6165C72.3599 53.7648 73.3134 54.8144 73.4368 56.1834C73.5378 57.29 72.7301 58.4993 71.6532 58.8643C71.3951 58.9556 71.182 58.9442 70.9464 58.7616C70.464 58.3966 69.9031 58.2026 69.2974 58.1342C69.0506 58.1 68.916 58.157 68.9496 58.4422C68.9721 58.6247 68.9608 58.8073 68.9496 58.9898C68.9047 59.5602 68.9272 59.9709 69.6676 60.1306C70.4416 60.3132 70.8903 61.2943 70.7333 62.0701C70.565 62.9029 69.8919 63.5075 69.073 63.5417C68.1868 63.576 67.4688 63.0626 67.2781 62.1956C67.1996 61.8419 67.0874 61.6936 66.7172 61.7392C66.5041 61.7735 66.2797 61.7392 66.0666 61.7506C65.2813 61.7506 65.2813 61.7506 65.472 62.5492C65.5842 62.9941 65.7413 63.4277 66.0217 63.7927C66.19 63.9981 66.1563 64.1692 66.0554 64.386C65.7188 65.0819 64.8775 65.5154 64.1708 65.3557C63.3182 65.1617 62.7349 64.4886 62.7236 63.6102C62.7012 62.4922 62.7236 61.3742 62.7236 60.2447C62.7236 57.1074 62.7236 53.9587 62.7236 50.8214C62.7236 46.6003 62.7236 42.3678 62.7236 38.1468C62.7236 37.428 63.0153 36.869 63.6323 36.5154C64.2381 36.1617 64.8438 36.2302 65.4272 36.5724C65.6852 36.7207 65.8647 36.9489 66.0105 37.1999C66.1676 37.4623 66.1788 37.6676 65.9881 37.93C65.6403 38.4091 65.472 38.9567 65.4047 39.5614C65.3711 39.8808 65.4833 39.9379 65.7525 39.9151C65.9095 39.9036 66.0778 39.9036 66.2349 39.9151C66.7733 39.9493 67.1996 39.9721 67.3791 39.1963C67.5586 38.3635 68.456 37.987 69.3422 38.1468C70.1163 38.2837 70.7333 39.048 70.7445 39.8694C70.7669 40.7136 70.1948 41.5008 69.3535 41.6491C68.9721 41.7176 68.9272 41.8773 68.9496 42.1853C68.9608 42.4591 68.9833 42.7443 68.9496 43.0067C68.8599 43.5885 69.1628 43.5999 69.5778 43.4973C70.0714 43.3832 70.5538 43.2235 70.9576 42.904C71.2269 42.6759 71.4737 42.7329 71.7541 42.847C72.9881 43.349 73.6387 44.6153 73.3695 45.9729C73.1227 47.205 71.9448 48.1177 70.6772 48.072C69.3871 48.0264 68.3214 47.0453 68.1531 45.7219C68.1195 45.4253 68.0297 45.2998 67.7269 45.3226C67.4352 45.3454 67.1435 45.3682 66.8631 45.3226C66.3134 45.2313 66.291 45.5166 66.3358 45.9387C66.5265 47.8553 68.2317 49.5893 70.1163 49.8517C71.2493 50.0114 72.2589 49.7719 73.2012 49.1672C73.4817 48.9847 73.7509 49.0303 74.0314 49.1216C74.7942 49.3726 75.2653 50.0913 75.2317 50.9355C75.1868 51.7113 74.6371 52.3958 73.908 52.5897Z" fill="white"/>
<path d="M42.9985 44.4098C42.9761 43.9193 42.6956 43.6455 42.2245 43.5656C41.8879 43.5086 41.5402 43.4972 41.2149 43.4059C39.6556 42.9724 38.7133 41.7631 38.545 40.0518C38.4889 39.3901 38.2197 39.0593 37.7149 39.0137C37.1315 38.9566 36.7725 39.3559 36.7052 40.1089C36.5931 41.5235 35.9088 42.5503 34.6636 43.1891C34.1924 43.4401 33.6652 43.4743 33.1491 43.5542C32.5882 43.6455 32.2854 43.9307 32.2629 44.4098C32.2405 44.9004 32.5322 45.254 33.1043 45.3681C33.3735 45.4252 33.6427 45.4024 33.912 45.4708C35.4937 45.8473 36.5818 47.1478 36.7052 48.8249C36.7277 49.1671 36.7838 49.4865 37.0642 49.7147C37.3334 49.9315 37.6363 50.0113 37.9729 49.8516C38.3655 49.6691 38.5226 49.3496 38.545 48.9389C38.646 47.4673 39.3302 46.3835 40.6428 45.7218C41.1588 45.4594 41.7197 45.4708 42.2694 45.3453C42.7629 45.2426 43.021 44.9346 42.9985 44.4098ZM38.9376 44.6266C38.4328 44.9802 38.029 45.4594 37.6363 45.9842C37.1988 45.4024 36.7389 44.9004 36.1443 44.4669C36.694 44.0105 37.2213 43.5656 37.6139 42.9267C38.0402 43.4515 38.4216 43.9307 38.9264 44.2957C39.0947 44.4212 39.1059 44.5125 38.9376 44.6266Z" fill="white"/>
</svg>
