<svg width="116" height="116" viewBox="0 0 116 116" fill="none" xmlns="http://www.w3.org/2000/svg">
<circle cx="57.6797" cy="57.9229" r="50" stroke="#0E35E3" stroke-width="15"/>
<g clip-path="url(#clip0_3278_43088)">
<path d="M32 65.6318C32.1453 65.7242 32.1453 65.8166 32 65.9222C32 65.8298 32 65.7242 32 65.6318Z" fill="white"/>
<path d="M36.6082 52.5105C37.2026 52.154 37.7441 51.8372 38.2724 51.494C38.5497 51.3092 38.7214 51.2828 38.8667 51.626C39.012 51.9824 39.4743 52.3256 39.3686 52.6425C39.2762 52.9197 38.7743 53.0649 38.4441 53.2629C37.3346 53.9229 36.2252 54.5829 35.129 55.2561C34.8912 55.4013 34.7724 55.4013 34.6271 55.1373C33.8479 53.7777 33.029 52.4312 32.2101 51.0848C32.078 50.8604 32.0648 50.7416 32.3158 50.6096C32.6856 50.4248 33.0686 50.0156 33.3856 50.0684C33.7158 50.1212 33.8479 50.702 34.0592 51.0452C34.3365 51.4676 34.5875 51.9164 34.8912 52.4312C35.1818 51.3884 35.4328 50.4248 35.8158 49.5008C38.7743 42.3065 44.0441 37.7656 51.5724 35.9175C55.2705 35.0067 58.995 35.1783 62.6667 36.2475C62.9309 36.3267 63.0629 36.3795 62.9309 36.6831C62.7724 37.0527 62.812 37.6336 62.5082 37.792C62.2441 37.9372 61.7686 37.66 61.3856 37.5676C50.4629 34.8879 39.4611 41.4221 36.595 52.286C36.595 52.3124 36.595 52.3388 36.6082 52.5105Z" fill="white"/>
<path d="M75.8995 50.8993C75.49 51.5858 75.0938 52.2062 74.7372 52.8398C74.5919 53.1038 74.473 53.1962 74.1957 52.985C73.8787 52.7474 73.3372 52.6286 73.2447 52.3382C73.1391 52.0346 73.5749 51.665 73.773 51.3218C74.4202 50.2129 75.107 49.1173 75.7542 48.0084C75.8995 47.7576 75.9919 47.718 76.2561 47.8764C77.5768 48.6949 78.924 49.5001 80.258 50.2789C80.5221 50.4373 80.6013 50.5561 80.4032 50.8201C80.1655 51.1369 80.0334 51.6782 79.7429 51.7574C79.4787 51.8366 79.0693 51.4406 78.7391 51.2426C78.3429 51.0049 77.9466 50.7673 77.4844 50.4901C77.7485 51.4142 78.0127 52.2854 78.1712 53.1698C79.3995 59.7964 77.9334 65.7762 73.8787 71.1488C73.6938 71.3996 73.5749 71.3996 73.3636 71.2016C73.073 70.9376 72.5976 70.7264 72.5051 70.4228C72.4259 70.1192 72.8881 69.8156 73.1127 69.4987C75.8202 65.6838 77.1013 61.4465 76.9825 56.7867C76.9429 54.8067 76.5863 52.853 75.8995 50.8993Z" fill="white"/>
<path d="M71.7538 75.6774C71.7406 75.5718 71.7406 75.4926 71.7142 75.4134C71.1198 73.6577 70.5651 71.8889 69.9311 70.1464C69.2179 68.14 67.7915 66.9123 65.6915 66.5031C64.0538 66.1731 62.4028 65.8959 60.7651 65.5791C60.6462 65.5527 60.4217 65.6451 60.4085 65.3811C60.3953 65.1699 60.501 65.0643 60.6594 64.9719C61.1217 64.6946 61.6236 64.4042 61.9142 63.9554C62.4953 63.0842 63.2745 62.9918 64.2123 63.0314C65.7047 63.0842 66.7349 62.0282 66.7349 60.5233C66.7349 57.408 66.7349 54.3059 66.7349 51.1906C66.7349 50.4382 66.6557 49.699 66.484 48.9597C65.1896 43.5344 60.3028 40.221 54.7689 41.0263C50.001 41.7259 46.184 46.082 46.1576 50.9002C46.1444 52.8011 46.1576 54.7019 46.1576 56.5896C46.1576 58.0944 46.95 59.2033 48.3632 59.7049C48.5613 59.7709 48.6934 59.8633 48.7594 60.1009C49.2481 62.1602 50.4236 63.7574 52.1802 64.9191C52.3651 65.0379 52.5368 65.1303 52.484 65.3943C52.4311 65.6319 52.1934 65.5659 52.0481 65.5923C50.5821 65.8695 49.1161 66.1467 47.6368 66.3843C45.233 66.7803 43.6217 68.0872 42.8425 70.4236C42.7764 70.6348 42.75 70.8592 42.6047 71.0309C42.5651 71.0177 42.5387 71.0176 42.5123 70.9912C41.7066 70.186 40.901 69.394 40.1085 68.5888C39.567 68.0344 39.567 67.6779 40.1217 67.1235C41.0066 66.2259 41.8915 65.3283 42.8028 64.457C43.0274 64.2326 43.0142 64.1138 42.8028 63.9026C41.0066 62.1338 39.2236 60.3517 37.4538 58.5564C37.2425 58.3452 37.1368 58.3584 36.9387 58.5564C35.8689 59.6521 34.7727 60.7213 33.6896 61.8037C32.884 62.609 32.3689 63.5726 32.1179 64.6946C32.0783 64.8663 32.1708 65.0775 31.9727 65.2227C31.9727 65.3547 31.9727 65.4735 31.9727 65.6055C32.0387 65.6979 32.0387 65.7903 31.9727 65.8959C31.9727 66.0543 31.9727 66.2127 31.9727 66.3711C32.0651 67.0179 32.184 67.6383 32.4745 68.2324C32.8576 68.9848 33.3859 69.6184 33.967 70.1992C37.2821 73.5257 40.5576 76.7994 43.8462 80.0731C44.1764 80.4032 44.533 80.6936 44.8896 80.984C45.6293 81.5516 46.4481 81.974 47.4255 81.9476C47.584 81.974 47.7425 81.8948 47.8877 82.0004C48.1387 82.0004 48.4028 82.0004 48.6538 82.0004C48.7991 81.8816 48.9972 82.0136 49.1425 81.908C50.0934 81.8156 50.9387 81.446 51.6519 80.8388C53.1311 79.5451 54.5576 78.2119 56.1425 76.7862C55.7198 76.4166 55.3104 76.0734 54.8481 75.6774C60.5406 75.6774 66.1406 75.6774 71.7538 75.6774ZM63.7632 61.3813C63.8953 60.8929 64.0406 60.4045 64.2123 59.9425C64.3311 59.6257 64.7934 59.6653 65.0972 59.4937C65.2821 61.1833 65.0179 61.5661 63.7632 61.3813ZM64.3972 57.9888C64.3972 57.1308 64.3972 56.286 64.3972 55.3883C65.3877 56.1276 65.3877 57.342 64.3972 57.9888ZM48.5349 58.002C47.4519 57.4344 47.6368 55.7448 48.5349 55.4411C48.5349 56.286 48.5349 57.1176 48.5349 58.002ZM48.9047 52.7351C48.7066 52.7351 48.4953 52.7219 48.5481 53.0123C48.6802 53.6327 48.2972 53.8043 47.7821 53.8967C47.8217 51.8374 47.584 49.765 48.4557 47.7849C50.0274 44.1944 53.6198 42.2671 57.0802 42.5179C60.8972 42.7951 64.2915 45.62 65.0179 49.7122C65.2689 51.0982 65.0972 52.5106 65.1368 53.9099C64.5953 53.8175 64.2123 53.6327 64.3576 52.9991C64.4236 52.6823 64.1594 52.7351 63.9877 52.7483C62.5877 52.7879 61.2406 52.5634 59.9462 51.9694C58.9293 51.5074 58.0576 50.8738 57.2651 50.0818C57.001 49.8178 56.7368 49.3821 56.433 49.3557C56.1953 49.3293 55.9047 49.8046 55.6538 50.0686C54.4783 51.2434 53.1179 52.075 51.5066 52.4842C50.6481 52.6955 49.7764 52.7483 48.9047 52.7351ZM50.2255 59.2693C50.0142 58.0284 50.1594 56.7612 50.1462 55.4939C50.1462 55.1111 49.9877 54.6491 50.2123 54.3851C50.4236 54.1211 50.8991 54.2399 51.2557 54.1607C53.1179 53.8043 54.7557 53.0123 56.1557 51.7582C56.4066 51.5338 56.5387 51.5734 56.7632 51.7714C58.3481 53.1575 60.184 54.0023 62.284 54.2399C62.601 54.2795 62.7727 54.3587 62.7594 54.7547C62.7198 56.0748 62.7594 57.3948 62.733 58.728C62.7198 59.5993 62.4293 60.4045 62.0594 61.1833C61.9406 61.4209 61.7689 61.4209 61.5576 61.4209C59.9991 61.4209 58.4274 61.4341 56.8689 61.4077C56.5123 61.4077 56.4198 61.5001 56.4198 61.8566C56.433 63.0314 56.4198 63.0314 57.5689 63.0314C58.533 63.0314 59.4972 63.0314 60.5802 63.0314C56.6311 66.2259 51.0444 64.1402 50.2255 59.2693ZM58.8104 65.8827C58.0047 66.6879 57.3047 67.3875 56.5915 68.0872C56.4991 68.1796 56.433 68.206 56.3274 68.1004C55.6274 67.3875 54.9142 66.6879 54.201 65.9883C54.967 66.0543 55.6934 66.2127 56.4462 66.2127C57.1991 66.2127 57.9255 66.0543 58.8104 65.8827ZM36.6217 61.1701C37.2161 60.6025 37.2028 60.5893 37.784 61.1701C38.7085 62.0942 39.633 63.0182 40.5576 63.9422C40.65 64.0346 40.7293 64.127 40.8217 64.2458C40.5576 64.5098 40.333 64.787 40.0425 64.9719C39.8444 65.0907 39.7387 64.8134 39.633 64.6946C38.6293 63.7178 37.6519 62.7146 36.6481 61.7377C36.4236 61.5133 36.3708 61.3945 36.6217 61.1701ZM51.3217 79.0303C50.4764 79.8751 49.5123 80.4164 48.3632 80.39C47.1877 80.4032 46.25 80.0071 45.484 79.2415C41.9311 75.6906 38.3651 72.1529 34.8255 68.5888C33.1481 66.8991 33.2802 64.2986 35.0632 62.7278C35.2085 62.609 35.2745 62.609 35.3934 62.7278C36.4896 63.8234 37.5727 64.9191 38.6821 66.0015C38.8142 66.1335 38.801 66.1995 38.6953 66.3579C37.85 67.5591 37.9425 68.668 38.9727 69.6976C40.7689 71.5061 42.5783 73.3013 44.3877 75.1098C45.3915 76.113 46.5406 76.2054 47.6896 75.387C47.8481 75.2682 47.9406 75.255 48.0859 75.4002C49.1689 76.4826 50.2519 77.5651 51.3349 78.6475C51.467 78.7927 51.467 78.8851 51.3217 79.0303ZM53.316 77.1823C52.6953 77.7631 52.6953 77.7631 52.101 77.1691C51.1764 76.245 50.2651 75.321 49.3274 74.397C49.1161 74.1858 49.1028 74.0934 49.3274 73.8821C50.0802 73.1957 50.0802 73.1825 50.7934 73.9085C51.6651 74.7798 52.5236 75.6378 53.3953 76.509C53.4877 76.6014 53.567 76.6938 53.6594 76.773C53.6066 76.9842 53.4481 77.0766 53.316 77.1823ZM52.8538 73.7105C52.0481 72.8789 51.2028 72.0605 50.3972 71.2289C50.2123 71.0441 50.1198 71.0177 49.9217 71.2157C48.9311 72.1397 47.9142 73.0373 46.9104 73.9481C46.3293 74.463 45.9859 74.463 45.4444 73.9217C45.0085 73.4861 44.5727 73.0373 44.1236 72.6017C43.9519 72.4433 43.9255 72.2981 44.0047 72.1001C44.1632 71.6381 44.3085 71.1629 44.4802 70.7008C45.0349 69.196 46.1047 68.3116 47.6764 68.0212C49.3538 67.7175 51.0311 67.4271 52.6953 67.1103C52.9594 67.0575 53.1047 67.1103 53.2764 67.2819C54.2406 68.2588 55.2179 69.2224 56.1821 70.1992C56.4198 70.4368 56.5387 70.4368 56.7764 70.1992C57.6745 69.2752 58.6123 68.3776 59.5104 67.4535C59.7877 67.1631 60.0387 67.0575 60.4613 67.1499C62.1915 67.4931 63.9349 67.7703 65.6651 68.1268C66.9727 68.404 67.8972 69.2224 68.3859 70.45C68.8481 71.6117 69.1915 72.8129 69.6142 74.0802C69.3896 74.0802 69.2311 74.0802 69.0727 74.0802C63.9745 74.0802 58.8632 74.0802 53.7651 74.0933C53.3557 74.0802 53.1047 73.9745 52.8538 73.7105Z" fill="white"/>
<path d="M80.9726 35.4553C80.9594 33.9504 79.9556 33 78.4499 33C74.8575 33 71.265 33 67.6858 33C66.1405 33 65.1499 33.99 65.1367 35.5345C65.1367 37.5145 65.1367 39.4946 65.1367 41.4615C65.1367 43.0851 66.1273 44.0752 67.7518 44.0884C68.3726 44.0884 68.9801 44.0884 69.6141 44.0884C69.3499 45.6724 69.0858 47.2037 68.8084 48.8537C70.8424 47.5865 72.8103 46.438 74.6858 45.1576C75.848 44.3524 77.0367 43.9696 78.4499 44.062C79.9292 44.1544 80.9594 43.1115 80.9858 41.6199C81.0122 39.5606 81.0122 37.5013 80.9726 35.4553ZM79.3877 41.5275C79.3877 42.1611 79.0839 42.4647 78.4499 42.4647C78.4235 42.4647 78.3839 42.4647 78.3575 42.4647C76.7065 42.2403 75.2933 42.7023 73.9726 43.7055C73.0745 44.392 72.0443 44.9332 71.0141 45.58C71.199 44.4976 71.3575 43.4943 71.5424 42.4647C70.2877 42.4647 69.0462 42.4647 67.8046 42.4647C67.0386 42.4647 66.7745 42.2139 66.7745 41.4351C66.7745 39.4682 66.7745 37.5145 66.7745 35.5477C66.7745 34.8481 67.0254 34.5973 67.7122 34.5973C71.2914 34.5973 74.8575 34.5973 78.4367 34.5973C79.1235 34.5973 79.4009 34.8613 79.4009 35.5477C79.3877 37.5409 79.3877 39.5342 79.3877 41.5275Z" fill="white"/>
<path d="M73.0211 37.7656C71.5815 37.7656 70.1551 37.7524 68.7155 37.7788C68.3853 37.7788 68.2532 37.7128 68.2796 37.3564C68.3193 36.9736 68.1608 36.472 68.3457 36.2476C68.5702 35.9835 69.0985 36.1684 69.4815 36.1684C72.0966 36.1552 74.7117 36.1684 77.3268 36.1552C77.6702 36.1552 77.8287 36.1948 77.8155 36.604C77.7891 37.7656 77.8155 37.7656 76.64 37.7656C75.4513 37.7656 74.2362 37.7656 73.0211 37.7656Z" fill="white"/>
<path d="M71.4523 40.9205C70.5278 40.9205 69.6032 40.9073 68.6787 40.9205C68.4014 40.9205 68.2957 40.8677 68.2957 40.5509C68.2825 39.2969 68.2693 39.2969 69.4976 39.2969C71.0693 39.2969 72.6542 39.3101 74.2259 39.2969C74.5297 39.2969 74.6617 39.3365 74.6617 39.6929C74.6485 40.9073 74.6617 40.9073 73.4466 40.9073C72.7863 40.9205 72.1127 40.9205 71.4523 40.9205Z" fill="white"/>
<path d="M76.9716 40.9337C76.2188 40.9337 76.2188 40.9337 76.2188 40.1945C76.2188 39.3232 76.2188 39.3232 77.0772 39.3232C77.8169 39.3232 77.8169 39.3232 77.8169 40.0757C77.8169 40.9337 77.8169 40.9337 76.9716 40.9337Z" fill="white"/>
</g>
<defs>
<clipPath id="clip0_3278_43088">
<rect width="49" height="49" fill="white" transform="translate(32 33)"/>
</clipPath>
</defs>
</svg>
